<?xml version="1.0" encoding="UTF-8" standalone="no"?>
<svg xmlns="http://www.w3.org/2000/svg" version="1.0" width="580" height="580">
 <metadata id="metadata2975"/>
 <path d="m292 43.5c-9.8-.1-19.8 3-27.7 10-7.9 7-13 18-13 30.4l0 0 0 129-192 117c-6 3.6-9.6 10-9.6 17l0 52.7c0 13.6 13.3 23.3 26.3 19l178-58 0 73-39.8 31.4c-3.6 2.8-5.7 7.2-5.7 11.8l0 41.7c0 10 9.8 17.3 19.4 14.3L293 513 360 534c9.6 3 19.4-4.2 19.4-14.3l0-41.7c0-4.6-2.1-9-5.8-11.8l-40-31.4 0-73 178 58c12.9 4.3 26-5.4 26.3-19l0-52.7c0-7-3.7-13.5-9.7-17l-195-117 0-128C332 73 327 61 319 54 311 47 301 43.6 292 43.5" id="path7852-0" shape-rendering="auto" mix-blend-mode="normal" filter-blend-mode="normal" color-interpolation-filters="linearRGB" isolation="auto" white-space="normal" opacity=".8" fill="none" solid-opacity="1" image-rendering="auto" solid-color="#000000" stroke="#ffffff" color="#000000" stroke-width="64" color-rendering="auto" filter-gaussianBlur-deviation="0" color-interpolation="sRGB"/>
 <path d="m292 43.5c-9.8-.1-19.8 3-27.7 10-7.9 7-13 18-13 30.4l0 0 0 129-192 117c-6 3.6-9.6 10-9.6 17l0 52.7c0 13.6 13.3 23.3 26.3 19l178-58 0 73-39.8 31.4c-3.6 2.8-5.7 7.2-5.7 11.8l0 41.7c0 10 9.8 17.3 19.4 14.3L293 513 360 534c9.6 3 19.4-4.2 19.4-14.3l0-41.7c0-4.6-2.1-9-5.8-11.8l-40-31.4 0-73 178 58c12.9 4.3 26-5.4 26.3-19l0-52.7c0-7-3.7-13.5-9.7-17l-195-117 0-128c0-12.4-5-23.6-12.9-30.8-7.9-7.2-17.8-10.5-27.6-10.6" id="path7852" shape-rendering="auto" mix-blend-mode="normal" color-interpolation-filters="linearRGB" isolation="auto" white-space="normal" fill="#0092da" solid-opacity="1" image-rendering="auto" solid-color="#000000" color="#000000" color-rendering="auto" color-interpolation="sRGB"/>
</svg>
