<?xml version="1.0" encoding="UTF-8" standalone="no"?>
<svg xmlns="http://www.w3.org/2000/svg" version="1.0" width="580" height="580">
 <metadata id="metadata2975"/>
 <path d="M284 36.9L39.8 167c-6.9 3.6-8.1 12.7-2.7 18 18.4 25.6 22 21.5 47 11.3l0 274c0 6.3 5.1 11.5 11.5 11.5l30.6 0c6.3 0 11.5-5.2 11.5-11.5 0-105-.2-177-.2-295l8.1-3.1 144-17 144 17.2 5.8 2.4c-.6 98-.3 197-.3 296 0 6.4 5 11.5 11.5 11.5l30.6 0c6.3 0 11.3-5.1 11.4-11.5l0-274c32 13.6 26.7 13.4 50-10.6 5.3-5.4 3.9-14.4-2.7-18L295 36.8c-3.4-1.7-7.5-1.8-10.5.1zm2.8 188c1.3 17.5 13.7 29.6 29.6 29.8 17.2-1.3 29.6-14 29.8-29.8-1.4-17-14.3-29.5-29.8-29.7-17.3 1.3-29.4 13.9-29.6 29.7zm-57.8 17.5l-44 76c-2.9 5-1.8 8.8 3.1 11.5l14 8.4c5 3 8.9 1.9 11.6-3l44-76c3-5 2-8.8-3-11.6-6.4-2.3-10.2-6.3-19.4-10-2.6 0-4.8 1.6-6.4 4.8zm34 32.7l-39.9 70c-2.5 4.4-3.8 9.9-3.5 16.4l1.4 89-30.6 66c-8.2 26.5 24.3 39 34.5 19.5l33.5-71.8c1.2-2.6 1.8-5.5 1.8-8.3l-.5-54 34 46 10 81c10.4 23 42 15.6 39-6.8l-11.8-93c-1.2-6.9-5.3-11-9.1-16.4l-30-42 29-51 14.6 18.6c1.2 1.8 2.9 3 5.4 3.9l29 14.2 0 171c1.3 13.6 12.3 13 12.3 0l0-170c14.2-8.1 12.7-25-.3-29.8L357 313 321 269c-5.1-6-12-9.5-24.4-11.4-16-.5-26 5.3-33 17z" id="path4150" mix-blend-mode="normal" solid-color="#000000" opacity=".8" color-interpolation-filters="linearRGB" filter-gaussianBlur-deviation="0" color="#000000" image-rendering="auto" color-rendering="auto" stroke-width="64" isolation="auto" color-interpolation="sRGB" solid-opacity="1" fill="none" stroke-linejoin="round" filter-blend-mode="normal" stroke="#ffffff" shape-rendering="auto"/>
 <path id="path4142" d="M284 36.9L39.8 167c-6.9 3.6-8.1 12.7-2.7 18 18.4 25.6 22 21.5 47 11.3l0 274c0 6.3 5.1 11.5 11.5 11.5l30.6 0c6.3 0 11.5-5.2 11.5-11.5 0-105-.2-177-.2-295l8.1-3.1 144-17 144 17.2 5.8 2.4c-.6 98-.3 197-.3 296 0 6.4 5 11.5 11.5 11.5l30.6 0c6.3 0 11.3-5.1 11.4-11.5l0-274c32 13.6 26.7 13.4 50-10.6 5.3-5.4 3.9-14.4-2.7-18L295 36.8c-3.4-1.7-7.5-1.8-10.5.1m2.8 188c1.3 17.5 13.7 29.6 29.6 29.8 17.2-1.3 29.6-14 29.8-29.8-1.4-17-14.3-29.5-29.8-29.7-17.3 1.3-29.4 13.9-29.6 29.7m-57.8 17.5l-44 76c-2.9 5-1.8 8.8 3.1 11.5l14 8.4c5 3 8.9 1.9 11.6-3l44-76c3-5 2-8.8-3-11.6-6.4-2.3-10.2-6.3-19.4-10-2.6 0-4.8 1.6-6.4 4.8m34 32.7l-39.9 70c-2.5 4.4-3.8 9.9-3.5 16.4l1.4 89-30.6 66c-8.2 26.5 24.3 39 34.5 19.5l33.5-71.8c1.2-2.6 1.8-5.5 1.8-8.3l-.5-54 34 46 10 81c10.4 23 42 15.6 39-6.8l-11.8-93c-1.2-6.9-5.3-11-9.1-16.4l-30-42 29-51 14.6 18.6c1.2 1.8 2.9 3 5.4 3.9l29 14.2 0 171c1.3 13.6 12.3 13 12.3 0l0-170c14.2-8.1 12.7-25-.3-29.8L357 313 321 269c-5.1-6-12-9.5-24.4-11.4-16-.5-26 5.3-33 17" fill="#0092da" fill-rule="evenodd"/>
</svg>
