<?xml version="1.0" encoding="UTF-8" standalone="no"?>
<svg xmlns="http://www.w3.org/2000/svg" version="1.0" width="580" height="580">
 <metadata id="metadata2975"/>
 <path d="M450 39L450 57.7 436 49.8 429 61.9 450 73.9 450 101 427 87 427 63 413 63 413 79 397 70 390 82 406 91 392 99 399 111 420 99 443 113 420 126 399 114 392 127 406 135 390 144 397 156 413 147 413 163 427 163 427 139 450 125 450 152 429 164 436 176 450 168 450 187 464 187 464 168 478 176 485 164 464 152 464 125 487 139 487 163 501 163 501 147 517 156 524 144 508 135 522 127 515 115 494 127 471 113 494 100 515 112 522 99 508 91 524 82 517 70 501 79 501 63 487 63 487 87 464 101 464 74 485 61.9 478 49.8 464 57.8 464 39 450 39zM280 120C278 120 277 120 275 121L70 230C64 233 63 241 68 246 83 267 86 264 107 255L107 486C107 491 112 495 117 495L143 495C148 495 152 491 152 486 152 398 152 337 152 238L159 235 280 220 401 235 406 237C406 319 406 403 406 485 406 491 410 495 416 495L441 495C446 495 451 491 451 485L451 255C478 266 473 266 493 246 497 242 496 234 491 231L284 121C283 120 281 120 280 120zM303 254C288 255 278 266 278 279 279 294 289 304 303 304 317 303 327 292 328 279 326 265 316 254 303 254zM235 290C232 290 231 291 229 294L192 358C190 362 191 365 195 367L206 374C211 377 214 376 216 372L253 308C256 304 255 301 251 298 246 296 242 293 235 290zM283 307C271 307 263 312 258 321L224 380C222 383 221 388 221 393L223 468 197 523C190 545 217 556 226 540L254 479C255 477 255 475 255 472L255 427 284 465 292 534C301 553 327 547 325 528L315 450C314 444 311 441 307 436L282 401 306 358 319 374C320 375 321 376 323 377L348 389 348 533C349 544 358 544 358 533L358 390C370 383 369 369 358 365L337 353 306 316C302 311 296 308 286 307 285 307 284 307 283 307z" id="path4164" mix-blend-mode="normal" solid-color="#000000" opacity=".8" color-interpolation-filters="linearRGB" filter-gaussianBlur-deviation="0" color="#000000" image-rendering="auto" color-rendering="auto" stroke-width="64" isolation="auto" color-interpolation="sRGB" solid-opacity="1" fill="none" stroke-linejoin="round" filter-blend-mode="normal" stroke="#ffffff" shape-rendering="auto"/>
 <path d="m450 39c0 6.2 0 12.5 0 18.7-4.7-2.6-9.3-5.3-14-7.9-2.3 4-4.7 8-7 12 7 4 14 8 21 12 0 9 0 18 0 27-7.7-4.7-15.3-9.3-23-14 0-8 0-16 0-24-4.7 0-9.3 0-14 0 0 5.3 0 10.7 0 16-5.3-3-10.7-6-16-9-2.3 4-4.7 8-7 12 5.3 3 10.7 6 16 9-4.7 2.7-9.3 5.3-14 8 2.3 4 4.7 8 7 12 7-4 14-8 21-12 7.7 4.7 15.3 9.3 23 14-7.7 4.3-15.3 8.7-23 13-7-4-14-8-21-12-2.3 4.3-4.7 8.7-7 13 4.7 2.7 9.3 5.3 14 8-5.3 3-10.7 6-16 9 2.3 4 4.7 8 7 12 5.3-3 10.7-6 16-9 0 5.3 0 10.7 0 16 4.7 0 9.3 0 14 0 0-8 0-16 0-24 7.7-4.7 15.3-9.3 23-14 0 9 0 18 0 27-7 4-14 8-21 12 2.3 4 4.7 8 7 12 4.7-2.7 9.3-5.3 14-8 0 6.3 0 12.7 0 19 4.7 0 9.3 0 14 0 0-6.3 0-12.7 0-19 4.7 2.7 9.3 5.3 14 8 2.3-4 4.7-8 7-12-7-4-14-8-21-12 0-9 0-18 0-27 7.7 4.7 15.3 9.3 23 14 0 8 0 16 0 24 4.7 0 9.3 0 14 0 0-5.3 0-10.7 0-16 5.3 3 10.7 6 16 9 2.3-4 4.7-8 7-12-5.3-3-10.7-6-16-9 4.7-2.7 9.3-5.3 14-8-2.3-4-4.7-8-7-12-7 4-14 8-21 12-7.7-4.7-15.3-9.3-23-14 7.7-4.3 15.3-8.7 23-13 7 4 14 8 21 12 2.3-4.3 4.7-8.7 7-13-4.7-2.7-9.3-5.3-14-8 5.3-3 10.7-6 16-9-2.3-4-4.7-8-7-12-5.3 3-10.7 6-16 9 0-5.3 0-10.7 0-16-4.7 0-9.3 0-14 0 0 8 0 16 0 24-7.7 4.7-15.3 9.3-23 14 0-9 0-18 0-27 7-4 14-8 21-12-2.3-4-4.7-8-7-12-4.7 2.7-9.3 5.3-14 8 0-6.3 0-12.5 0-18.8-4.7 0-9.3 0-14 0" id="rect2991" fill="#0092da"/>
 <path id="path4142" d="M275 121L70 230c-5.8 3-6.8 10.7-2.3 15 15.5 21.5 18.6 18 39.7 9.5l0 231c0 5.3 4.3 9.6 9.6 9.6l25.7 0c5.3 0 9.6-4.4 9.6-9.6 0-88-.2-148-.2-248l6.8-2.6 121-14.4 121 14.5 4.9 2c-.5 83-.2 166-.2 248 0 5.3 4.2 9.6 9.6 9.6l25.7 0c5.3 0 9.5-4.3 9.5-9.6l0-230c27 11.4 22.5 11.3 42-8.9 4.4-4.5 3.3-12-2.3-15L284 121c-2.9-1.4-6.3-1.5-8.8.1m2.4 158c1.1 14.7 11.5 24.9 24.9 25 14.5-1.1 24.9-11.9 25-25-1.2-14.3-12-24.8-25-24.9-14.6 1.1-24.7 11.7-24.9 24.9m-48.6 14.7l-37 63.9c-2.5 4.2-1.5 7.4 2.6 9.6l11.9 7.1c4.2 2.6 7.5 1.6 9.7-2.6l37-63.9c2.6-4.2 1.6-7.4-2.6-9.7-5.3-1.9-8.6-5.3-16.3-8.5-2.2 0-4 1.3-5.3 4m28.6 27.5l-33.5 58c-2.1 3.7-3.2 8.3-3 13.7l1.2 75-25.7 55c-6.9 22.3 20.4 33 29 16.4l28-60c1-2.2 1.5-4.6 1.5-7l-.4-45 28.6 38.7 8.4 68c8.7 19.4 35.4 13 32.8-5.7l-9.9-77.9c-1-5.8-4.4-9.2-7.7-13.7l-25.4-35.4 24.5-42.9 12.3 15.6c1 1.5 2.5 2.6 4.5 3.3l24.4 11.9 0 144c1.1 11.4 10.4 11 10.4 0l0-143c11.9-6.8 10.7-21-.2-25l-21-11.9-30-36.8c-4.3-5-10.2-8-20.5-9.5-13.6-.4-21.9 4.4-27.9 14.4" fill="#0092da" fill-rule="evenodd"/>
</svg>
