<?xml version="1.0" encoding="UTF-8" standalone="no"?>
<svg xmlns="http://www.w3.org/2000/svg" version="1.0" width="580" height="580">
 <metadata id="metadata2975"/>
 <path d="M226 35C226 35 225 35 224 35 186 34.6 153 76 163 114 170 144 200 169 231 164 251 162 270 150 280 133 290 129 301 136 310 129 317 125 322 111 330 114 335 117 338 126 345 124 352 121 357 106 364 118 367 122 374 128 379 122 385 113 393 110 399 120 403 126 409 125 414 120 421 112 429 105 433 96 433 87 427 83 419 77 407 64 397 68 386 68 350 66.9 312 68 280 66.9 266 46.6 250 35.4 226 35zM200 84C201 84 201 84 202 84L202 84C216 86 222 108 209 115 198 122 180 113 183 99 185 89 192 84 200 84zM289 155C288 155 287 155 286 156L98 255C93 258 92 265 96 269 110 289 113 286 132 278L132 488C132 493 136 497 141 497L165 497C169 497 173 493 173 488 173 408 173 353 173 262L179 259 290 246 400 260 405 261C404 337 404 412 404 488 404 493 408 497 413 497L437 497C441 497 445 493 445 488L445 278C470 288 466 288 484 270 488 266 487 259 482 256L294 156C292 155 291 155 289 155zM310 277C297 278 288 288 288 300 289 313 298 322 310 323 324 322 333 312 333 300 332 287 322 277 310 277zM248 310C246 310 245 311 243 313L210 371C207 375 208 378 212 380L223 387C227 389 230 388 232 384L266 326C268 322 267 319 263 317 258 315 255 312 248 310zM293 325C282 325 275 330 270 338L239 391C237 395 236 399 236 404L237 472 214 522C208 543 233 552 240 537L266 482C267 480 267 478 267 476L267 434 293 470 301 532C309 549 333 544 331 527L322 456C321 450 318 447 315 443L291 411 314 372 325 386C326 387 327 388 329 389L351 400 351 531C352 541 361 541 361 531L361 401C372 395 371 382 361 378L341 367 314 334C310 329 304 326 295 325 294 325 293 325 293 325z" id="path4165" mix-blend-mode="normal" solid-color="#000000" opacity=".8" color-interpolation-filters="linearRGB" filter-gaussianBlur-deviation="0" color="#000000" image-rendering="auto" color-rendering="auto" stroke-width="64" isolation="auto" color-interpolation="sRGB" solid-opacity="1" fill="none" stroke-linejoin="round" filter-blend-mode="normal" stroke="#ffffff" shape-rendering="auto"/>
 <path d="m224 35c-38.6-.6-71 41-61 79 6.4 30 36.9 54.6 68 49.8 19.8-1.9 38.5-13.7 49-30.5 9.4-4.4 21 2.7 29.7-4.4 6.7-4.3 11.5-17.7 19.9-15.2 4.7 3.2 8 11.9 14.8 10.4 6.9-3.2 12.6-18 19.3-6.3 3.4 4.2 10.2 10.4 14.9 4.2 5.7-9.2 13.7-12 19.7-1.4 4.3 5.6 10.3 4.4 15.7-1 6.8-7.2 14.9-14 19-23-.5-9.3-6.9-13.3-14-19.8-12-12-22.5-8.8-33.7-8.8-35-.8-73 .8-105-.8-14.5-20.9-31-32-56-31.7m-22.5 49c13.9 1.3 20 23.3 6.9 30.5-11 7-28-2.3-25.4-16 2.2-10.4 10-15.3 18.5-14.5z" id="path2307-7" fill="#0092da"/>
 <path id="path4153" d="M286 156L98 255c-5.2 2.8-6.2 9.8-2.1 13.8 14 19.6 17 16.5 36 8.7l0 210c0 4.8 3.8 8.8 8.8 8.8l23.4 0c4.8 0 8.8-3.9 8.8-8.8 0-80-.1-135-.1-226l6.2-2.5 110-13 110 13.2 4.4 1.8c-.4 75-.2 151-.2 226 0 4.8 3.8 8.8 8.8 8.8l23.4 0c4.8 0 8.7-3.9 8.8-8.8l0-210c24.7 10.4 20.5 10.2 38-8 4-4.1 3.1-11-2.1-13.8L294 156c-2.6-1.3-5.7-1.4-8 .1m2.2 144c1 13.4 10.5 22.6 22.7 22.8 13.2-1 22.6-10.8 22.8-22.8-1-13-10.9-22.6-22.8-22.8-13.3 1-22.5 10.7-22.7 22.8m-44 13.4l-33.9 58c-2.3 3.8-1.4 6.8 2.4 8.8l10.8 6.5c3.8 2.3 6.8 1.4 8.9-2.4l33.9-58c2.3-3.8 1.5-6.8-2.4-8.9-4.9-1.8-7.8-4.8-14.8-7.7-2 0-3.7 1.2-4.9 3.6m26 25l-30.6 53c-2 3.4-3 7.6-2.7 12.5l1 68-23.4 50c-6.3 20.4 18.6 30 26.4 14.9l25.6-54.9c.9-2.1 1.4-4.2 1.4-6.4l-.4-41 26 35 7.6 62c8 17.7 32 11.9 29.9-5.1l-9-71c-.9-5.2-4-8.4-7-12.5l-23-32 22.4-39 11 14.2c.9 1.4 2.3 2.4 4.1 3.1l22.3 10.8 0 131c1 10.4 9.5 10 9.5 0l0-130c10.9-6.2 9.7-19.3-.2-22.8l-19.4-10.8-27.6-33.5c-3.8-4.5-9.3-7.3-18.6-8.7-12.4-.4-20 4-25.4 13" fill="#0092da" fill-rule="evenodd"/>
</svg>
