<?xml version="1.0" encoding="UTF-8" standalone="no"?>
<svg xmlns="http://www.w3.org/2000/svg" version="1.0" width="580" height="580">
 <metadata id="metadata2975"/>
 <path id="path4209" d="m331 480c-46 7.8-93 6.4-139 1.1-51-6.4-103-1.4-154 7.2l6.2 39.5c51-8.9 103-13 155-5.9 49 5.5 99 4.5 148-3.7 58.9-7.1 119-12.9 178-7.5l2.8-39.9c-66-5.9-132 .6-197 9.2z" opacity=".8" fill="none" stroke="#ffffff" stroke-linejoin="round" stroke-width="64"/>
 <path id="path4211" d="m263 50.8c-23 4.9-37 26-48 45-12 21.3-27.9 39.6-46.7 54.8-42 65.8-48 137-39.6 207-15.6 6.4-38.9-16.7-53.6 2-13.9 22.8 5.3 47 18 66 11 21.9 30.4 27.6 53 24 54.8 2.1 110 12.5 164 3.8 61-3.9 120-21.6 153-77 20.6-24.7 57-34.8 69-67 8.3-31.8-15.6-68.8-48.9-71.8-1.2-12.8 21.4 3.9 30-4.6 31.9-7.9-8.3-31-16.8-43C450 146 403 102 354 61 336 40 328 79 334 92 336 113 325 88 321 80 305 60 290 45.8 263 50.8m33 82c-21.3 4.5-43-2.4-63-7.1 14.2-18.6 22-44.8 42-53.6 31.8.4 36 47.7 20.9 60.7zM481 265c25.6.2 38 29 20 44-9.8 8-32 30.8-40 22.7-10.9-30-20.8-67 20-67z" opacity=".8" fill="none" stroke="#ffffff" stroke-linejoin="round" stroke-width="64"/>
 <path d="m331 480c-46 7.8-93 6.4-139 1.1-51-6.4-103-1.4-154 7.2l6.2 39.5c51-8.9 103-13 155-5.9 49 5.5 99 4.5 148-3.7 58.9-7.1 119-12.9 178-7.5l2.8-39.9c-66-5.9-132 .6-197 9.2" id="path4170" fill="#734a08"/>
 <path d="m263 50.8c-23 4.9-37 26-48 45-12 21.3-27.9 39.6-46.7 54.8-42 65.8-48 137-39.6 207-15.6 6.4-38.9-16.7-53.6 2-13.9 22.8 5.3 47 18 66 11 21.9 30.4 27.6 53 24 54.8 2.1 110 12.5 164 3.8 61-3.9 120-21.6 153-77 20.6-24.7 57-34.8 69-67 8.3-31.8-15.6-68.8-48.9-71.8-1.2-12.8 21.4 3.9 30-4.6 31.9-7.9-8.3-31-16.8-43C450 146 403 102 354 61 336 40 328 79 334 92 336 113 325 88 321 80 305 60 290 45.8 263 50.8m33 82c-21.3 4.5-43-2.4-63-7.1 14.2-18.6 22-44.8 42-53.6 31.8.4 36 47.7 20.9 60.7zM481 265c25.6.2 38 29 20 44-9.8 8-32 30.8-40 22.7-10.9-30-20.8-67 20-67" id="path4168" fill="#734a08"/>
</svg>
