<?xml version="1.0" encoding="UTF-8" standalone="no"?>
<svg xmlns="http://www.w3.org/2000/svg" version="1.0" width="580" height="580">
 <metadata id="metadata2975"/>
 <path id="path4137" d="m270 101l-53 110c-48.6 7.6-97 13.9-146 22-14.3 8.6-.2 21.6 7.9 28.4l93 89c-7.6 48.6-16.4 97-23 146 3.8 16.2 20.5 7 29.5 1.3l114-61c43.7 22.4 87 46 131 68 16.6 1.5 13-17.3 10.4-27.6L410 349c34.8-34.6 71-68 105-104 6.5-15.3-12.5-17.6-23-18.3L364 209C342 166 321 122 298 78c-2-2.3-5-3.6-8.4-3.8-13 1.7-14 17.2-20 26.3z" mix-blend-mode="normal" solid-color="#000000" white-space="normal" color-interpolation-filters="linearRGB" opacity=".8" filter-gaussianBlur-deviation="0" color="#000000" image-rendering="auto" color-rendering="auto" stroke-width="64" fill-rule="evenodd" isolation="auto" color-interpolation="sRGB" solid-opacity="1" fill="none" stroke-linejoin="round" filter-blend-mode="normal" stroke="#ffffff" shape-rendering="auto"/>
 <path d="m270 101l-53 110c-48.6 7.6-97 13.9-146 22-14.3 8.6-.2 21.6 7.9 28.4l93 89c-7.6 48.6-16.4 97-23 146 3.8 16.2 20.5 7 29.5 1.3l114-61c43.7 22.4 87 46 131 68 16.6 1.5 13-17.3 10.4-27.6L410 349c34.8-34.6 71-68 105-104 6.5-15.3-12.5-17.6-23-18.3L364 209C342 166 321 122 298 78c-2-2.3-5-3.6-8.4-3.8-13 1.7-14 17.2-20 26.3" id="path4631-1" fill="#734a08" isolation="auto" color-rendering="auto" white-space="normal" solid-opacity="1" mix-blend-mode="normal" color-interpolation-filters="linearRGB" shape-rendering="auto" image-rendering="auto" color-interpolation="sRGB" color="#000000" solid-color="#000000"/>
</svg>
