<?xml version="1.0" encoding="UTF-8" standalone="no"?>
<svg xmlns="http://www.w3.org/2000/svg" version="1.0" width="580" height="580">
 <metadata id="metadata2975"/>
 <path d="m112 91c-12-.4-19.9 11.9-18 22.9.2 27-.5 54 .4 81 1.9 11.3 14 15.8 24 14.4 20.9-.2 41.8.3 62.7-.3 17.5-3.5 16.3-24.5 19.8-38-1.2-10.2 4.6-11.9 13.2-10.7 54.7-.4 109-.7 164-1.1 2.6 12.8 4.6 25.8 7.7 38.6 4.3 12.6 18.4 11.9 29 11.6 18.9-.2 37.9.5 56.7-.4 11.3-1.9 15.8-14 14.4-24-.2-26.4.5-53-.4-79C484 94 472 90 462 91c-117 0-233 0-350 0" id="rect7186" opacity=".5" fill="#734a08"/>
 <path id="path3163-3-2" d="m187 159c-1.4 8.4-79 339-79 339l364-3.1-79-337-206 1.4" fill="#ffffff"/>
 <path id="path3163-3" d="m187 159c-1.4 8.4-79 339-79 339l364-3.1-79-337-206 1.4" fill="#734a08" opacity=".1"/>
 <path d="m393 146c-69 .6-201-.6-208 1.5-7.9 2.1-7.9 8.8-13.5 29.4-24.5 107-49.9 213-74 320-.5 9.6 10 13.3 17.9 11.7 120-1.1 239-1.9 359-3.1 10-.9 12-12.5 8.4-20-26-111-51.7-222-78-333-1.8-4-6.1-6.7-10.5-6.7m-9 22.9l74 314-335 2.8c24.6-105 49-210 73-316l188-1.3" id="path3163" fill="#734a08"/>
 <path d="m290 194c-9.9-.1-18 9.4-16.9 19-19.7 3-37.7 16.2-44.6 35-8.8 22.9-3.9 52.6 17.2 67 8.2 6.1 17.7 10 27.4 13l0 83C255 405 248 385 246 368l-26 4.6c5.8 37.9 21.9 51 53 63 .5 9.5-2.4 21 6.3 27.8 10 9 27.9 1.2 28-12.3.1-5.4 0-10.9 0-16.3 24.3-2.8 44.9-21.9 50.9-45.5 6.2-22.9.7-50.9-20-64.9-9.2-6.6-19.9-10.7-30.9-13.4l0-75c12.6 5.4 19 18.8 20.9 31.7l27-3.9c-2.4-20.5-15-40.6-35-47.6-13.5-5.4-13.9-3.6-14-5.1-.6-15.4-9.4-17.7-16.3-17.5m-16.9 42l0 65.9c-12.6-5.2-22.9-17-22.5-31-1.1-14.9 8.4-29.6 22.5-34.8m34 101c12.8 4.4 24.8 14.5 25.9 28.7 3.1 17.6-9.4 39-26 46l.3-10.4z" id="path4370" fill="#734a08"/>
</svg>
