<?xml version="1.0" encoding="UTF-8" standalone="no"?>
<svg xmlns="http://www.w3.org/2000/svg" width="580" height="580" version="1.0">
 <metadata id="metadata7"/>
 <path id="path4171" d="m72 148l0 96 72 0 0 48-96 0 0 57 29.7 14.3 24.9 0C98 371 96 380 96 388c0 26.5 21.5 48 48 48 26.5 0 48-21.5 48-48 0-8.5-2.3-16.9-6.6-24 70 .1 139 .1 209 0-4.3 7.3-6.6 15.7-6.6 24 0 26.5 21.5 48 48 48 26.5 0 48-21.5 48-48 0-8.5-2.3-16.9-6.6-24.3l24.9 0 29.7-14.3 0-57-96 0 0-48 72 0 0-96c-145 0-290 0-435 0zm96 96c81 0 162 0 243 0l0 48C330 292 249 292 168 292" opacity=".8" fill="none" stroke="#ffffff" stroke-linejoin="round" stroke-width="64"/>
 <path d="m72 148l0 96 72 0 0 48-96 0 0 57 29.7 14.3 24.9 0C98 371 96 380 96 388c0 26.5 21.5 48 48 48 26.5 0 48-21.5 48-48 0-8.5-2.3-16.9-6.6-24 70 .1 139 .1 209 0-4.3 7.3-6.6 15.7-6.6 24 0 26.5 21.5 48 48 48 26.5 0 48-21.5 48-48 0-8.5-2.3-16.9-6.6-24.3l24.9 0 29.7-14.3 0-57-96 0 0-48 72 0 0-96c-145 0-290 0-435 0m96 96c81 0 162 0 243 0l0 48C330 292 249 292 168 292" id="path4166" fill="#734a08"/>
</svg>
