<?xml version="1.0" encoding="UTF-8" standalone="no"?>
<svg xmlns="http://www.w3.org/2000/svg" version="1.0" width="580" height="580">
 <metadata id="metadata2975"/>
 <path d="m154 34c-4.3-.1-7.7 3.3-7.7 7.6l0 99c-20.6 9-52 24.5-50.8 48.7l0 323c3 30.8 55 32.8 77 33 25.5-1.6 80-1.9 80-33l0-324C252 166 215 148 199 141l0-99c0-4.2-3.4-7.6-7.6-7.7zM420 288c-26.8-.2-51 3.2-68.8 7.8 0 0 0 0 0 0 0 0 0 0 0 0-3.1 40 20.7 105 53.7 117l0 88c-30 1.9-51.9 11.3-51.9 22.3 0 12.5 28 22.7 63 22.7 34.8 0 63-10 63-22.7 0-10.8-21.4-20-51-22l0-87c28.9-11.5 60-94 56-118-20.8-7-43-8.3-63.8-8.4z" id="path4149" opacity=".8" fill="none" stroke="#ffffff" stroke-linejoin="round" stroke-linecap="round" stroke-width="64"/>
 <path d="m484 296c-48-12.6-102-8.3-133-.1 20.3 18.7 94 19.9 133 .1" id="path3840-8" opacity=".8" fill="#ac39ac"/>
 <path white-space="normal" isolation="auto" mix-blend-mode="normal" d="m146 41.6l0 99c-20.6 9-52 24.5-50.8 48.7l0 323c3 30.8 55 32.8 77 33 25.5-1.6 80-1.9 80-33l0-324c-.9-22.4-37.9-40.5-54-47l0-99c0-4.2-3.4-7.6-7.6-7.7l-36.8-.1c-4.3-.1-7.7 3.3-7.7 7.6" id="rect3771" fill="#ac39ac" color-rendering="auto" solid-opacity="1" color-interpolation-filters="linearRGB" shape-rendering="auto" image-rendering="auto" color-interpolation="sRGB" color="#000000" solid-color="#000000"/>
 <path white-space="normal" isolation="auto" mix-blend-mode="normal" d="m405 413l0 88c-30 1.9-51.9 11.3-51.9 22.3 0 12.5 28 22.7 63 22.7 34.8 0 63-10 63-22.7 0-10.8-21.4-20-51-22l0-87c28.9-11.5 58-81 56-118-36.8 12-76 20-133 0-3.1 40 20.7 105 53.7 117" id="path3845" fill="#ac39ac" color-rendering="auto" solid-opacity="1" color-interpolation-filters="linearRGB" shape-rendering="auto" image-rendering="auto" color-interpolation="sRGB" color="#000000" solid-color="#000000"/>
</svg>
