<?xml version="1.0" encoding="UTF-8" standalone="no"?>
<svg xmlns="http://www.w3.org/2000/svg" version="1.0" width="580" height="580">
 <metadata id="metadata10"/>
 <path id="path4161" d="M258 42.5C251 42 243 42.5 236 42.7 192 44 147 45.9 106 63c-11 11-5 27-6 41l4 316c-12.5 14.8-26 32.6-22.6 53 7.1 35 44.7 51 76 60 55.9 14 116 13.4 172 .7 32.9-8.6 72-22.8 83-58 1.3-28-7.8-31.9-18.9-53 .3-35.4-1.8-41 13.6-39.9 19.9-3.1 40.6-2.7 59.8-8.5 16.5-6.5 21.4-24 22-40L510 144c-1-23-25-39-47-33-23 0-46 1-69 2-1-15 2-32-2-46-17-18-41-15.4-68-20.3-21.8-2.9-44-4.1-66-4.2zM466 146c2.7.8 5.6 1.3 8 3 4.1 14-1.6 28.9-2.1 43-5.6 48.8-11.6 98-17 146-9.2 6.8-22.4 4.7-33.4 7.3L392 350 393 149" mix-blend-mode="normal" solid-color="#000000" opacity=".8" white-space="normal" color-interpolation-filters="linearRGB" color="#000000" image-rendering="auto" color-rendering="auto" stroke-width="64" isolation="auto" color-interpolation="sRGB" solid-opacity="1" fill="none" stroke-linejoin="round" stroke="#ffffff" shape-rendering="auto"/>
 <path d="M258 42.5C251 42 243 42.5 236 42.7 192 44 147 45.9 106 63c-11 11-5 27-6 41l4 316c-12.5 14.8-26 32.6-22.6 53 7.1 35 44.7 51 76 60 55.9 14 116 13.4 172 .7 32.9-8.6 72-22.8 83-58 1.3-28-7.8-31.9-18.9-53 .3-35.4-1.8-41 13.6-39.9 19.9-3.1 40.6-2.7 59.8-8.5 16.5-6.5 21.4-24 22-40L510 144c-1-23-25-39-47-33-23 0-46 1-69 2-1-15 2-32-2-46-17-18-41-15.4-68-20.3-21.8-2.9-44-4.1-66-4.2M466 146c2.7.8 5.6 1.3 8 3 4.1 14-1.6 28.9-2.1 43-5.6 48.8-11.6 98-17 146-9.2 6.8-22.4 4.7-33.4 7.3L392 350 393 149" id="path4146" fill="#734a08" isolation="auto" color-rendering="auto" white-space="normal" solid-opacity="1" mix-blend-mode="normal" color-interpolation-filters="linearRGB" shape-rendering="auto" image-rendering="auto" color-interpolation="sRGB" color="#000000" solid-color="#000000"/>
 <path d="m350 121c-92 .4-144 50-214 10.3L139 430c23 20 54 27 83 29 46 1 96-3 135-31l1.8-306c-3-.1-6-.1-9-.1" id="path4156" opacity=".9" fill="#ffffff" isolation="auto" color-rendering="auto" white-space="normal" solid-opacity="1" mix-blend-mode="normal" color-interpolation-filters="linearRGB" shape-rendering="auto" image-rendering="auto" color-interpolation="sRGB" color="#000000" solid-color="#000000"/>
 <path d="M241 78C205 78 169 81 135 90l.5 41.8c73 41 126-13.3 223-10.2L359 89c-18-4-36-7-54-9-21.4-1.1-42.9-2-64-1.8" id="path2209" opacity=".5" fill="#ffffff"/>
 <path d="M373 454C350 472 322 480 293 485 236 493 170 494 122 455 104 479 144 491 161 497 212 512 268 511 320 499 341 493 369 488 378 466 378 462 376 458 373 454" id="path2381" opacity=".9" fill="#ffffff"/>
</svg>
