<?xml version="1.0" encoding="UTF-8" standalone="no"?>
<svg xmlns="http://www.w3.org/2000/svg" version="1.0" width="580" height="580">
 <metadata id="metadata10"/>
 <path id="path4154" d="m376 140c-9 0-18.2.8-25.8.8l-1.6 22 36 .1c15.7 3.2-8.7 10.7-11 19-1.6 9.4 2.4 17.9 4.4 25.6l-164 .8-9.7-23.7c10.4-2.4 35.8-8.4 39-11.8 4.1-3.8 0-9.4-3.2-9.4l-85 0c1.1 18.8 15.8 22.9 23.8 24l9.4 23c-10.7 20-21 37-31 56-83-24-122 38.6-123 84 0 50 40 90 90 90 46.6 0 85-35.7 90-81l21.5 0c2.4 4.4 6.4 8 11.3 10.3l-9 21L222 391c-9 1.2-6.7 12.4.1 12.5l36-.3c9.2-1.1 6.8-12.5-.1-12.5l-10.3.1 7.9-18.4c23 1.9 31.7-15.6 29-27.5l112-76c1 3.4 1.9 6.7 2.9 9.9-20.5 16.5-33.7 41.8-33.7 70 0 50 40 90 90 90 50 0 90-40 90-90-3-57-47.9-104-124-83-10-23.9-21.9-61-22.9-75 1.7-9.7 16-10.5 18.4-23-1.7-23.9-21.3-27.7-41-27.6zM383 228c1.8 6.3 3.7 13 5.8 20l-.1 0c-37.6 26.9-75 53.9-114 79l7.7-17.6c7.2-.2 6.6-.1 15-.6 9.2-1.7 6-12.4.1-12.4l-36 .3c-9.2 1.1-6.8 12.5.1 12.5l10.3-.1-7.7 17.9c-.7-.2-1.5-.3-2.2-.4l-39.9-98c37 0 104-.2 161-.2zm-184 7l40 99c-1.4 1.4-2.6 3-3.6 4.7l-22 0C210 313 196 291 176 277l22.8-42zm259 48.7c36 .2 60 33.8 61 64.9.1 35.7-28.6 64-63.9 64L455 413c-58.8-3.1-81-59-48-107 4.2 15.2 11 31.5 22 41.6l.1.1.1.1c32.5 29.6 53 5.1 15.3-18.2-8-11.2-12.5-25-16.8-39 10.6-4.9 20.5-7 29.8-6.9zm-335 3.1c7.2 0 14.8 1.1 23 3.3l-29 53.9c-3.7 6.8 1.3 15 9 15l62.8 0c-4.3 31.5-31 56-63.8 56-35.7 0-64-28.6-64-64-.1-35 23.4-64 62-64zm40.7 13.4c12.3 9.5 21 23.3 23.9 39l-44.9 0 21-39z" mix-blend-mode="normal" solid-color="#000000" opacity=".8" color-interpolation-filters="linearRGB" color="#000000" image-rendering="auto" color-rendering="auto" stroke-width="64" isolation="auto" color-interpolation="sRGB" solid-opacity="1" fill="none" stroke-linejoin="round" stroke="#ffffff" shape-rendering="auto"/>
 <path d="M376 140C367 140 358 141 351 141L349 163 385 163C401 166 376 174 374 182 372 191 376 200 378 208L214 209 205 185C215 182 240 176 244 173 248 169 244 164 241 164L156 164C157 182 171 186 179 188L189 211C178 231 168 248 158 267 75 243 35.7 305 34.7 351 34.7 401 75 441 125 441 171 441 210 405 215 360L236 360C239 364 243 368 248 370L239 391 222 391C213 392 216 403 222 404L258 403C268 402 265 391 258 391L248 391 256 372C279 374 288 357 285 345L397 269C398 272 399 276 400 279 379 295 366 321 366 349 366 399 406 439 456 439 506 439 546 399 546 349 543 292 498 245 422 266 412 242 400 205 399 191 401 181 415 180 418 168 416 144 396 140 376 140M384 228C386 234 388 241 390 248L390 248C352 275 315 302 276 327L283 309C291 309 290 309 299 308 308 307 304 296 299 296L263 296C253 297 256 309 263 309L273 309 265 327C265 326 264 326 263 326L223 228C260 228 327 228 384 228M200 235L240 334C239 335 237 337 236 339L214 339C211 313 197 291 177 277L200 235M458 284C495 284 519 318 520 349 520 384 491 413 456 413L456 413C397 410 375 354 408 306 412 321 419 337 430 348L430 348 430 348C463 377 483 353 446 330 438 318 433 305 429 291 439 286 449 284 458 284M123 287C130 287 138 288 146 290L117 344C113 351 118 359 126 359L189 359C185 391 158 415 125 415 89 415 61 386 61 351 60.9 316 84 287 123 287M164 300C176 310 185 323 188 339L143 339 164 300" id="path596-0" fill="#ac39ac"/>
</svg>
