<?xml version="1.0" encoding="UTF-8" standalone="no"?>
<svg xmlns="http://www.w3.org/2000/svg" version="1.0" width="580" height="580">
 <metadata id="metadata10"/>
 <path d="M204 46.6C203 46.6 202 46.6 201 46.6 153 45.8 113 98 125 145 133 182 171 213 210 207 235 204 258 190 271 169 283 163 297 172 308 163 316 158 322 141 333 144 339 148 343 159 351 157 360 153 367 135 375 149 379 155 388 162 394 155 401 143 411 139 418 153 424 160 431 158 438 152 446 143 456 134 462 123 461 111 453 106 444 98 429 83 416 87 402 87 358 86 311 88 271 86 254 60.8 233 46.9 204 46.6zM171 108C172 108 172 108 173 108L173 108C190 109 198 137 182 146 168 154 147 143 150 126 153 114 161 107 171 108zM376 236C367 236 358 237 350 237L349 259 385 259C400 262 376 270 374 278 372 287 376 296 378 304L214 304 204 281C215 278 240 272 243 269 247 265 243 259 240 259L155 259C156 278 171 282 179 283L188 306C178 326 167 343 157 362 74 338 35 401 34 446 34 496 74 536 124 536 171 536 209 501 214 455L236 455C238 460 242 463 247 466L238 487 222 487C213 488 215 499 222 499L258 499C267 498 265 487 258 487L248 487 256 468C279 470 287 453 285 441L397 365C398 368 398 371 399 375 379 391 366 416 366 445 366 495 406 535 456 535 506 535 546 495 546 445 543 388 498 341 422 362 412 338 400 301 399 287 401 277 415 276 417 264 415 240 396 236 376 236zM384 324C386 330 388 337 390 344L390 344C352 371 314 398 275 423L283 405C290 405 290 405 298 404 307 403 304 392 298 392L262 392C253 393 255 405 262 405L273 405 265 422C264 422 263 422 263 422L223 324C260 324 327 324 384 324zM199 331L240 430C238 431 237 433 236 435L214 435C211 409 197 387 177 373L199 331zM458 379L458 379C494 380 519 413 519 444 519 480 491 508 455 508L456 509C397 506 375 450 408 402 412 417 419 433 430 443L430 444 430 444C462 473 483 449 445 425 437 414 433 400 428 386 439 382 449 379 458 379zM123 383C130 383 137 384 146 386L117 440C113 447 118 455 126 455L188 455C184 486 157 511 125 511 89 511 61 482 61 447 61 412 84 382 123 383zM163 396C176 406 184 419 187 435L142 435 163 396z" id="path4141" mix-blend-mode="normal" solid-color="#000000" opacity=".8" color-interpolation-filters="linearRGB" filter-gaussianBlur-deviation="0" color="#000000" image-rendering="auto" color-rendering="auto" stroke-width="64" isolation="auto" color-interpolation="sRGB" solid-opacity="1" fill="none" stroke-linejoin="round" filter-blend-mode="normal" stroke="#ffffff" shape-rendering="auto"/>
 <path d="m376 236c-9 0-18.2.8-25.8.8l-1.6 22 36 .1c15.7 3.2-8.7 10.7-11 19-1.6 9.4 2.4 17.9 4.4 25.6l-164 .8-9.7-23.7c10.4-2.4 35.8-8.4 39-11.8 4.1-3.8 0-9.4-3.2-9.4l-85 0c1.1 18.8 15.8 22.9 23.8 24l9.4 23c-10.7 20-21 37-31 56-83-24-122 38.6-123 84 0 50 40 90 90 90 46.6 0 85-35.7 90-81l21.5 0c2.4 4.4 6.4 8 11.3 10.3l-9 21-16.2.1c-9 1.2-6.7 12.4.1 12.5l36-.3c9.2-1.1 6.8-12.5-.1-12.5l-10.3.1 7.9-18.4c23 1.9 31.7-15.6 29-27.5l112-76c1 3.4 1.9 6.7 2.9 9.9-20.5 16.5-33.7 41.8-33.7 70 0 50 40 90 90 90 50 0 90-40 90-90-3-57-47.9-104-124-83-10-23.9-21.9-61-22.9-75 1.7-9.7 16-10.5 18.4-23-1.7-23.9-21.3-27.7-41-27.6m7.8 88c1.8 6.3 3.7 13 5.8 20l-.1 0c-37.6 26.9-75 53.9-114 79l7.7-17.6c7.2-.2 6.6-.1 15-.6 9.2-1.7 6-12.4.1-12.4l-36 .3c-9.2 1.1-6.8 12.5.1 12.5l10.3-.1-7.7 17.9c-.7-.2-1.5-.3-2.2-.4l-39.9-98c37 0 104-.2 161-.2m-184 7l40 99c-1.4 1.4-2.6 3-3.6 4.7l-22 0c-3.4-25.7-17.4-47.7-37-61.7l22.8-42m259 48.7c36 .2 60 33.8 61 64.9.1 35.7-28.6 64-63.9 64l.2.4c-58.8-3.1-81-59-48-107 4.2 15.2 11 31.5 22 41.6l.1.1.1.1c32.5 29.6 53 5.1 15.3-18.2-8-11.2-12.5-25-16.8-39 10.6-4.9 20.5-7 29.8-6.9m-335 3.1c7.2 0 14.8 1.1 23 3.3l-29 53.9c-3.7 6.8 1.3 15 9 15l62.8 0c-4.3 31.5-31 56-63.8 56-35.7 0-64-28.6-64-64-.1-35 23.4-64 62-64m40.7 13.4c12.3 9.5 21 23.3 23.9 39l-44.9 0 21-39" id="path596-0" fill="#0092da"/>
 <path d="m201 46.6c-48-.8-88 51-76 98 8 37.5 45.9 68 85 62 24.7-2.4 47.9-17 61-38 11.7-5.5 26.3 3.4 37-5.5 8.4-5.3 14.3-22 24.8-18.9 5.9 4 10 14.8 18.4 13 8.6-4 15.7-22.6 24-7.9 4.2 5.2 12.7 13 18.6 5.2 7.1-11.5 17-15 24.5-1.8 5.4 7 12.8 5.5 19.5-1.2 8.5-8.9 18.6-17.6 23.8-28.9C461 111 453 106 444 98 429 83 416 87 402 87 358 86 311 88 271 86 253 60 232 46 201 46.6m-28 61c17.3 1.6 24.9 29 8.6 38-13.7 8.7-35-2.8-31.6-19.9 2.8-13 12.6-19 23-18z" id="path2307" fill="#0092da"/>
</svg>
