<?xml version="1.0" encoding="UTF-8" standalone="no"?>
<svg xmlns="http://www.w3.org/2000/svg" version="1.0" width="580" height="580">
 <metadata id="metadata2975"/>
 <path d="m114 156c-5.1.2-9.4 2.6-12.4 6.1-4 4.7-5.9 11.2-5.9 17.3l0 208c0 12.6 10.3 22.9 23 22.9l97 0c12.6 0 22.9-10.3 22.9-22.9l0-.1 0-.1-6.4-176 0 .1c0-6-1.5-11.2-5-15.4-3.5-4.2-8.9-7.1-16.3-9.6l0 0-92-30-.1 0c-1.8-.5-3.6-.7-5.3-.6z" id="path6056-0" mix-blend-mode="normal" solid-color="#000000" opacity=".8" color-interpolation-filters="linearRGB" filter-gaussianBlur-deviation="0" color="#000000" image-rendering="auto" color-rendering="auto" stroke-width="64" isolation="auto" color-interpolation="sRGB" solid-opacity="1" fill="none" filter-blend-mode="normal" stroke="#ffffff" shape-rendering="auto"/>
 <path d="m359 217c-12.6 0-22.9 10.2-22.9 22.8l-11.6 149 0 .1c0 12.6 10.3 22.9 22.9 22.9l0 0 97-.8c12.6 0 22.9-10.3 22.9-22.9l0 0 0 0-1.6-142c0-12.6-10.3-22.9-22.8-22.9l-84-6-.1 0z" id="path6058-0" mix-blend-mode="normal" solid-color="#000000" opacity=".8" color-interpolation-filters="linearRGB" filter-gaussianBlur-deviation="0" color="#000000" image-rendering="auto" color-rendering="auto" stroke-width="64" isolation="auto" color-interpolation="sRGB" solid-opacity="1" fill="none" filter-blend-mode="normal" stroke="#ffffff" shape-rendering="auto"/>
 <path d="M114 156C109 157 105 159 102 163 98 167 96 174 96 180L96 388C96 401 106 411 119 411L216 411C229 411 239 401 239 388L239 388 239 388 233 212 233 212C233 206 231 201 228 197 224 193 219 190 212 187L212 187 120 157 120 157C118 157 116 156 114 156" id="path6056" fill="#666666"/>
 <path d="M359 217C347 217 337 227 336 240L325 389 325 389C325 401 335 412 348 412L348 412 445 411C458 411 468 401 468 388L468 388 468 388 467 246C467 233 456 223 444 223L360 217 359 217z" id="path6058" fill="#666666" stroke="#666666" stroke-width="5.2"/>
</svg>
