<?xml version="1.0" encoding="UTF-8" standalone="no"?>
<svg xmlns="http://www.w3.org/2000/svg" version="1.0" width="580" height="580">
 <metadata id="metadata10"/>
 <g id="g4189" transform="matrix(0.94106599,0,0,0.94157117,8.4659545,20.415463)">
  <g id="g4183">
   <path d="m513.48633 273.09375a27.345235 27.345235 0 0 0 -7.32227 .71094L216 338a27.345235 27.345235 0 1 0 11.80078 53.39648l291-64a27.345235 27.345235 0 0 0 -4.47656 -54.10742z" id="path3732-7" shape-rendering="auto" mix-blend-mode="normal" color-interpolation-filters="linearRGB" isolation="auto" white-space="normal" opacity=".8" fill="none" solid-opacity="1" image-rendering="auto" solid-color="#000000" stroke="#ffffff" color="#000000" stroke-width="68" color-rendering="auto" color-interpolation="sRGB"/>
   <path d="m484 371c-6.8 0-13 2.6-17.9 7.4-4.8 4.8-7.5 11-7.5 17.9l0 133c0 6.8 2.6 13 7.5 17.9 4.8 4.8 11 7.4 17.9 7.4l40.8 0c6.8 0 13-2.6 17.9-7.4 4.8-4.8 7.5-11 7.5-17.9l0 0 0-133 0 0c0-6.8-2.6-13-7.5-17.9-4.8-4.8-11-7.4-17.9-7.4l-40.8 0 0 0z" id="rect3827-1" shape-rendering="auto" mix-blend-mode="normal" color-interpolation-filters="linearRGB" isolation="auto" white-space="normal" opacity=".8" fill="none" solid-opacity="1" image-rendering="auto" solid-color="#000000" stroke="#ffffff" color="#000000" stroke-width="68" color-rendering="auto" color-interpolation="sRGB"/>
   <path d="m188 256c-8.5 0-16.3 3.2-22.3 9.2-6 6-9.3 13.8-9.3 22.4l0 0 0 239c0 8.5 3.3 16.4 9.3 22.4 6 6 13.9 9.2 22.3 9.2l35 0c8.5 0 16.3-3.2 22.3-9.2 6-6 9.3-13.8 9.3-22.4 0-110 0-142 0-239l0 0c0-8.5-3.3-16.4-9.3-22.4-6-6-13.9-9.2-22.3-9.2z" id="rect3925-1" shape-rendering="auto" mix-blend-mode="normal" color-interpolation-filters="linearRGB" isolation="auto" white-space="normal" opacity=".8" fill="none" solid-opacity="1" image-rendering="auto" solid-color="#000000" stroke="#ffffff" color="#000000" stroke-width="68" color-rendering="auto" color-interpolation="sRGB"/>
   <path d="m51.9 15c-1.8 0-3.4 1.6-3.4 3.4l0 319c0 1.8 1.6 3.4 3.4 3.4l10 0c1.8 0 3.4-1.6 3.4-3.4l0-137c.1.1.2.2.4.3 3.6 3.1 8.3 6 13.5 8.5 10.4 5.1 22.4 8.7 31 8.7 11.3 0 24.6-4.4 37.5-8.6 13-4.2 25.6-8.3 34-8.3 8.4 0 18.5 4 29 8.2 10.9 4.3 22.5 8.7 34.7 8.7 23.9 0 51-13.5 51-13.5 1.1-.6 1.9-1.8 1.9-3.1l0-177c0-1.2-.6-2.3-1.6-2.9-1-.6-2.3-.7-3.3-.1 0 0-26 12.8-47 12.8-10.4 0-21.4-4-32-8.2-10.8-4.2-21.4-8.7-31.8-8.7-10.4 0-23 4.4-36 8.6-12.9 4.2-26 8.3-35.4 8.3-9.4 0-21.4-4.1-30.8-8.3C73 22.4 68 19.6 65 18 65 16.5 64 15 61.9 15l-10 0z" id="path15140-1" mix-blend-mode="normal" solid-color="#000000" opacity=".8" color-interpolation-filters="linearRGB" color="#000000" image-rendering="auto" color-rendering="auto" stroke-width="68" isolation="auto" color-interpolation="sRGB" solid-opacity="1" fill="none" stroke="#ffffff" shape-rendering="auto"/>
  </g>
  <path id="path3732" d="m513.48633 273.09375a27.345235 27.345235 0 0 0 -7.32227 .71094L216 338a27.345235 27.345235 0 1 0 11.80078 53.39648l291-64a27.345235 27.345235 0 0 0 -4.47656 -54.10742" shape-rendering="auto" mix-blend-mode="normal" color-interpolation-filters="linearRGB" isolation="auto" white-space="normal" fill="#666666" solid-opacity="1" image-rendering="auto" solid-color="#000000" color="#000000" color-rendering="auto" color-interpolation="sRGB"/>
  <path id="rect3827" d="m484 371c-6.8 0-13 2.6-17.9 7.4-4.8 4.8-7.5 11-7.5 17.9l0 133c0 6.8 2.6 13 7.5 17.9 4.8 4.8 11 7.4 17.9 7.4l40.8 0c6.8 0 13-2.6 17.9-7.4 4.8-4.8 7.5-11 7.5-17.9l0 0 0-133 0 0c0-6.8-2.6-13-7.5-17.9-4.8-4.8-11-7.4-17.9-7.4l-40.8 0 0 0" shape-rendering="auto" mix-blend-mode="normal" color-interpolation-filters="linearRGB" isolation="auto" white-space="normal" opacity=".8" fill="#666666" solid-opacity="1" image-rendering="auto" solid-color="#000000" color="#000000" color-rendering="auto" color-interpolation="sRGB"/>
  <path id="rect3925" d="m188 256c-8.5 0-16.3 3.2-22.3 9.2-6 6-9.3 13.8-9.3 22.4l0 0 0 239c0 8.5 3.3 16.4 9.3 22.4 6 6 13.9 9.2 22.3 9.2l35 0c8.5 0 16.3-3.2 22.3-9.2 6-6 9.3-13.8 9.3-22.4 0-110 0-142 0-239l0 0c0-8.5-3.3-16.4-9.3-22.4-6-6-13.9-9.2-22.3-9.2z" shape-rendering="auto" mix-blend-mode="normal" color-interpolation-filters="linearRGB" isolation="auto" white-space="normal" opacity=".8" fill="#666666" solid-opacity="1" image-rendering="auto" solid-color="#000000" color="#000000" color-rendering="auto" color-interpolation="sRGB"/>
  <path id="path15140" d="m51.9 15c-1.8 0-3.4 1.6-3.4 3.4l0 319c0 1.8 1.6 3.4 3.4 3.4l10 0c1.8 0 3.4-1.6 3.4-3.4l0-137c.1.1.2.2.4.3 3.6 3.1 8.3 6 13.5 8.5 10.4 5.1 22.4 8.7 31 8.7 11.3 0 24.6-4.4 37.5-8.6 13-4.2 25.6-8.3 34-8.3 8.4 0 18.5 4 29 8.2 10.9 4.3 22.5 8.7 34.7 8.7 23.9 0 51-13.5 51-13.5 1.1-.6 1.9-1.8 1.9-3.1l0-177c0-1.2-.6-2.3-1.6-2.9-1-.6-2.3-.7-3.3-.1 0 0-26 12.8-47 12.8-10.4 0-21.4-4-32-8.2-10.8-4.2-21.4-8.7-31.8-8.7-10.4 0-23 4.4-36 8.6-12.9 4.2-26 8.3-35.4 8.3-9.4 0-21.4-4.1-30.8-8.3C73 22.4 68 19.6 65 18 65 16.5 64 15 61.9 15l-10 0" fill="#666666" color="#000000"/>
 </g>
</svg>
