<?xml version="1.0" encoding="UTF-8" standalone="no"?>
<svg xmlns="http://www.w3.org/2000/svg" version="1.0" width="580" height="580">
 <metadata id="metadata2975"/>
 <path id="path4142" d="M56 210C55.9 235 55 261 56 287 131 373 208 458 284 544c13.7 4.7 7.2-16 8.5-24.3L292 444c-9-14.6-22.7-26.4-33.5-39.9 0 0-190-218-193-219-11.3-4.9-8.9 20.3-9 24.8zM298 31c-79 44.8-155 83-228 126-4.9 5 9 15.9 15 23L299 423c9.5 3.4 18-7.5 26.9-10.8L524 298c6.6-8.9-6.2-16.7-12.4-23.4L302 32.7c-1.2-1.2-2-2.1-4-1.7z" mix-blend-mode="normal" solid-color="#000000" white-space="normal" color-interpolation-filters="linearRGB" opacity=".8" filter-gaussianBlur-deviation="0" color="#000000" image-rendering="auto" color-rendering="auto" fill-rule="evenodd" stroke-width="64" isolation="auto" color-interpolation="sRGB" solid-opacity="1" fill="none" stroke-linejoin="round" filter-blend-mode="normal" stroke="#ffffff" shape-rendering="auto"/>
 <path id="path4144" d="m501 409c-64 37.6-128 75-192 113-5.8 4.6-4.7 17 3.8 18 6.5-.1 11.3-5.4 17-8 64.8-38 130-75.9 195-114 6.1-4.8 4.8-18.7-4.6-18.4-6.6 1.3-12 6.4-18.3 9.4zm18-49c-6.8 1.6-12.3 6.6-18.5 9.7-64 37.5-128 74.9-192 112-5.8 4.6-4.7 17 3.8 18 6.5-.1 11.3-5.4 17-8 64.8-38 130-75.9 195-114 6.1-4.8 4.8-18.7-4.8-18zm0-40c-6.4 2-149 86-211 122-5.8 4.6-4.7 17 3.8 18 6.5-.1 11.3-5.4 17-8 64.8-38 130-75.9 195-114 6.1-4.8 4.8-18.7-4.8-18z" mix-blend-mode="normal" solid-color="#000000" opacity=".8" white-space="normal" color-interpolation-filters="linearRGB" filter-gaussianBlur-deviation="0" color="#000000" image-rendering="auto" color-rendering="auto" fill-rule="evenodd" stroke-width="64" isolation="auto" color-interpolation="sRGB" solid-opacity="1" fill="none" stroke-linejoin="round" filter-blend-mode="normal" stroke="#ffffff" shape-rendering="auto"/>
 <path d="M56 210C55.9 235 55 261 56 287 131 373 208 458 284 544c13.7 4.7 7.2-16 8.5-24.3L292 444c-9-14.6-22.7-26.4-33.5-39.9 0 0-190-218-193-219-11.3-4.9-8.9 20.3-9 24.8M298 31c-79 44.8-155 83-228 126-4.9 5 9 15.9 15 23L299 423c9.5 3.4 18-7.5 26.9-10.8L524 298c6.6-8.9-6.2-16.7-12.4-23.4L302 32.7c-1.2-1.2-2-2.1-4-1.7" id="path3474" fill="#ac39ac" isolation="auto" color-rendering="auto" white-space="normal" solid-opacity="1" mix-blend-mode="normal" color-interpolation-filters="linearRGB" shape-rendering="auto" fill-rule="evenodd" image-rendering="auto" color-interpolation="sRGB" color="#000000" solid-color="#000000"/>
 <path d="m501 409c-64 37.6-128 75-192 113-5.8 4.6-4.7 17 3.8 18 6.5-.1 11.3-5.4 17-8 64.8-38 130-75.9 195-114 6.1-4.8 4.8-18.7-4.6-18.4-6.6 1.3-12 6.4-18.3 9.4m18-49c-6.8 1.6-12.3 6.6-18.5 9.7-64 37.5-128 74.9-192 112-5.8 4.6-4.7 17 3.8 18 6.5-.1 11.3-5.4 17-8 64.8-38 130-75.9 195-114 6.1-4.8 4.8-18.7-4.8-18m0-40c-6.4 2-149 86-211 122-5.8 4.6-4.7 17 3.8 18 6.5-.1 11.3-5.4 17-8 64.8-38 130-75.9 195-114 6.1-4.8 4.8-18.7-4.8-18" id="path3507" opacity=".8" fill="#ac39ac" isolation="auto" color-rendering="auto" white-space="normal" solid-opacity="1" mix-blend-mode="normal" color-interpolation-filters="linearRGB" shape-rendering="auto" fill-rule="evenodd" image-rendering="auto" color-interpolation="sRGB" color="#000000" solid-color="#000000"/>
</svg>
