<?xml version="1.0" encoding="UTF-8" standalone="no"?>
<svg xmlns="http://www.w3.org/2000/svg" version="1.0" width="580" height="580">
 <metadata id="metadata10"/>
 <path d="m289 137c-18.4.3-36.6 8.1-49 21.3-12.8 13.2-20 31.6-19.9 50l0 172c-2.5.5-5 1.1-7.4 1.8-7.8 2.2-11 6-11.2 9.9-.1 4.1.4 15.4.2 25.4-1.3 4.8 3.6 10 14.2 12.3 18.7 5.1 42 4.4 64 5.3 29 .4 60 .1 86-5.1 8.1-2.2 13.5-6.3 14-10.3.1-.1.1-.2.1-.3 0-9.3.1-18-.1-27 0-2.4-1.2-4.8-4.7-6.8-3.8-2.4-8.8-4-14.6-5.3l0-171c.3-18.8-7.4-37.5-20.6-50.7-13.3-13.3-32-20.8-50.8-20.6z" id="path4689-6" mix-blend-mode="normal" solid-color="#000000" opacity=".8" color-interpolation-filters="linearRGB" filter-gaussianBlur-deviation="0" color="#000000" image-rendering="auto" color-rendering="auto" stroke-width="64" isolation="auto" color-interpolation="sRGB" solid-opacity="1" fill="none" filter-blend-mode="normal" stroke="#ffffff" shape-rendering="auto"/>
 <path d="M289 137C270 138 252 145 239 159 226 172 219 190 219 209L219 380C217 381 214 381 212 382 204 384 201 388 201 392 201 396 201 407 201 417 200 422 205 427 215 429 234 435 257 434 279 435 308 435 338 435 365 430 373 427 379 423 379 419 379 419 379 419 379 419 379 410 379 401 379 392 379 390 378 387 375 385 371 383 366 381 360 380L360 209C360 190 353 171 339 158 326 145 307 137 289 137" id="path4689" fill="#666666" color="#000000"/>
</svg>
