<?xml version="1.0" encoding="UTF-8" standalone="no"?>
<svg xmlns="http://www.w3.org/2000/svg" version="1.0" width="580" height="580">
 <metadata id="metadata10"/>
 <path id="path4137" d="M313 96C312 96 311 97 310 97 258 162 205 228 153 294L40.5 294C38.9 294 37.6 295 37.6 297L37.6 335C37.6 337 38.9 338 40.5 338L172 338C173 338 174 338 174 337 231 266 288 195 345 125 346 124 346 122 345 121L314 96C314 96 313 96 313 96zM412 290C410 290 409 292 409 293L409 332C409 334 410 335 412 335L539 335C541 335 542 334 542 332L542 293C542 292 541 290 539 290L412 290zM40.5 347C38.9 347 37.6 348 37.6 350L37.6 481C37.6 483 38.9 484 40.5 484L136 484C138 484 139 483 139 481L139 350C139 348 138 347 136 347L40.5 347zM444 347C442 347 441 348 441 350L441 481C441 483 442 484 444 484L539 484C541 484 542 483 542 481L542 350C542 348 541 347 539 347L444 347z" mix-blend-mode="normal" solid-color="#000000" opacity=".8" color-interpolation-filters="linearRGB" filter-gaussianBlur-deviation="0" color="#000000" image-rendering="auto" color-rendering="auto" stroke-width="64" isolation="auto" color-interpolation="sRGB" solid-opacity="1" fill="none" stroke-linejoin="round" filter-blend-mode="normal" stroke="#ffffff" shape-rendering="auto"/>
 <path d="M313 96C312 96 311 97 310 97 258 162 205 228 153 294L40.5 294C38.9 294 37.6 295 37.6 297L37.6 335C37.6 337 38.9 338 40.5 338L172 338C173 338 174 338 174 337 231 266 288 195 345 125 346 124 346 122 345 121L314 96C314 96 313 96 313 96M412 290C410 290 409 292 409 293L409 332C409 334 410 335 412 335L539 335C541 335 542 334 542 332L542 293C542 292 541 290 539 290L412 290M40.5 347C38.9 347 37.6 348 37.6 350L37.6 481C37.6 483 38.9 484 40.5 484L136 484C138 484 139 483 139 481L139 350C139 348 138 347 136 347L40.5 347M444 347C442 347 441 348 441 350L441 481C441 483 442 484 444 484L539 484C541 484 542 483 542 481L542 350C542 348 541 347 539 347L444 347" id="path4153" fill="#0092da"/>
</svg>
