<?xml version="1.0" encoding="UTF-8" standalone="no"?>
<svg xmlns="http://www.w3.org/2000/svg" version="1.0" width="580" height="580">
 <metadata id="metadata10"/>
 <defs id="defs4">
  <clipPath id="clipoutline2">
   <path d="M55.8 12L57 12.2C65 9.2 85 20.8 81 31 80 32.7 79.9 35.6 81 37L56 62C55 60.9 52 60.9 51 62L9.5 102C5.8 105 8.7 108 10.3 110L17.6 117C19.3 119 23.5 121 26.5 118L65 77C67 76 67 73 65 71 65 71 65 71 65 71L90 46C93 48.6 95 48.8 98 48 102 46.9 105 51 107 54.6L106 55.8C104 58 105 60.7 107 62.8 109 64.8 112 65 114 63L122 55C124 53 123 50 121 48 120 46 117 46 115 47 109 41 112 40 105 31.9L91 17.9C81 8.1 68 8.1 55.8 12" id="outline2"/>
  </clipPath>
  <clipPath id="clipoutline1">
   <path d="M22.4 17.2L35.4 30 32.9 38.9 24 41 11 28.5 5.3 34 20 55.8 37.7 53 99 118C109 128 122 113 113 105L46.9 42.9 50.9 25 28.7 10.9 22.4 17.2M104 109C105 108 108 108 110 109 111 111 111 114 110 115 108 117 105 117 104 115 102 114 102 111 104 109" id="outline1"/>
  </clipPath>
 </defs>
 <path d="m480 119c-4.2 0-7.6 1.1-10.4 2.5-4.9 2.5-8.5 5.6-11.8 8.8-4.9 4.8-9.3 10-13 14.3-1.9 2.1-3.5 3.9-4.8 5-.6.6-1.1 1-1.4 1.2-.1 0-.1 0-.1.1l-22.8 9.8c-.8 0-1.6 0-2.4 0-31 0-59 9.1-85 17.3-29 9.2-56.7 20-85 25.5-12.8 2.5-27.3 3.2-42 4.4-15 1.2-31 2.9-46 8.3-13.8 4.8-25.5 10.3-38 18.2-5.5 3.5-10.3 7.7-15 11-4.5 3.4-8.8 5.9-10.4 6.2l-7.1 4.8c0 0-6.4 4.9-9.8 7.8l-13.4 11.5c-13.5 11.6-17.9 40.8-17.9 57 0 0 0 0 0 .1 0 0 0 .1 0 .2.1 25 8.2 48.7 21 69.8 13 21 31 39.8 51 56 40.9 31.4 92 51.8 141 52 9.5 0 18.9-.8 28-2.6 8.6-1.6 16-5.6 21.6-10.8 3.6-3.3 10.2-6.9 12.5-10.8 4.1-1.9 4.3-4.4 7.5-7.8 4.7-4.8 7.7-10.2 11.3-16.8 5.8-11 12.9-22.7 18.6-35.4 6.4-14.6 8.8-30 11-44 2.1-14.4 4.1-27.9 8.2-38 4.1-10.8 11.2-19.8 20-29.5 8.8-9.6 19.3-19.6 28-32.4 7-10 15.2-19 22.4-30 6.3-9.8 11.4-21.9 12.5-36.5l18-9.4 1.5-1.6c1.9-1.9 3.5-2.8 6-3.5 3.6-1.2 9.4-1.4 16.7-2 7.1-.7 16.7-2.2 25.3-9.1 3.5-2.9 6.6-6 8.9-9.7 2.3-3.7 3.9-8.2 3.8-12.9 0-3.8-1-7.5-2.5-10.4-2.7-5.2-6.4-8.4-10-11-5.6-3.9-11.5-6.4-17-8.4-2.4-.9-4.8-1.6-7-2.3-1.2-2.7-2.7-5.2-4.6-7.6-1.9-2.2-4.3-4.3-7.2-5.8-2.9-1.5-6.3-2.2-9.3-2.2z" id="path4210" mix-blend-mode="normal" solid-color="#000000" opacity=".8" color-interpolation-filters="linearRGB" filter-gaussianBlur-deviation="0" color="#000000" image-rendering="auto" color-rendering="auto" stroke-width="64" isolation="auto" color-interpolation="sRGB" solid-opacity="1" fill="none" filter-blend-mode="normal" stroke="#ffffff" shape-rendering="auto"/>
 <path d="m67 399l43.9 50 56 33.4 61 17.9 51.9 3.1 20.4-12.4 13.6-22.9 9.9-74-52.6-98-86-35.9-72-7.4-33.4 12.4-23.5 22.3-8.7 35.9 5 43.9 14.2 32.8" id="path6439-1" fill="#ffffff" fill-rule="evenodd"/>
 <path d="m397 174l41-17.9 35-30 19 9.3 29.7 19.8 5 17.9-16.7 14.8-33.4 5.6-46 30.9-51.9-6.8 17.9-43" id="path6441-7" fill="#ffffff" fill-rule="evenodd"/>
 <path d="m480 119c-4.2 0-7.6 1.1-10.4 2.5-4.9 2.5-8.5 5.6-11.8 8.8-4.9 4.8-9.3 10-13 14.3-1.9 2.1-3.5 3.9-4.8 5-.6.6-1.1 1-1.4 1.2-.1 0-.1 0-.1.1l-22.8 9.8c-.8 0-1.6 0-2.4 0-31 0-59 9.1-85 17.3-29 9.2-56.7 20-85 25.5-12.8 2.5-27.3 3.2-42 4.4-15 1.2-31 2.9-46 8.3-13.8 4.8-25.5 10.3-38 18.2-5.5 3.5-10.3 7.7-15 11-4.5 3.4-8.8 5.9-10.4 6.2l-7.1 4.8c0 0-6.4 4.9-9.8 7.8l-13.4 11.5c-13.5 11.6-17.9 40.8-17.9 57 0 0 0 0 0 .1 0 0 0 .1 0 .2.1 25 8.2 48.7 21 69.8 13 21 31 39.8 51 56 40.9 31.4 92 51.8 141 52 9.5 0 18.9-.8 28-2.6 8.6-1.6 16-5.6 21.6-10.8 3.6-3.3 10.2-6.9 12.5-10.8 4.1-1.9 4.3-4.4 7.5-7.8 4.7-4.8 7.7-10.2 11.3-16.8 5.8-11 12.9-22.7 18.6-35.4 6.4-14.6 8.8-30 11-44 2.1-14.4 4.1-27.9 8.2-38 4.1-10.8 11.2-19.8 20-29.5 8.8-9.6 19.3-19.6 28-32.4 7-10 15.2-19 22.4-30 6.3-9.8 11.4-21.9 12.5-36.5l18-9.4 1.5-1.6c1.9-1.9 3.5-2.8 6-3.5 3.6-1.2 9.4-1.4 16.7-2 7.1-.7 16.7-2.2 25.3-9.1 3.5-2.9 6.6-6 8.9-9.7 2.3-3.7 3.9-8.2 3.8-12.9 0-3.8-1-7.5-2.5-10.4-2.7-5.2-6.4-8.4-10-11-5.6-3.9-11.5-6.4-17-8.4-2.4-.9-4.8-1.6-7-2.3-1.2-2.7-2.7-5.2-4.6-7.6-1.9-2.2-4.3-4.3-7.2-5.8-2.9-1.5-6.3-2.2-9.3-2.2zm-.5 13.9c4.4-.3 8.3 3.2 11 13.3 13.3 3 48.8 13.7 25.9 32-14 11.4-34.6.9-49 15.8l-23.3 12.2c0-.4 0-.9-.1-1.3-5.9 2.1-11.9 4.7-18 5.9-.9-6.2-2.3-12.2-3.9-18.2-4.5 1.8-10 3.4-14.6 4.2 1.7-8.4 3.6-14.8 7.9-21l28.8-12.3c9.4-4.1 24-29.8 35-30.6zm-367 132c1.1 0 2.1 0 3.2 0 25.4.1 51.8 8.7 72 16.4 16.4 6.2 30 12 42 20 12.4 8 23.3 18.3 34.5 32.9 17.6 22.9 35.8 51.6 43 82 1.8 7.3 2.9 16.5 3 26 0 10.6-1.4 21.8-5.6 31.5-4.1 9.6-12 18.3-23.9 20.5-8.2 1.6-16.7 2.3-25.3 2.3-44.5-.1-94-19.3-132-49C85 418 56 377 56 333c0-14.3 3.1-29 9.8-43l11.7-13 12.9-7.9c7-2.2 14.3-3.3 21.7-3.5zm31 66c8.6.1 17.7 2 24.5 7.7 2.6 2.3 5.8 5.7 8.6 10 2.8 4.3 5.4 9.3 5.5 15.3 0 2.5-.5 5.2-1.9 7.6-1.9 3.3-5 5.6-8 6.7-3.1 1.2-6.1 1.6-9.1 1.6-8.1 0-16-2.6-19.9-3.9l-.5-.2-17.5-9.5-.7-.4-.6-.5c-5.3-4.9-8.5-10-8.6-16 0-3.4 1.3-6.7 3.3-9.1 2-2.4 4.4-4.1 7-5.4 5.3-2.6 11.5-3.8 17.9-3.8zm0 13c-3.6 0-7 .6-9.7 1.4-2.7.9-4.6 2.1-5.1 2.9-.4.5-.4.6-.4 1-.1.5.4 2.6 3.9 6l15.7 8.6c3.7 1.2 10.3 3.1 15.3 3.1 1.9 0 3.4-.3 4.3-.6.9-.4 1.2-.7 1.4-1.2.1-.2.2-.5.2-1.1.1-1.5-1.2-5-3.3-8.1-2.1-3.1-4.9-6.1-6.3-7.3-3.1-2.8-9.6-4.7-16-4.6z" id="path3" fill="#ac39ac" stroke="#ffffff" stroke-width="1.9"/>
 <path d="m67 399l43.9 50 56 33.4 61 17.9 51.9 3.1 20.4-12.4 13.6-22.9 9.9-74-52.6-98-86-35.9-72-7.4-33.4 12.4-23.5 22.3-8.7 35.9 5 43.9 14.2 32.8" id="path6439" fill-rule="evenodd" fill="#ac39ac" opacity=".1"/>
 <path d="m397 174l41-17.9 35-30 19 9.3 29.7 19.8 5 17.9-16.7 14.8-33.4 5.6-46 30.9-51.9-6.8 17.9-43" id="path6441" fill-rule="evenodd" fill="#ac39ac" opacity=".1"/>
</svg>
