<?xml version="1.0" encoding="UTF-8" standalone="no"?>
<svg xmlns="http://www.w3.org/2000/svg" version="1.0" width="580" height="580">
 <metadata id="metadata2975"/>
 <path d="m288 37c-15.9.2-15.2 12.3-16 23.8-58 4-102 57-117 115-13.4-.7-22 .7-25.3 16.8.3 11.8 11.6 21 26.3 18.4 10.6 53 55 105 104 115 15 3.1 13.3-1.3 12.8 11 0 5.6 1.5 10 4.4 13l0-.1c5.7 5.7 19.9 6 24.8.6 1.9-2.1 3.8-7.8 4.2-12.6 1.2-14.5-3.8-5.8 17.2-13.4 42.9-12.5 88-53 99-104 1.5-8.6 1.9-9 11.2-10.3 14-1.9 21-12.7 16.4-25-1.9-5-13.3-10.4-20-9.6-5.2.6-6-.2-7.4-8.2C413 124 365 65 304 61 304 46 303 37.9 289 37c-.6 0-1.1 0-1.6 0zm-15 56.9c0 0-.1 32-.6 58-1.4 0-38.7-39-39-40.5.6-5.3 30.8-15.7 39.6-17zm34 1.2c13.5 1.7 28.8 5.8 40.9 15.5l-42 42c.4-19 .8-38 1.2-57zm-100 40c15 14.9 24 25.7 39 40-21.3.4-37 1.2-55 1.2 2.2-11.9 7.3-28 16.3-41zm165 .4c5.9 2.3 15.4 30.5 16.2 40.6-15.3-.1-44.5.4-56-.9 0-1.6 38-39.7 39.9-39.7zm-82 37c5.1.1 10.2 2.5 14.6 7.3 5.5 6 7.3 13.5 4.4 20.5-4.1 8.8-8.1 10.9-11.9 12.9l0 0c-7.9 4.1-17.9 1.1-24-6.2-5.4-6.3-7.7-18.8 1.8-27.7 4.9-4.6 10-6.9 15.3-6.8zm40.7 38l58 0c-2.4 12.8-7 28.7-17 39.8-15.3-13.9-27.5-26.3-41-39.8zm-140 0l58 0c-14 13.2-27.9 26.4-42 39-3.8 0-15-30.4-16-39zm117 26.4c12.7 13 21.7 22.6 41 39.6-13.8 8.5-25.8 13.5-42.7 16.3 0-21.4.7-34.7 1.7-55.8zm-36.4 0c.9 0 1.5 51.8 2.1 57-18-2.7-27.4-7.5-40.7-17.8 15-15.8 24.8-25.8 38.6-38.6zm-63.7 125c-5.3 0-9.6 4.3-9.6 9.6l0 161c0 5.3 4.3 9.6 9.6 9.6l161 0c5.3 0 9.6-4.3 9.6-9.6l0-161c0-5.3-4.3-9.6-9.6-9.6l-161 0z" id="path4180" opacity=".8" fill="none" stroke="#ffffff" stroke-linejoin="round" stroke-width="64"/>
 <path id="path1873" d="m277 350c-2.9-2.9-4.4-7.4-4.4-13 .5-12.3 2.2-8-12.8-11-49.6-9.8-93-61-104-115-14.7 2.8-26-6.7-26.3-18.4 3.3-16 11.9-17.4 25.3-16.8 14.3-57.8 59-111 117-115 .9-11.9.1-24.4 17.7-23.8 13.9.5 15.2 9 15.3 23 60 4.1 109 63 118 108 1.4 7.9 2.1 8.8 7.4 8.1 6.9-.8 18.3 4.6 20 9.6 4.8 12.5-2.2 23-16.4 25-9.3 1.3-9.7 1.7-11.2 10.3-11 50-55.9 91-99 104-21 7.6-16-1.1-17.2 13.4-.4 4.8-2.3 10.5-4.2 12.6-4.9 5.4-19 5.1-24.8-.6zm-6.1-113c-13.8 12.8-23.5 22.9-38.6 38.6 13.2 10.3 22.6 15 40.6 17.8-.6-4.6-1.1-56-2.1-56m77 39.6c-19.3-17-28-26.5-41-39.6-1 21-1.7 34.4-1.7 55.8 16.9-2.8 28.9-7.7 42.7-16.3m-99-66l-58 0c1 8.8 12.3 39 16 39 14.3-12.8 28-26 42-39m141 0l-58 0c13.8 13.5 26 25.9 41 39.8 10-11 14.7-26.9 17-39.8m-92 2.7c3.8-2 7.7-4.1 11.9-12.9 2.9-7 1.1-14.5-4.4-20.5-8.8-9.6-20-9.7-29.9-.5-9.5 9-7.2 21.4-1.8 27.7 6.2 7.2 16.2 10.3 24 6.2m-51-38c-14.9-14.5-24-25-39-40-9 13.3-14 29.4-16.3 41 18.2 0 34-.8 55-1.2zM372 136c-1.6 0-39.9 38-39.9 39.7 11.6 1.3 40.8.8 56 .9-.8-10-10.2-38-16.2-40.6M273 94c-8.8 1.4-39 11.7-39.6 17 .3 1.5 37.6 40.5 39 40.5.5-25.3.6-57 .6-57m34 1.2c-.4 19-.8 38-1.2 57l42-42C336 101 320 97 307 96"/>
 <path d="m207 362c-5.3 0-9.6 4.3-9.6 9.6l0 161c0 5.3 4.3 9.6 9.6 9.6l161 0c5.3 0 9.6-4.3 9.6-9.6l0-161c0-5.3-4.3-9.6-9.6-9.6z" id="rect4154" shape-rendering="auto" mix-blend-mode="normal" color-interpolation-filters="linearRGB" isolation="auto" white-space="normal" solid-opacity="1" image-rendering="auto" solid-color="#000000" color="#000000" color-rendering="auto" color-interpolation="sRGB"/>
 <path d="m217 381l142 0 0 142-142 0z" id="rect3587-8" shape-rendering="auto" mix-blend-mode="normal" color-interpolation-filters="linearRGB" isolation="auto" white-space="normal" opacity=".8" fill="#ffffff" solid-opacity="1" image-rendering="auto" solid-color="#000000" color="#000000" color-rendering="auto" color-interpolation="sRGB"/>
</svg>
