<?xml version="1.0" encoding="UTF-8" standalone="no"?>
<svg xmlns="http://www.w3.org/2000/svg" width="580" height="580" version="1.0">
 <metadata id="metadata3003"/>
 <path id="path3760" d="m489 124l-402 0c-14.8 0-26.9 11.8-26.9 26.4l0 283c0 14.5 12 26.5 26.9 26.5l402 0c15 .1 27-10.9 27-25.9l0-283c0-14.5-12-26.4-26.9-26.4"/>
 <path d="M100 160C91 160 84 167 84 176L84 265C84 273 91 280 100 280L189 280C197 280 204 273 204 265L204 176C204 167 197 160 189 160L100 160M243 160C235 160 228 167 228 176L228 265C228 274 235 281 244 280L333 280C341 280 348 273 348 265L348 176C348 167 341 160 332 160L243 160M388 160C379 160 372 167 372 176L372 265C372 273 379 280 388 280L477 280C485 280 492 273 492 265L492 176C492 167 485 160 477 160L388 160" id="path3758-6" opacity=".7" fill="#ffffff"/>
 <path id="rect3015" d="m276 3.6l24 0 0 132-24 0z"/>
</svg>
