<?xml version="1.0" encoding="UTF-8" standalone="no"?>
<svg xmlns="http://www.w3.org/2000/svg" version="1.0" width="580" height="580">
 <metadata id="metadata2975"/>
 <path d="m86 116c-4.7 0-8.7 3.5-9.3 8.1 0 0-11.2 86 2.1 172 6.7 43 19.4 87 43.8 120 24.3 33.4 61 56 112 56 4.9.3 9.5.3 14 .3 4.4.1 9.1 0 14-.3 50.7 0 87-22.9 112-56 2-2.7 3.9-5.5 5.7-8.4 12.6-1.2 24.7-3.4 36-5.8l.1 0 .1 0c47-10.5 91-40.9 112-87 19-38.9 17.9-84 3.1-122-4.2-11-10.3-22.8-20-33-9.9-10.3-24.9-19-42.6-19l-.5 0-.5 0c-16.2.7-31 4.7-44.8 10.4-1.2-16.6-2.5-26.8-2.5-26.8-.6-4.7-4.6-8.1-9.3-8.1l-162 .7-162-.7zm383 70c3.1.1 5.5 1.2 9.2 5.1 3.9 4.1 7.9 11 10.5 17.8l0 .1 0 .1c10.8 27.9 11 59.9-1.6 86l-.2.4-.2.4c-13.9 31-45.6 54-80 61.7-1.1.2-2.1.4-3.2.7 6.8-20 11.5-41 14.7-62 5.2-33 6.7-66 6.5-95 15-8.4 29.8-14.3 44-15z" id="path3407-0" shape-rendering="auto" mix-blend-mode="normal" filter-blend-mode="normal" color-interpolation-filters="linearRGB" isolation="auto" white-space="normal" opacity=".8" fill="none" solid-opacity="1" image-rendering="auto" solid-color="#000000" stroke="#ffffff" color="#000000" stroke-width="64" color-rendering="auto" filter-gaussianBlur-deviation="0" color-interpolation="sRGB"/>
 <path d="M86 116C81 116 77 119 76 124 76 124 65 209 78 296 85 339 98 382 122 416 147 449 183 472 234 472 239 472 243 472 248 472 252 472 257 472 262 472 312 472 349 449 373 416 375 413 377 410 379 407 392 406 404 404 415 402L416 401 416 401C463 391 506 361 527 314 546 276 545 231 530 193 526 182 520 170 510 159 500 149 485 140 468 140L467 140 467 140C450 141 436 145 422 151 421 134 419 124 419 124 419 119 415 116 410 116L248 116 86 116M468 186C471 186 474 187 477 191 481 195 485 202 488 209L488 209 488 209C499 237 499 269 486 294L486 295 486 295C472 326 440 349 406 357 405 357 404 357 403 358 409 338 414 317 417 296 422 262 424 229 424 201 439 193 454 187 468 186" id="path3407" shape-rendering="auto" mix-blend-mode="normal" color-interpolation-filters="linearRGB" isolation="auto" white-space="normal" fill="#734a08" solid-opacity="1" image-rendering="auto" solid-color="#000000" color="#000000" fill-rule="evenodd" color-rendering="auto" color-interpolation="sRGB"/>
</svg>
