<?xml version="1.0" encoding="UTF-8" standalone="no"?>
<svg xmlns="http://www.w3.org/2000/svg" version="1.0" width="580" height="580">
 <metadata id="metadata10"/>
 <path d="m479 96c-7.2.1-14.4 2.6-19.9 7.5-5.4 4.9-8.9 12.4-8.6 21.5 0 0 0 0 0 0l5.3 249-43 26.8 15.9 76 30.5.1c0-3.1.3-39.8.4-52l18.9-10.4 18.7 10.6-.4 52 28.8.2 14.2-76-40.9-28 9.4-247 0 0c.1-10-3.5-17.9-9.1-22.9-5.6-5.1-12.9-7.4-20-7.3zm.6 18.8c4.8 0 8.6 3.9 8.6 8.7 0 4.8-3.9 8.6-8.7 8.6-4.8 0-8.6-3.9-8.6-8.7 0-4.8 3.9-8.6 8.7-8.6z" id="path2303-5" shape-rendering="auto" mix-blend-mode="normal" filter-blend-mode="normal" color-interpolation-filters="linearRGB" isolation="auto" white-space="normal" opacity=".8" fill="none" solid-opacity="1" image-rendering="auto" solid-color="#000000" stroke="#ffffff" color="#000000" stroke-width="64" color-rendering="auto" filter-gaussianBlur-deviation="0" color-interpolation="sRGB"/>
 <path d="m141 158c-21.3 0-32.7 11.7-37.9 25.3l-27.8 72c-11 1.4-30.5 14.3-30.5 38.8l0 91 27 0 0 29c0 35.9 50.7 35.4 50.7 0l0-29 91 0 0 0 91 0 0 29c0 35.4 50.7 35.9 50.7 0l0-29 27 0 0-91c0-24.5-19.5-37-30.5-38.8l-27.8-72c-5.2-13.6-16.6-25.3-37.9-25.3l-39 0-66.8 0-39.7 0zm-.3 26l73 0 .1 0 0 0 73 0c9.1.1 13 5.8 15.7 13.7l20.9 56-110 0 0 0-.1 0-110 0 20.9-56c2.6-7.9 6.5-13.6 15.7-13.7zm-42.6 98c13 0 23.4 10.8 23.4 24 0 13.3-10.5 24-23.4 24-12.9 0-23.4-10.8-23.4-24 0-13.3 10.5-24 23.4-24zm232 0c12.9 0 23.4 10.8 23.4 24 0 13.3-10.5 24-23.4 24-12.9 0-23.5-10.8-23.5-24 0-13.3 10.5-24 23.5-24z" id="path2301-9" mix-blend-mode="normal" solid-color="#000000" opacity=".8" color-interpolation-filters="linearRGB" filter-gaussianBlur-deviation="0" color="#000000" image-rendering="auto" color-rendering="auto" stroke-width="64" isolation="auto" color-interpolation="sRGB" solid-opacity="1" fill="none" filter-blend-mode="normal" stroke="#ffffff" shape-rendering="auto"/>
 <path d="m479 96c-7.2.1-14.4 2.6-19.9 7.5-5.4 4.9-8.9 12.4-8.6 21.5 0 0 0 0 0 0l5.3 249-43 26.8 15.9 76 30.5.1c0-3.1.3-39.8.4-52l18.9-10.4 18.7 10.6-.4 52 28.8.2 14.2-76-40.9-28 9.4-247 0 0c.1-10-3.5-17.9-9.1-22.9-5.6-5.1-12.9-7.4-20-7.3m.6 18.8c4.8 0 8.6 3.9 8.6 8.7 0 4.8-3.9 8.6-8.7 8.6-4.8 0-8.6-3.9-8.6-8.7 0-4.8 3.9-8.6 8.7-8.6" id="path2303" shape-rendering="auto" mix-blend-mode="normal" color-interpolation-filters="linearRGB" isolation="auto" white-space="normal" fill="#ac39ac" solid-opacity="1" image-rendering="auto" solid-color="#000000" color="#000000" color-rendering="auto" color-interpolation="sRGB"/>
 <path d="M141 158C120 158 109 170 103 184L76 255C65 257 45 270 45 294L45 385 72 385 72 414C72 450 123 450 123 414L123 385 214 385 214 385 305 385 305 414C305 450 356 450 356 414L356 385 383 385 383 294C383 270 364 257 353 255L325 184C320 170 308 158 287 158L248 158 181 158 141 158M141 185L214 185 214 185 214 185 287 185C296 185 300 190 303 198L324 255 214 255 214 255 214 255 104 255 125 198C128 190 132 185 141 185M98 282C111 282 122 293 122 306 122 320 111 330 98 330 85 330 75 320 75 306 75 293 85 282 98 282M330 282C343 282 353 293 353 306 353 320 343 330 330 330 317 330 306 320 306 306 306 293 317 282 330 282" id="path2301" fill="#ac39ac"/>
</svg>
