<?xml version="1.0" encoding="UTF-8" standalone="no"?>
<svg xmlns="http://www.w3.org/2000/svg" version="1.0" width="580" height="580">
 <metadata id="metadata2975"/>
 <path d="m261 58l-23 12.3 36 68c0 .1 0 .1-.1.1-1.4 2.9-3.6 7.2-6.3 12.5-5.4 10.6-13 25.3-22.3 42.8-18.4 34.9-42.8 81-67 126C130 411 81 501 81 501l-10.4 19.4 94-.2 23.5.2.1-.2 203-.3.3.6 92-.7 21.7 0-.1-.1.7 0L495 500 305 140 340 72 317 60 290 111 261 58m28.6 228c21.8 74 67 168 88 208l-175 .3c20-40 66-134 88-208z" id="path2443-3" shape-rendering="auto" mix-blend-mode="normal" filter-blend-mode="normal" color-interpolation-filters="linearRGB" isolation="auto" white-space="normal" opacity=".8" fill="none" solid-opacity="1" image-rendering="auto" solid-color="#000000" stroke="#ffffff" color="#000000" stroke-width="64" color-rendering="auto" filter-gaussianBlur-deviation="0" color-interpolation="sRGB"/>
 <path d="M261 58L238 69.9 274 138C274 138 274 138 274 138 273 141 270 145 268 151 262 161 255 176 246 194 227 228 203 274 178 320 130 411 81 501 81 501L70.8 520 165 520 189 520 189 520 391 520 392 520 483 520 505 520 505 520 506 520 495 500 305 140 340 72 317 60 290 111 261 58M290 286C312 359 357 453 378 494L202 494C222 454 268 360 290 286" id="path2443" shape-rendering="auto" mix-blend-mode="normal" color-interpolation-filters="linearRGB" isolation="auto" white-space="normal" fill="#0092da" solid-opacity="1" image-rendering="auto" solid-color="#000000" color="#000000" fill-rule="evenodd" color-rendering="auto" color-interpolation="sRGB"/>
</svg>
