<?xml version="1.0" encoding="UTF-8" standalone="no"?>
<svg xmlns="http://www.w3.org/2000/svg" version="1.0" width="580" height="580">
 <metadata id="metadata2975"/>
 <g id="g4160">
  <path id="flowRoot3192-7" d="m437 250c0 11.3-5.5 17-16.4 17l-58 0c-11 0-16.5-5.7-16.5-17l0-27.6c0-11 5.5-16.5 16.5-16.5l58 0c11 0 16.4 5.5 16.4 16.5l0 27.6zm-166 .6c0 11-5.7 16.4-17 16.4l-126 0c-11 0-16.5-5.5-16.5-16.4l0-28c0-11 5.5-16.5 16.5-16.5l126 0c11.4 0 17 5.5 17 16.5l0 28zm258 132l-42 0 0-147c0-22.7-7.9-41.9-23.8-58-15.9-15.7-34.9-23.5-57-23.5l-275 0c-22.7 0-41.9 7.8-58 23.5-15.7 15.7-23.5 34.8-23.5 58l0 104c0 16.4 5.9 30.5 17.6 42 11.8 11.8 25.8 17.6 42 17.6l95 0c1.2-16.8 7.8-31 20-42.9 12-11.8 26.8-17.6 44-17.6 16.8 0 31.4 5.9 43.8 17.6 12.3 11.8 18.9 25.8 19.7 42l214 0c0-11-5.5-16.4-16.4-16.4zm-261 41c-5.5 0-10.2-2-14-5.9-3.9-3.9-5.9-8.6-5.9-14 0-5.9 2-10.7 5.9-14.4 3.9-3.7 8.6-5.6 14-5.6 5.5 0 10.2 1.9 14 5.6 3.9 3.7 5.9 8.5 5.9 14.4 0 5.5-2 10.2-5.9 14-3.9 3.9-8.6 5.9-14 5.9zm0-66c-12.9 0-23.9 4.5-32.9 13.5-9 9-13.5 20-13.5 32.9 0 12.5 4.5 23.3 13.5 32 9 9 20 13.5 32.9 13.5 12.5 0 23.3-4.5 32-13.5 9-9 13.5-19.8 13.5-32 0-12.9-4.5-23.9-13.5-32.9-9-9-19.8-13.5-32-13.5z" mix-blend-mode="normal" solid-color="#000000" opacity=".8" color-interpolation-filters="linearRGB" filter-gaussianBlur-deviation="0" color="#000000" image-rendering="auto" color-rendering="auto" stroke-width="64" isolation="auto" color-interpolation="sRGB" solid-opacity="1" fill="none" filter-blend-mode="normal" stroke="#ffffff" shape-rendering="auto"/>
  <path fill="#0092da" id="flowRoot3192" d="M-8.7-61C-8.7-60-9.1-59.8-9.9-59.8L-13.8-59.8C-14.6-59.8-14.9-60-14.9-61L-14.9-62.9C-14.9-64-14.6-64-13.8-64L-9.9-64C-9.1-64-8.7-64-8.7-62.9L-8.7-61M-20-61C-20-60-20.4-59.8-21-59.8L-29.7-59.8C-30.5-59.8-30.9-60-30.9-61L-30.9-62.9C-30.9-64-30.5-64-29.7-64L-21-64C-20.4-64-20-64-20-62.9L-20-61M-2.5-52L-5.3-52-5.3-62C-5.3-63-5.9-64.8-7-65.9-8-66.9-9.3-67-10.9-67L-29.6-67C-31-67-32.4-66.9-33.5-65.9-34.6-64.8-35-63-35-62L-35-54.9C-35-53.8-34.7-52.8-33.9-52-33-51-32-50.8-31-50.8L-24.6-50.8C-24.5-51.9-24-52.9-23-53.7-22.4-54-21.4-54.9-20-54.9-19-54.9-18-54-17.2-53.7-16.4-52.9-16-52-15.9-50.8L-1.3-50.8C-1.3-51.6-1.7-52-2.5-52M-20-49C-20.6-49-20.9-49-21-49-21.4-49.8-21.6-50-21.6-50-21.6-50.9-21.4-51-21-51-20.9-51.7-20.6-51.9-20-51.9-19.9-51.9-19.5-51.7-19.3-51-19-51-18.9-50.9-18.9-50-18.9-50-19-49.8-19.3-49-19.5-49-19.9-49-20-49M-20-53.7C-21-53.7-21.9-53-22.5-52.8-23-52-23.4-51-23.4-50-23.4-49.7-23-48.9-22.5-48-21.9-47.7-21-47-20-47-19.4-47-18.6-47.7-18-48-17.4-48.9-17-49.7-17-50-17-51-17.4-52-18-52.8-18.6-53-19.4-53.7-20-53.7" transform="matrix(14.685839,0,0,14.685839,565.76584,1146.0639)"/>
 </g>
</svg>
