<?xml version="1.0" encoding="UTF-8" standalone="no"?>
<svg xmlns="http://www.w3.org/2000/svg" version="1.0" width="580" height="580">
 <metadata id="metadata10"/>
 <path id="path4183" d="M328 181C228 181 136 246 88 331 73 355 55.6 376 40 399c2.5 6.8 6.7 11.5 12 14.9-.4.1-.7.2-1 .3 10.5 13.7 105 23.6 139 25 86 1.2 87 2.1 168-.2 73-1.9 124-4.4 154-12.8 5.3-1.3 10.4-3.2 15-5.8 3.5-2.1 6.7-4 9.2-6.7l0 0c0 0 0 0 0 0 11.7-24.4-3.7-52-22.4-68C469 294 429 238 378 193 361 184 345 180 328 181" mix-blend-mode="normal" solid-color="#000000" opacity=".8" color-interpolation-filters="linearRGB" filter-gaussianBlur-deviation="0" color="#000000" image-rendering="auto" color-rendering="auto" stroke-width="64" isolation="auto" color-interpolation="sRGB" solid-opacity="1" fill="none" stroke-linejoin="round" filter-blend-mode="normal" stroke="#ffffff" shape-rendering="auto"/>
 <path d="M328 181C228 181 136 246 88 331 73 355 55.6 376 40 399c2.5 6.8 6.7 11.5 12 14.9-.4.1-.7.2-1 .3 10.5 13.7 105 23.6 139 25 86 1.2 87 2.1 168-.2 73-1.9 124-4.4 154-12.8 5.3-1.3 10.4-3.2 15-5.8 3.5-2.1 6.7-4 9.2-6.7l0 0c0 0 0 0 0 0 11.7-24.4-3.7-52-22.4-68C469 294 429 238 378 193 361 184 345 180 328 181" id="path2838"/>
 <path d="M321 204C300 204 276 215 237 231c-51 21-70 39-113 102-29 43-62 79-73 81 10.5 13.7 105 23.6 139 25 86 1.2 87 2.1 168-.2 101-2.7 160-6.4 178-25.3C532 411 525 404 518 394 507 379 478 342 452 313 382 234 356 205 321 204" id="path3593" opacity=".9" fill="#ffffff"/>
 <path id="path3638" d="m270 280c45.6 0 93 28 127 76 20.3 28 36.9 55 36.9 58 0 3.8-64 6.9-141 6.9-78 0-141-3-141-6.3C151 383 241 280 270 280"/>
</svg>
