<?xml version="1.0" encoding="UTF-8" standalone="no"?>
<svg xmlns="http://www.w3.org/2000/svg" version="1.0" width="580" height="580">
 <metadata id="metadata2975"/>
 <path id="path4160" d="m45.8 148c.1 28.9-.7 58 0 87 11.6 7 35-4.3 32 7.2.2 72-.3 145 .2 217 3.6 4.4 10.9.6 15.7 1.8 49.8-.2 100 .5 149-.4 1-24.9 1.6-57 1.6-84l91 0c.3 27.5-.5 55 .4 82 4.2 3.9 11.5.4 16.8 1.6 49-.2 99 .5 148-.4 3.9-4.2.4-11.5 1.6-16.8l0-208c10.4-.5 21.3 1.4 31.4-.4 2.9-5.9 0-13.7 1-20-.4-26.9.3-54-.7-81-4.2-3.9-11.5-.3-16.8-1.6-6.5 1-14.3-1.9-20 1.1-1.7 10-.1 20.7-.6 30.9l-26 0c-.6-10.2 1.1-21-.7-30.9-6.3-2.8-14.3-.1-21-1.1-4.9 1.4-12.9-2.9-16 2.2-.3 9.9 0 19.9-.1 29.8l-26 0c-.6-10.2 1.1-21-.7-30.9-6.3-2.8-14.3-.1-21-1.1-4.9 1.4-12.9-2.9-16 2.2 0 33-.5 66 .3 99 12 6.9 35-4 31.6 8.6l0 50.9-26 0c-.6-10.2 1.1-21-.7-30.9-6.3-2.8-14.3-.1-21-1.1-4.9 1.4-12.9-2.9-16 2.2-.3 9.9 0 19.9-.1 29.8l-26 0c-.6-10.2 1.1-21-.7-30.9-5.9-2.9-13.6-.1-20-1.1-5.4 1.3-12.9-2.5-17.2 1.6-.8 10-.1 20.3-.3 30.4l-26 0c-.6-10.2 1.1-21-.7-30.9-6.3-2.8-14.3-.1-21-1.1-4.9 1.4-12.9-2.9-16 2.2-.3 9.9 0 19.9-.1 29.8l-26 0 0-58c10.2-.6 21 1.1 30.9-.7 2.8-6.3.1-14.3 1.1-21-.3-26 .5-53-.4-79-4.2-3.9-11.5-.4-16.8-1.6-6.5 1-14.3-1.9-20 1.1-1.7 10-.1 20.7-.6 30.9l-26 0c-.6-10.2 1.1-21-.7-30.9-6.3-2.8-12.5-1-21-1.1-5.9.1-12.9-2.9-16 2.2-.3 9.9 0 19.9-.1 29.8l-26 0c-.6-10.2-.2-21-.7-30.9-6.3-2.8-14.3-.1-21-1.1l-14.4-.5c-7.4 1-4 9.5-4.3 14.3z" mix-blend-mode="normal" solid-color="#000000" white-space="normal" color-interpolation-filters="linearRGB" opacity=".8" color="#000000" image-rendering="auto" color-rendering="auto" stroke-width="64" isolation="auto" color-interpolation="sRGB" solid-opacity="1" fill="none" stroke-linejoin="round" stroke="#ffffff" shape-rendering="auto"/>
 <path d="m45.8 148c.1 28.9-.7 58 0 87 11.6 7 35-4.3 32 7.2.2 72-.3 145 .2 217 3.6 4.4 10.9.6 15.7 1.8 49.8-.2 100 .5 149-.4 1-24.9 1.6-57 1.6-84l91 0c.3 27.5-.5 55 .4 82 4.2 3.9 11.5.4 16.8 1.6 49-.2 99 .5 148-.4 3.9-4.2.4-11.5 1.6-16.8l0-208c10.4-.5 21.3 1.4 31.4-.4 2.9-5.9 0-13.7 1-20-.4-26.9.3-54-.7-81-4.2-3.9-11.5-.3-16.8-1.6-6.5 1-14.3-1.9-20 1.1-1.7 10-.1 20.7-.6 30.9l-26 0c-.6-10.2 1.1-21-.7-30.9-6.3-2.8-14.3-.1-21-1.1-4.9 1.4-12.9-2.9-16 2.2-.3 9.9 0 19.9-.1 29.8l-26 0c-.6-10.2 1.1-21-.7-30.9-6.3-2.8-14.3-.1-21-1.1-4.9 1.4-12.9-2.9-16 2.2 0 33-.5 66 .3 99 12 6.9 35-4 31.6 8.6l0 50.9-26 0c-.6-10.2 1.1-21-.7-30.9-6.3-2.8-14.3-.1-21-1.1-4.9 1.4-12.9-2.9-16 2.2-.3 9.9 0 19.9-.1 29.8l-26 0c-.6-10.2 1.1-21-.7-30.9-5.9-2.9-13.6-.1-20-1.1-5.4 1.3-12.9-2.5-17.2 1.6-.8 10-.1 20.3-.3 30.4l-26 0c-.6-10.2 1.1-21-.7-30.9-6.3-2.8-14.3-.1-21-1.1-4.9 1.4-12.9-2.9-16 2.2-.3 9.9 0 19.9-.1 29.8l-26 0 0-58c10.2-.6 21 1.1 30.9-.7 2.8-6.3.1-14.3 1.1-21-.3-26 .5-53-.4-79-4.2-3.9-11.5-.4-16.8-1.6-6.5 1-14.3-1.9-20 1.1-1.7 10-.1 20.7-.6 30.9l-26 0c-.6-10.2 1.1-21-.7-30.9-6.3-2.8-12.5-1-21-1.1-5.9.1-12.9-2.9-16 2.2-.3 9.9 0 19.9-.1 29.8l-26 0c-.6-10.2-.2-21-.7-30.9-6.3-2.8-14.3-.1-21-1.1l-14.4-.5c-7.4 1-4 9.5-4.3 14.3" id="path2958-0-6" fill="#734a08" isolation="auto" color-rendering="auto" white-space="normal" solid-opacity="1" mix-blend-mode="normal" color-interpolation-filters="linearRGB" shape-rendering="auto" image-rendering="auto" color-interpolation="sRGB" color="#000000" solid-color="#000000"/>
</svg>
