<?xml version="1.0" encoding="UTF-8" standalone="no"?>
<svg xmlns="http://www.w3.org/2000/svg" version="1.0" width="580" height="580">
 <metadata id="metadata2975"/>
 <path d="M252 37L252 121 176 121 176 196 252 196 252 347C276 344 304 351 328 345L328 345 329 198 404 197 404 122 330 121 328 38 252 37zM208 369C203 369 198 374 198 379L198 543C198 549 203 553 208 553L372 553C377 553 382 549 382 543L382 379C382 374 377 369 372 369L208 369z" id="path4139" shape-rendering="auto" mix-blend-mode="normal" color-interpolation-filters="linearRGB" isolation="auto" white-space="normal" opacity=".8" fill="none" solid-opacity="1" image-rendering="auto" solid-color="#000000" stroke="#ffffff" color="#000000" stroke-linecap="round" stroke-linejoin="round" stroke-width="64" color-rendering="auto" color-interpolation="sRGB"/>
 <path d="m208 369c-5.4 0-9.7 4.4-9.7 9.8l0 164c0 5.4 4.4 9.8 9.7 9.8l164 0c5.4 0 9.7-4.4 9.7-9.8l0-164c0-5.4-4.4-9.8-9.7-9.8z" id="rect4154" shape-rendering="auto" mix-blend-mode="normal" color-interpolation-filters="linearRGB" isolation="auto" white-space="normal" solid-opacity="1" image-rendering="auto" solid-color="#000000" color="#000000" color-rendering="auto" color-interpolation="sRGB"/>
 <path d="m218 389l144 0 0 145-144 0z" id="rect3587" shape-rendering="auto" mix-blend-mode="normal" color-interpolation-filters="linearRGB" isolation="auto" white-space="normal" opacity=".8" fill="#ffffff" solid-opacity="1" image-rendering="auto" solid-color="#000000" color="#000000" color-rendering="auto" color-interpolation="sRGB"/>
 <path id="path1873" d="m252 345l-1.3-147-75-.5 0-38 0-36.4 75-1.4 1.3-83 76-1.3 0 84 75.9 0 0 37.6 0 37.6-75.9 0 0 150c-24-2.8-52 4.5-75.9-1.7"/>
 <path d="m328 345l1.3-147 75-.5c0-24.9 0-49.9 0-75l-74-1.4-1.4-83-76-1.3 0 84-75.9 0c0 25 0 50 0 75l75.9 0 0 150c24-2.8 52 4.5 75.9-1.7" id="path4237"/>
</svg>
