<?xml version="1.0" encoding="UTF-8" standalone="no"?>
<svg xmlns="http://www.w3.org/2000/svg" version="1.0" width="580" height="580">
 <metadata id="metadata2975"/>
 <g id="g4213" transform="matrix(0.81319318,0,0,0.80228138,74.166211,61.204285)">
  <g id="g4209">
   <path d="m400 181l-7.4 15.7-5.9 12.6c-20.6 43.8-41 88-62 131-9.9-13.7-19.9-27.3-29.9-40.9l-7.2-9.7-6.4 10.3c-39 63-77.9 126-117 188l-7.8 12.4 14.7.1c123 1 246 2 369 3.1l13 .1-5.6-11.8C500 393 454 295 407 197" id="path3744-0" mix-blend-mode="normal" solid-color="#000000" opacity=".8" color-interpolation-filters="linearRGB" color="#000000" image-rendering="auto" color-rendering="auto" stroke-width="79" isolation="auto" color-interpolation="sRGB" solid-opacity="1" fill="none" stroke="#ffffff" shape-rendering="auto"/>
   <path d="m185 66l-162 140 32.5 0 0 211 98 0 0-107 67 0 0 107 95 0 0-211 32.5 0-162-140z" id="path645-8" mix-blend-mode="normal" solid-color="#000000" opacity=".8" color-interpolation-filters="linearRGB" color="#000000" image-rendering="auto" color-rendering="auto" stroke-width="79" isolation="auto" color-interpolation="sRGB" solid-opacity="1" fill="none" stroke="#ffffff" shape-rendering="auto"/>
  </g>
  <path id="path3744-0-1-3" d="m400 181l-7.4 15.7-5.9 12.6c-20.6 43.8-41 88-62 131-9.9-13.7-19.9-27.3-29.9-40.9l-7.2-9.7-6.4 10.3c-39 63-77.9 126-117 188l-7.8 12.4 14.7.1c123 1 246 2 369 3.1l13 .1-5.6-11.8C500 393 454 295 407 197" fill="#ffffff" color="#000000"/>
  <path id="path3744-0-1" d="m400 181l-7.4 15.7-5.9 12.6c-20.6 43.8-41 88-62 131-9.9-13.7-19.9-27.3-29.9-40.9l-7.2-9.7-6.4 10.3c-39 63-77.9 126-117 188l-7.8 12.4 14.7.1c123 1 246 2 369 3.1l13 .1-5.6-11.8C500 393 454 295 407 197" opacity=".3" fill="#0092da" color="#000000"/>
  <path id="path3744-5" d="m400 181l-7.4 15.7-5.9 12.6c-20.6 43.8-41 88-62 131-9.9-13.7-19.9-27.3-29.9-40.9l-7.2-9.7-6.4 10.3c-39 63-77.9 126-117 188l-7.8 12.4 14.7.1c123 1 246 2 369 3.1l13 .1-5.6-11.8C500 393 454 295 407 197l-7.4-15.7m0 139c2.5 0 4.9 1.2 6.5 3.2 7.3 9.2 14.5 16.8 17.3 17.9 1.4.6 1.1.7 2.6-.3 1.5-1 4.5-4.1 7.8-10.6 1.4-2.7 4.4-4.4 7.4-4.4 3 0 6 1.9 7.3 4.6l66.9 142c2.4 5-1.9 11.9-7.5 11.8l-302-2.6c-2.9 0-5.7-1.7-7.1-4.2-1.4-2.5-1.3-5.9.2-8.3l60-95c2.6-4.2 9.2-5 12.7-1.5 5.3 5.3 9.9 8 15.4 8.4 5.5.4 13.2-1.7 24.5-10 3.5-2.6 9-1.8 11.6 1.7l5.2 7.2 21.5-45.5c1.3-2.8 4.1-4.7 7.2-4.8 3-.1 6 1.6 7.5 4.3 2.1 3.9 4.3 6 5.9 7 1.6.9 2.6 1.1 4.5.7 3.8-.8 11-6 18.7-17 1.5-2.2 4-3.6 6.7-3.6" opacity=".5" fill="#0092da" color="#000000"/>
  <path id="path3744" d="m400 181l-7.4 15.7-5.9 12.6c-20.6 43.8-41 88-62 131-9.9-13.7-19.9-27.3-29.9-40.9l-7.2-9.7-6.4 10.3c-39 63-77.9 126-117 188l-7.8 12.4 14.7.1c123 1 246 2 369 3.1l13 .1-5.6-11.8C500 393 454 295 407 197l-7.4-15.7m0 139c2.5 0 4.9 1.2 6.5 3.2 7.3 9.2 14.5 16.8 17.3 17.9 1.4.6 1.1.7 2.6-.3 1.5-1 4.5-4.1 7.8-10.6 1.4-2.7 4.4-4.4 7.4-4.4 3 0 6 1.9 7.3 4.6l66.9 142c2.4 5-1.9 11.9-7.5 11.8l-302-2.6c-2.9 0-5.7-1.7-7.1-4.2-1.4-2.5-1.3-5.9.2-8.3l60-95c2.6-4.2 9.2-5 12.7-1.5 5.3 5.3 9.9 8 15.4 8.4 5.5.4 13.2-1.7 24.5-10 3.5-2.6 9-1.8 11.6 1.7l5.2 7.2 21.5-45.5c1.3-2.8 4.1-4.7 7.2-4.8 3-.1 6 1.6 7.5 4.3 2.1 3.9 4.3 6 5.9 7 1.6.9 2.6 1.1 4.5.7 3.8-.8 11-6 18.7-17 1.5-2.2 4-3.6 6.7-3.6" opacity=".5" fill="#0092da" color="#000000"/>
  <path id="path645" d="M185 66L22 207l32.5 0 0 211 98 0 0-107 67 0 0 107 95 0 0-211 32.5 0-162-140" fill="#0092da" fill-rule="evenodd"/>
  <path id="path645-1" d="m185 66l-162 140 32.5 0 0 211 98 0 0-107 67 0 0 107 95 0 0-211 32.5 0-162-140" fill="#0092da" fill-rule="evenodd"/>
 </g>
</svg>
