<?xml version="1.0" encoding="UTF-8" standalone="no"?>
<svg xmlns="http://www.w3.org/2000/svg" version="1.0" height="580" width="580">
 <metadata id="metadata3003"/>
 <g id="layer1" transform="translate(0,-472.36218)">
  <path d="m420 477l24 0-144 324-24 0z" id="rect3987"/>
  <path id="path3879" d="m70 42.5a12.5 12.5 0 1 1 -25 0 12.5 12.5 0 1 1 25 0" transform="matrix(3.3915098,0,0,3.3915098,74.594314,445.82914)"/>
  <path d="m173 632c-9.9-.1-19.6 8.6-16.8 23.8l30 170c5.7 30.7 27.3 56.9 58 66 8.1 2.5 16.3 3.8 24.4 3.8l59 .2c26.7 0 26.8-36 .2-35.8l-56-.2c-5.4-.4-11.2-.6-16.6-2.3-18-5.7-30.7-20.8-34-38L191 650c-2.1-11.9-9.9-17.3-17.6-17.4" id="path15"/>
  <path d="M276 644C256 644 240 660 240 680c0 2 .2 3.9.6 5.9l-.1 0 18 106 .1 0c2.9 16.7 17.6 29.5 35.4 29.5l90 0 0 106 0 .8c.4 9.4 8.3 16.9 18 16.9 9.7 0 17.6-7.5 18-16.9 0-.3 0-.5 0-.8l0-132c0-14.6-12-26.5-27-26.5l-65 0-16-94-.1 0c-2.9-16.7-17.6-29.5-35.4-29.5" id="path3808"/>
 </g>
</svg>
