<?xml version="1.0" encoding="UTF-8" standalone="no"?>
<svg xmlns="http://www.w3.org/2000/svg" version="1.0" width="580" height="580">
 <metadata id="metadata10"/>
 <path id="path4180" d="M323 52C319 55 316 57 313 60L324 83 307 92 299 73.9C296 77 293 79 290 81L290 81C287 83 285 85 283 86 264 94 239 90 220 98 201 106 188 125 171 133 149 142 135 134 115 143 108 147 101 153 95 159L109 152 123 180 105 189 92 162C90 164 87 166 85 169L254 521C257 518 261 514 264 511L260 513 246 485 264 476 276 502C277 501 278 500 280 500 282 499 285 498 287 497L287 497C303 493 320 496 335 490 353 482 366 462 384 454 403 446 428 451 447 442 451 440 456 438 459 435L459 435C471 426 480 413 493 406L323 52zM342 119L355 148 338 156 324 128 342 119zM373 184L386 212 369 221 355 193 373 184zM139 217L153 245 135 254 122 225 139 217zM403 249L417 277 399 285 386 257 403 249zM170 281L184 310 166 318 152 290 170 281zM434 313L448 341 430 350 417 322 434 313zM201 346L214 374 197 383 183 354 201 346zM465 378L479 406 461 414 447 386 465 378zM232 410L245 439 228 447 214 419 232 410z" mix-blend-mode="normal" solid-color="#000000" opacity=".8" color-interpolation-filters="linearRGB" filter-gaussianBlur-deviation="0" color="#000000" image-rendering="auto" color-rendering="auto" stroke-width="64" isolation="auto" color-interpolation="sRGB" solid-opacity="1" fill="none" stroke-linejoin="round" filter-blend-mode="normal" stroke="#ffffff" shape-rendering="auto"/>
 <path d="M323 52C319 55 316 57 313 60L324 83 307 92 299 73.9C296 77 293 79 290 81L290 81C287 83 285 85 283 86 264 94 239 90 220 98 201 106 188 125 171 133 149 142 135 134 115 143 108 147 101 153 95 159L109 152 123 180 105 189 92 162C90 164 87 166 85 169L254 521C257 518 261 514 264 511L260 513 246 485 264 476 276 502C277 501 278 500 280 500 282 499 285 498 287 497L287 497C303 493 320 496 335 490 353 482 366 462 384 454 403 446 428 451 447 442 451 440 456 438 459 435L459 435C471 426 480 413 493 406L323 52M342 119L355 148 338 156 324 128 342 119M373 184L386 212 369 221 355 193 373 184M139 217L153 245 135 254 122 225 139 217M403 249L417 277 399 285 386 257 403 249M170 281L184 310 166 318 152 290 170 281M434 313L448 341 430 350 417 322 434 313M201 346L214 374 197 383 183 354 201 346M465 378L479 406 461 414 447 386 465 378M232 410L245 439 228 447 214 419 232 410" id="path4177" fill="#734a08"/>
 <path d="m283 86c-19 8.5-43.7 4.2-62 12.2-19 8-31.7 27.4-49 35-16.7 7-36.5 1.9-53 8.5l43 91 164-78-35-73c-2.1 1.4-4.7 3.4-7 4.5" id="path4152" opacity=".7" fill="#ffffff"/>
 <path d="M332 169L169 248 244 405 408 326 332 169" id="path4150" opacity=".7" fill="#ffffff"/>
 <path d="m251 421l36 76c15.3-4 32.7-1 47.7-7.3 17.6-7.7 30.6-27.4 49-35 18.8-8 43-3.7 62-12.2 4.1-1.9 8.8-4.2 12.3-7.1l-44-93z" id="rect3445" opacity=".7" fill="#ffffff"/>
</svg>
