<?xml version="1.0" encoding="UTF-8" standalone="no"?>
<svg xmlns="http://www.w3.org/2000/svg" version="1.0" width="580" height="580">
 <metadata id="metadata2975"/>
 <path d="m225 361l11.2 71c1.6 11.8 8.6 18.6 21 20.5 8.6 1.2 16.2-1.3 22.6-7.3 6.5-6.1 9.1-13.4 7.9-22l-13.5-85c-1.6-9-6.5-15.3-14.7-18.8l-61-27.6 38.8-67 19.4 24.7c1.6 2.3 3.9 4.1 7.1 5.3l73 21c1.9.8 3.7 1.2 5.3 1.2 5.5 0 10.2-2.1 14-6.5 3.9-4.3 5.9-9.2 5.9-14.7 0-9.8-4.7-16.3-14-19.4l-63-18.8-48-58c-6.7-7.8-16-12.7-28-14.7-21-3.1-37 4.3-47.6 22.3l-53 92c-3.5 5.9-5.1 13-4.7 21.7l1.8 117-40.5 87c-1.6 3.5-2.5 6.5-2.9 8.8-1.2 7.4.4 14 4.7 19.7 4.3 5.7 10.2 9.1 17.6 10.3 12.5 2 21.3-2.4 26.4-12.9l44.7-95c1.6-3.5 2.3-7.2 2.3-11l-.6-72 69 30zM474 68L450 178l-41 17-35.8 100 34 77-9.4 30-79 23.5-4.7 35-126 31 1.2 21 308 0c5.5 0 10-1.9 13.8-5.6 3.7-3.7 5.6-8.3 5.6-13.8l0-416-42-9.4zM233 138c10.6 0 19.8-3.8 27.6-11.5 7.8-7.6 11.7-16.9 11.7-27.9 0-10.6-3.9-19.8-11.7-27.6-7.8-7.8-17-11.8-27.6-11.8-11 0-20.3 3.9-27.9 11.8-7.6 7.8-11.5 17-11.5 27.6 0 11 3.8 20.3 11.5 27.9 7.6 7.6 16.9 11.5 27.9 11.5zM96 246L154 145c3.9-6.7 2.6-11.8-4.1-15.3l-18.8-11.2c-6.7-3.9-11.8-2.5-15.3 4.1L57 223c-3.9 6.7-2.5 11.8 4.1 15.3l18.8 11.2c6.7 3.9 11.8 2.6 15.3-4.1z" id="flowRoot3192-2" mix-blend-mode="normal" solid-color="#000000" opacity=".8" color-interpolation-filters="linearRGB" filter-gaussianBlur-deviation="0" color="#000000" image-rendering="auto" color-rendering="auto" stroke-width="64" isolation="auto" color-interpolation="sRGB" solid-opacity="1" fill="none" filter-blend-mode="normal" stroke="#ffffff" shape-rendering="auto"/>
 <path transform="matrix(14.685839,0,0,14.685839,565.76584,1146.0639)" d="M-23-53L-22.4-48.7C-22.3-47.9-21.8-47-21-47-20.4-47-19.9-47-19.4-47.8-19-48-18.8-48.7-18.9-49L-19.8-55C-19.9-55.7-20.3-56-20.8-56L-25-58-22.3-62.8-21-61C-20.9-61-20.8-60.9-20.5-60.8L-15.5-59C-15.4-59-15.3-59-15.2-59-14.8-59-14.5-59-14.2-59.7-14-60-13.8-60-13.8-60.7-13.8-61-14-61.8-14.8-62L-19-63-22.4-67C-22.8-67.8-23.5-68-24.3-68-25.7-68-26.8-68-27.5-66.8L-31-60C-31.4-60-31.5-60-31.5-59L-31.4-51-34-45C-34-44.9-34-44.7-34-44.5-34.4-44-34-43.6-34-43-33.7-42.8-33-42.5-32.8-42.5-32-42-31.4-42.6-31-43L-28-49.8C-27.9-50-27.8-50-27.8-50.6L-27.9-55-23-53M-6.2-73L-7.9-66-10.7-64.8-13-58-10.8-52.7-11.4-50.7-16.8-49-17-46.7-25.7-44.5-25.7-43-4.7-43C-4.3-43-4-43-3.7-43.5-3.5-43.7-3.3-44-3.3-44L-3.3-73-6.2-73M-22.7-69C-21.9-69-21.3-68.9-20.8-69-20.3-69.9-20-71-20-71-20-72-20.3-73-20.8-73-21.3-74-21.9-74-22.7-74-23.4-74-24-74-24.6-73-25-73-25.3-72-25.3-71-25.3-71-25-69.9-24.6-69-24-68.9-23.4-69-22.7-69M-32-61L-28-68C-27.8-69-27.9-69-28-69L-29.6-70C-30-70-30.4-70-30.6-70L-34.6-62.8C-34.9-62-34.8-62-34-61.8L-33-61C-32.6-60.8-32-60.9-32-61" id="flowRoot3192" fill="#39ac39"/>
</svg>
