<?xml version="1.0" encoding="UTF-8" standalone="no"?>
<svg xmlns="http://www.w3.org/2000/svg" version="1.0" width="580" height="580">
 <metadata id="metadata2975"/>
 <path id="path4173" d="M341 68.9C332 68.8 329 82 324 95 309 135 294 177 278 217 211 217 143 216 76 217 61 221 66 237 69 248 85 314 100 380 115 446 120 462 138 456 150 457 253 456 355 456 458 455 474 454 473 435 477 424 492 360 508 296 522 231 522 215 504 216 493 217L316 217C332 174 348 131 364 88 368 73 352 72 343 69 343 69 342 68.9 341 68.9zM98 245L151 245 151 300C139 300 128 301 111 301 98 245 108 289 98 245zM170 245L238 245 238 300 170 300 170 245zM257 245L329 245 329 300 257 300 257 245zM348 245L418 245 418 300 348 300 348 245zM437 245L492 245C487 263 483 282 479 300 465 300 451 300 437 300L437 245zM115 318C127 318 139 318 151 319L151 379C144 378 137 378 130 378 125 359 128 371 115 318L115 318zM169 319L237 319 237 379 169 379 169 319zM256 319L328 319 328 379 256 379 256 319zM347 319L417 319 417 379 347 379 347 319zM436 319L473 319C468 339 464 359 459 379L436 379 436 319zM455 398C452 406 449 419 447 427 431 427 436 436 436 398 442 398 448 398 455 398zM133 398C139 398 144 398 150 398 150 408 150 419 150 429 140 428 139 430 138 425 136 418 134 404 133 398L133 398zM328 398L328 428C304 428 280 428 256 428L256 398 328 398zM169 398L237 398 237 428C214 428 191 428 169 428L169 398zM347 398L417 398 417 428C393 428 370 428 347 428L347 398z" opacity=".8" fill="none" stroke="#ffffff" stroke-linejoin="round" stroke-width="64"/>
 <path d="M341 68.9C332 68.8 329 82 324 95 309 135 294 177 278 217 211 217 143 216 76 217 61 221 66 237 69 248 85 314 100 380 115 446 120 462 138 456 150 457 253 456 355 456 458 455 474 454 473 435 477 424 492 360 508 296 522 231 522 215 504 216 493 217L316 217C332 174 348 131 364 88 368 73 352 72 343 69 343 69 342 68.9 341 68.9M98 245L151 245 151 300C139 300 128 301 111 301 98 245 108 289 98 245M170 245L238 245 238 300 170 300 170 245M257 245L329 245 329 300 257 300 257 245M348 245L418 245 418 300 348 300 348 245M437 245L492 245C487 263 483 282 479 300 465 300 451 300 437 300L437 245M115 318C127 318 139 318 151 319L151 379C144 378 137 378 130 378 125 359 128 371 115 318L115 318M169 319L237 319 237 379 169 379 169 319M256 319L328 319 328 379 256 379 256 319M347 319L417 319 417 379 347 379 347 319M436 319L473 319C468 339 464 359 459 379L436 379 436 319M455 398C452 406 449 419 447 427 431 427 436 436 436 398 442 398 448 398 455 398M133 398C139 398 144 398 150 398 150 408 150 419 150 429 140 428 139 430 138 425 136 418 134 404 133 398L133 398M328 398L328 428C304 428 280 428 256 428L256 398 328 398M169 398L237 398 237 428C214 428 191 428 169 428L169 398M347 398L417 398 417 428C393 428 370 428 347 428L347 398" id="path4170" fill="#ac39ac"/>
</svg>
