<?xml version="1.0" encoding="UTF-8" standalone="no"?>
<svg xmlns="http://www.w3.org/2000/svg" version="1.0" width="580" height="580">
 <metadata id="metadata2975"/>
 <path id="path4136" d="M329 153L380 421c10.8 34.4 53.8 16 49-10L398 250l49 0 0 172c.7 28 36.7 19.7 34.8-.4L482 199c-2-25.7-34.9-19.4-35-.4L447 215l-56 0-13-71c-14-35-55.9-17.8-49 9zm-126-9.5L189 215l-56 0 0-16C130 173 99 179 98 199L98 422c4.3 25.9 34.9 18.6 35-.4L133 250l49 0-31 161c-7.1 39.5 45.7 38 48.7 9.5L252 153c2-35.8-43.9-37-49.6-9.5z" mix-blend-mode="normal" solid-color="#000000" opacity=".8" color-interpolation-filters="linearRGB" filter-gaussianBlur-deviation="0" color="#000000" image-rendering="auto" color-rendering="auto" stroke-width="64" isolation="auto" color-interpolation="sRGB" solid-opacity="1" fill="none" stroke-linejoin="round" filter-blend-mode="normal" stroke="#ffffff" shape-rendering="auto"/>
 <path d="M329 153L380 421c10.8 34.4 53.8 16 49-10L398 250l49 0 0 172c.7 28 36.7 19.7 34.8-.4L482 199c-2-25.7-34.9-19.4-35-.4L447 215l-56 0-13-71c-14-35-55.9-17.8-49 9m-126-9.5L189 215l-56 0 0-16C130 173 99 179 98 199L98 422c4.3 25.9 34.9 18.6 35-.4L133 250l49 0-31 161c-7.1 39.5 45.7 38 48.7 9.5L252 153c2-35.8-43.9-37-49.6-9.5" id="line6215" fill="#666666"/>
</svg>
