<?xml version="1.0" encoding="UTF-8" standalone="no"?>
<svg xmlns="http://www.w3.org/2000/svg" version="1.0" width="580" height="580">
 <metadata id="metadata16"/>
 <path id="path8-7" d="m415 292c-3.3-50-37-90-82-98-54-9.1-84 21.3-104 51.7-19.5-30.4-45-58-98-52-46.8 4.9-83 48.7-86 96-3 41 11.9 69 27.5 95 37.5 62 101 111 157 149 57-38 127-92 163-158 12.3-22.4 25-51 23-84zM272 471c-13.8 17.2-28 33.7-44 48.9-8.5-20-16.2-40.9-25.7-59.9 6.4-.9 14 4.9 21 6.4 5.1-29.9 9.2-60.8 12.9-92-22.6 13.8-46.8 34-71 49.8 7.7-68 14.4-142 21-208 17.4 9.8 29.4 25 39.5 42-8.8 36-15 70-23.9 106l84-60.8c-10.4 54-24 113-36.8 168 3.9 1 13.4-.6 22 0z" mix-blend-mode="normal" solid-color="#000000" opacity=".8" color-interpolation-filters="linearRGB" filter-gaussianBlur-deviation="0" color="#000000" image-rendering="auto" color-rendering="auto" stroke-width="64" isolation="auto" color-interpolation="sRGB" solid-opacity="1" fill="none" filter-blend-mode="normal" stroke="#ffffff" shape-rendering="auto"/>
 <path id="polygon10-3" d="m486 97l50 0 0 50-50 0 0 50-50 0 0-50-50 0 0-50 50 0 0-50 50 0z" mix-blend-mode="normal" solid-color="#000000" opacity=".8" color-interpolation-filters="linearRGB" filter-gaussianBlur-deviation="0" color="#000000" image-rendering="auto" color-rendering="auto" stroke-width="64" isolation="auto" color-interpolation="sRGB" solid-opacity="1" fill="none" filter-blend-mode="normal" stroke="#ffffff" shape-rendering="auto"/>
 <path id="path8" d="m415 292c-3.3-50-37-90-82-98-54-9.1-84 21.3-104 51.7-19.5-30.4-45-58-98-52-46.8 4.9-83 48.7-86 96-3 41 11.9 69 27.5 95 37.5 62 101 111 157 149 57-38 127-92 163-158 12.3-22.4 25-51 23-84M272 471c-13.8 17.2-28 33.7-44 48.9-8.5-20-16.2-40.9-25.7-59.9 6.4-.9 14 4.9 21 6.4 5.1-29.9 9.2-60.8 12.9-92-22.6 13.8-46.8 34-71 49.8 7.7-68 14.4-142 21-208 17.4 9.8 29.4 25 39.5 42-8.8 36-15 70-23.9 106l84-60.8c-10.4 54-24 113-36.8 168 3.9 1 13.4-.6 22 0" fill="#da0092"/>
 <path id="polygon10" d="m486 97l50 0 0 50-50 0 0 50-50 0 0-50-50 0 0-50 50 0 0-50 50 0z" fill="#da0092"/>
</svg>
