<?xml version="1.0" encoding="UTF-8" standalone="no"?>
<svg xmlns="http://www.w3.org/2000/svg" version="1.0" width="580" height="580">
 <metadata id="metadata2975"/>
 <path id="path4144-5" d="m421 55.7c-8.9.1-17.8 3.2-24.5 9.3-6.7 6-11 15.2-10.6 26.4l6.5 307-53 33 19.6 94 37.5.2c0-3.8.4-49 .5-64l23.3-12.8 23 13-.4 64 35.5.3 17.6-93-50-34.9 11.6-304 0-.1C458 81 453 71 446 64.8 439 59 430 56 421 55.7m.7 23c5.9.1 10.5 4.8 10.5 10.7 0 6-4.7 10.6-10.7 10.6-5.9-.1-10.6-4.8-10.5-10.7 0-5.9 4.8-10.6 10.7-10.6z" mix-blend-mode="normal" solid-color="#000000" opacity=".8" color-interpolation-filters="linearRGB" filter-gaussianBlur-deviation="0" color="#000000" image-rendering="auto" color-rendering="auto" stroke-width="64" isolation="auto" color-interpolation="sRGB" solid-opacity="1" fill="none" filter-blend-mode="normal" stroke="#ffffff" shape-rendering="auto"/>
 <path id="path5678-2" d="M44 128C83 96 148 73 167 113c1.3 7.7 9.8 15.2 18.6 16.6l-1.2 138c-7.7-.1-16.3 8.5-16.6 16.3L162 508c-.6 20.4 16 20.9 25 21l41 .4c8.9 0 26.8-5.6 26.5-22.9l-3.8-222c-.1-7.7-8.5-16.3-16.2-16.5 0 0 0-.1-.1-.1l1.3-139c13.9-.6 21.5-6.9 26.3-15.2 9.4-16 28.8-10.5 45-8.9l-.1 6.8c0 10.2 9 18.4 20.4 18.5 11.4.1 20.6-8 20.7-18l.4-45c0-10.2-9-18.4-20.4-18.5-10.3-.1-18.4 6.6-20 15.4C275 61.8 281 51 237 49L160 46.9C105 47 63 88 44 128" mix-blend-mode="normal" solid-color="#000000" opacity=".8" color-interpolation-filters="linearRGB" filter-gaussianBlur-deviation="0" color="#000000" image-rendering="auto" color-rendering="auto" stroke-width="64" isolation="auto" color-interpolation="sRGB" solid-opacity="1" fill="none" filter-blend-mode="normal" stroke="#ffffff" shape-rendering="auto"/>
 <path id="path4144" d="m421 55.7c-8.9.1-17.8 3.2-24.5 9.3-6.7 6-11 15.2-10.6 26.4l6.5 307-53 33 19.6 94 37.5.2c0-3.8.4-49 .5-64l23.3-12.8 23 13-.4 64 35.5.3 17.6-93-50-34.9 11.6-304 0-.1C458 81 453 71 446 64.8 439 59 430 56 421 55.7m.7 23c5.9.1 10.5 4.8 10.5 10.7 0 6-4.7 10.6-10.7 10.6-5.9-.1-10.6-4.8-10.5-10.7 0-5.9 4.8-10.6 10.7-10.6z" fill="#ac39ac"/>
 <path id="path5678" d="M44 128C83 96 148 73 167 113c1.3 7.7 9.8 15.2 18.6 16.6l-1.2 138c-7.7-.1-16.3 8.5-16.6 16.3L162 508c-.6 20.4 16 20.9 25 21l41 .4c8.9 0 26.8-5.6 26.5-22.9l-3.8-222c-.1-7.7-8.5-16.3-16.2-16.5 0 0 0-.1-.1-.1l1.3-139c13.9-.6 21.5-6.9 26.3-15.2 9.4-16 28.8-10.5 45-8.9l-.1 6.8c0 10.2 9 18.4 20.4 18.5 11.4.1 20.6-8 20.7-18l.4-45C348 56.9 339 48.6 328 48.6 318 49 309 55 308 64 275 61.8 281 51 237 49L160 46.9C105 47 63 88 44 128" fill="#ac39ac"/>
</svg>
