<?xml version="1.0" encoding="UTF-8" standalone="no"?>
<svg xmlns="http://www.w3.org/2000/svg" version="1.0" width="580" height="580">
 <metadata id="metadata2975"/>
 <circle r="253" cy="291" cx="289" id="path3267-0" opacity=".8" color-interpolation-filters="linearRGB" color="#000000" image-rendering="auto" color-rendering="auto" stroke-width="64" color-interpolation="sRGB" fill="none" stroke="#ffffff" shape-rendering="auto"/>
 <circle r="253" cy="291" cx="289" id="path3267" fill="#734a08"/>
 <path d="m313 255l-.1 0c.1-.1.2-.3.2-.4 0-3.1-42.5-5.6-95-5.6-52 0-95 2.5-95 5.6 0 .1.1.3.2.4l-.2 0 29.6 226 .1 0c-.3.1-.4.3-.4.4 0 2.1 29.4 3.9 66 3.9 36 0 66-1.7 66-3.9 0-.1-.1-.3-.4-.4l29.7-226m-48.7 209c-1.5 1.4-91 .8-93-.7L143 269c48 .2 83 2.6 148-1.3l-26.7 197" id="path2209" fill="#ffffff"/>
 <path d="m135 265l163 1.3-26.3 208-111 1.3-25-211" id="path2381" opacity=".1" fill="#ffffff" fill-rule="evenodd"/>
 <path d="m306 60.9c-9 0-16.4 7.4-16.4 16.4 0 9 7.4 16.4 16.4 16.4 3.1 0 5.9-.6 8.8-1.5l0 8.6c-5.3 3.7-9.2 9.2-11.9 14.5-2 3.9-3.5 8.2-4.7 12.7l-15.7-.1-11.8-.1.3 0c-36.6-.6-62 20.4-71 40.5-9.4 20-7.7 39-7.7 39l49-3.3c0 0-.1-8.1 3.2-15 3.3-6.9 5-12.6 26.3-12.3l.1 0 11.9.1 18.3.1c.7 1.8 1.4 3.5 2.3 5.1 4.8 9.6 13.4 19.3 26.6 19.3 13.2 0 21.8-9.7 26.6-19.3.8-1.6 1.5-3.2 2.1-4.8l73 .4.3-49-70-.4c-1.2-4.6-2.7-9-4.8-13-2.7-5.4-6.6-10.8-11.9-14.5l0-8.7c3 1 5.9 1.6 9.1 1.6 9 0 16.4-7.4 16.4-16.4 0-9-7.4-16.4-16.4-16.4-.1 0-.2 0-.3 0-5 .2-9 1.9-14.4 3.8-.1 0-.3.1-.4.1a14.723644 14.723644 0 0 0 -8.97132 -2.902261 14.723644 14.723644 0 0 0 -8.43651 2.825583c-.1 0-.1 0-.2-.1-5.4-1.9-9.4-3.6-14.4-3.8-.1 0-.2 0-.3 0" id="path3340" shape-rendering="auto" mix-blend-mode="normal" color-interpolation-filters="linearRGB" isolation="auto" white-space="normal" fill="#ffffff" solid-opacity="1" image-rendering="auto" solid-color="#000000" color="#000000" color-rendering="auto" color-interpolation="sRGB"/>
</svg>
