<?xml version="1.0" encoding="UTF-8" standalone="no"?>
<svg xmlns="http://www.w3.org/2000/svg" version="1.0" width="580" height="580">
 <metadata id="metadata2975"/>
 <path fill="none" d="M296 45.5C273 48 189 87 186 285c-2.6 209 87 253 110 253L297 400c-19.3 0-23-21-27.6-64-2.9-28.7-3.7-64 0-99 2.7-24.7 7.3-48.9 27.5-48.9L296 45.5z" id="path4149" mix-blend-mode="normal" solid-color="#000000" opacity=".8" color-interpolation-filters="linearRGB" filter-gaussianBlur-deviation="0" color="#000000" image-rendering="auto" color-rendering="auto" stroke-width="64" isolation="auto" color-interpolation="sRGB" solid-opacity="1" filter-blend-mode="normal" stroke="#ffffff" shape-rendering="auto"/>
 <path fill="none" d="m360 538c8.9 0 15.3-7.3 15.3-15.5l.1-.1c0 0-.1-108-.1-108 0-8.5-6.9-15.2-15.3-15.2l-39 0 0 138c0 0 39 .1 39 0l.1 0z" id="path4151" mix-blend-mode="normal" solid-color="#000000" opacity=".8" color-interpolation-filters="linearRGB" filter-gaussianBlur-deviation="0" color="#000000" image-rendering="auto" color-rendering="auto" stroke-width="64" isolation="auto" color-interpolation="sRGB" solid-opacity="1" filter-blend-mode="normal" stroke="#ffffff" shape-rendering="auto"/>
 <path fill="none" d="m360 187c8.9 0 15.3-7.3 15.3-15.4l.1 0c0 0-.1-111-.1-111 0-8.5-6.9-15.2-15.3-15.2L321 45.5 321 187l39 .1.1-.1z" id="path4153" mix-blend-mode="normal" solid-color="#000000" opacity=".8" color-interpolation-filters="linearRGB" filter-gaussianBlur-deviation="0" color="#000000" image-rendering="auto" color-rendering="auto" stroke-width="64" isolation="auto" color-interpolation="sRGB" solid-opacity="1" filter-blend-mode="normal" stroke="#ffffff" shape-rendering="auto"/>
 <path id="path5601" d="M296 45.5C273 48 189 87 186 285c-2.6 209 87 253 110 253L297 400c-19.3 0-23-21-27.6-64-2.9-28.7-3.7-64 0-99 2.7-24.7 7.3-48.9 27.5-48.9L296 45.5" fill="#da0092"/>
 <path id="path5603" d="m360 538c8.9 0 15.3-7.3 15.3-15.5l.1-.1c0 0-.1-108-.1-108 0-8.5-6.9-15.2-15.3-15.2l-39 0 0 138c0 0 39 .1 39 0l.1 0" fill="#da0092"/>
 <path id="path5605" d="m360 187c8.9 0 15.3-7.3 15.3-15.4l.1 0c0 0-.1-111-.1-111 0-8.5-6.9-15.2-15.3-15.2L321 45.5 321 187l39 .1.1-.1" fill="#da0092"/>
</svg>
