<?xml version="1.0" encoding="UTF-8" standalone="no"?>
<svg xmlns="http://www.w3.org/2000/svg" version="1.0" width="580" height="580">
 <metadata id="metadata25"/>
 <path id="path4155" d="M508 54.9C487 76 466 96 445 117 437 109 430 102 422 94 415 121 408 148 401 175c26.6-7.4 53-14.9 79.9-22.3-7.7-7.7-15.5-15.5-23-23 21-20.9 42-41.7 63-63-4-3.9-8-7.9-12-11.8z" opacity=".8" fill="none" stroke="#ffffff" stroke-linejoin="round" stroke-width="64"/>
 <path id="path4157" d="m67 60c-3.9 4-7.9 8-11.8 12 20.8 21 41.6 42 62 63-7.7 7.7-15.5 15.5-23 23 26.9 7.1 53.9 14.2 81 21.4-7.4-26.6-14.9-53-22.3-79.9-7.7 7.7-15.5 15.5-23 23C108 102 88 81 67 60" opacity=".8" fill="none" stroke="#ffffff" stroke-linejoin="round" stroke-width="64"/>
 <path id="path4159" d="m234 132c0 34 0 68 0 102-33.7 0-67 0-101 0 0 37 0 74 0 111 34 0 68 0 102 0 0 34 0 68 0 102 37 0 74 0 111 0 0-33.7 0-67 0-101 34 0 68 0 102 0 0-37 0-74 0-111-33.7 0-67 0-101 0 0-33.7 0-67 0-101-37.8-.6-76-1.2-113-1.9z" opacity=".8" fill="none" stroke="#ffffff" stroke-linejoin="round" stroke-width="64"/>
 <path id="path4161" d="m406 400c7.1 26.9 14.2 53.9 21.4 81 7.7-7.7 15.5-15.5 23-23 21 21 42 42 63 63 3.9-3.9 7.9-7.9 11.8-11.8-20.7-20.7-41.5-41.5-62-62 7.9-7.9 15.8-15.8 23.7-23.7-26.9-7.1-53.9-14.2-81-21.4" opacity=".8" fill="none" stroke="#ffffff" stroke-linejoin="round" stroke-width="64"/>
 <path id="path4163" d="m180 407l-81 21.4 23 23-62 63 11.8 11.8 63-62 23.7 23.7 21.4-81" opacity=".8" fill="none" stroke="#ffffff" stroke-linejoin="round" stroke-width="64"/>
 <path d="M508 54.9C487 76 466 96 445 117 437 109 430 102 422 94 415 121 408 148 401 175c26.6-7.4 53-14.9 79.9-22.3-7.7-7.7-15.5-15.5-23-23 21-20.9 42-41.7 63-63-4-3.9-8-7.9-12-11.8" id="path4148" fill="#da0092"/>
 <path d="m67 60c-3.9 4-7.9 8-11.8 12 20.8 21 41.6 42 62 63-7.7 7.7-15.5 15.5-23 23 26.9 7.1 53.9 14.2 81 21.4-7.4-26.6-14.9-53-22.3-79.9-7.7 7.7-15.5 15.5-23 23C108 102 88 81 67 60" id="path4146" fill="#da0092"/>
 <path d="m234 132c0 34 0 68 0 102-33.7 0-67 0-101 0 0 37 0 74 0 111 34 0 68 0 102 0 0 34 0 68 0 102 37 0 74 0 111 0 0-33.7 0-67 0-101 34 0 68 0 102 0 0-37 0-74 0-111-33.7 0-67 0-101 0 0-33.7 0-67 0-101-37.8-.6-76-1.2-113-1.9" id="path4144" fill="#da0092"/>
 <path d="m406 400c7.1 26.9 14.2 53.9 21.4 81 7.7-7.7 15.5-15.5 23-23 21 21 42 42 63 63 3.9-3.9 7.9-7.9 11.8-11.8-20.7-20.7-41.5-41.5-62-62 7.9-7.9 15.8-15.8 23.7-23.7-26.9-7.1-53.9-14.2-81-21.4" id="path4142" fill="#da0092"/>
 <path d="m180 407l-81 21.4 23 23-62 63 11.8 11.8 63-62 23.7 23.7 21.4-81" id="polygon11" fill="#da0092"/>
</svg>
