<?xml version="1.0" encoding="UTF-8" standalone="no"?>
<svg xmlns="http://www.w3.org/2000/svg" version="1.0" width="580" height="580">
 <metadata id="metadata26"/>
 <g id="g4146" transform="matrix(0.95341596,0,0,0.95166911,-0.01285897,14.015482)">
  <path d="m150 339c-2.4-4.7-1.8-10.4 1.3-14.6l27.6-36.7 0-135c0-39-31.8-71-71-71-39 0-71 31.8-71 71l0 344 142 0 0-150-16.5 0c-5.3 0-10-3-12.5-7.7z" id="path4137" mix-blend-mode="normal" solid-color="#000000" opacity=".8" color-interpolation-filters="linearRGB" color="#000000" image-rendering="auto" color-rendering="auto" stroke-width="67" isolation="auto" color-interpolation="sRGB" solid-opacity="1" fill="none" stroke="#ffffff" shape-rendering="auto"/>
  <path d="m472 224l-120-70-107 69.9-65.8 87-16.5 21.9 16.5 0 23.9 0 0 162 301 0 0-161 39 0-71-109zm-157 23l76 0 0 76-76 0 0-76zm126 233l-176 0 0-114 176 0 0 114z" id="path4139" mix-blend-mode="normal" solid-color="#000000" opacity=".8" color-interpolation-filters="linearRGB" color="#000000" image-rendering="auto" color-rendering="auto" stroke-width="67" isolation="auto" color-interpolation="sRGB" solid-opacity="1" fill="none" stroke="#ffffff" shape-rendering="auto"/>
  <path id="path18" d="m150 339c-2.4-4.7-1.8-10.4 1.3-14.6l27.6-36.7 0-135c0-39-31.8-71-71-71-39 0-71 31.8-71 71l0 344 142 0 0-150-16.5 0c-5.3 0-10-3-12.5-7.7" fill="#666666"/>
  <path id="path20" d="m472 224l-120-70-107 69.9-65.8 87-16.5 21.9 16.5 0 23.9 0 0 162 301 0 0-161 39 0-71-109m-157 23l76 0 0 76-76 0 0-76m126 233l-176 0 0-114 176 0 0 114" fill="#666666"/>
 </g>
</svg>
