<?xml version="1.0" encoding="UTF-8" standalone="no"?>
<svg xmlns="http://www.w3.org/2000/svg" version="1.0" width="580" height="580">
 <metadata id="metadata2975"/>
 <g id="g4151">
  <path d="m506 76l-31 110-159 0 38 303 130 0 38.8-303-29.4 0 30.5-105-18.2-5.3zM297 363c3.1-27.4-17.6-42-62-44.6l-107 0c-44.6 2.3-66 17.2-62.8 44.6l233 0zm-233 82c-2.7 27.4 18.2 42 62.8 44l108 0c44.6-2 65-16.6 62-44l-233 0zm223-61l-213 0c-5.5 0-10.2 2-14 5.9-3.9 3.9-5.9 8.4-5.9 13.5 0 5.9 2 10.7 5.9 14.4 3.9 3.7 8.6 5.6 14 5.6l213 0c5.5 0 10.2-1.9 14-5.6 3.9-3.7 5.9-8.5 5.9-14.4 0-5.1-2-9.6-5.9-13.5-3.9-3.9-8.6-5.9-14-5.9z" id="path4144" mix-blend-mode="normal" solid-color="#000000" opacity=".8" color-interpolation-filters="linearRGB" filter-gaussianBlur-deviation="0" color="#000000" image-rendering="auto" color-rendering="auto" stroke-width="64" isolation="auto" color-interpolation="sRGB" solid-opacity="1" fill="none" filter-blend-mode="normal" stroke="#ffffff" shape-rendering="auto"/>
  <path id="flowRoot3192" d="m506 76l-31 110-159 0 38 303 130 0 38.8-303-29.4 0 30.5-105-18.2-5.3M297 363c3.1-27.4-17.6-42-62-44.6l-107 0c-44.6 2.3-66 17.2-62.8 44.6l233 0m-233 82c-2.7 27.4 18.2 42 62.8 44l108 0c44.6-2 65-16.6 62-44l-233 0m223-61l-213 0c-5.5 0-10.2 2-14 5.9-3.9 3.9-5.9 8.4-5.9 13.5 0 5.9 2 10.7 5.9 14.4 3.9 3.7 8.6 5.6 14 5.6l213 0c5.5 0 10.2-1.9 14-5.6 3.9-3.7 5.9-8.5 5.9-14.4 0-5.1-2-9.6-5.9-13.5-3.9-3.9-8.6-5.9-14-5.9" fill="#734a08"/>
 </g>
</svg>
