<?xml version="1.0" encoding="UTF-8" standalone="no"?>
<svg xmlns="http://www.w3.org/2000/svg" version="1.0" width="580" height="580">
 <metadata id="metadata1976"/>
 <path id="path4160" d="m290 47c-8.4.1-16.8 1.7-25 5.1-25 9.7-46 29.8-74 32-20.4 0-72.9 0-47 32.6 12.7 9.8 24 38.5 39.7 39l-20.8 17.8c-12-18.5-29.7-43-53-47.9-4.5-.6-9.7 2.1-11.4 6.4-4.4 26-3.3 54-19.5 77-17.4 30-40 64.9-26.8 101 12.7 37.7 43.6 72 35.8 114 1.2 33 35.5 12.1 49.9-2.5 9-6.2 15.8-14.8 18.4-21.5l17.6 19c-3 .5-6.3 2.3-9.2 5.7-10.7 9.5-19.9 20.5-30 30.5-24.6 26 22.3 34 40.7 32.4 41.8 10.3 75 51 121 43.7 43-5.3 79-44 124-37 27 2.8 24.5-29.6 13.7-40-5.5-7-19.9-25.7-31-27.9l15.6-14.4c5 8.4 19 18.7 24 24.5 10.3 12.2 47 24 43.6-6.3.5-25.6 9.3-49.7 23.7-71 16.6-26 31.8-58.8 18.9-90-12.5-36.7-39.6-70-35.6-111 .7-11-4.7-26.3-18.5-23.7-13.2 12.4-42 27-47 44l-17.5-18.9c4.9-1 9.6-4.1 11.5-9.9 12.6-14.6 49-35.5 22.8-55C415 94 385 92 361 74 340 60 315 46.7 290 47" mix-blend-mode="normal" solid-color="#000000" opacity=".8" white-space="normal" color-interpolation-filters="linearRGB" filter-gaussianBlur-deviation="0" color="#000000" image-rendering="auto" color-rendering="auto" stroke-width="64" isolation="auto" color-interpolation="sRGB" solid-opacity="1" fill="none" stroke-linejoin="round" filter-blend-mode="normal" stroke="#ffffff" shape-rendering="auto"/>
 <path d="m290 47c-8.4.1-16.8 1.7-25 5.1-25 9.7-46 29.8-74 32-20.4 0-72.9 0-47 32.6 12.7 9.8 24 38.5 39.7 39l-20.8 17.8c-12-18.5-29.7-43-53-47.9-4.5-.6-9.7 2.1-11.4 6.4-4.4 26-3.3 54-19.5 77-17.4 30-40 64.9-26.8 101 12.7 37.7 43.6 72 35.8 114 1.2 33 35.5 12.1 49.9-2.5 9-6.2 15.8-14.8 18.4-21.5l17.6 19c-3 .5-6.3 2.3-9.2 5.7-10.7 9.5-19.9 20.5-30 30.5-24.6 26 22.3 34 40.7 32.4 41.8 10.3 75 51 121 43.7 43-5.3 79-44 124-37 27 2.8 24.5-29.6 13.7-40-5.5-7-19.9-25.7-31-27.9l15.6-14.4c5 8.4 19 18.7 24 24.5 10.3 12.2 47 24 43.6-6.3.5-25.6 9.3-49.7 23.7-71 16.6-26 31.8-58.8 18.9-90-12.5-36.7-39.6-70-35.6-111 .7-11-4.7-26.3-18.5-23.7-13.2 12.4-42 27-47 44l-17.5-18.9c4.9-1 9.6-4.1 11.5-9.9 12.6-14.6 49-35.5 22.8-55C415 94 385 92 361 74 340 60 315 46.7 290 47" id="path3575" fill="#734a08" isolation="auto" color-rendering="auto" white-space="normal" solid-opacity="1" mix-blend-mode="normal" color-interpolation-filters="linearRGB" shape-rendering="auto" image-rendering="auto" color-interpolation="sRGB" color="#000000" solid-color="#000000"/>
 <path d="M295 63.9C273 64 251 74 233 87 211 104 179 100 157 105 163 124 191 132 190 154 187 156 185 156 183 156L162 174C162 175 163 176 164 176 139 193 129 141 111 149 114 185 91 216 75 246 61 268 59.8 296 72 320 83 348 107 374 103 406 102 439 128 402 139 395 155 386 159 392 155 401L173 420C183 418 190 429 176 438 165 447 132 476 166 471 214 473 247 524 297 515 339 508 374 471 418 479 433 465 394 451 391 434 393 428 397 426 402 427L417 412C414 407 415 402 427 400 443 406 460 443 470 425 467 388 493 359 508 328 525 299 512 265 497 238 484 215 474 189 477 163 461 148 448 197 427 190 426 186 426 183 427 180L409 161C399 163 388 155 402 145 407 134 440 118 428 109 391 113 359 91 328 74 318 67 307 64 295 63.9" id="path6053" opacity=".9" fill="#ffffff" fill-rule="evenodd"/>
 <g id="g5215" transform="matrix(0.94131245,0,0,0.94129797,17.217132,8.5956511)" fill="#734a08">
  <path id="path4356" d="m199 429c-27.9-15.7-44.9-52-32-107 8.8-38.6 34.5-86 14.8-126 23.9 16.5 48.7 55.7 74 100 1.7-47.9-23-79-5.3-145 12.3 81 62 86 86 160 10.6-34.6 32.7-46 21.9-132 109 148 46.7 201 25 254l7-74c-34 98-61 117-86 139 13.8-46 19-92-8.8-139-6.8 75.9-26 60-29.8 121-38-28.9-46-59-53-107-5.2 5.7-14 29.4-13.6 56" fill-rule="evenodd"/>
  <path id="path4358" d="M278 75C250 190 302 189 330 257 351 153 290 176 278 75" fill-rule="evenodd"/>
 </g>
</svg>
