<?xml version="1.0" encoding="UTF-8" standalone="no"?>
<svg xmlns="http://www.w3.org/2000/svg" version="1.0" width="580" height="580">
 <metadata id="metadata2975"/>
 <path id="path4159" d="m268 51.9c-7.5.7-9.8 8.2-12 13.7-2.1-4.9-3.4-10-8.8-12.7-40-5.9-48 104-51 141 10.2-33.6 39.6-163 50.7-111-5.4 14-14.8 50-9.5 101 4.9-26.4 7.1-53.8 14.7-80 10.8 58.9 17 123 20.4 175-5.4-22.5-8.4-53.7-22.4-65-6.3-3.8-18 3.9-21 8-8.9-7.6-17.2-13.4-31.4-7.2-7.8-2.4-16.2-4.3-23.6-1.9C78 206 45 393 34 466 69 369 83 286 141 237 102 308 96 343 77 463 114 367 126 242 178 234c-39 62-51.8 164-54.6 234 21-78 30-171 71.8-226 7.9 6.1 14.6 13.6 20.5 21.8-12.3 67-21 135-20.8 203 15-62 18.2-125 30.7-187 29.7 67 36 137 47 194-76-5.4-140 43-209 40.8.8 6-3.9 14 6.5 14l439 0c10.4.1 5.7-8 6.5-14-68 2.3-133-46-209-40.8 11.3-57 17.7-128 47-194 12.5 62 15.6 126 30.7 187 .2-68-8.5-136-20.8-203 5.9-8.2 12.6-15.7 20.5-21.8 41.5 56 50.6 148 71.8 226-2.8-69.9-15.4-172-54.6-234 51 8.1 64 133 101 230-19-120-25-155-64-227 58 48.8 71.8 132 107 229-10.9-73-43-259-140-252-7.4-2.3-15.8-.5-23.6 1.9-14.2-6.2-22.4-.4-31.4 7.2-3-4.2-14.9-11.8-21-8-14 11.3-17 42.6-22.4 65 3.3-52 9.6-116 20.4-175 7.5 25.8 9.8 53 14.7 80 5.3-51-4.1-87-9.5-101 11.2-52 40.5 78 50.7 111-2.9-37.6-10.8-147-51-141-5.4 2.7-6.8 7.8-8.9 12.7-2.3-5.5-4.6-13-12-13.7C302 54 295 69 290 92 285 69 278 54 268 51.9m-5.2 29.8C271 80.9 279 170 279 188 281 175 257 81 263 82m54 0C321 81 305 157 301 188 301 170 309 80.9 317 82M244 232c16.9 22 22.7 74 25.7 101-9.9-34-15.9-66.8-29.9-97 1.3-2.1 2.8-3.4 4.2-3.4zm93 0c1.5 0 2.9 1.3 4.2 3.4-14 30.6-20 63-29.9 97 3-26 8.8-79 25.7-101zm-103 18.2c4-.5 16 42 17.9 49.8-6.4-17.4-11.2-33.6-18.8-48 .2-1.1.6-1.6 1-1.6zm114 0c.4.1.7.6 1 1.6-7.6 14.5-12.4 30.7-18.8 48 1.9-7.4 13.9-50 17.9-49.8z" opacity=".8" fill="none" stroke="#ffffff" stroke-linejoin="round" stroke-width="64"/>
 <path d="m268 51.9c-7.5.7-9.8 8.2-12 13.7-2.1-4.9-3.4-10-8.8-12.7-40-5.9-48 104-51 141 10.2-33.6 39.6-163 50.7-111-5.4 14-14.8 50-9.5 101 4.9-26.4 7.1-53.8 14.7-80 10.8 58.9 17 123 20.4 175-5.4-22.5-8.4-53.7-22.4-65-6.3-3.8-18 3.9-21 8-8.9-7.6-17.2-13.4-31.4-7.2-7.8-2.4-16.2-4.3-23.6-1.9C78 206 45 393 34 466 69 369 83 286 141 237 102 308 96 343 77 463 114 367 126 242 178 234c-39 62-51.8 164-54.6 234 21-78 30-171 71.8-226 7.9 6.1 14.6 13.6 20.5 21.8-12.3 67-21 135-20.8 203 15-62 18.2-125 30.7-187 29.7 67 36 137 47 194-76-5.4-140 43-209 40.8.8 6-3.9 14 6.5 14l439 0c10.4.1 5.7-8 6.5-14-68 2.3-133-46-209-40.8 11.3-57 17.7-128 47-194 12.5 62 15.6 126 30.7 187 .2-68-8.5-136-20.8-203 5.9-8.2 12.6-15.7 20.5-21.8 41.5 56 50.6 148 71.8 226-2.8-69.9-15.4-172-54.6-234 51 8.1 64 133 101 230-19-120-25-155-64-227 58 48.8 71.8 132 107 229-10.9-73-43-259-140-252-7.4-2.3-15.8-.5-23.6 1.9-14.2-6.2-22.4-.4-31.4 7.2-3-4.2-14.9-11.8-21-8-14 11.3-17 42.6-22.4 65 3.3-52 9.6-116 20.4-175 7.5 25.8 9.8 53 14.7 80 5.3-51-4.1-87-9.5-101 11.2-52 40.5 78 50.7 111-2.9-37.6-10.8-147-51-141-5.4 2.7-6.8 7.8-8.9 12.7-2.3-5.5-4.6-13-12-13.7C302 54 295 69 290 92 285 69 278 54 268 51.9m-5.2 29.8C271 80.9 279 170 279 188 281 175 257 81 263 82m54 0C321 81 305 157 301 188 301 170 309 80.9 317 82M244 232c16.9 22 22.7 74 25.7 101-9.9-34-15.9-66.8-29.9-97 1.3-2.1 2.8-3.4 4.2-3.4zm93 0c1.5 0 2.9 1.3 4.2 3.4-14 30.6-20 63-29.9 97 3-26 8.8-79 25.7-101m-103 18.2c4-.5 16 42 17.9 49.7-6.4-17.4-11.2-33.6-18.8-48 .2-1.1.6-1.6 1-1.6m114 0c.4.1.7.6 1 1.6-7.6 14.5-12.4 30.7-18.8 48 1.9-7.4 13.9-50 17.9-49.8" id="path4151" fill="#734a08"/>
</svg>
