<?xml version="1.0" encoding="UTF-8" standalone="no"?>
<svg xmlns="http://www.w3.org/2000/svg" version="1.0" width="580" height="580">
 <metadata id="metadata10"/>
 <path mix-blend-mode="normal" white-space="normal" isolation="auto" id="path4137" d="m143 124c12.7 15.7 33 4.9 33.5-9.3.7-7.4-3.2-15.2-10-18.6-6.9-3.5-16-2-21 3-6.6 6.3-8 17.5-2.5 24.9zM323 98c-13.6-.9-26 8.9-29.5 22l-19.6 50.6c-15.3 2.7-24.7 18.8-22.9 33.6l0 63 20 0c.5 10.2-1.3 20.7 1.6 30.6 5.4 14.9 29.4 14.8 34.7-.1 2.9-9.9 1.1-20.4 1.6-30.5l136 0c.5 10.2-1.3 20.7 1.6 30.5 5.4 14.9 29 15 34.7.1 2.9-9.9 1.2-20.4 1.6-30.6l20 0C503 244 503 220 503 196c-1-12-11-23-23-25-7-20-15-40-22-60-6-11-18-13-29-13-34.9 0-71 0-106 0zm-.3 20l109 0c10.9 0 12 12.4 15.5 20l12 32-164 0c5.8-15.3 11.3-30.9 17.4-46 1.8-3.8 5.8-6.4 9.8-6.2zm-221 42.6c-4.5 12.7-7.2 25.9-11.4 38-.3 7.6 10.4 10 15.7 4.7C111 190 113 182 117 172c2.4-2.9 3.2-2.9 2 .9-1.5 8.7-3.7 17.4-4.7 26 .6 16.7.9 33.5 1.4 50-6.9 14.4-10.2 23-16.9 37C91 304 115 315 123 294c6-12.7 12.3-25.4 18-38-.2-10.6-.3-19 0-30.6l19.3 25c1.7 17.8 3.4 35.4 5.1 50 3.4 14.2 22.5 9.9 20.8-6.9C184 277 183 254 180 238 173 225 164 214 156 203l4-19c5.3 5.5 11.4 10.2 17 15.4 12.9 13.3 23.3-6.4 13.8-12.5-5.6-5.1-11.7-9.9-17-15-4.1-9.4-8.2-19-12.4-28-5.3-6.1-11.4-9.8-18.3-9.8-6.8-1.6-31.5 17.9-41.5 26.5zm203 59.9c-8 11-27 7-30.4-6.1-3.7-11 5.1-23.6 16.8-23.3 14.5-.7 23 18.8 13.6 29.4zm174 .1c-8 11-27 7-30.4-6.1-3.7-11 5.1-23.6 16.8-23.3 14.5-.7 23 18.8 13.6 29.4zM65 382c2.2 7.8 17.4 36 21.6 41 46.7-25.8 103-44 148-31 45.9 14 84 47.6 131 57 53.8 13 110-1.6 158-26-6-17.2-15.3-35-17.6-42.6-42.9 16.7-97 30-137 18.7C303 375 263 343 201 337c-48 .7-96 19.5-136 45z" solid-color="#000000" opacity=".8" color-interpolation-filters="linearRGB" filter-gaussianBlur-deviation="0" color="#000000" image-rendering="auto" color-rendering="auto" stroke-width="64" color-interpolation="sRGB" solid-opacity="1" fill="none" stroke-linejoin="round" filter-blend-mode="normal" stroke="#ffffff" shape-rendering="auto"/>
 <path d="m143 124c12.7 15.7 33 4.9 33.5-9.3.7-7.4-3.2-15.2-10-18.6-6.9-3.5-16-2-21 3-6.6 6.3-8 17.5-2.5 24.9M323 98c-13.6-.9-26 8.9-29.5 22l-19.6 50.6c-15.3 2.7-24.7 18.8-22.9 33.6l0 63 20 0c.5 10.2-1.3 20.7 1.6 30.6 5.4 14.9 29.4 14.8 34.7-.1 2.9-9.9 1.1-20.4 1.6-30.5l136 0c.5 10.2-1.3 20.7 1.6 30.5 5.4 14.9 29 15 34.7.1 2.9-9.9 1.2-20.4 1.6-30.6l20 0C503 244 503 220 503 196c-1-12-11-23-23-25-7-20-15-40-22-60-6-11-18-13-29-13-34.9 0-71 0-106 0m-.3 20l109 0c10.9 0 12 12.4 15.5 20l12 32-164 0c5.8-15.3 11.3-30.9 17.4-46 1.8-3.8 5.8-6.4 9.8-6.2zm-221 42.6c-4.5 12.7-7.2 25.9-11.4 38-.3 7.6 10.4 10 15.7 4.7C111 190 113 182 117 172c2.4-2.9 3.2-2.9 2 .9-1.5 8.7-3.7 17.4-4.7 26 .6 16.7.9 33.5 1.4 50-6.9 14.4-10.2 23-16.9 37C91 304 115 315 123 294c6-12.7 12.3-25.4 18-38-.2-10.6-.3-19 0-30.6l19.3 25c1.7 17.8 3.4 35.4 5.1 50 3.4 14.2 22.5 9.9 20.8-6.9C184 277 183 254 180 238 173 225 164 214 156 203l4-19c5.3 5.5 11.4 10.2 17 15.4 12.9 13.3 23.3-6.4 13.8-12.5-5.6-5.1-11.7-9.9-17-15-4.1-9.4-8.2-19-12.4-28-5.3-6.1-11.4-9.8-18.3-9.8-6.8-1.6-31.5 17.9-41.5 26.5m203 59.9c-8 11-27 7-30.4-6.1-3.7-11 5.1-23.6 16.8-23.3 14.5-.7 23 18.8 13.6 29.4m174 .1c-8 11-27 7-30.4-6.1-3.7-11 5.1-23.6 16.8-23.3 14.5-.7 23 18.8 13.6 29.4M65 382c2.2 7.8 17.4 36 21.6 41 46.7-25.8 103-44 148-31 45.9 14 84 47.6 131 57 53.8 13 110-1.6 158-26-6-17.2-15.3-35-17.6-42.6-42.9 16.7-97 30-137 18.7C303 375 263 343 201 337c-48 .7-96 19.5-136 45" id="path3236" isolation="auto" white-space="normal" mix-blend-mode="normal" fill="#0092da" color-rendering="auto" solid-opacity="1" color-interpolation-filters="linearRGB" shape-rendering="auto" image-rendering="auto" color-interpolation="sRGB" color="#000000" solid-color="#000000"/>
</svg>
