<?xml version="1.0" encoding="UTF-8" standalone="no"?>
<svg xmlns="http://www.w3.org/2000/svg" version="1.0" width="580" height="580">
 <metadata id="metadata10"/>
 <path id="path4143" d="M479 50.9L258 51C247 50.7 236 59 236 72L236 95C221 93 206 97 192 137 192 160 193 183 193 206 169 303 122 359 88 441 72 524 181 562 215 478 219 386 215 290 216 196L236 196 236 495 259 495 259 529 474 529 474 496 494 496 494 67.9C494 58.8 489 50.9 479 50.9zM295 98L435 98C442 98 448 101 448 112L448 223C448 230 444 236 436 236L295 235C287 235 280 229 280 220L280 111C280 103 286 98 295 98zM196 279C198 343 199 408 193 470 172 530 105 511 108 454 137 394 174 321 196 279z" opacity=".8" fill="none" stroke="#ffffff" stroke-linejoin="round" stroke-width="64"/>
 <path d="M479 50.9L258 51C247 50.7 236 59 236 72L236 95C221 93 206 97 192 137 192 160 193 183 193 206 169 303 122 359 88 441 72 524 181 562 215 478 219 386 215 290 216 196L236 196 236 495 259 495 259 529 474 529 474 496 494 496 494 67.9C494 58.8 489 50.9 479 50.9M295 98L435 98C442 98 448 101 448 112L448 223C448 230 444 236 436 236L295 235C287 235 280 229 280 220L280 111C280 103 286 98 295 98M196 279C198 343 199 408 193 470 172 530 105 511 108 454 137 394 174 321 196 279" id="path4140" fill="#ac39ac"/>
</svg>
