<?xml version="1.0" encoding="UTF-8" standalone="no"?>
<svg xmlns="http://www.w3.org/2000/svg" version="1.0" width="580" height="580">
 <metadata id="metadata10"/>
 <path id="path4159" d="m164 152c6.8 31.9 39 57.9 72 52.8 21-2 40.8-14.5 51.9-32.4 10-4.7 22.4 2.9 31.5-4.7 7.2-4.5 12.2-18.7 21-16 5 3.4 8.5 12.6 15.7 11 7.3-3.4 13.4-19.2 20.4-6.7 3.6 4.4 10.8 11 15.8 4.4 6-9.8 14.5-12.8 20.9-1.5 4.6 6 10.9 4.7 16.6-1 7.2-7.6 15.8-15 20.3-24.6-.5-9.9-7.3-14-15-20.9-12.8-12.8-23.8-9.4-35.8-9.4-37.5-.9-77 .9-112-.9C273 79.9 255 68 229 69 188 67.8 154 112 164 152m48 .9c-11.7 7.4-29.8-2.4-26.9-16.9 2.4-11 10.7-16.2 22.5-15 12 2.7 18.3 24.4 4.4 32z" mix-blend-mode="normal" solid-color="#000000" color-interpolation-filters="linearRGB" filter-gaussianBlur-deviation="0" color="#000000" image-rendering="auto" color-rendering="auto" stroke-width="64" isolation="auto" color-interpolation="sRGB" solid-opacity="1" fill="none" stroke-linejoin="round" filter-blend-mode="normal" stroke="#ffffff" shape-rendering="auto"/>
 <path id="path4137" d="m415 203c-15.3.1-23.8 14.5-34.7 23l-47 43c-73 0-147 0-220 0-20 .2-30 27.8-15.3 41 11 10.6 27.3 5.8 41 6.9 48 0 95 0 142 0l-52 47.9c-39.5.3-79-.5-118 .4-19.8 2.6-26.7 31-10.3 42.6 11.8 8.3 26.9 3.9 40 5 12 0 24 0 36 0-10.3 10-22 18.8-31 30-10.9 16.7 6.3 40.6 25.6 35.6 13-3.8 21-16 31.5-24.3 14.5-13 29.5-27 44.5-41 74-.1 147 .1 220-.1 19.9-.8 29.5-28.6 14.2-41-11.3-10-27-5.3-41-6.5-47 0-94 0-141 0l52-47.9c38.7-.1 77 .2 116-.1 19.9-1 29-28.9 13.8-41.6-11.6-10-27.6-5.1-41.5-6.3-12 0-24 0-36 0 10.3-10 22-18.9 31-30 9.8-15.3-2.2-36.7-20.3-36.4z" fill="none" stroke="#ffffff" stroke-linejoin="round" stroke-width="64"/>
 <path d="m415 203c-15.3.1-23.8 14.5-34.7 23l-47 43c-73 0-147 0-220 0-20 .2-30 27.8-15.3 41 11 10.6 27.3 5.8 41 6.9 48 0 95 0 142 0l-52 47.9c-39.5.3-79-.5-118 .4-19.8 2.6-26.7 31-10.3 42.6 11.8 8.3 26.9 3.9 40 5 12 0 24 0 36 0-10.3 10-22 18.8-31 30-10.9 16.7 6.3 40.6 25.6 35.6 13-3.8 21-16 31.5-24.3 14.5-13 29.5-27 44.5-41 74-.1 147 .1 220-.1 19.9-.8 29.5-28.6 14.2-41-11.3-10-27-5.3-41-6.5-47 0-94 0-141 0l52-47.9c38.7-.1 77 .2 116-.1 19.9-1 29-28.9 13.8-41.6-11.6-10-27.6-5.1-41.5-6.3-12 0-24 0-36 0 10.3-10 22-18.9 31-30 9.8-15.3-2.2-36.7-20.3-36.4" id="path2900" fill="#666666"/>
 <path d="m164 152c6.8 31.9 39 57.9 72 52.8 21-2 40.8-14.5 51.9-32.4 10-4.7 22.4 2.9 31.5-4.7 7.2-4.5 12.2-18.7 21-16 5 3.4 8.5 12.6 15.7 11 7.3-3.4 13.4-19.2 20.4-6.7 3.6 4.4 10.8 11 15.8 4.4 6-9.8 14.5-12.8 20.9-1.5 4.6 6 10.9 4.7 16.6-1 7.2-7.6 15.8-15 20.3-24.6-.5-9.9-7.3-14-15-20.9-12.8-12.8-23.8-9.4-35.8-9.4-37.5-.9-77 .9-112-.9C273 79.9 255 68 229 69 188 67.8 154 112 164 152m48 .9c-11.7 7.4-29.8-2.4-26.9-16.9 2.4-11 10.7-16.2 22.5-15 12 2.7 18.3 24.4 4.4 32z" id="path2307" fill="#666666"/>
</svg>
