<?xml version="1.0" encoding="UTF-8" standalone="no"?>
<svg xmlns="http://www.w3.org/2000/svg" width="580" height="580" version="1.0">
 <metadata id="metadata7"/>
 <g id="layer1" transform="translate(0,-472.36218)">
  <path d="M320 35.7C319 35.7 319 35.7 318 35.7 300 36.4 288 45 282 54 280 56 279 58.7 278 60.8 277 60.8 275 60.8 273 61 263 63 250 68 239 82 229 95 227 109 229 118 229 118 228 118 228 119 216 120 200 127 188 144 181 153 180 164 182 173 184 182 187 190 192 197 193 199 195 202 197 204 192 205 187 206 182 207 173 210 163 214 155 223 148 231 144 243 146 257 150 282 161 300 179 306 195 312 213 311 235 306 237 353 238 386 239 400 239 408 239 412 239 414 239 416 239 416 239 416 239 416 239 418 239 420 239 422 239 426 240 433 240 440 241 452 242 468 195 469 143 474 139 496 133 528 211 541 279 544 347 547 456 528 441 500 429 479 379 473 335 470 338 419 340 384 340 366 341 356 341 351 341 347 346 346 353 346 360 344 368 343 376 340 383 336 391 332 398 324 398 314 398 304 395 296 392 289 393 289 394 289 395 289 401 288 409 286 416 282 422 278 429 270 430 261 432 253 428 246 424 241 420 236 415 232 411 228 409 227 408 226 406 225 411 219 415 211 417 201 421 185 415 172 409 164 408 163 408 163 407 162 410 160 413 157 416 154 426 143 436 126 431 106 428 95 421 87 413 82 405 77 397 74 388 71.8 379 70 371 68.8 365 69 363 64.9 361 61 358 56 351 46 338 35.6 320 35.7zM321 58C331 57.9 336 62.9 340 68.9 345 75 347 81.9 347 81.9L349 90 358 90C358 90 370 90 383 93 390 95 397 97 401 100 406 103 409 107 410 111 412 121 407 131 400 139 393 147 384 153 384 153L368 163 385 172C385 172 389 174 392 178 395 182 398 187 396 196 394 206 390 211 387 213 385 216 385 215 385 215L354 222 382 236C382 236 390 240 398 246 401 248 405 252 407 254 409 256 409 257 409 257 408 260 407 261 404 263 401 265 397 266 392 267 381 269 371 268 371 268L333 263 363 287C363 287 376 298 376 314 376 315 376 315 372 317 369 319 363 321 356 323 343 325 330 325 330 325L317 326 319 338C319 338 319 338 319 341 319 345 319 352 318 365 318 382 317 420 314 469 307 469 301 469 295 469 286 468 275 468 263 468 263 452 262 438 262 432 261 425 261 421 261 420 261 419 261 419 261 419 261 419 261 419 261 419 261 418 261 417 261 414 261 411 261 407 261 399 260 383 259 352 256 292L256 278C217 288 173 297 170 261 167 225 209 218 228 217 216 201 195 171 205 157 214 145 224 141 231 140 251 135 235 139 255 135 255 135 250 121 249 118 248 113 249 106 256 96 265 86 271 84 276 83 280 82 282 83 282 83L296 89 297 74C297 74 297 70 300 66 302 62 306 58 319 58 319 58 320 58 321 58z" transform="translate(0,472.36218)" id="path3799-3" mix-blend-mode="normal" solid-color="#000000" opacity=".8" color-interpolation-filters="linearRGB" color="#000000" image-rendering="auto" color-rendering="auto" stroke-width="64" isolation="auto" color-interpolation="sRGB" solid-opacity="1" fill="none" stroke="#ffffff" shape-rendering="auto"/>
  <path d="m139 969c5.4-31.6 109-28.8 156-27.7 47 1.1 130 3.6 146 31.5 15.4 27.9-94 47-162 43.9-68-3.2-145-16.2-140-47.7z" id="path3799" stroke="#000000" stroke-linejoin="round" stroke-width="12"/>
  <path d="m321 517c-.5 0-.9 0-1.4 0-30.7 1.1-32 26-32 26 0 0-19-8-38 16.3-19 24.3-1.1 40.6-1.1 40.6 0 0-29-8.3-50 21-17 23.4 22 62.8 22 62.8 0 0-69-3.2-61 41.8 7.1 45 33.5 51 88 37 10.5 235-1.2 35.8 9.5 239 8.7.9 17.6 1.5 26 1.9 12 .6 26 .1 40-1.1 9.3-173 8.6-195 8.6-195 0 0 57-.6 57-22.5 0-21.9-17-35.5-17-35.5 0 0 45.5 5.4 49.8-19.4 2.6-15.3-32.7-32.9-32.7-32.9 0 0 14.4-3.1 19.9-27.9 5.5-24.8-16.8-36-16.8-36 0 0 38-23.5 30.5-53.7-7.8-30-63-29-63-29 0 0-8-32.7-37.5-32.6m-65 493c0 0 0 0 0 0 8.5.8 17 1.4 25.4 1.8 12.2.6 26 .1 39.9-1.1-13.9 1.2-27.8 1.7-39.9 1.1-8.4-.4-17-1-25.4-1.8" id="path3873" fill="#ffffff"/>
  <path d="m320 508c-.6 0-1.2 0-1.8 0-18.3.7-30.4 9.6-36 18.5-1.5 2.2-2.6 4.5-3.4 6.6-1.8 0-3.6 0-5.5.3-9.8 1.4-22.3 7.3-33.4 21.3-10 12.9-12.2 26-10.4 36-.4 0-.7 0-1.1.1-12.2 2-28 8.9-40 25.9-6.3 8.6-7.3 19-5.6 28 1.6 9 5.5 17 9.8 24 1.6 2.6 3.2 5 4.9 7.3-4.7.7-9.6 1.6-14.7 3.1-9.3 2.8-19 7.2-26.5 15.4-7.4 8.2-11.5 20.7-9.3 34.6 3.8 24.5 14.9 42 33 49 15.4 5.8 33.6 4.4 56-.4 2.1 46.7 3.4 79.9 3.9 94 .3 8 .4 12.2.4 14.3 0 2.2 0 1.4 0 1.8 0 .4-.1 2.2-.1 4.3.1 2.1.3 5.9.6 13 .7 13.5 2.6 44.5 5.3 95 7 .9 14.3 1.6 21.6 2.2-2.3-42.9-4.4-86-5.1-98-.4-7.2-.6-11-.6-12.8 0-.8-.1-.9-.1-.9 0 0 0 0 0 0 0-.4.2-2.1.1-4.6 0-2.5-.1-6.9-.4-14.9-.6-16-1.8-46.9-4.5-107l-.6-13.5c-38.5 9.7-82 18-85-17.5-3.3-35.6 38.8-42.5 57.8-44-12.3-15.7-32.6-45-22.8-59 9-12.4 18.4-16 26-17.2 19.9-4.8 3.3-1.2 24-5.1 0 0-5.5-14-6.2-17.5-.8-4.2-.5-11.6 7.3-21.5 8.1-10.3 14.8-12.6 19.4-13.2 4.6-.7 6.3.2 6.3.2l14.2 5.9.9-15.4c0 0 .2-3.4 2.8-7.3 2.6-3.9 6.4-8.2 18.9-8.6 11.3-.4 17 4.9 21.7 11.3 4.6 6.4 6.3 13 6.3 13l2.1 8.5 8.7-.2c0 0 12.7-.2 25.9 2.9 6.6 1.6 13 4 17.9 7.1 4.7 3.1 7.4 6.4 8.6 10.9 2.6 10.2-2.5 19.8-9.9 28-7.4 8.3-15.8 13.5-15.8 13.5l-16.7 10.2 17.4 8.9c0 0 3.6 1.9 7 6 3.4 4.1 6.1 9 4.1 18-2.3 10.5-6.1 15-8.6 17.5-2.6 2.3-2.9 2.1-2.9 2.1l-30.5 6.6 28 13.9c0 0 8.1 4.1 15.7 9.7 3.8 2.8 7.3 6 9.2 8.5 1.7 2.2 1.8 3.3 1.8 3.1-.5 2.8-1.6 4.1-4.4 5.9-2.9 1.8-7.7 3.3-12.8 4-10 1.5-20.4.4-20.4.4l-38.5-4.6 30.4 24c0 0 12.9 10.6 12.9 26.8 0 .7.1 1.2-3.5 3.3-3.6 2.1-9.8 4.1-16.3 5.4-13 2.6-26.5 2.8-26.5 2.8l-12.7.1 2.1 12.6c0 0 0 .3 0 3 0 3.8-.1 10.9-.4 23.8-.7 23.6-2.9 87-7.1 166 6.9-.4 13.9-1 20.8-1.8 4.6-85 7.3-139 8-164 .3-10 .3-14.4.4-18.8 5.6-.4 12.6-1.2 19.8-2.7 7.8-1.6 15.8-3.8 23-8 7.1-4.2 14.3-12 14.3-22.3 0-9.7-2.7-18-6.1-24.7 1-.1 2-.1 3-.3 6.8-1 14.2-2.8 21-7 6.8-4.2 13-11.5 14.6-21 1.4-8.2-2.2-15-6.2-20-3.9-5.1-8.8-9.2-13.5-12.7-1.5-1.1-2.9-2-4.3-3 4.5-5.6 8.7-13.5 11-24.4 3.5-15.8-2.2-29-8.6-36.8-.4-.5-.9-.9-1.4-1.4 2.8-2.5 5.8-5.2 8.8-8.6 9.8-11 19.9-28 14.7-48-2.8-10.6-9.9-18.5-17.7-23.7-7.9-5.2-16.6-8.1-24.8-10-9.6-2.3-17.5-3-23.4-3.3-1.5-3.6-3.6-7.9-6.8-12.4-7-9.9-20-20.5-38.5-20.5m-74 501c0 0 0 0 0 0 7.1.9 14.3 1.6 21.6 2.1 0 0 0 0 0 0-7.2-.5-14.5-1.2-21.6-2.1m86 .8c-6.9.8-13.9 1.4-20.8 1.8 0 0 0 0 0 0 6.9-.4 13.9-1 20.8-1.8" id="path3777" fill="#666666"/>
  <path d="m307.53644 745.21784a5.450859 5.486145 0 0 0 -5.56208 5.36596l-7.9 222a5.450859 5.486145 0 1 0 10.89353 .39284l7.9-222a5.450859 5.486145 0 0 0 -5.33145 -5.75881" id="path3779" shape-rendering="auto" mix-blend-mode="normal" color-interpolation-filters="linearRGB" isolation="auto" white-space="normal" fill="#666666" solid-opacity="1" image-rendering="auto" solid-color="#000000" color="#000000" color-rendering="auto" color-interpolation="sRGB"/>
  <path d="m273.59617 706.64903a5.450859 5.486145 0 0 0 -5.20724 5.71595l5.5 193a5.450859 5.486145 0 1 0 10.89531 -.31786l-5.5-192a5.450859 5.486145 0 0 0 -5.68984 -5.39988" id="path3779-3" shape-rendering="auto" mix-blend-mode="normal" color-interpolation-filters="linearRGB" isolation="auto" white-space="normal" fill="#666666" solid-opacity="1" image-rendering="auto" solid-color="#000000" color="#000000" color-rendering="auto" color-interpolation="sRGB"/>
 </g>
</svg>
