<?xml version="1.0" encoding="UTF-8" standalone="no"?>
<svg xmlns="http://www.w3.org/2000/svg" version="1.0" width="580" height="580">
 <metadata id="metadata2975"/>
 <g id="g4162" transform="matrix(0.9280385,0,0,0.92859887,0.61631368,27.32736)">
  <path d="m310 34l-20.4 29.6c-5 7-3.9 13 3.5 18 7 4.3 13 3.1 18-3.5L323 60.8 504 180 356 207c-5.4 1.2-9.8 4-13 8.4-3.3 4.5-4.2 9.2-2.6 14.3l32 125-105 156c-1.9 3.5-2.9 7.2-2.9 11 0 6.2 2.2 11.5 6.7 16 4.5 4.5 9.8 6.7 16 6.7 8.1 0 14.7-3.9 19.8-11.6l109-165 5.8 22.7-16.3 123c-.8 6.2.6 11.7 4.1 16.6 3.5 4.9 8.3 7.9 14.5 9 6.2 1.2 11.9-.1 17.2-3.8 5.2-3.7 8.2-8.6 9-14.8l16.9-126c.4-4.3 0-8.7-1.1-13.4l-37-148 97-17.4c5-.8 9.1-3.4 12.2-7.8 3.1-4.5 4.3-9.2 3.5-14.3-1.2-5-4.1-9.3-8.7-12.8L310 34m-247 11.7l0 10.5 0 478 32.7 0 0-350L257 119 96 58l0-12.5-32.7 0zM349 120c-10.5 0-19.4 3.6-26.7 10.8-7.4 7.2-11 16-11 26.5 0 10.5 3.7 19.3 11 26.4 7.4 7.2 16.3 10.8 26.7 10.8 10.5 0 19.5-3.6 27-10.8 7.6-7.2 11.3-16 11.3-26.4 0-10.5-3.8-19.3-11.3-26.5-7.6-7.2-16.6-10.8-27-10.8z" id="path4155" shape-rendering="auto" mix-blend-mode="normal" color-interpolation-filters="linearRGB" isolation="auto" white-space="normal" opacity=".8" fill="none" solid-opacity="1" image-rendering="auto" solid-color="#000000" stroke="#ffffff" color="#000000" stroke-width="68.9" color-rendering="auto" color-interpolation="sRGB"/>
  <path id="rect2996" d="m310 34l-20.4 29.6c-5 7-3.9 13 3.5 18 7 4.3 13 3.1 18-3.5L323 60.8 504 180 356 207c-5.4 1.2-9.8 4-13 8.4-3.3 4.5-4.2 9.2-2.6 14.3l32 125-105 156c-1.9 3.5-2.9 7.2-2.9 11 0 6.2 2.2 11.5 6.7 16 4.5 4.5 9.8 6.7 16 6.7 8.1 0 14.7-3.9 19.8-11.6l109-165 5.8 22.7-16.3 123c-.8 6.2.6 11.7 4.1 16.6 3.5 4.9 8.3 7.9 14.5 9 6.2 1.2 11.9-.1 17.2-3.8 5.2-3.7 8.2-8.6 9-14.8l16.9-126c.4-4.3 0-8.7-1.1-13.4l-37-148 97-17.4c5-.8 9.1-3.4 12.2-7.8 3.1-4.5 4.3-9.2 3.5-14.3-1.2-5-4.1-9.3-8.7-12.8L310 34m-247 11.7l0 10.5 0 478 32.7 0 0-350L257 119 96 58l0-12.5-32.7 0zM349 120c-10.5 0-19.4 3.6-26.7 10.8-7.4 7.2-11 16-11 26.5 0 10.5 3.7 19.3 11 26.4 7.4 7.2 16.3 10.8 26.7 10.8 10.5 0 19.5-3.6 27-10.8 7.6-7.2 11.3-16 11.3-26.4 0-10.5-3.8-19.3-11.3-26.5-7.6-7.2-16.6-10.8-27-10.8" shape-rendering="auto" mix-blend-mode="normal" color-interpolation-filters="linearRGB" isolation="auto" white-space="normal" fill="#39ac39" solid-opacity="1" image-rendering="auto" solid-color="#000000" color="#000000" color-rendering="auto" color-interpolation="sRGB"/>
 </g>
</svg>
