<?xml version="1.0" encoding="UTF-8" standalone="no"?>
<svg xmlns="http://www.w3.org/2000/svg" width="580" height="580" version="1.0">
 <metadata id="metadata3003"/>
 <path id="rect3195" d="m339 124c52 0 93 40 93 90l0 155c0 50-41 90-93 90l-102 0c-52 1-93-39-93-89l0-155c0-50 41-90 93-90z"/>
 <path d="m237 148l102 0c38 0 69 30.8 69 69l0 54c0 38-30.8 69-69 69l-102 0c-38 0-69-30.8-69-69l0-54c0-38 30.8-69 69-69" id="rect3199" opacity=".7" fill="#ffffff"/>
 <path id="rect3013" d="m276 3.6l24 0 0 132-24 0z"/>
</svg>
