<?xml version="1.0" encoding="UTF-8" standalone="no"?>
<svg xmlns="http://www.w3.org/2000/svg" width="580" height="580" version="1.0">
 <metadata id="metadata4148"/>
 <path color-interpolation="sRGB" color-rendering="auto" fill-rule="evenodd" color="#000000" solid-color="#000000" image-rendering="auto" solid-opacity="1" fill="none" white-space="normal" isolation="auto" color-interpolation-filters="linearRGB" mix-blend-mode="normal" shape-rendering="auto" id="path4136" d="m251 101c-7.9-.2-8.3 7.4-8.6 16.8-14.2.6-32.8-.9-43 2.9-10.2 5.9-6.6 18.7-7.5 28.4.2 14.2-1.3 28.4-.1 42.5 2.5 9.9 13.5 11 22 10.8l28 1.5c.2 75-.1 150 .4 224 1.6 8.6 11.4 7.7 18 7.5 7.8-.6 16 1.3 23.5-1.1 7.9-4.8 3.9-15.2 4.9-22.7l0-206c29 1.3 58 3.5 87 4.3 9.5-2.2 14.2-11.9 21-18 6.2-7.4 14.2-13.5 18.9-21.9 4.1-11-6.9-18.6-12.5-26.6-7.5-8.8-14-18.6-22.3-26.6-8.5-4.6-18.5-1.4-27.7-2l-64.8 1.4c.7-6.2-.1-14.7-7.8-15.8-9.9-.3-19.9 0-29.8-.1z" opacity=".8" stroke="#ffffff" stroke-linejoin="round" fill-opacity="0" stroke-width="64"/>
 <path d="m251 101c-7.9-.2-8.3 7.4-8.6 16.8-14.2.6-32.8-.9-43 2.9-10.2 5.9-6.6 18.7-7.5 28.4.2 14.2-1.3 28.4-.1 42.5 2.5 9.9 13.5 11 22 10.8l28 1.5c.2 75-.1 150 .4 224 1.6 8.6 11.4 7.7 18 7.5 7.8-.6 16 1.3 23.5-1.1 7.9-4.8 3.9-15.2 4.9-22.7l0-206c29 1.3 58 3.5 87 4.3 9.5-2.2 14.2-11.9 21-18 6.2-7.4 14.2-13.5 18.9-21.9 4.1-11-6.9-18.6-12.5-26.6-7.5-8.8-14-18.6-22.3-26.6-8.5-4.6-18.5-1.4-27.7-2l-64.8 1.4c.7-6.2-.1-14.7-7.8-15.8-9.9-.3-19.9 0-29.8-.1" id="path4140" shape-rendering="auto" mix-blend-mode="normal" color-interpolation-filters="linearRGB" isolation="auto" white-space="normal" fill="#734a08" solid-opacity="1" image-rendering="auto" solid-color="#000000" color="#000000" fill-rule="evenodd" color-rendering="auto" color-interpolation="sRGB"/>
</svg>
