<?xml version="1.0" encoding="UTF-8" standalone="no"?>
<svg xmlns="http://www.w3.org/2000/svg" version="1.0" width="580" height="580">
 <metadata id="metadata2975"/>
 <g id="g4171" transform="matrix(0.9413621,0,0,0.94252323,18.015073,16.342623)">
  <g id="g4162">
   <circle id="circle4143" r="33" cy="497" cx="123" opacity=".8" color-interpolation-filters="linearRGB" color="#000000" image-rendering="auto" color-rendering="auto" stroke-width="67.9" color-interpolation="sRGB" fill="none" stroke="#ffffff" shape-rendering="auto"/>
   <circle id="circle4145" r="59" cy="471" cx="428" opacity=".8" color-interpolation-filters="linearRGB" color="#000000" image-rendering="auto" color-rendering="auto" stroke-width="67.9" color-interpolation="sRGB" fill="none" stroke="#ffffff" shape-rendering="auto"/>
   <path id="path4147" d="m415 390l-.3.1-302 51.9c-26.5 4.9-45.7 27.9-45.7 54.8 0 30.7 25 55.7 55.7 55.7l305 0c45 0 82-36.6 82-82 0-45-36.6-82-82-82-6.6 0-12 .8-13 .9zm2.1 13.9c.5-.1 5.3-.8 11-.8 37 0 68 30.4 68 68 0 18-7 35-19.8 47.8-12.8 12.8-29.8 19.9-47.8 19.9l-305 0c-23 0-41.7-18.7-41.7-41.7 0-20 14.3-37 34-41 0 0 301-51.9 302-51.9 0 0 .1 0 .1 0z" mix-blend-mode="normal" solid-color="#000000" opacity=".8" color-interpolation-filters="linearRGB" color="#000000" image-rendering="auto" color-rendering="auto" stroke-width="67.9" isolation="auto" color-interpolation="sRGB" solid-opacity="1" fill="none" stroke="#ffffff" shape-rendering="auto"/>
   <path id="path4149" d="m272 127c-3.7-9.4-14.3-14-23.7-10.4l-45.5 18c-1 .2-1.9.5-2.9.9-4.8 1.9-8.3 5.6-10.2 10-1.9 4.4-2.2 9.5-.3 14.3.4.9.8 1.8 1.3 2.7l18 45.5c3.8 9.3 14.4 13.8 23.8 10 9.4-3.7 14-14.3 10.4-23.7l-12.4-31 31-12.4c9.3-3.8 13.9-14.4 10-23.8z" mix-blend-mode="normal" solid-color="#000000" opacity=".8" color-interpolation-filters="linearRGB" color="#000000" image-rendering="auto" color-rendering="auto" stroke-width="67.9" isolation="auto" color-interpolation="sRGB" solid-opacity="1" fill="none" stroke="#ffffff" shape-rendering="auto"/>
   <path id="path4151" d="m351 327c-.6-1-1.3-1.9-2-2.8l-28-49c-5.9-10-18.8-13.4-28.9-7.6-10 5.8-13.6 18.7-7.9 28.8l19.3 33.5-33.5 19.3c-10 5.9-13.4 18.8-7.6 28.9 5.8 10 18.7 13.6 28.8 7.9l49-28c1.1-.4 2.1-.9 3.1-1.4 5.1-3 8.6-7.8 10-13 1.5-5.3.9-11.2-2.1-16.3z" mix-blend-mode="normal" solid-color="#000000" opacity=".8" color-interpolation-filters="linearRGB" color="#000000" image-rendering="auto" color-rendering="auto" stroke-width="67.9" isolation="auto" color-interpolation="sRGB" solid-opacity="1" fill="none" stroke="#ffffff" shape-rendering="auto"/>
   <circle id="circle4153" r="44" cy="72" cx="336" opacity=".8" color-interpolation-filters="linearRGB" color="#000000" image-rendering="auto" color-rendering="auto" stroke-width="67.9" color-interpolation="sRGB" fill="none" stroke="#ffffff" shape-rendering="auto"/>
   <path id="path4155" d="m403 164c-4.8-8.5-15.5-11.6-24-6.9l-28 15.8-20.6-36.7c-1.4-6.4-5.8-12-12.3-14.8-10.7-4.6-23 .3-27.8 10.9L179 390c-4.7 10.8.3 23.3 11 27.9 10.8 4.6 23.3-.3 27.9-11l97-225 12 21.5c.3.9.7 1.8 1.2 2.6 2.4 4.3 6.4 7.3 10.9 8.5 4.4 1.3 9.4.9 13.7-1.5.9-.5 1.6-1 2.4-1.6l41-23c8.4-4.8 11.4-15.6 6.6-24z" mix-blend-mode="normal" solid-color="#000000" opacity=".8" color-interpolation-filters="linearRGB" color="#000000" image-rendering="auto" color-rendering="auto" stroke-width="67.9" isolation="auto" color-interpolation="sRGB" solid-opacity="1" fill="none" stroke="#ffffff" shape-rendering="auto"/>
  </g>
  <circle id="circle2531" r="33" cy="497" cx="123" fill="#39ac39"/>
  <circle id="circle2533" r="59" cy="471" cx="428" fill="#39ac39"/>
  <path id="path2535" d="m415 390l-.3.1-302 51.9c-26.5 4.9-45.7 27.9-45.7 54.8 0 30.7 25 55.7 55.7 55.7l305 0c45 0 82-36.6 82-82 0-45-36.6-82-82-82-6.6 0-12 .8-13 .9m2.1 13.9c.5-.1 5.3-.8 11-.8 37 0 68 30.4 68 68 0 18-7 35-19.8 47.8-12.8 12.8-29.8 19.9-47.8 19.9l-305 0c-23 0-41.7-18.7-41.7-41.7 0-20 14.3-37 34-41 0 0 301-51.9 302-51.9 0 0 .1 0 .1 0" fill="#39ac39"/>
  <path id="path2537" d="m272 127c-3.7-9.4-14.3-14-23.7-10.4l-45.5 18c-1 .2-1.9.5-2.9.9-4.8 1.9-8.3 5.6-10.2 10-1.9 4.4-2.2 9.5-.3 14.3.4.9.8 1.8 1.3 2.7l18 45.5c3.8 9.3 14.4 13.8 23.8 10 9.4-3.7 14-14.3 10.4-23.7l-12.4-31 31-12.4c9.3-3.8 13.9-14.4 10-23.8" fill="#39ac39"/>
  <path id="path2539" d="m351 327c-.6-1-1.3-1.9-2-2.8l-28-49c-5.9-10-18.8-13.4-28.9-7.6-10 5.8-13.6 18.7-7.9 28.8l19.3 33.5-33.5 19.3c-10 5.9-13.4 18.8-7.6 28.9 5.8 10 18.7 13.6 28.8 7.9l49-28c1.1-.4 2.1-.9 3.1-1.4 5.1-3 8.6-7.8 10-13 1.5-5.3.9-11.2-2.1-16.3" fill="#39ac39"/>
  <circle id="circle2541" r="44" cy="72" cx="336" fill="#39ac39"/>
  <path id="path2543" d="m403 164c-4.8-8.5-15.5-11.6-24-6.9l-28 15.8-20.6-36.7c-1.4-6.4-5.8-12-12.3-14.8-10.7-4.6-23 .3-27.8 10.9L179 390c-4.7 10.8.3 23.3 11 27.9 10.8 4.6 23.3-.3 27.9-11l97-225 12 21.5c.3.9.7 1.8 1.2 2.6 2.4 4.3 6.4 7.3 10.9 8.5 4.4 1.3 9.4.9 13.7-1.5.9-.5 1.6-1 2.4-1.6l41-23c8.4-4.8 11.4-15.6 6.6-24" fill="#39ac39"/>
 </g>
</svg>
