<?xml version="1.0" encoding="UTF-8" standalone="no"?>
<svg xmlns="http://www.w3.org/2000/svg" version="1.0" width="580" height="580">
 <metadata id="metadata1976"/>
 <path white-space="normal" isolation="auto" mix-blend-mode="normal" d="m105 171c2.9 4.9 7 15.6 13 16.2l198 9.2-.7 31.9c-15.2 1.5-32 13.3-45.9 19-66 6.3-139 10.8-199 7.1-4.8-12.6-9.4-25.5-14.2-38-5.4-9-25.7-3.5-22 5.9 6 12.5 11.9 25.6 18 38-17.8 16.6-8 41.5 17.2 42.5l13.5 38c8.6 9.8 27 2.2 22-7.2-5.9-10.3-10.7-21.7-15.8-33 60 4 140 38 193 56 52 17.5 88 17.8 117 14.5 29.4-3.3 52.6-8.2 61.8-28 14-56-45.6-94-90-102-11-5.3-27-11.9-40.9-12.3l.7-31.9 202-10.8c3.7.6 9-8.7 12.9-13.2 2.1-2.4.2-6-3-5.8l-222 17.9-214-19c-2.8.8-4.1 3.2-2.5 5.5zm-26.9 117c-7.4 8.9-23.6 2.9-23.4-8.5-.4-7.2 4.6-13.8 14.2-13.9 9.6-.1 17.3 14.8 9.2 22.4zm357 32.7c-17.3.3-33 0-50-.1-9.1-18.4-18.9-36-27.9-54 39-1.3 71 15.9 77.9 54zm-84 1.8c-15.7 0-34 .3-49 .2-.2-13.3-.6-40.5-.9-53.9 8.7-.1 17.9-.1 26.6-.3 10.7 17.2 16.6 35.8 23.4 53.9zm-92 66c-19 2.8-13.9 25.4 0 25.6l184 0c19-2.8 13.9-25.4 0-25.6z" id="path4137" solid-color="#000000" color-interpolation-filters="linearRGB" opacity=".8" filter-gaussianBlur-deviation="0" color="#000000" image-rendering="auto" color-rendering="auto" stroke-width="64" color-interpolation="sRGB" solid-opacity="1" fill="none" stroke-linejoin="round" filter-blend-mode="normal" stroke="#ffffff" shape-rendering="auto"/>
 <path id="path4290" d="m105 171c2.9 4.9 7 15.6 13 16.2l198 9.2-.7 31.9c-15.2 1.5-32 13.3-45.9 19-66 6.3-139 10.8-199 7.1-4.8-12.6-9.4-25.5-14.2-38-5.4-9-25.7-3.5-22 5.9 6 12.5 11.9 25.6 18 38-17.8 16.6-8 41.5 17.2 42.5l13.5 38c8.6 9.8 27 2.2 22-7.2-5.9-10.3-10.7-21.7-15.8-33 60 4 140 38 193 56 52 17.5 88 17.8 117 14.5 29.4-3.3 52.6-8.2 61.8-28 14-56-45.6-94-90-102-11-5.3-27-11.9-40.9-12.3l.7-31.9 202-10.8c3.7.6 9-8.7 12.9-13.2 2.1-2.4.2-6-3-5.8l-222 17.9-214-19c-2.8.8-4.1 3.2-2.5 5.5m-26.9 117c-7.4 8.9-23.6 2.9-23.4-8.5-.4-7.2 4.6-13.8 14.2-13.9 9.6-.1 17.3 14.8 9.2 22.4m357 32.7c-17.3.3-33 0-50-.1-9.1-18.4-18.9-36-27.9-54 39-1.3 71 15.9 77.9 54m-84 1.8c-15.7 0-34 .3-49 .2-.2-13.3-.6-40.5-.9-53.9 8.7-.1 17.9-.1 26.6-.3 10.7 17.2 16.6 35.8 23.4 53.9m-92 66c-19 2.8-13.9 25.4 0 25.6l184 0c19-2.8 13.9-25.4 0-25.6z" mix-blend-mode="normal" isolation="auto" white-space="normal" fill="#0092da" color-rendering="auto" solid-opacity="1" color-interpolation-filters="linearRGB" shape-rendering="auto" image-rendering="auto" color-interpolation="sRGB" color="#000000" solid-color="#000000"/>
</svg>
