<?xml version="1.0" encoding="UTF-8" standalone="no"?>
<svg xmlns="http://www.w3.org/2000/svg" version="1.0" width="580" height="580">
 <metadata id="metadata2975"/>
 <path d="m299 36.6c-2.2 0-4.4 1.2-6.5 4.2-12.5 6.3-18.8 21.4-4 29.5l.2.1 9.5 10c6.8-2.4 20.6-13.9 22.5-22-5.5-6.1-13.8-21.7-21.7-21.7zm-51 34c-3.8.2-6.8 2.8-7.6 9.5 12 17 27.6 32.6 47.6 39.7l-.1-.1c27.7 10 59-2.1 76-25.3C361 86 346 67 333 72 319 91 290 97 270 84 266 79 255 70 248 71m-29 37.6c-12.2.1-24.4 1.6-35.7 5.4-8.8 11.3 2.3 41.9 19 36.4 15.9-7.2 35-13.4 51.7-4.6 14 9.7 7.7 32-3.6 41.7-8.6 10.3-25.4 10.8-31.5 22.5.8 10.7 9.3 35.8 22 28 12.9-2.2 21-29.7 32.7-18.5 14.2 20.5 25.9 48 17 72-8.7 24-38.7 32.7-61 23.7-37-15-58-53.6-68-90 .4-10.7-9-36.8-20.4-19.3 1.4 17.4 5.2 34.5 10.6 51 13.5 41 43.8 80 87 92l.2-.1c15.3 3 31.7 3 46.7-1.4 24-6.5 39.7-31 39.6-55 1-24.7-10.3-48-23.4-68 10.9-9.2 33.6-17.9 38 2.6 2.2 22.4-1.4 46.6 8.8 68 11 18.2 37.5 18.4 54 8.7 28-16 36.4-50.7 36.5-81-.6-27.3 1.6-58-16.8-80.9-21-25.3-69.8-18.8-81 13.2-1.4 21-22 19.4-36.7 26-7.7.5-25 24.4-26 8.8 9.1-32-10-72-44-80-5.4-.5-10.9-.8-16.5-.7zm165 50c16.5.4 29 15.5 33.4 30.7 9.5 27 4.1 62-19.9 80l0 0c-11.6 7.9-30.5 6-34.6-9.4-5.5-23.4.2-48-5.9-71-13.9-14.8 8.1-26.9 21.8-29.7 1.8-.3 3.5-.4 5.2-.4zM211 360c-5.4 0-9.7 4.4-9.7 9.8l0 164c0 5.4 4.4 9.8 9.7 9.8l164 0c5.4 0 9.7-4.4 9.7-9.8l0-164c0-5.4-4.4-9.8-9.7-9.8l-164 0z" id="path4139" opacity=".8" stroke="#ffffff" stroke-linejoin="round" stroke-width="64" fill="none"/>
 <path d="m238 348c-43-11.9-73-51-87-92-5.5-16.5-9.3-33.6-10.6-51 11.5-17.5 20.9 8.6 20.4 19.3 10.2 37 31 75 68 90 22.4 9.1 52 .3 61-23.7 8.8-24.9-2.9-51.9-17-72-11.6-11.2-19.8 16.3-32.7 18.5-12.8 7.6-21.4-17.5-22-28 6.2-11.7 23-12.2 31.5-22.5 11.3-9.4 17.7-32 3.6-41.7-16.5-8.8-35.9-2.7-51.7 4.6-16.9 5.5-28-25-19-36.4 16.4-5.5 34.8-6.3 52-4.7 33.9 7.6 53 47 44 80 .9 15.5 18.4-8.4 26-8.8 14.5-6.8 35-5.2 36.7-26 11-32 60-38.5 81-13.2 18.4 22.5 16.2 53.6 16.8 80.9-.1 30-8.5 64.8-36.5 81-16.9 9.7-43 9.5-54-8.7-10-21-6.6-45-8.8-67-4.8-20.6-27.5-11.9-38-2.6 13 20 24.4 43 23.4 68 .1 24.4-15.4 48.9-39.6 55-15 4.4-31.5 4.4-46.7 1.4m159-78.9c23.9-18 29.4-53 19.9-80-4.9-16.7-19.6-33.4-38.7-30-13.6 2.7-35.6 14.9-21.8 29.7 6.2 23.3.5 48 5.9 72 4.1 15.3 23 17.2 34.6 9.4M288 120c-20-7.1-35.6-22.7-47.6-39.7 2.3-19.3 23-4.5 29.6 3.9 20 12.5 49.6 7 63-12.5 13.3-4.6 27.9 14.5 31 22.9-17 23-48.8 35-76 25.3m.8-49c-14.8-8-8.5-23 4-29.5 9.5-13.7 21 9.7 28 17.4-1.9 8.2-15.7 19.8-22.5 22-3.2-3.3-6.3-6.7-9.5-10" id="path1873"/>
 <path d="m211 360c-5.4 0-9.7 4.4-9.7 9.8l0 164c0 5.4 4.4 9.8 9.7 9.8l164 0c5.4 0 9.7-4.4 9.7-9.8l0-164c0-5.4-4.4-9.8-9.7-9.8z" id="rect4154" shape-rendering="auto" mix-blend-mode="normal" color-interpolation-filters="linearRGB" isolation="auto" white-space="normal" solid-opacity="1" image-rendering="auto" solid-color="#000000" color="#000000" color-rendering="auto" color-interpolation="sRGB"/>
 <path d="m220 379l144 0 0 145-144 0z" id="rect3587-1" shape-rendering="auto" mix-blend-mode="normal" color-interpolation-filters="linearRGB" isolation="auto" white-space="normal" opacity=".8" fill="#ffffff" solid-opacity="1" image-rendering="auto" solid-color="#000000" color="#000000" color-rendering="auto" color-interpolation="sRGB"/>
</svg>
