<?xml version="1.0" encoding="UTF-8" standalone="no"?>
<svg xmlns="http://www.w3.org/2000/svg" version="1.0" width="580" height="580">
 <metadata id="metadata2975"/>
 <g id="g4172" transform="matrix(0.97375027,0,0,0.97375027,7.6124241,7.6124241)">
  <g id="g4168">
   <path d="m290 30.9c-143 0-259 116-259 259 0 143 116 259 259 259 143 0 259-116 259-259 0-143-116-259-259-259zm0 21.6c131 0 238 106 238 238 0 131-106 238-237 238-131 0-237-106-237-237 0-131 106-237 238-237z" id="path2207-1" shape-rendering="auto" mix-blend-mode="normal" color-interpolation-filters="linearRGB" isolation="auto" white-space="normal" opacity=".8" fill="none" solid-opacity="1" image-rendering="auto" solid-color="#000000" stroke="#ffffff" color="#000000" stroke-width="66" color-rendering="auto" color-interpolation="sRGB"/>
   <path d="m249 99c-5.5 0-10 4.5-10 10l0 130-130 0c-5.5 0-10 4.5-10 10l0 82c0 5.5 4.5 10 10 10l130 0 0 130c0 5.5 4.5 10 10 10l82 0c5.5 0 10-4.5 10-10l0-130 130 0c5.5 0 10-4.5 10-10l0-82c0-5.5-4.5-10-10-10l-130 0 0-130c0-5.5-4.5-10-10-10l-82 0z" id="rect3180-3" shape-rendering="auto" mix-blend-mode="normal" color-interpolation-filters="linearRGB" isolation="auto" white-space="normal" opacity=".8" fill="none" solid-opacity="1" image-rendering="auto" solid-color="#000000" stroke="#ffffff" color="#000000" stroke-width="66" color-rendering="auto" color-interpolation="sRGB"/>
  </g>
  <path id="path2207" d="m288 26.9c-143 0-259 116-259 259 0 143 116 259 259 259 143 0 259-116 259-259 0-143-116-259-259-259m0 21.6c131 0 238 106 238 238 0 131-106 238-237 238-131 0-237-106-237-237 0-131 106-237 238-237" shape-rendering="auto" mix-blend-mode="normal" color-interpolation-filters="linearRGB" isolation="auto" white-space="normal" fill="#da0092" solid-opacity="1" image-rendering="auto" solid-color="#000000" color="#000000" color-rendering="auto" color-interpolation="sRGB"/>
  <path id="rect3180" d="m247 95c-5.5 0-10 4.5-10 10l0 130-130 0c-5.5 0-10 4.5-10 10l0 82c0 5.5 4.5 10 10 10l130 0 0 130c0 5.5 4.5 10 10 10l82 0c5.5 0 10-4.5 10-10l0-130 130 0c5.5 0 10-4.5 10-10l0-82c0-5.5-4.5-10-10-10l-130 0 0-130c0-5.5-4.5-10-10-10l-82 0" shape-rendering="auto" mix-blend-mode="normal" color-interpolation-filters="linearRGB" isolation="auto" white-space="normal" fill="#da0092" solid-opacity="1" image-rendering="auto" solid-color="#000000" color="#000000" color-rendering="auto" color-interpolation="sRGB"/>
 </g>
</svg>
