<?xml version="1.0" encoding="UTF-8" standalone="no"?>
<svg xmlns="http://www.w3.org/2000/svg" version="1.0" width="580" height="580">
 <metadata id="metadata2975"/>
 <path id="path4208" d="M56.7 35C38.7 35.5 38.8 55 39.5 68 38.7 223 37 377 36.8 531 41 555 73 543 70.8 522L71 494 506 497C507 511 502 531 519 535 538 539 542 518 540 504 541 385 543 266 543 147 539 123 503 134 509 156L508 237 73 234C73 172 74 111 74 49 72.8 41 64.9 34.8 56.7 35zM183 72.9C149 73 125 114 143 144 161 178 216 175 231 140 238 102 223 74 183 72.9zM261 147C233 147 216 184 235 204 251 223 277 215 298 217 342 216 387 218 431 216 459 212 465 154 428 150L262 147C262 147 261 147 261 147zM206 177C205 177 205 177 204 177L134 178C108 177 114 219 138 213 161 213 184 213 207 213 230 208 222 177 206 177zM72 267L508 269 506 461 71 459 72 267zM178 297C144 297 120 338 138 368 156 402 211 399 226 364 233 326 218 298 178 297zM258 373C205 381 221 442 256 444 300 444 383 444 427 442 473 435 464 374 421 373L258 373zM197 404C175 404 152 404 130 404 108 403 107 440 135 439 158 439 181 440 204 439 227 434 220 403 197 404z" mix-blend-mode="normal" solid-color="#000000" opacity=".8" color-interpolation-filters="linearRGB" filter-gaussianBlur-deviation="0" color="#000000" image-rendering="auto" color-rendering="auto" stroke-width="64" isolation="auto" color-interpolation="sRGB" solid-opacity="1" fill="none" stroke-linejoin="round" filter-blend-mode="normal" stroke="#ffffff" shape-rendering="auto"/>
 <path d="M56.7 35C38.7 35.5 38.8 55 39.5 68 38.7 223 37 377 36.8 531 41 555 73 543 70.8 522L71 494 506 497C507 511 502 531 519 535 538 539 542 518 540 504 541 385 543 266 543 147 539 123 503 134 509 156L508 237 73 234C73 172 74 111 74 49 72.8 41 64.9 34.8 56.7 35M183 72.9C149 73 125 114 143 144 161 178 216 175 231 140 238 102 223 74 183 72.9M261 147C233 147 216 184 235 204 251 223 277 215 298 217 342 216 387 218 431 216 459 212 465 154 428 150L262 147C262 147 261 147 261 147M206 177C205 177 205 177 204 177L134 178C108 177 114 219 138 213 161 213 184 213 207 213 230 208 222 177 206 177M72 267L508 269 506 461 71 459 72 267M178 297C144 297 120 338 138 368 156 402 211 399 226 364 233 326 218 298 178 297M258 373C205 381 221 442 256 444 300 444 383 444 427 442 473 435 464 374 421 373L258 373M197 404C175 404 152 404 130 404 108 403 107 440 135 439 158 439 181 440 204 439 227 434 220 403 197 404" id="path4189" fill="#0092da"/>
</svg>
