<?xml version="1.0" encoding="UTF-8" standalone="no"?>
<svg xmlns="http://www.w3.org/2000/svg" version="1.0" width="580" height="580">
 <metadata id="metadata2975"/>
 <path id="path4153" d="m167 247c30.5 0 58-22.9 58-54 0-31.4-28-54-58-54.8-30.5-.5-58 22.4-58 53.8 0 31.4 28 55 58 55z" opacity=".8" fill="none" stroke="#ffffff" stroke-linejoin="round" stroke-width="64"/>
 <path id="path4155" d="m37.9 426c-.3 9.5 7.3 17.4 16.9 17.5 9.5.1 17.4-7.6 17.3-17l1-71 434 2.9-1.1 58.9c-.3 9.5 7.2 17.4 16.8 17.6 9.5.2 17.4-7.4 17.5-17l3.1-155c.3-9.6-7.4-17.6-17-17.6-9.5 0-17 7.6-17.2 17l-1.2 62.9-434-2.9 1.7-132c1.3-10.4-7-19.5-17.5-18.7-9.4.5-17 8.1-17 16.9z" opacity=".8" fill="none" stroke="#ffffff" stroke-linejoin="round" stroke-width="64"/>
 <path id="path4157" d="m257 231c-22.5 0-41 18.6-41 41 0 22.4 18.6 41 41 41l199 0c22.5 0 41-18.6 41-41 0-22.4-18.6-41-41-41z" opacity=".8" fill="none" stroke="#ffffff" stroke-linejoin="round" stroke-width="64"/>
 <path id="path4159" d="m103 308l86 0c11.3 0 20.9-9.5 20.9-20.8 0-11.3-9.6-20.9-20.9-20.9l-86 0c-11.3 0-20.9 9.5-20.9 20.8 0 11.3 9.6 20.9 20.9 20.9z" opacity=".8" fill="none" stroke="#ffffff" stroke-linejoin="round" stroke-width="64"/>
 <path d="m167 247c30.5 0 58-22.9 58-54 0-31.4-28-54-58-54.8-30.5-.5-58 22.4-58 53.8 0 31.4 28 55 58 55" id="path4151" fill="#0092da"/>
 <path d="m37.9 426c-.3 9.5 7.3 17.4 16.9 17.5 9.5.1 17.4-7.6 17.3-17l1-71 434 2.9-1.1 58.9c-.3 9.5 7.2 17.4 16.8 17.6 9.5.2 17.4-7.4 17.5-17l3.1-155c.3-9.6-7.4-17.6-17-17.6-9.5 0-17 7.6-17.2 17l-1.2 62.9-434-2.9 1.7-132c1.3-10.4-7-19.5-17.5-18.7-9.4.5-17 8.1-17 16.9z" id="path4149" fill="#0092da"/>
 <path d="m257 231c-22.5 0-41 18.6-41 41 0 22.4 18.6 41 41 41l199 0c22.5 0 41-18.6 41-41 0-22.4-18.6-41-41-41z" id="path4147" fill="#0092da"/>
 <path d="m103 308l86 0c11.3 0 20.9-9.5 20.9-20.8 0-11.3-9.6-20.9-20.9-20.9l-86 0c-11.3 0-20.9 9.5-20.9 20.8 0 11.3 9.6 20.9 20.9 20.9" id="path2157" fill="#0092da"/>
</svg>
