<?xml version="1.0" encoding="UTF-8" standalone="no"?>
<svg xmlns="http://www.w3.org/2000/svg" version="1.0" width="580" height="580">
 <metadata id="metadata10"/>
 <path d="M290 33C148 33 33 148 33 290 33 432 148 547 290 547 432 547 547 432 547 290 547 148 432 33 290 33" id="circle4147" shape-rendering="auto" mix-blend-mode="normal" color-interpolation-filters="linearRGB" isolation="auto" white-space="normal" opacity=".8" fill="none" solid-opacity="1" image-rendering="auto" solid-color="#000000" stroke="#ffffff" color="#000000" stroke-width="64" color-rendering="auto" color-interpolation="sRGB"/>
 <circle id="circle4148" cx="290" cy="290" r="245" fill="#ffffff"/>
 <path d="m258 143c0-9.9 3.2-18 9.6-24.4 6.4-6.3 14.7-9.5 24.8-9.5 10.8 0 19.9 3.3 27 10 7.2 6.7 10.8 14.3 10.8 22.7 0 6.3-1.4 12.5-4.3 18.7-2.9 6.3-7.4 11.3-13.5 15-6.2 3.8-12.4 5.7-18.9 5.7-8.8 0-16.9-3.8-24.4-11.3-7.4-7.5-11.2-16.5-11.2-27m-38.6 329l-.6-17.9 31-4.1c4.6-1.3 7.8-3.2 9.5-5.6 1.8-2.5 2.6-8 2.6-16.7l0-3c0-2.2.1-6.2.4-12 .3-5.8.4-10.9.4-15.3 0-3.5-.3-10.2-.8-20l.3-13.8-.3-13 .6-44.9c0-5.7-.6-11.6-1.6-17.6-2-2.8-5.7-5.1-11-7.2-5.3-2-14.6-3.5-27.8-4.4l0-15.4c18.9-1.1 35.6-5.1 49.9-11.8 9.7-4.4 20.3-12.2 31.7-23.4l18.5 0c.7 22.8 1.1 52 1.1 89l-1.9 113c0 7.7.4 14.7 1.1 20.9 5.7 2 15 4 27.8 6.1 5 .7 8.9 1.6 11.9 2.8l-.3 15.2c-5 .2-8.6.3-11 .3-2.8 0-7-.2-12.7-.6-18.7-.9-43.8-1.4-75-1.4-9 0-17.7.3-26 1-8.4.6-14.2 1-17.4 1z" id="flowRoot6828" fill="#734a08"/>
 <circle r="245" cy="290" cx="290" id="path3267-3" opacity=".1" fill="#734a08"/>
 <path d="M290 33C148 33 33 148 33 290 33 432 148 547 290 547 432 547 547 432 547 290 547 148 432 33 290 33m0 23C419 56 524 161 524 290 524 419 419 524 290 524 161 524 56 419 56 290 56 161 161 56 290 56" id="circle4145" shape-rendering="auto" mix-blend-mode="normal" color-interpolation-filters="linearRGB" isolation="auto" white-space="normal" fill="#734a08" solid-opacity="1" image-rendering="auto" solid-color="#000000" color="#000000" color-rendering="auto" color-interpolation="sRGB"/>
</svg>
