<?xml version="1.0" encoding="UTF-8" standalone="no"?>
<svg xmlns="http://www.w3.org/2000/svg" version="1.0" width="580" height="580">
 <metadata id="metadata2975"/>
 <path d="M462 83.9C462 84 461 83.9 461 83.9 346 85 231 83 116 85 104 88 99 102 101 114 102 196 100 278 102 360 104 365 107 368 112 371L112 480C112 485 116 490 122 490L138 490C143 490 148 485 148 480L148 373C244 373 342 374 438 373L438 481C438 487 443 491 448 491L465 491C470 491 475 487 475 481L475 370C482 364 485 353 483 344 483 262 484 181 482 99 480 90 471 84 462 83.9z" id="path4145" mix-blend-mode="normal" solid-color="#000000" opacity=".8" color-interpolation-filters="linearRGB" filter-gaussianBlur-deviation="0" color="#000000" image-rendering="auto" color-rendering="auto" stroke-width="64" isolation="auto" color-interpolation="sRGB" solid-opacity="1" fill="none" stroke-linejoin="round" filter-blend-mode="normal" stroke="#ffffff" shape-rendering="auto"/>
 <path d="m116 85c-12 3.1-17.2 17.2-15.3 28.5 1.3 82-1.1 164 1.3 246 3.8 11.7 18 16.3 29 14 112-.4 225 .8 337-.6 12.3-3.2 17.7-17.6 15.2-29-.4-82 .9-163-.8-245C480 89 470 83 461 84 346 85 231 83 116 85" id="rect3018-6-8" opacity=".8" fill="#734a08" color="#000000"/>
 <path d="M290 97C288 97 285 98 284 101 265 126 247 151 229 177 224 180 224 190 232 189 245 185 256 179 269 175 268 184 268 202 268 224 273 230 304 230 309 223 309 205 309 190 309 174 320 178 331 183 342 187 349 192 355 183 350 178 332 153 315 127 296 102 295 99 292 97 290 97M326 241C318 241 310 243 310 247 309 264 309 281 309 299 293 282 277 266 260 250 251 239 235 238 236 249 234 283 236 320 236 354 236 362 263 364 268 355 269 337 268 319 269 302 287 320 316 362 329 360 334 361 339 360 342 356 342 320 342 283 341 246 341 243 333 241 326 241" id="path3005" fill="#ffffff"/>
 <path d="M448 92C443 92 438 97 438 102L438 481C438 487 443 491 448 491L465 491C470 491 475 487 475 481L475 102C475 97 470 92 464 92L448 92M121 94C116 94 111 98 111 104L112 480C112 485 116 490 122 490L138 490C143 490 148 485 148 480L148 104C148 98 143 94 138 94L121 94" id="path2459-9" fill="#734a08" isolation="auto" color-rendering="auto" white-space="normal" solid-opacity="1" mix-blend-mode="normal" color-interpolation-filters="linearRGB" shape-rendering="auto" fill-rule="evenodd" image-rendering="auto" color-interpolation="sRGB" color="#000000" solid-color="#000000"/>
</svg>
