<?xml version="1.0" encoding="UTF-8" standalone="no"?>
<svg xmlns="http://www.w3.org/2000/svg" version="1.0" width="580" height="580">
 <metadata id="metadata2975"/>
 <path d="M127 46.8C109 46.8 95 61 95 79L95 311C95 321 99 330 106 336 101 338 96 342 93 346 88 351 86 356 84 360L37.5 453C34.5 459 34 466 36 471 37.9 477 41 481 44.6 484 52 490 60 494 69 494L511 494C520 494 528 490 535 484 539 481 542 477 544 471 545 466 545 459 542 453L496 360C494 356 492 351 487 346 484 342 479 338 473 336 481 330 485 321 485 311L485 79C485 61 470 46.8 453 46.8L127 46.8z" id="path4299" shape-rendering="auto" mix-blend-mode="normal" filter-blend-mode="normal" color-interpolation-filters="linearRGB" isolation="auto" white-space="normal" opacity=".8" fill="none" solid-opacity="1" image-rendering="auto" solid-color="#000000" stroke="#ffffff" color="#000000" stroke-width="64" color-rendering="auto" filter-gaussianBlur-deviation="0" color-interpolation="sRGB"/>
 <rect id="rect4426-3-1" width="358" height="264" x="111" y="63" rx="16" stroke-width="32" stroke="#734a08" fill="#ffffff"/>
 <rect id="rect4426-3" width="358" height="264" x="111" y="63" rx="16" stroke-width="32" stroke="#734a08" fill="#734a08" opacity=".1"/>
 <rect id="rect4426" width="358" height="264" x="111" y="63" rx="16" stroke-width="32" stroke="#734a08" fill="none"/>
 <path d="m279 116c0-5.3 1.7-9.6 5.1-12.9 3.4-3.4 7.8-5 13-5 5.7 0 10.5 1.8 14.3 5.3 3.8 3.5 5.7 7.6 5.7 12 0 3.3-.8 6.6-2.3 9.9-1.5 3.3-3.9 6-7.1 8-3.3 2-6.6 3-10 3-4.7 0-9-2-12.9-6-3.9-4-5.9-8.8-5.9-14.3m-20.4 174l-.3-9.5 16.5-2.2c2.4-.7 4.1-1.7 5-3 .9-1.3 1.4-4.3 1.4-8.8l0-1.6c0-1.2.1-3.3.2-6.4.1-3.1.2-5.8.2-8.1 0-1.8-.1-5.4-.4-10.7l.1-7.3-.1-6.9.3-23.8c0-3-.3-6.1-.9-9.3-1.1-1.5-3-2.7-5.8-3.8-2.8-1.1-7.7-1.8-14.7-2.3l0-8.2c10-.6 18.8-2.7 26.4-6.3 5.1-2.3 10.8-6.5 16.8-12.4l9.8 0c.4 12 .6 27.7.6 47l-1 59c0 4.1.2 7.8.6 11 3 1.1 7.9 2.1 14.7 3.2 2.6.4 4.7.9 6.3 1.5l-.1 8c-2.6.1-4.6.1-5.8.1-1.5 0-3.7-.1-6.7-.3-9.9-.5-23-.7-39.8-.7-4.8 0-9.4.2-13.9.5-4.5.3-7.5.5-9.2.5z" id="flowRoot6828" fill="#734a08"/>
 <path id="path4316" d="m116 334c-9.7 0-18.8 5.9-23 11.5-4.5 5.6-6.5 10.8-8.4 14.6l-46.7 93c-2.9 5.8-3.2 13-1.4 18.7 1.8 5.5 5.1 9.5 8.5 12.5 6.9 6.1 14.9 9.5 24.5 9.5l441 0c9.7 0 17.7-3.4 24.5-9.5 3.4-3.1 6.7-7 8.5-12.5 1.8-5.5 1.6-12.8-1.4-18.7l-46.7-93c-1.9-3.8-3.9-9-8.4-14.6-4.5-5.6-13.6-11.5-23-11.5z" shape-rendering="auto" mix-blend-mode="normal" color-interpolation-filters="linearRGB" isolation="auto" white-space="normal" fill="#ffffff" solid-opacity="1" image-rendering="auto" solid-color="#000000" color="#000000" color-rendering="auto" color-interpolation="sRGB"/>
 <path id="path4333" d="m116 334c-9.7 0-18.8 5.9-23 11.5-4.5 5.6-6.5 10.8-8.4 14.6l-46.7 93c-2.9 5.8-3.2 13-1.4 18.7 1.8 5.5 5.1 9.5 8.5 12.5 6.9 6.1 14.9 9.5 24.5 9.5l441 0c9.7 0 17.7-3.4 24.5-9.5 3.4-3.1 6.7-7 8.5-12.5 1.8-5.5 1.6-12.8-1.4-18.7l-46.7-93c-1.9-3.8-3.9-9-8.4-14.6-4.5-5.6-13.6-11.5-23-11.5z" shape-rendering="auto" mix-blend-mode="normal" color-interpolation-filters="linearRGB" isolation="auto" white-space="normal" opacity=".1" fill="#734a08" solid-opacity="1" image-rendering="auto" solid-color="#000000" color="#000000" color-rendering="auto" color-interpolation="sRGB"/>
 <path d="M116 334C106 334 97 340 93 346 88 351 86 356 84 360L37.5 453C34.5 459 34 466 36 471 37.9 477 41 481 44.6 484 52 490 60 494 69 494L511 494C520 494 528 490 535 484 539 481 542 477 544 471 545 466 545 459 542 453L496 360C494 356 492 351 487 346 483 340 474 334 464 334L116 334M118 366L462 366C463 367 464 370 467 375L468 376 112 376 113 375C115 370 117 367 118 366M108 384L472 384 478 397 102 397 108 384M98 406L482 406 490 421 90 421 98 406M86 429L494 429 510 461 70 461 86 429" id="rect4428" shape-rendering="auto" mix-blend-mode="normal" color-interpolation-filters="linearRGB" isolation="auto" white-space="normal" opacity=".9" fill="#734a08" solid-opacity="1" image-rendering="auto" solid-color="#000000" color="#000000" color-rendering="auto" color-interpolation="sRGB"/>
</svg>
