<?xml version="1.0" encoding="UTF-8" standalone="no"?>
<svg xmlns="http://www.w3.org/2000/svg" version="1.0" width="580" height="580">
 <metadata id="metadata10"/>
 <path fill="none" transform="matrix(12.872654,0,0,12.872654,4041.8845,-4307.9258)" id="path4136" d="M-294 344C-294 343-294 343-293 342-293 342-292 341-291 341-290 341-289 342-289 342-288 343-288 343-288 344-288 345-288 345-288 346-288 346-289 347-289 347-290 347-290 348-291 348-292 348-292 347-293 347-294 346-294 345-294 344zM-297 372L-297 371-295 370C-294 370-294 370-294 370-294 370-294 369-294 368L-294 368C-294 368-294 368-294 367-294 367-293 366-293 366-293 366-294 365-294 364L-294 363-294 362-294 358C-294 358-294 357-294 357-294 356-294 356-295 356-295 356-296 356-297 356L-297 354C-295 354-294 354-293 353-292 353-291 352-290 351L-288 351C-288 353-288 356-288 359L-289 368C-289 369-288 370-288 370-288 370-287 371-286 371-286 371-285 371-285 371L-285 372C-286 372-286 372-286 372-286 372-287 372-287 372-289 372-291 372-293 372-294 372-295 372-296 372-296 372-297 372-297 372z" mix-blend-mode="normal" solid-color="#000000" opacity=".8" color-interpolation-filters="linearRGB" filter-gaussianBlur-deviation="0" color="#000000" image-rendering="auto" color-rendering="auto" stroke-width="5" isolation="auto" color-interpolation="sRGB" solid-opacity="1" filter-blend-mode="normal" stroke="#ffffff" shape-rendering="auto"/>
 <path d="M-294 344C-294 343-294 343-293 342-293 342-292 341-291 341-290 341-289 342-289 342-288 343-288 343-288 344-288 345-288 345-288 346-288 346-289 347-289 347-290 347-290 348-291 348-292 348-292 347-293 347-294 346-294 345-294 344M-297 372L-297 371-295 370C-294 370-294 370-294 370-294 370-294 369-294 368L-294 368C-294 368-294 368-294 367-294 367-293 366-293 366-293 366-294 365-294 364L-294 363-294 362-294 358C-294 358-294 357-294 357-294 356-294 356-295 356-295 356-296 356-297 356L-297 354C-295 354-294 354-293 353-292 353-291 352-290 351L-288 351C-288 353-288 356-288 359L-289 368C-289 369-288 370-288 370-288 370-287 371-286 371-286 371-285 371-285 371L-285 372C-286 372-286 372-286 372-286 372-287 372-287 372-289 372-291 372-293 372-294 372-295 372-296 372-296 372-297 372-297 372" id="flowRoot6828" transform="matrix(12.872654,0,0,12.872654,4041.8845,-4307.9258)" fill="#734a08"/>
</svg>
