<?xml version="1.0" encoding="UTF-8" standalone="no"?>
<svg xmlns="http://www.w3.org/2000/svg" version="1.0" width="580" height="580">
 <metadata id="metadata10"/>
 <path id="path4774" d="m273 47c-1.8.1-3.6.5-5.3 1.2L65 134c-2.3 1-4.4 2.6-5.9 4.6-3.9 3.1-6 7.9-5.7 12.8L71 425c.3 5.5 3.5 10.3 8.5 12.8L305 541c5.3 4.6 13 5 18.7 1L504 418c3.6-2.7 5.8-6.8 6-11.3L529 132c.4-5.1-1.8-10-5.9-13.2-1.9-2-4.3-3.4-6.9-4.2L277 47.6C276 47 273 47 273 47" opacity=".8" fill="none" stroke="#ffffff" stroke-linejoin="round" stroke-width="64"/>
 <path d="m273 47c-1.8.1-3.6.5-5.3 1.2L65 134c-2.3 1-4.4 2.6-5.9 4.6-3.9 3.1-6 7.9-5.7 12.8L71 425c.3 5.5 3.5 10.3 8.5 12.8L305 541c5.3 4.6 13 5 18.7 1L504 418c3.6-2.7 5.8-6.8 6-11.3L529 132c.4-5.1-1.8-10-5.9-13.2-1.9-2-4.3-3.4-6.9-4.2L277 47.6C276 47 273 47 273 47" id="path4772" fill="#39ac39"/>
 <path d="M274 78L471 134 317 215 114 146 274 78" id="path4770" opacity=".2" fill="#ffffff"/>
 <path d="M497 157L480 397 331 500 333 242 497 157" id="path4768" opacity=".4" fill="#ffffff"/>
 <path d="M85 172L303 243 299 505 100 414 85 172" id="path4763" opacity=".1" fill="#ffffff"/>
 <path d="M310 111C306 111 301 112 297 112 283 115 257 118 260 137L199 115 162 132 339 194 371 179C374 176 361 175 357 172 355 170 379 173 387 171 404 171 434 153 410 138 382 121 348 113 315 111 313 111 312 111 310 111M315 133C330 135 362 139 361 156 342 166 319 158 301 150L301 150C282 144 302 134 315 133" id="path4749" fill="#ffffff"/>
 <path d="M137 239C119 239 109 254 108 271L162 302C167 302 173 291 185 292 201 296 217 309 216 327 197 327 179 323 161 319 144 315 120 308 110 327 100 358 119 393 144 411 164 424 188 437 213 430 228 417 224 439 231 449L278 470C293 480 280 460 279 451 276 417 276 383 274 349 270 316 251 286 222 270 195 256 168 240 137 239M186 359C189 359 192 360 196 360 208 361 219 359 218 376 214 396 201 407 185 397 172 392 158 373 168 365 174 360 180 359 186 359" id="path4754" fill="#ffffff"/>
 <path id="path4167" d="m437 320c-11.9-18.4-37 7.5-44 20.4-6 12.5-16.7 41 3.5 45C416 382 431 365 437 347l46-21c-15.6 49-60 83-107 101-14 6.2-35.8 2.2-38.6-15.4-5.7-42 20.9-81 52-106 21-15 44-31.5 71-34.4 11.2-.9 21 6.2 23.6 17z" fill="#ffffff"/>
</svg>
