<?xml version="1.0" encoding="UTF-8" standalone="no"?>
<svg xmlns="http://www.w3.org/2000/svg" version="1.0" width="580" height="580">
 <metadata id="metadata2975"/>
 <path id="path4156" d="m257 111l0 96c-39 1-74 6.5-101 15-14.8 4.8-27 10.5-36 17.4-9 6.9-15.5 15.8-15.5 26l15.9 0c0-3.7 2.4-8.3 9.2-13.5 6.9-5.2 17.7-10.5 31.4-14.9 27.4-8.8 66-14.5 109-14.5l0-8 11.1 0 0-103-23.9 0zm12.7 172c-44 0-84 5.7-114 15.3-14.8 4.8-27 10.5-36 17.4-9 6.9-15.5 15.8-15.5 26l15.9 0c0-3.7 2.4-8.3 9.2-13.5 6.9-5.2 17.7-10.5 31.4-14.9 27.4-8.8 66-14.5 109-14.5l0-15.9zm0 77c-44 0-84 5.7-114 15.3-14.8 4.8-27 10.5-36 17.4-9 6.9-15.5 15.8-15.5 26l15.9 0c0-3.7 2.4-8.3 9.2-13.5 6.9-5.2 17.7-10.5 31.4-14.9 27.4-8.8 66-14.5 109-14.5l0-15.9z" shape-rendering="auto" mix-blend-mode="normal" filter-blend-mode="normal" color-interpolation-filters="linearRGB" isolation="auto" white-space="normal" fill="none" solid-opacity="1" image-rendering="auto" solid-color="#000000" stroke="#ffffff" color="#000000" stroke-linejoin="round" stroke-width="64" color-rendering="auto" filter-gaussianBlur-deviation="0" color-interpolation="sRGB"/>
 <path id="path4158" d="m269 98c-44.5 0-85 5.7-115 15.5-15 4.9-27.7 10.7-37 18-9.6 7.4-17 17.3-17 29l0 258c0 .6 0 1.1.1 1.7.9 10.9 8 20 16.9 26.8 9.6 7.4 22 13.2 37 18 29.5 9.5 69 15.2 112 15.5 1.6.3 3.2.2 4.8-.1 7.8-1.1 12.3-9.3 9.3-16.5l0-248c3.4-7.9-2.5-16.7-11.1-16.6-42 0-81-5.7-108-14.3-13.4-4.3-23.9-9.5-30-14.3-6.3-4.8-7.7-8.3-7.7-10.3 0-2 1.4-5.5 7.7-10.3 6.3-4.8 16.8-10 30-14.3 26.8-8.7 65-14.3 108-14.3 6.7.1 12-5.3 12-11.9 0-6.7-5.4-12-12-11.9zm198 50c-1.2 0-2.4.2-3.5.6l-152 51.7c-4.8 1.6-8 6.2-8 11.3 0 91 0 172 0 256 0 8.2 8 13.9 15.8 11.3l152-51.7c4.8-1.6 8-6.2 8-11.3.1-86 0-171 0-256 0-6.7-5.6-12-12.3-11.9zm-20.5 31.6l-35 71.8-84 28.6 0-59.9zm-323 15c8.5 5.2 18.8 9.6 30.5 13.4 27 8.8 62.8 14.3 102 15.3l0 65c-37-1.1-70.9-6.4-95-14.3-13.7-4.4-24.5-9.7-31.4-14.9-2.7-2-4.6-4-6.1-5.8zm332 2.9l0 38.9-22.8 7.8zm0 64l0 58-71 24 33.7-69zm-332 12.8c8.6 5.8 19.6 10.7 32.5 14.9 26.6 8.6 61 14 100 15l0 66c-38-.9-72-6.3-97-14.4-13.7-4.4-24.5-9.7-31.4-14.9-1.8-1.4-3.3-2.7-4.5-3.9zm274 7.2l-33.7 69-35.6 12 0-58zm58.8 62.7l0 63-123 41.8 36.9-76zm-332 13c8.4 5.3 18.8 9.9 30.9 13.8 26.9 8.7 62 14.2 102 15l0 71c-37-1-70.8-6.4-95-14-13.4-4.3-23.9-9.5-30-14.3-6.3-4.8-7.7-8.3-7.7-10.3zm225 23.4l-20.8 42.7 0-35.6z" shape-rendering="auto" mix-blend-mode="normal" filter-blend-mode="normal" color-interpolation-filters="linearRGB" isolation="auto" white-space="normal" fill="none" solid-opacity="1" image-rendering="auto" solid-color="#000000" stroke="#ffffff" color="#000000" stroke-linejoin="round" stroke-width="64" color-rendering="auto" filter-gaussianBlur-deviation="0" color-interpolation="sRGB"/>
 <path d="m257 111l0 96c-39 1-74 6.5-101 15-14.8 4.8-27 10.5-36 17.4-9 6.9-15.5 15.8-15.5 26l15.9 0c0-3.7 2.4-8.3 9.2-13.5 6.9-5.2 17.7-10.5 31.4-14.9 27.4-8.8 66-14.5 109-14.5l0-8 11.1 0 0-103-23.9 0m12.7 172c-44 0-84 5.7-114 15.3-14.8 4.8-27 10.5-36 17.4-9 6.9-15.5 15.8-15.5 26l15.9 0c0-3.7 2.4-8.3 9.2-13.5 6.9-5.2 17.7-10.5 31.4-14.9 27.4-8.8 66-14.5 109-14.5l0-15.9m0 77c-44 0-84 5.7-114 15.3-14.8 4.8-27 10.5-36 17.4-9 6.9-15.5 15.8-15.5 26l15.9 0c0-3.7 2.4-8.3 9.2-13.5 6.9-5.2 17.7-10.5 31.4-14.9 27.4-8.8 66-14.5 109-14.5l0-15.9" id="path5473" shape-rendering="auto" mix-blend-mode="normal" color-interpolation-filters="linearRGB" isolation="auto" white-space="normal" opacity=".8" fill="#666666" solid-opacity="1" image-rendering="auto" solid-color="#000000" color="#000000" color-rendering="auto" color-interpolation="sRGB"/>
 <path d="m269 98c-44.5 0-85 5.7-115 15.5-15 4.9-27.7 10.7-37 18-9.6 7.4-17 17.3-17 29l0 258c0 .6 0 1.1.1 1.7.9 10.9 8 20 16.9 26.8 9.6 7.4 22 13.2 37 18 29.5 9.5 69 15.2 112 15.5 1.6.3 3.2.2 4.8-.1 7.8-1.1 12.3-9.3 9.3-16.5l0-248c3.4-7.9-2.5-16.7-11.1-16.6-42 0-81-5.7-108-14.3-13.4-4.3-23.9-9.5-30-14.3-6.3-4.8-7.7-8.3-7.7-10.3 0-2 1.4-5.5 7.7-10.3 6.3-4.8 16.8-10 30-14.3 26.8-8.7 65-14.3 108-14.3 6.7.1 12-5.3 12-11.9 0-6.7-5.4-12-12-11.9m198 50c-1.2 0-2.4.2-3.5.6l-152 51.7c-4.8 1.6-8 6.2-8 11.3 0 91 0 172 0 256 0 8.2 8 13.9 15.8 11.3l152-51.7c4.8-1.6 8-6.2 8-11.3.1-86 0-171 0-256 0-6.7-5.6-12-12.3-11.9m-20.5 31.6l-35 71.8-84 28.6 0-59.9zm-323 15c8.5 5.2 18.8 9.6 30.5 13.4 27 8.8 62.8 14.3 102 15.3l0 65c-37-1.1-70.9-6.4-95-14.3-13.7-4.4-24.5-9.7-31.4-14.9-2.7-2-4.6-4-6.1-5.8zm332 2.9l0 38.9-22.8 7.8zm0 64l0 58-71 24 33.7-69zm-332 12.8c8.6 5.8 19.6 10.7 32.5 14.9 26.6 8.6 61 14 100 15l0 66c-38-.9-72-6.3-97-14.4-13.7-4.4-24.5-9.7-31.4-14.9-1.8-1.4-3.3-2.7-4.5-3.9zm274 7.2l-33.7 69-35.6 12 0-58zm58.8 62.7l0 63-123 41.8 36.9-76zm-332 13c8.4 5.3 18.8 9.9 30.9 13.8 26.9 8.7 62 14.2 102 15l0 71c-37-1-70.8-6.4-95-14-13.4-4.3-23.9-9.5-30-14.3-6.3-4.8-7.7-8.3-7.7-10.3zm225 23.4l-20.8 42.7 0-35.6z" id="polygon5475" shape-rendering="auto" mix-blend-mode="normal" color-interpolation-filters="linearRGB" isolation="auto" white-space="normal" fill="#666666" solid-opacity="1" image-rendering="auto" solid-color="#000000" color="#000000" color-rendering="auto" color-interpolation="sRGB"/>
</svg>
