<?xml version="1.0" encoding="UTF-8" standalone="no"?>
<svg xmlns="http://www.w3.org/2000/svg" version="1.0" width="580" height="580">
 <metadata id="metadata2975"/>
 <path d="m72 65l0 455c0 6 5 11 10 11l412 0c6 0 11-5 11-11l0-455c0-5-5-10-11-10l-412 0C77 54.9 72 60 72 65" id="path4174" mix-blend-mode="normal" isolation="auto" white-space="normal" solid-color="#000000" opacity=".8" color-interpolation-filters="linearRGB" color="#000000" image-rendering="auto" color-rendering="auto" stroke-width="64" color-interpolation="sRGB" solid-opacity="1" fill="none" stroke-linejoin="round" stroke="#ffffff" shape-rendering="auto"/>
 <path white-space="normal" isolation="auto" mix-blend-mode="normal" id="path4142" d="m72 65l0 455c0 6 5 11 10 11l412 0c6 0 11-5 11-11l0-455c0-5-5-10-11-10l-412 0C77 54.9 72 60 72 65" fill="#ac39ac" color-rendering="auto" solid-opacity="1" color-interpolation-filters="linearRGB" shape-rendering="auto" image-rendering="auto" color-interpolation="sRGB" color="#000000" solid-color="#000000"/>
 <path d="m93 75.9l0 434 391 0 0-434zm233 22c11 0 20 9 20 20 0 11-9 20-20 20-11 0-20-9-20-20 0-11 9-20 20-20m58 0c10 0 19 9 19 20 0 11-9 20-19 20-11 0-20-9-20-20 0-11 9-20 20-20m57 0c11 0 20 9 20 20 0 11-9 20-20 20-11 0-20-9-20-20 0-11 9-20 20-20M286 188c58 0 106 45 110 101 4.4 6.9 4.4 15.8-.2 22.7-7 55-54 97-110 97-37 0-71-19-91-47.8-6.3 3.3-14-1.1-14.3-8.2l0-22c-4-10-5-21-5-33 0-11 1-22 5-33l-.5-16.8c.1-4.8 6.2-11.5 12.5-9.2 20-31 54-51 93-51" id="path4137" opacity=".9" fill="#ffffff"/>
 <path d="m286 209c43 0 79 30 88 71l-17 0c-34 .1-31.7 40.6.3 41l15.7-.3c-11 39-45 67-87 67-41 0-75-27-86-64l0-51c11-37 45-64 86-64" id="path4158" fill="#ffffff"/>
</svg>
