<?xml version="1.0" encoding="UTF-8" standalone="no"?>
<svg xmlns="http://www.w3.org/2000/svg" version="1.0" width="580" height="580">
 <metadata id="metadata10"/>
 <path d="M125 139C107 139 93 158 95 176 95 255 95 334 96 413 97 431 115 444 133 441 147 440 162 443 175 438 189 432 196 417 194 403 194 358 194 313 194 269 283 249 372 230 461 210 482 203 485 171 466 161 462 159 457 157 453 157L452 156C427 160 402 167 377 172 316 186 254 199 193 213 193 196 194 180 192 163 189 147 171 137 155 139L127 139C126 139 126 139 125 139zM464 254C463 254 463 254 462 254L423 254C409 254 396 267 398 281 398 325 398 369 398 414 398 427 411 439 425 438 439 438 453 438 466 437 480 436 491 423 489 410 489 366 489 322 489 278 489 265 477 254 464 254z" id="path4143" mix-blend-mode="normal" solid-color="#000000" opacity=".8" white-space="normal" color-interpolation-filters="linearRGB" filter-gaussianBlur-deviation="0" color="#000000" image-rendering="auto" color-rendering="auto" fill-rule="evenodd" stroke-width="64" isolation="auto" color-interpolation="sRGB" solid-opacity="1" fill="none" stroke-linejoin="round" filter-blend-mode="normal" stroke="#ffffff" shape-rendering="auto"/>
 <path d="m452 156c-25.5 3.6-50 10.8-76 15.8-75 16.7-151 32.9-226 50-19 6.5-23.5 35.9-6.6 47 14.5 10.9 32.7 1.6 48-.8 90-19.7 180-38.9 269-59 20-6.7 23.6-38 4.6-48.7-4-2.6-8.8-4-13.6-4.2" id="path3732" fill="#666666" isolation="auto" color-rendering="auto" white-space="normal" solid-opacity="1" mix-blend-mode="normal" color-interpolation-filters="linearRGB" shape-rendering="auto" image-rendering="auto" color-interpolation="sRGB" color="#000000" solid-color="#000000"/>
 <path d="m398 281c0 44 0 88 0 132 .3 13.9 13.7 25.4 27.4 24 13.8-.1 27.5.2 41-.1 13.5-1 24-14.2 22.9-27.6 0-43.9 0-88 0-132C489 264 475 253 462 254L423 254c-14.4-.4-26.8 13-25.4 27.4" id="rect3827" opacity=".8" fill="#666666" isolation="auto" color-rendering="auto" white-space="normal" solid-opacity="1" mix-blend-mode="normal" color-interpolation-filters="linearRGB" shape-rendering="auto" image-rendering="auto" color-interpolation="sRGB" color="#000000" solid-color="#000000"/>
 <path d="m127 139c-18.8-.8-34.4 18.2-31.6 36.5.1 79-.2 158 .1 237 1.3 17.8 19.7 31 37 28 14.2-.9 29 2.4 42.8-2.8 13.4-6.1 20-21.6 18.3-35.8 0-45.7 0-91 0-137-15.3 4-32.7 13.7-47.9 4-16.9-9.3-12.9-37.7 4.3-44 14-3.8 31.8-5.3 43-11.4-.4-16.9 1-34-.9-50.8-3.8-16-21-26-37-23.8C146 139 136 139 127 139" id="rect3925" opacity=".8" fill="#666666" isolation="auto" color-rendering="auto" white-space="normal" solid-opacity="1" mix-blend-mode="normal" color-interpolation-filters="linearRGB" shape-rendering="auto" image-rendering="auto" color-interpolation="sRGB" color="#000000" solid-color="#000000"/>
</svg>
