<?xml version="1.0" encoding="UTF-8" standalone="no"?>
<svg xmlns="http://www.w3.org/2000/svg" width="580" height="580" version="1.0">
 <metadata id="metadata18"/>
 <path id="path4137" d="m186 94c-11.3 0-21.7 10.5-21.7 21.9l0 284c0 1.8 252 .9 252 0l0-284c0-11.4-9.6-21.9-21.7-21.9l-209 0m-23.5 318l-13.9 20c0 0 0 1.8.9 1.8l280 0c.9 0 1.7-1.8.9-1.8l-13.9-20-.9 0-252 0-.9 0m-15.7 38.5c-.9 0-1.7 0-1.7.9l0 33c0 .9.9 1.8 1.7 1.8l285 0c.9 0 1.7-.9 1.7-1.8l0-33c0-.9-.9-.9-1.7-.9l-285 0" mix-blend-mode="normal" solid-color="#000000" opacity=".8" color-interpolation-filters="linearRGB" color="#000000" image-rendering="auto" color-rendering="auto" stroke-width="64" isolation="auto" color-interpolation="sRGB" solid-opacity="1" fill="none" stroke-linejoin="round" stroke="#ffffff" shape-rendering="auto"/>
 <path d="m186 94c-11.3 0-21.7 10.5-21.7 21.9l0 284c0 1.8 252 .9 252 0l0-284c0-11.4-9.6-21.9-21.7-21.9l-209 0m-23.5 318l-13.9 20c0 0 0 1.8.9 1.8l280 0c.9 0 1.7-1.8.9-1.8l-13.9-20-.9 0-252 0-.9 0m-15.7 38.5c-.9 0-1.7 0-1.7.9l0 33c0 .9.9 1.8 1.7 1.8l285 0c.9 0 1.7-.9 1.7-1.8l0-33c0-.9-.9-.9-1.7-.9l-285 0" id="path4329" fill="#734a08"/>
 <path d="m277 114c-7.8.1-14.4 7.6-14.3 15.5-2.5 11.6 9.6 12.2 10.6 1.6-5.9-8.4 11.7-9.4 7.1-16.5-1.1-.4-2.3-.4-3.4-.4m-46.8.4c-13.9 7.8 15.7 8.8 0 0m13.3.3c-9.6 2.4-10.4 17.4-5.8 24 6.9-.8 13.2-18.9 5.8-24m8.2.3c-4.8 6-3.6 14.4-1.6 21.3 9 5 8.9-17.5 1.6-21.3m77 .4c-1 0-2.1.1-3.1.5l-.1 0c-5.1 1.9-7.7 7.2-8.3 12.4 0 1-.1 1.9-.2 2.9 0 .1 0 .1 0 .2-2.4 17.9 16.9 2.5 9.2-6.9 9.8-5.1-1.1 17 8.9 14.7 2-1.6 3.2-3.9 3.7-6.7-.3-2.1-.4-4.2-.2-6-1.1-5.6-4.7-10.8-9.8-10.9m9.8 10.9c.4 2 .4 4.1.2 6 .9 6 3.8 11 7.4 6.1 9 12 11.7-8 5.7-13.5-5.3 8.8-4.8-7.7-9.5-8.8l-.1.1c-2.3 1.1-1.9 4.2-2.4 6.2-.7.9-1.1 2.2-1.3 3.8m-21.6 4.9c0-1 .1-1.9.2-2.9 0-5-1.7-9.9-5.4-12.3-3.3 5.4-17.4 15-9 24.9 8.1 4.9 13.3-1.8 14.3-9.6M209 116c-1.1 1.8-1.8 3.9-2.4 6.1-4.3 4.7.5 24.5 6.3 16 9 12 11.7-8 5.8-13.5-5.3 8.8-5-7.7-9.6-8.8m-9.6.4c-4.8 6-3.6 14.4-1.6 21.3 9 5 8.9-17.5 1.6-21.3m166 .1c-9.5 2.4-10.3 17.3-5.7 24 6.8-.8 13-19 5.7-24m17 .4c-3.3 5.4-17.4 15-9 24.9 13.9 8.6 19.6-18 9-24.9m-52 2.6c0 .1 0 .4 0 .7 0-.6 0-.8 0-.7m-43 4c-6 .2-.7 7.7 2 12-8.7 12.6 15.7 4.1 7.4-3.7-3.9 1.5 3.7-11-4.8-7.5l0-.1c-2-.5-3.5-.8-4.6-.8m-58 .8c-4.4 4.8-2.4 11.6-2.4 17.4 5.1 12.9 14.2-16.2 2.4-17.4m50 .1l0 .1c-4.5 4.6-2.6 11.4-2.4 17.3 5.1 12.9 13.9-16 2.4-17.4m27.8 6c8.1 12-5.9 4.3 0 0m72 .4c8 8.4-7.8 8.6 0 0m-134 23c-5 6-3.7 14.4-1.7 21.3 9 5 9-17.5 1.7-21.3m9 0l0 .1c-4.3 2-5.7 27.7 3.8 22 8.9 12 11.7-8 5.7-13.5-5.3 8.8-4.9-7.6-9.6-8.8m-18.3.3c-3.3 5.4-17.4 15.2-9.1 24.9 13.9 8.6 19.5-17.9 9.1-24.9m-17.7.1c-9.6 2.4-10.4 17.4-5.8 24 6.9-.8 13-18.9 5.8-24m71 .4c-4.2 2.1-5.7 27.6 3.8 22 9 12 11.7-8 5.7-13.5-5.3 8.8-4.8-7.8-9.6-8.8m84 0c-13.9 7.7 15.5 9.1 0 0m-60.9.2c-9.6 2.4-10.4 17.4-5.8 24 7-.8 13-18.9 5.8-24m31 .5c-2.8 5.9-17.6 14.8-8.6 24.9 13.9 8.5 19-18.3 8.6-24.9m9 0c-4.2 2.1-5.6 27.6 3.8 22 9 12 11.7-8 5.7-13.5-5.2 8.8-4.9-7.5-9.5-8.7l-.1 0m-76 7l-5.7 1.5c.3 1.5 5.1 6.6-.4 10.7-.7 21 27-11 6.1-12.2m48.7.5c-.6 0-1.5.2-2.6.6-10.9-2-4.6 7.4-2.7 12.3-8.1 12.4 16.3 1.9 7.3-4.9-4 1.8 2.4-7.9-2-8m45.8 1c-4 5.9-2.8 13-2.6 19.9 7.7 7.3 12.5-17.5 2.6-19.9m-141 4.1c8 8.4-7.8 8.6 0 0m109 1.1l.1 0c7.5 8.9-8.3 8.2-.1 0m-62 3.9c4.4 7.9-9.2.3 0 0m43.5 58.6c-13.9 7.8 15.5 8.9 0 0m-69 .4c-9.6 2.4-10.4 17.4-5.8 24 6.9-.8 13.2-18.9 5.8-24m82 0c-9.6 2.4-10.4 17.4-5.8 24 6.9-.8 13.2-18.9 5.8-24m-59 .4c-5 6-3.7 14.4-1.7 21.3 9 4.9 8.9-17.5 1.7-21.3m9 0l0 .1c-4.3 2-5.7 27.6 3.7 22 8.9 12 11.7-8 5.7-13.5-5.3 8.8-4.8-7.7-9.5-8.8m-24.7 7.4c-6-.1-.5 7.6 2 12-8.8 12.7 15.7 4.5 7.4-3.5-3.9 1.4 3.7-11.2-4.8-7.6-2-.6-3.5-.9-4.6-.9m47 .7c-7-.3 1.7 10.3-4.5 13-.8 18.7 26.9-11.2 6.2-12.9l-.1 0c-.6-.1-1.1-.2-1.7-.2m13.7.5c-4.4 4.8-2.4 11.6-2.4 17.4 5.1 12.9 14.2-16.2 2.4-17.4m-11.1 10c4.6 8.6-9.5.4 0 0m16.2 18.4c-8.7.2-15 10.5-13.4 18.9-.1 11 9.3 6.3 9.8-1.5-4.7-8.4 10.6-9.5 7.5-16.9-1.3-.4-2.6-.6-3.9-.6m-67 .6c-13.9 7.8 15.7 8.9 0 0m99 .4c-9.6 2.4-10.4 17.4-5.8 24 6.9-.8 13.2-18.9 5.8-24m-123 .4c-2.8 5.9-17.6 14.8-8.6 24.9 13.9 8.5 19-18.2 8.6-24.9m71 7.1c-4.3 0-7.4 5.9-7.7 9.9-.8 16.5 15.2-1 10.8-8.9-1.1-.7-2.2-1-3.1-1m-60.9.5c-6.9.1-4.6 23 6.9 16 .8-3.8 1.5-15.6-5-15.6-.7-.4-1.4-.5-1.9-.5m92 0c-9.5-.1 7.1 13-1.8 16.5 11.6 10.8 16-13.6 5.7-16-1.6-.4-2.9-.4-3.8-.4m-48.7.4c-5.7-.2-8.7 6.7-7.7 11.7 3.6 19 27.4-11.2 8.3-11.6-.2 0-.3 0-.5 0m-15.5 0c-.3 0-.6 0-1 0-4.6.5-7.6 3.4-8.7 6.7.3 1.8.3 3.9-.1 5.8 1 3.2 3.8 5.7 8.6 5.8 2.4-1.3 10.6-17.9 1.1-18.4m-9.7 12.6c-.6-1.8-.5-3.9.1-5.8-.5-3.3-2.2-6-5.6-6.4-4.5 4.7-2.6 11.6-2.4 17.4 2.9 7.1 6.9 1.5 8-5.3m65-12.2c-4.5 4.7-2.6 11.6-2.4 17.4 5.1 12.9 14.2-16 2.4-17.4m-56 4.5c6.7 3.6-7.7 3.8 0 0m-40.9.9c7.7 8.8-8.2 8.1 0 0m58 .1c8.8 7.7-8.6 8.4 0 0m-53.9 23.6c-13.9 7.8 15.7 8.8 0 0m-27.8.4c-9.5 2.3-10.3 17.3-5.8 24 6.9-.7 13.2-18.9 5.8-24m69 0c-5 1.2-7.7 6-8.3 11.3.1 1.4.1 2.8-.1 4.2.2 3.2 1.1 6.4 2.6 8.6 7-.8 13.2-18.9 5.8-24m-8.4 15.5c-.1-1.4-.1-2.8.1-4.2-.3-4.5-2-8.7-5.4-10.9-3.3 5.4-17.4 15.2-9 24.9 8.1 4.9 13.3-1.8 14.3-9.7m-52-15.2l0 .1c-4.3 2-5.7 27.7 3.8 22 8.9 12 11.7-8 5.7-13.5-5.3 8.8-5-7.6-9.6-8.8m28.4.1c-5 6-3.7 14.4-1.7 21.3 9 5.1 9-17.5 1.7-21.3m122 1.4c-.3 0-.5 0-.8 0l-3.8 1.3c-11.2 6.5 1.9 12.2 1.1 20 9.2 10.9 18.6-21.4 3.5-21.5m-19.5 0c-11.6 1.6-13 22.6-1.2 24.9 12.5 0 14.4-23.6 1.2-24.9m-.1 6c1.3.7 1.7 2.2 2 3.6 4.5 13-11-.1-2-3.6m18.9.1c9.2 6.6-7.7 8.2 0 0m-73 .4c-6.6-.1-3 9 0 12.7-8.2 5.3 6.1 8 8.5 2.7-1.5-3.9.5-15.3-6.1-15-.9-.3-1.7-.4-2.3-.4m35.7 0c-10.9-.3-12.7 20.6-4.1 24.4 9.3-1.7 17.7-19.7 6.3-24-.8-.2-1.6-.4-2.3-.4m-17.4.4l-5.7 1.4c.3 1.5 5.1 6.6-.4 10.8-.7 21 27-11 6.1-12.2m-75 .4c-4 5.9-2.7 13-2.6 19.9 7.7 7.3 12.5-17.5 2.6-19.9m92 5.2c7.7 8.6-6.7 7.4 0 0m-69 .2c8.1 8.2-7.7 8.7 0 0m52 4.7c4.4 7.8-9.1.4 0 0m69 2c-13.9 7.8 15.2 8.6 0 0m-110 17c-13.9 7.8 15.5 9.1 0 0m-25 .4c-9.5 2.4-10.4 17.3-5.8 24 6.9-.8 13.2-18.9 5.8-24m38 0c-8.2 2.2-10.3 17.2-3.8 24.5 5.9-5.2 10.3-20 3.8-24.5m39 .4l0 .1c-4.3 2-8.4 35.8 3.8 22 9 12 11.7-8 5.7-13.5-5.2 8.8-4.9-7.6-9.5-8.8m19 .1c-5 6-3.7 14.4-1.7 21.3 9 4.9 8.9-17.5 1.7-21.3m-32.8 7.8c-5.8-.2-4.3 8.4-1 11.8-7.5 5.9 5.9 9.5 8.7 3.9-1.1-3.9 1-15.3-5.7-15.2-.8-.3-1.5-.4-2.1-.4m-51 .3c-.3 0-.6 0-1 0l-1.3.2c-8.4.8-7.9 23.6 3.9 18.3-1-3.2 7.2-18-1.7-18.4m37 0l-5.7 1.5c.3 1.4 5.1 6.6-.4 10.8-.7 21 27-11 6.1-12.2m-26.8.5c-4.5 4.6-2.6 11.6-2.4 17.3 5.1 13 14.2-16 2.4-17.3m-11.8 4.5c6.8 2.8-7.4 3.9 0 0m39 5.6c4.3 8.1-8.8.1 0 0" id="path4304" fill="#ffffff"/>
</svg>
