<?xml version="1.0" encoding="UTF-8" standalone="no"?>
<svg xmlns="http://www.w3.org/2000/svg" version="1.0" width="580" height="580">
 <metadata id="metadata2975"/>
 <path id="path4169" d="M286 53L72 144 72 177 284 91 502 175 502 142 286 53zM288 112L131 175 196 174 287 144 379 176 441 177 288 112zM505 194L72 194 72 230 90 230 90 428 72 428 72 446 505 446 505 428 487 428 487 230 505 230 505 194zM127 230L163 230 163 428 127 428 127 230zM199 230L235 230 235 428 199 428 199 230zM271 230L307 230 307 428 271 428 271 230zM343 230L379 230 379 428 343 428 343 230zM415 230L451 230 451 428 415 428 415 230zM53.7 464L53.7 482 523 482 523 464 53.7 464zM36 500L36 518 541 518 541 500 36 500z" mix-blend-mode="normal" solid-color="#000000" opacity=".8" color-interpolation-filters="linearRGB" filter-gaussianBlur-deviation="0" color="#000000" image-rendering="auto" color-rendering="auto" stroke-width="64" isolation="auto" color-interpolation="sRGB" solid-opacity="1" fill="none" stroke-linejoin="round" filter-blend-mode="normal" stroke="#ffffff" shape-rendering="auto"/>
 <path d="M286 53L72 144 72 177 284 91 502 175 502 142 286 53M288 112L131 175 196 174 287 144 379 176 441 177 288 112M505 194L72 194 72 230 90 230 90 428 72 428 72 446 505 446 505 428 487 428 487 230 505 230 505 194M127 230L163 230 163 428 127 428 127 230M199 230L235 230 235 428 199 428 199 230M271 230L307 230 307 428 271 428 271 230M343 230L379 230 379 428 343 428 343 230M415 230L451 230 451 428 415 428 415 230M53.7 464L53.7 482 523 482 523 464 53.7 464M36 500L36 518 541 518 541 500 36 500" id="path4152" fill="#734a08"/>
</svg>
