<?xml version="1.0" encoding="UTF-8" standalone="no"?>
<svg xmlns="http://www.w3.org/2000/svg" version="1.0" width="580" height="580">
 <metadata id="metadata2975"/>
 <path d="M293 36.7C282 36.6 272 37.7 262 40 224 45 191 69.9 169 100 137 142 132 201 153 248 174 292 214 327 262 336L262 336C289 341 317 338 342 329 355 323 373 319 379 306 361 305 343 313 325 313 273 312 225 272 210 223 203 194 203 162 216 135 238 89 289 55.8 341 63 353 63 371 74 379 66.8 368 53 349 48.9 332 43 319 39 306 36.9 293 36.7zM380 129C372 141 369 155 365 168 351 169 337 167 323 171 333 182 346 188 356 197 352 210 346 223 345 237 357 237 368 220 380 216 393 222 403 232 414 239 418 226 408 212 406 198 415 188 428 181 438 171 428 168 417 169 406 169 402 168 394 171 395 164 390 152 388 139 380 129zM345 237C345 237 345 237 345 237L345 237C345 237 345 237 345 237zM205 360C200 360 195 364 195 370L195 534C195 539 200 544 205 544L369 544C374 544 378 539 378 534L378 370C378 364 374 360 369 360L205 360z" id="path4138" shape-rendering="auto" mix-blend-mode="normal" color-interpolation-filters="linearRGB" isolation="auto" white-space="normal" opacity=".8" fill="none" solid-opacity="1" image-rendering="auto" solid-color="#000000" stroke="#ffffff" color="#000000" stroke-linecap="round" stroke-linejoin="round" stroke-width="64" color-rendering="auto" color-interpolation="sRGB"/>
 <path d="m205 360c-5.4 0-9.7 4.4-9.7 9.8l0 164c0 5.4 4.4 9.8 9.7 9.8l164 0c5.4 0 9.7-4.4 9.7-9.8l0-164c0-5.4-4.4-9.8-9.7-9.8z" id="rect4154" shape-rendering="auto" mix-blend-mode="normal" color-interpolation-filters="linearRGB" isolation="auto" white-space="normal" solid-opacity="1" image-rendering="auto" solid-color="#000000" color="#000000" color-rendering="auto" color-interpolation="sRGB"/>
 <path d="m215 380l144 0 0 145-144 0z" id="rect3587" shape-rendering="auto" mix-blend-mode="normal" color-interpolation-filters="linearRGB" isolation="auto" white-space="normal" opacity=".8" fill="#ffffff" solid-opacity="1" image-rendering="auto" solid-color="#000000" color="#000000" color-rendering="auto" color-interpolation="sRGB"/>
 <path d="m262 336c-48-8.9-89-44-109-88-20.9-47-15.7-106 15.7-148 22-30 54.8-55 93-60 23.4-5.2 47.8-4.3 71 3.2 16.4 5.7 35.5 9.9 47 23.6-8.2 7.2-26.9-3.4-38.8-3.4-51-7.6-103 26-124 72-13 27-13.2 59-6.5 88 15.6 49 62.7 89 115 90 18.3-.5 36-8 54-7.1-6.4 12.6-24 17.2-36.8 23-25.5 8.6-53 11.7-79.9 6.9M345 237c1-13.7 7.5-26.3 11-39-10.3-9.2-23.3-15.5-32.4-26 13-4.2 27.4-2.6 41-3.6 4.9-12.8 7.9-26.7 15.6-38 7.9 9.6 9.9 22.9 14.4 34.5-.1 7.2 7 4.3 11.8 4.8 10.4.4 21.7-1.3 31.4 2.3-9.5 10.4-22.9 16.5-32 27.3 2 13.3 12 27.3 8.7 40-11.9-6.7-21.7-16.6-34-22.5-12.6 3.8-23.3 20.9-35.6 20.3" id="path1873"/>
 <path d="m363 166c-13.4 1.2-27.7-.6-40.6 3.6-3.3 3.8 3.4 6.9 5.6 9.4 8.2 6.8 17.2 12.5 25.5 19-3.5 12.9-10 25.4-10.8 38.9 2.2 6 9 1.1 12-1.3 8.5-5.6 16.4-13 25.6-17.2 11.7 6.3 21.6 15.8 33 22.3 5.2.2 3.7-7.2 3.1-10.6-1.9-10.8-7.3-21-9-31.7 9.6-9.9 22.4-16 31.5-26.4.6-5.2-7-3.9-10.3-4.7-10.5-.7-21-.2-31.6-.4-5-12.9-8.4-35.5-16.6-39-9.2 4.1-13.4 25.7-17.7 37.8" id="path4510" stroke-linejoin="round" stroke-linecap="round" stroke-width="14.4"/>
</svg>
