<?xml version="1.0" encoding="UTF-8" standalone="no"?>
<svg xmlns="http://www.w3.org/2000/svg" version="1.0" width="580" height="580">
 <metadata id="metadata2975"/>
 <path fill="none" id="path4136" d="M294 59L63 134 28 134 28 208 77 208 77 419 54 419 23 471 558 470 529 419 502 419 502 208 554 208 554 134 520 134 294 59M126 208L200 208 200 419 126 419 126 208M248 208L331 208 331 419 248 419 248 208M379 208L453 208 453 419 379 419 379 208" mix-blend-mode="normal" solid-color="#000000" opacity=".8" color-interpolation-filters="linearRGB" filter-gaussianBlur-deviation="0" color="#000000" image-rendering="auto" color-rendering="auto" stroke-width="64" isolation="auto" color-interpolation="sRGB" solid-opacity="1" stroke-linejoin="round" filter-blend-mode="normal" stroke="#ffffff" shape-rendering="auto"/>
 <path d="M294 59L63 134 28 134 28 208 77 208 77 419 54 419 23 471 558 470 529 419 502 419 502 208 554 208 554 134 520 134 294 59M126 208L200 208 200 419 126 419 126 208M248 208L331 208 331 419 248 419 248 208M379 208L453 208 453 419 379 419 379 208" id="path828" fill="#734a08"/>
</svg>
