<?xml version="1.0" encoding="UTF-8" standalone="no"?>
<svg xmlns="http://www.w3.org/2000/svg" version="1.0" width="580" height="580">
 <metadata id="metadata2975"/>
 <path id="path4168" d="M144 54.9C139 54.9 134 55 128 55 128 55 151 167 248 143 248 143 246 56 144 54.9zM275 70C275 70 274 70 274 70 272 71 271 70.8 270 71 268 72 266 75 266 77 265 80 266 83 268 87 270 94 273 107 274 122 276 137 277 154 278 170 280 202 280 231 280 231L285 232 313 85 311 84C311 84 298 77 286 73 282 71 278 70 275 70zM437 92C334 93 323 185 323 185 434 223 472 95 472 95 459 93 448 92 437 92zM211 223C152 223 105 271 105 330 105 332 105 334 105 336L105 336C107 359 114 387 132 423 132 423 162 480 186 506L188 508C199 520 215 527 233 527 255 527 274 517 286 500L286 500C298 517 317 527 339 527 356 527 373 520 384 508L386 506C410 480 440 423 440 423 457 387 465 359 467 336L467 336C467 334 467 332 467 330 467 271 419 223 360 223 331 223 305 235 286 254 267 235 240 223 211 223z" mix-blend-mode="normal" solid-color="#000000" opacity=".8" color-interpolation-filters="linearRGB" filter-gaussianBlur-deviation="0" color="#000000" image-rendering="auto" color-rendering="auto" stroke-width="64" isolation="auto" color-interpolation="sRGB" solid-opacity="1" fill="none" filter-blend-mode="normal" stroke="#ffffff" shape-rendering="auto"/>
 <path d="M144 54.9C139 54.9 134 55 128 55 128 55 151 167 248 143 248 143 246 56 144 54.9M275 70C275 70 274 70 274 70 272 71 271 70.8 270 71 268 72 266 75 266 77 265 80 266 83 268 87 270 94 273 107 274 122 276 137 277 154 278 170 280 202 280 231 280 231L285 232 313 85 311 84C311 84 298 77 286 73 282 71 278 70 275 70M437 92C334 93 323 185 323 185 434 223 472 95 472 95 459 93 448 92 437 92M211 223C152 223 105 271 105 330 105 332 105 334 105 336L105 336C107 359 114 387 132 423 132 423 162 480 186 506L188 508C199 520 215 527 233 527 255 527 274 517 286 500L286 500C298 517 317 527 339 527 356 527 373 520 384 508L386 506C410 480 440 423 440 423 457 387 465 359 467 336L467 336C467 334 467 332 467 330 467 271 419 223 360 223 331 223 305 235 286 254 267 235 240 223 211 223" id="path6571" fill="#ac39ac"/>
</svg>
