<?xml version="1.0" encoding="UTF-8" standalone="no"?>
<svg xmlns="http://www.w3.org/2000/svg" version="1.0" width="580" height="580">
 <metadata id="metadata10"/>
 <path d="m155 495l0-361 136 0c23.9 0 42 1.2 54.8 3.4 17.7 3 32.5 8.6 44.5 16.9 12 8.3 21.6 19.9 28.9 34.9 7.3 14.9 10.9 31.4 10.9 49 0 30.7-9.8 56.7-29 78-19.5 21.3-54.7 31.9-106 31.9l-92 0 0 147-47.7 0zm47.7-189l93 0c30.8 0 52.7-5.8 66-17.3 12.9-11.5 19.4-27.7 19.4-48.6 0-15-3.8-28-11.4-38.8-7.6-10.8-17.7-17.9-30-21.3-8-2.1-22.9-3.2-44.5-3.2l-92 0 0 129z" id="text2419-2" mix-blend-mode="normal" solid-color="#000000" opacity=".8" color-interpolation-filters="linearRGB" color="#000000" image-rendering="auto" color-rendering="auto" stroke-width="64" isolation="auto" color-interpolation="sRGB" solid-opacity="1" fill="none" stroke="#ffffff" shape-rendering="auto"/>
 <path d="m154 123c-2.6 0-5.2 1-7 2.9-1.8 1.8-2.9 4.4-2.9 7l0 19.5 30.7 0 0-29.4-20.8 0m58 0l0 28 36.4 0 0-28-36.4 0m74 0l0 27.3 36.4 0 0-26.5c-9.2-.5-19.5-.8-31-.8l-5.2 0m75.9 6.5l0 19.4 36.4 0 0-2.8c-.4-.3-.8-.6-1.2-.8-10-7-21.9-12.2-35-15.7m36.6 18.5l0 36.4 31 0c0-.1-.1-.1-.1-.2-7.3-14.8-16.9-27-28.7-36l-2.3 0m-150 1.6l0 36 36.4 0 0-36-36.4 0m75 .1l0 36.4 36.4 0 0-36.4-36.4 0m-149 2.1l0 36.4 36.4 0 0-36.4-36.4 0m187 33.4l0 20c.2.3.4.5.6.8 3.3 4.7 5.8 9.8 7.4 15.5l28.4 0 0-36.4-36.4 0M144 188l0 36.4 30.7 0 0-36.4-30.7 0m291 7.1l0 24.9-36 0 0 36.4 36.4 0 0-35.4 5.7 0c-1.1-9-3.1-17.6-6.1-25.9m-259 28.8l0 36.4 36.4 0 0-36.4-36.4 0m195 33.5c-1.7 6.4-4.4 12-8.2 16.7l0 19.7 36.4 0 0-36.4-28 0m65 .1l0 23.6c2.6-7.6 4.5-15.4 5.7-23.6l-5.7 0M144 261l0 36.4 30.7 0 0-36.4-30.7 0m255 32l0 36.4 4.2 0c2.4-2.1 4.6-4.2 6.8-6.5 8.4-9.1 15-19 20-29.9l-31 0m-76 .7c-4.8.7-9.9 1.3-15.5 1.6l15.5 0 0-1.6m1.7 1.1l0 36.4 36.4 0 0-36.4-36.4 0m-112 .8l0 .5 36.4 0 0-.5-36.4 0m37 0l0 35.5 36.4 0 0-35.5-36.4 0m-74 1.3l0 36.4 36.4 0 0-36.4-36.4 0m187 33.5l0 20c14.2-4.1 26.4-9.8 36.4-17.4l0-2.6-36.4 0m-75.9 1.3l0 26.5 9.4 0c9.5 0 18.5-.4 27-1.1l0-25.5-36.4 0m-74 .8l0 25.8 36.4 0 0-25.8-36.4 0M144 334l0 36.4 30.7 0 0-36.4-30.7 0m31 36l0 36.4 36.4 0 0-36.4-36.4 0M144 407l0 36.4 30.7 0 0-36.4-30.7 0m31 35.9l0 36.4 36.4 0 0-36.4-36.4 0M144 480l0 17c0 2.6 1.1 5.1 2.9 7 1.8 1.8 4.4 2.9 7 2.9l20.8 0 0-26.9-30.7 0" id="text2419" opacity=".8" color="#000000" stroke-width="22.7" fill="#0092da"/>
</svg>
