<?xml version="1.0" encoding="UTF-8" standalone="no"?>
<svg xmlns="http://www.w3.org/2000/svg" version="1.0" width="580" height="580">
 <metadata id="metadata10"/>
 <path d="m155 495l0-361 136 0c23.9 0 42 1.2 54.8 3.4 17.7 3 32.5 8.6 44.5 16.9 12 8.3 21.6 19.9 28.9 34.9 7.3 14.9 10.9 31.4 10.9 49 0 30.7-9.8 56.7-29 78-19.5 21.3-54.7 31.9-106 31.9l-92 0 0 147-47.7 0zm47.7-189l93 0c30.8 0 52.7-5.8 66-17.3 12.9-11.5 19.4-27.7 19.4-48.6 0-15-3.8-28-11.4-38.8-7.6-10.8-17.7-17.9-30-21.3-8-2.1-22.9-3.2-44.5-3.2l-92 0 0 129z" id="text2419-2" mix-blend-mode="normal" solid-color="#000000" opacity=".8" color-interpolation-filters="linearRGB" filter-gaussianBlur-deviation="0" color="#000000" image-rendering="auto" color-rendering="auto" stroke-width="64" isolation="auto" color-interpolation="sRGB" solid-opacity="1" fill="none" filter-blend-mode="normal" stroke="#ffffff" shape-rendering="auto"/>
 <path d="m155 495l0-361 136 0c23.9 0 42 1.2 54.8 3.4 17.7 3 32.5 8.6 44.5 16.9 12 8.3 21.6 19.9 28.9 34.9 7.3 14.9 10.9 31.4 10.9 49 0 30.7-9.8 56.7-29 78-19.5 21.3-54.7 31.9-106 31.9l-92 0 0 147-47.7 0zm47.7-189l93 0c30.8 0 52.7-5.8 66-17.3 12.9-11.5 19.4-27.7 19.4-48.6 0-15-3.8-28-11.4-38.8-7.6-10.8-17.7-17.9-30-21.3-8-2.1-22.9-3.2-44.5-3.2l-92 0 0 129z" id="text2419" fill="#0092da" stroke="#0092da" stroke-linejoin="round" stroke-linecap="round" stroke-width="22.7"/>
</svg>
