<?xml version="1.0" encoding="UTF-8" standalone="no"?>
<svg xmlns="http://www.w3.org/2000/svg" version="1.1" width="580" viewBox="0 0 6444.4444 6444.4444" height="580">
 <metadata id="metadata9"/>
 <path transform="scale(11.111111,11.111111)" id="path4157" d="M290 73L290 121l-48 0 0 24 48 0 0 45.6L170 387 434 387 314 191 314 145l48 0 0-24-48 0 0-48z" mix-blend-mode="normal" solid-color="#000000" opacity=".8" white-space="normal" color-interpolation-filters="linearRGB" filter-gaussianBlur-deviation="0" color="#000000" image-rendering="auto" color-rendering="auto" stroke-width="64" isolation="auto" color-interpolation="sRGB" solid-opacity="1" fill="none" stroke-linejoin="round" filter-blend-mode="normal" stroke="#ffffff" shape-rendering="auto"/>
 <path d="M290 73L290 121l-48 0 0 24 48 0 0 45.6L170 387 434 387 314 191 314 145l48 0 0-24-48 0 0-48z" id="path4138" transform="scale(11.111111,11.111111)" mix-blend-mode="normal" solid-color="#000000" white-space="normal" color-interpolation-filters="linearRGB" color="#000000" image-rendering="auto" color-rendering="auto" isolation="auto" color-interpolation="sRGB" solid-opacity="1" shape-rendering="auto"/>
 <path d="m3356 2411l991 1622-1982 0z" id="path4140" shape-rendering="auto" mix-blend-mode="normal" color-interpolation-filters="linearRGB" isolation="auto" white-space="normal" fill="#aaaaaa" solid-opacity="1" image-rendering="auto" solid-color="#000000" color="#000000" color-rendering="auto" color-interpolation="sRGB"/>
</svg>
