<?xml version="1.0" encoding="UTF-8" standalone="no"?>
<svg xmlns="http://www.w3.org/2000/svg" version="1.0" width="580" height="580">
 <metadata id="metadata2975"/>
 <path d="m231 137l0 81-81 0 0 5 0 128 81 0 0 81 133 0 0-81 81 0 0-133-81 0 0-81-5 0-128 0z" id="rect2160-1" shape-rendering="auto" mix-blend-mode="normal" filter-blend-mode="normal" color-interpolation-filters="linearRGB" isolation="auto" white-space="normal" opacity=".8" fill="none" solid-opacity="1" image-rendering="auto" solid-color="#000000" stroke="#ffffff" color="#000000" stroke-width="64" color-rendering="auto" filter-gaussianBlur-deviation="0" color-interpolation="sRGB"/>
 <path d="m101 88l0 10.6 0 383 393 0 0-393-393 0zm21 21l351 0 0 351-351 0 0-351z" id="rect3184-6" shape-rendering="auto" mix-blend-mode="normal" filter-blend-mode="normal" color-interpolation-filters="linearRGB" isolation="auto" white-space="normal" opacity=".8" fill="none" solid-opacity="1" image-rendering="auto" solid-color="#000000" stroke="#ffffff" color="#000000" stroke-width="64" color-rendering="auto" filter-gaussianBlur-deviation="0" color-interpolation="sRGB"/>
 <path d="M231 137L231 218 149 218 149 223 149 351 231 351 231 433 363 433 363 351 445 351 445 218 363 218 363 137 358 137 231 137" id="rect2160" shape-rendering="auto" mix-blend-mode="normal" color-interpolation-filters="linearRGB" isolation="auto" white-space="normal" fill="#da0092" solid-opacity="1" image-rendering="auto" solid-color="#000000" color="#000000" color-rendering="auto" color-interpolation="sRGB"/>
 <path d="m101 88l0 10.6 0 383 393 0 0-393-393 0m21 21l351 0 0 351-351 0 0-351" id="rect3184" shape-rendering="auto" mix-blend-mode="normal" color-interpolation-filters="linearRGB" isolation="auto" white-space="normal" fill="#da0092" solid-opacity="1" image-rendering="auto" solid-color="#000000" color="#000000" color-rendering="auto" color-interpolation="sRGB"/>
</svg>
