<?xml version="1.0" encoding="UTF-8" standalone="no"?>
<svg xmlns="http://www.w3.org/2000/svg" version="1.0" width="580" height="580">
 <metadata id="metadata2975"/>
 <path id="path4147" d="M144 145L144 194 212 194 174 289 67 289 67 339 154 339 105 461 163 461 213 339 367 339 417 461 476 461 427 339 513 339 513 289 407 289 368 194 437 194 437 145 144 145zM267 194L304 194 343 289 228 289 267 194z" shape-rendering="auto" mix-blend-mode="normal" filter-blend-mode="normal" color-interpolation-filters="linearRGB" isolation="auto" white-space="normal" opacity=".8" fill="none" solid-opacity="1" image-rendering="auto" solid-color="#000000" stroke="#ffffff" color="#000000" stroke-width="64" color-rendering="auto" filter-gaussianBlur-deviation="0" color-interpolation="sRGB"/>
 <path d="M144 145L144 194 212 194 174 289 67 289 67 339 154 339 105 461 163 461 213 339 367 339 417 461 476 461 427 339 513 339 513 289 407 289 368 194 437 194 437 145 144 145M267 194L304 194 343 289 228 289 267 194" id="flowRoot3192" shape-rendering="auto" mix-blend-mode="normal" color-interpolation-filters="linearRGB" isolation="auto" white-space="normal" fill="#734a08" solid-opacity="1" image-rendering="auto" solid-color="#000000" color="#000000" color-rendering="auto" color-interpolation="sRGB"/>
</svg>
