<?xml version="1.0" encoding="UTF-8" standalone="no"?>
<svg xmlns="http://www.w3.org/2000/svg" version="1.0" width="580" height="580">
 <metadata id="metadata10"/>
 <path d="M165 129C147 128 135 138 129 148 118 166 125 191 145 201 164 212 189 206 201 188 211 156 195 129 165 129zM480 192C458 192 439 210 440 232 440 232 440 232 440 232 442 254 461 271 483 271 505 271 524 253 522 231 521 209 502 192 480 192zM129 195C112 195 76 245 57 273 32 271 31.7 301 50 305L113 317C106 328 64 372 89 377 102 381 137 338 148 324L282 351C267 382 252 413 237 445L343 445C329 415 314 384 300 354L421 378C425 393 434 465 457 450 470 451 456 399 455 384L524 398C551 401 556 371 525 365 518 344 516 276 494 272 472 267 442 325 428 346L157 292C148 265 152 200 130 195 130 195 129 195 129 195z" id="path4176" mix-blend-mode="normal" solid-color="#000000" white-space="normal" color-interpolation-filters="linearRGB" opacity=".8" color="#000000" image-rendering="auto" color-rendering="auto" stroke-width="64" isolation="auto" color-interpolation="sRGB" solid-opacity="1" fill="#734a08" stroke="#ffffff" shape-rendering="auto"/>
 <path d="M165 129C147 128 135 138 129 148 118 166 125 191 145 201 164 212 189 206 201 188 211 156 195 129 165 129M480 192C458 192 439 210 440 232 440 232 440 232 440 232 442 254 461 271 483 271 505 271 524 253 522 231 521 209 502 192 480 192M129 195C112 195 76 245 57 273 32 271 31.7 301 50 305L113 317C106 328 64 372 89 377 102 381 137 338 148 324L282 351C267 382 252 413 237 445L343 445C329 415 314 384 300 354L421 378C425 393 434 465 457 450 470 451 456 399 455 384L524 398C551 401 556 371 525 365 518 344 516 276 494 272 472 267 442 325 428 346L157 292C148 265 152 200 130 195 130 195 129 195 129 195" id="path4165" fill="#734a08" isolation="auto" color-rendering="auto" white-space="normal" solid-opacity="1" mix-blend-mode="normal" color-interpolation-filters="linearRGB" shape-rendering="auto" image-rendering="auto" color-interpolation="sRGB" color="#000000" solid-color="#000000"/>
</svg>
