<?xml version="1.0" encoding="UTF-8" standalone="no"?>
<svg xmlns="http://www.w3.org/2000/svg" version="1.0" width="580" height="580">
 <metadata id="metadata2975"/>
 <path d="M291 32.8C270 33.5 254 57.8 263 76.9 271 97 301 103 315 87 331 72 325 42 304 34.9 300 33.5 297 32.8 293 32.8 292 32.8 291 32.8 291 32.8zM206 65C192 64.8 183 83 192 94 207 113 220 132 235 150 244 157 256 153 267 153L282 152C288 178 294 204 301 230 284 246 268 262 252 279 244 290 247 305 254 316 262 327 277 324 289 324 316 324 342 323 369 323 386 322 396 300 385 287 378 276 364 278 353 278 345 278 337 278 329 278 343 266 359 255 373 242 381 231 380 215 377 203 371 177 365 151 359 126 352 100 317 89 296 106 287 113 286 115 277 116L256 117C243 101 231 85 219 69 215 67 211 64.9 207 64.8 207 64.8 206 65 206 65zM216 362C211 362 206 367 206 372L206 536C206 541 211 546 216 546L380 546C385 546 389 541 389 536L389 372C389 367 385 362 380 362L216 362z" id="path4174" shape-rendering="auto" mix-blend-mode="normal" color-interpolation-filters="linearRGB" isolation="auto" white-space="normal" opacity=".8" fill="none" solid-opacity="1" image-rendering="auto" solid-color="#000000" stroke="#ffffff" color="#000000" stroke-linecap="round" stroke-linejoin="round" stroke-width="64" color-rendering="auto" color-interpolation="sRGB"/>
 <path d="m216 362c-5.4 0-9.7 4.4-9.7 9.8l0 164c0 5.4 4.4 9.8 9.7 9.8l164 0c5.4 0 9.7-4.4 9.7-9.8l0-164c0-5.4-4.4-9.8-9.7-9.8z" id="rect4154" shape-rendering="auto" mix-blend-mode="normal" color-interpolation-filters="linearRGB" isolation="auto" white-space="normal" solid-opacity="1" image-rendering="auto" solid-color="#000000" color="#000000" color-rendering="auto" color-interpolation="sRGB"/>
 <path d="m226 382l144 0 0 144-144 0z" id="rect3587" shape-rendering="auto" mix-blend-mode="normal" color-interpolation-filters="linearRGB" isolation="auto" white-space="normal" opacity=".8" fill="#ffffff" solid-opacity="1" image-rendering="auto" solid-color="#000000" color="#000000" color-rendering="auto" color-interpolation="sRGB"/>
 <path d="m293 32.8c-21.9-.9-38.5 24.4-29 44 7.6 20.5 37 26 51.9 9.8 15.8-15 9.4-44.6-11.2-51.7-3.6-1.4-7.6-2.2-11.5-2.2M207 64.8c-14.8-1.2-24.5 18.3-14.8 29.4 14.4 18.4 28 37 42.9 55 8.9 7.6 21 3 31.5 3.2l15.5-1.1c6.2 26 11.8 52 18.4 78-16.3 16.3-33 32-48.9 48.9-7.7 11-4.6 26.7 2 37 8.7 11.2 23.4 7.6 35.6 8 26.6-.4 53-.5 80-1 16.8-.9 26.5-22.8 16-35.9-7.2-11-20.9-9.3-32-9.2-8 .1-16 .2-24 .3 14.6-12 29.8-23.6 43.9-36 8.2-11 7.5-26.5 4.5-39-6-25.6-11.7-51-18-77-7.3-25.8-42-36.9-62.9-19.9-9 7.2-10 9.4-19.3 9.7l-21.5 1.5C243 101 231 85 219 69 215 67 211 64.9 207 64.8" id="path4059" isolation="auto" color-rendering="auto" white-space="normal" solid-opacity="1" mix-blend-mode="normal" color-interpolation-filters="linearRGB" shape-rendering="auto" image-rendering="auto" color-interpolation="sRGB" color="#000000" solid-color="#000000"/>
</svg>
