<?xml version="1.0" encoding="UTF-8" standalone="no"?>
<svg xmlns="http://www.w3.org/2000/svg" version="1.0" width="580" height="580">
 <metadata id="metadata10"/>
 <path id="path4149" d="m226 183l-13.4 356c-.1 2.2 1.6 3.9 3.8 4 82 1.2 146 .9 229 .9 2.1 0 3.8-1.7 3.8-3.8l0-110c0-2.1-1.7-3.8-3.8-3.8l-174 0-5.7-242c-3.4-5.7-39-7.7-39.7-1.2z" mix-blend-mode="normal" isolation="auto" white-space="normal" solid-color="#000000" opacity=".8" color-interpolation-filters="linearRGB" filter-gaussianBlur-deviation="0" color="#000000" image-rendering="auto" color-rendering="auto" stroke-width="64" color-interpolation="sRGB" solid-opacity="1" fill="none" stroke-linejoin="round" filter-blend-mode="normal" stroke="#ffffff" shape-rendering="auto"/>
 <path id="path4151" d="m187 36.5c-5.2 13.3 2.3 29 4 43 7.7 35.8 18.5 70.9 25.5 107-27 45-60 86-83 125-8.9 15.9 10.3 6.5 15.3 0 34-28.8 64-62 98-92 13.2-5.5 28.9.7 42.9.6 35.7 3.2 71 8.8 107 8.3 21-2.5-7.4-14.5-15-16-39.8-13.9-81-22.7-121-36.6-11-9-15.8-25.4-20.7-37.5C235 127 199 31.9 187 36.5" mix-blend-mode="normal" solid-color="#000000" opacity=".8" color-interpolation-filters="linearRGB" filter-gaussianBlur-deviation="0" color="#000000" image-rendering="auto" color-rendering="auto" stroke-width="64" isolation="auto" color-interpolation="sRGB" solid-opacity="1" fill="none" stroke-linejoin="round" filter-blend-mode="normal" stroke="#ffffff" shape-rendering="auto"/>
 <path id="path4147" d="m226 183l-13.4 356c-.1 2.2 1.6 3.9 3.8 4 82 1.2 146 .9 229 .9 2.1 0 3.8-1.7 3.8-3.8l0-110c0-2.1-1.7-3.8-3.8-3.8l-174 0-5.7-242c-3.4-5.7-39-7.7-39.7-1.2" mix-blend-mode="normal" isolation="auto" white-space="normal" fill="#ffffff" color-rendering="auto" solid-opacity="1" color-interpolation-filters="linearRGB" shape-rendering="auto" image-rendering="auto" color-interpolation="sRGB" color="#000000" solid-color="#000000"/>
 <path white-space="normal" isolation="auto" mix-blend-mode="normal" d="m226 183l-13.4 356c-.1 2.2 1.6 3.9 3.8 4 82 1.2 146 .9 229 .9 2.1 0 3.8-1.7 3.8-3.8l0-110c0-2.1-1.7-3.8-3.8-3.8l-174 0-5.7-242c-3.4-5.7-39-7.7-39.7-1.2" id="rect3947" opacity=".8" fill="#734a08" color-rendering="auto" solid-opacity="1" color-interpolation-filters="linearRGB" shape-rendering="auto" image-rendering="auto" color-interpolation="sRGB" color="#000000" solid-color="#000000"/>
 <path d="m187 36.5c-5.2 13.3 2.3 29 4 43 7.7 35.8 18.5 70.9 25.5 107-27 45-60 86-83 125-8.9 15.9 10.3 6.5 15.3 0 34-28.8 64-62 98-92 13.2-5.5 28.9.7 42.9.6 35.7 3.2 71 8.8 107 8.3 21-2.5-7.4-14.5-15-16-39.8-13.9-81-22.7-121-36.6-11-9-15.8-25.4-20.7-37.5C235 127 199 31.9 187 36.5" id="path3051" fill="#734a08"/>
</svg>
