<?xml version="1.0" encoding="UTF-8" standalone="no"?>
<svg xmlns="http://www.w3.org/2000/svg" version="1.0" width="580" height="580">
 <metadata id="metadata2975"/>
 <defs id="defs4">
  <clipPath id="clipoutline2">
   <path d="m55.8 12l.8.2c8.8-2.9 28.7 8.6 24.3 19-1.1 1.6-.9 4.5.4 6.3L56 62c-1.4-1.4-4.5-1.4-5.9 0L9.5 102c-3.7 3.6-.8 6.6.8 8.3l7.4 7.4c1.6 1.6 5.9 3.8 8.9.6L65 77c1.3-1.4 1.4-4.5 0-5.9 0 0 0 0 0 0L90 46c2.6 2.4 5.1 2.6 7.5 1.9 4.5-1.3 7.1 3.2 9.8 6.5l-1.2 1.2c-1.8 1.8-1.7 4.9.4 7 2 2 5.2 2.2 7 .4l8.1-8.1c1.8-1.8 1.7-4.9-.4-7-1.8-1.9-4.5-2.1-6.4-.8-5.6-6.3-2.7-7.2-10-15.4L91 17.9C81 8.1 68 8.1 55.8 12" id="outline2"/>
  </clipPath>
 </defs>
 <path d="M261 102L233 102 233 199C253 188 276 185 298 189 298 189 298 189 298 189L281 115C277 107 270 102 261 102zM35.5 133L35.5 167 210 167 210 133 35.5 133zM210 185C152 185 94 185 35.5 185L35.5 219 207 219C210 217 210 214 210 210L210 185zM279 202C234 202 199 238 199 283 199 327 235 366 280 366 324 366 362 328 362 284 362 235 323 203 279 202zM35.6 237L35.5 271 184 271C185 259 189 247 195 237L35.6 237zM36 288L35.8 322 192 322C187 312 184 300 183 288L36 288zM36 340L36 374 211 374 211 350C206 347 205 340 200 340L36 340zM338 358C309 381 260 381 234 368L234 479 366 479 338 358zM506 388C498 388 490 390 483 394 471 398 457 397 445 391 431 385 417 389 404 394 393 398 381 397 371 392L378 423C390 426 402 424 413 419 425 414 439 416 450 422 463 427 478 425 490 419 502 415 516 416 528 422 532 423 542 427 544 423L544 396C536 397 528 393 520 390 515 389 511 388 506 388zM35.8 392L35.8 426 210 426 210 392 35.8 392zM506 440C498 440 490 442 483 446 471 451 457 449 445 443 431 438 417 441 405 446 398 449 390 449 383 448L389 477C398 477 406 475 414 471 426 467 439 468 450 474 463 479 477 478 489 472 502 467 516 468 528 474 533 475 541 478 544 476L544 449C536 449 528 445 520 442 515 441 510 440 506 440zM35.8 444L35.8 478 210 478 210 444 35.8 444z" id="path4226" mix-blend-mode="normal" solid-color="#000000" opacity=".8" color-interpolation-filters="linearRGB" filter-gaussianBlur-deviation="0" color="#000000" image-rendering="auto" color-rendering="auto" stroke-width="64" isolation="auto" color-interpolation="sRGB" solid-opacity="1" fill="none" stroke-linejoin="round" filter-blend-mode="normal" stroke="#ffffff" shape-rendering="auto"/>
 <path d="m199 283c0 44 36 83 81 83 44 0 83-38 82-81.9-.3-49-39.6-81-84-82-44-.2-80 35.8-80 81" id="path4222" fill="#734a08"/>
 <path d="m352 285c0 39.8-32 72-72 72-39.9 0-72-32-72-72 0-39.8 32-72 72-72 39.9 0 72 32 72 72" id="path4220" fill="#ffffff"/>
 <path d="m35.5 133l0 34 175 0 0-34-175 0" id="path4214" opacity=".6" fill="#734a08"/>
 <path d="m210 185c-58 0-116 0-175 0l0 34 172 0c3.2-2 3.1-5.2 2.9-8.6l0-25.6" id="path4212" opacity=".6" fill="#734a08"/>
 <path d="m35.6 237l-.1 34 148 0c1.3-11.9 5.1-23.6 11-34l-159 0" id="path4210" opacity=".6" fill="#734a08"/>
 <path d="m36 288l-.2 34 156 0c-5.1-10.6-8-22.3-8.4-34l-147 0" id="path4208" opacity=".6" fill="#734a08"/>
 <path d="m36 340l.2 34 175 0 0-24.4c-4.2-2.4-5.5-9.9-10.7-9.6l-164 0" id="path4206" opacity=".6" fill="#734a08"/>
 <path d="m506 388c-7.8.1-15.5 2.2-22.5 5.5-12.5 4.9-26.7 3.5-38.6-2.5-14.2-5.5-27.9-2.2-40.6 2.9-10.8 3.6-22.8 2.9-33-1.8l7 31c11.5 3.2 23.9 1.4 34.5-3.9 12.2-4.8 26-3.5 37.8 2.4 12.9 5.1 27.6 3.5 39.9-2.6 12-4.5 25.9-3.2 37 2.6 4.8 1.2 14 5.3 16.8 1.7l0-26.8c-8.7.3-16.9-3.2-24.8-6.4-4.5-1.5-9.1-2.2-13.8-2.1" id="path4204" opacity=".6" fill="#734a08"/>
 <path d="m35.8 392l0 34 175 0 0-34-175 0" id="path4202" opacity=".6" fill="#734a08"/>
 <path d="m506 440c-7.8.1-15.5 2.2-22.5 5.5-12.5 4.8-26.7 3.3-38.6-2.6-13.9-5.2-27.6-2-39.9 3.1-7.1 2.3-14.9 3.1-22.3 1.6l6.5 29c8.6.3 16.9-2.3 24.7-5.9 11.9-4.3 25.4-2.9 36.6 2.8 12.5 4.9 26.9 3.8 38.9-2.2 12.3-4.9 26.6-3.8 38 2.2 4.9 1.4 13.2 4.6 16.8 2.1l0-27c-8.7.3-16.9-3.2-24.8-6.4-4.5-1.5-9.1-2.2-13.8-2.1" id="path4200" opacity=".6" fill="#734a08"/>
 <path d="m35.8 444l0 34 175 0 0-34-175 0" id="path4161" opacity=".6" fill="#734a08"/>
 <path d="M265 206C248 212 234 219 221 229L273 285C280 309 286 335 292 358 304 363 330 340 339 333L285 279 265 206" id="path4157" opacity=".6" fill="#734a08"/>
 <path d="m233 102l0 96c19.8-10.4 43-14 65-9.4.1 0 .2 0 .3.1L281 115C277 107 270 102 261 102" id="path4224" fill="#734a08"/>
 <path d="m271 284c0 5.3 4.3 9.5 9.6 9.5 5.3 0 9.6-4.3 9.6-9.5 0-5.3-4.3-9.5-9.6-9.5-5.3 0-9.6 4.3-9.6 9.5" id="path4218" fill="#734a08"/>
 <path d="m234 368l0 111 133 0-28-120c-28.8 22.9-78 22.9-105 9.2" id="path4916" fill="#734a08"/>
</svg>
