<?xml version="1.0" encoding="UTF-8" standalone="no"?>
<svg xmlns="http://www.w3.org/2000/svg" version="1.0" width="580" height="580">
 <metadata id="metadata1976"/>
 <path id="path4164" d="m246 59c-32.5 14.7-71 9-101-7.6-18.8 4.5-31 23-46.6 34-12.9 8.3-23.3 22.7-11.8 37 15 32.7 27.4 70 14.5 106-14 43.6-39.6 86-31.5 134 4.9 45.9 32.7 88 73 110 45 28.7 107 51 151 72.9 24.9-11.4 37-27 62-34 50.9-24 110-47.7 137-100 23-44 22.6-99-.4-143-14.9-33-33.5-74-22-112 .4-22.5 27.3-45 14-67C467 74 450 57 429 45 412 48.7 398 62 380 63 340 72 308 46.7 286 35 271 38.9 261 54.8 246 59" mix-blend-mode="normal" solid-color="#000000" opacity=".8" white-space="normal" color-interpolation-filters="linearRGB" filter-gaussianBlur-deviation="0" color="#000000" image-rendering="auto" color-rendering="auto" stroke-width="64" isolation="auto" color-interpolation="sRGB" solid-opacity="1" fill="none" stroke-linejoin="round" filter-blend-mode="normal" stroke="#ffffff" shape-rendering="auto"/>
 <path d="m246 59c-32.5 14.7-71 9-101-7.6-18.8 4.5-31 23-46.6 34-12.9 8.3-23.3 22.7-11.8 37 15 32.7 27.4 70 14.5 106-14 43.6-39.6 86-31.5 134 4.9 45.9 32.7 88 73 110 45 28.7 107 51 151 72.9 24.9-11.4 37-27 62-34 50.9-24 110-47.7 137-100 23-44 22.6-99-.4-143-14.9-33-33.5-74-22-112 .4-22.5 27.3-45 14-67C467 74 450 57 429 45 412 48.7 398 62 380 63 340 72 308 46.7 286 35 271 38.9 261 54.8 246 59" id="path4158" fill="#734a08" isolation="auto" color-rendering="auto" white-space="normal" solid-opacity="1" mix-blend-mode="normal" color-interpolation-filters="linearRGB" shape-rendering="auto" image-rendering="auto" color-interpolation="sRGB" color="#000000" solid-color="#000000"/>
 <path d="m401 73c16.3-7.9 30.7-16 43.8 1.9 14.7 13.6 42 23.6 22.8 46-14.8 33.8-18.5 73-5 108 11.7 35.8 35 69 34.5 108 1.6 43.9-19.5 88-56 112-45 33-106 46.9-151 80C234 493 169 482 120 436 81 397 72 334 95 285 131 214 130 184 95 108 111 93 127 79.9 143 66c43 25 102 20.6 139-13 40.9 20 77 33.7 119 19.4" id="path4150" opacity=".9" fill="#ffffff" isolation="auto" color-rendering="auto" white-space="normal" solid-opacity="1" mix-blend-mode="normal" color-interpolation-filters="linearRGB" shape-rendering="auto" image-rendering="auto" color-interpolation="sRGB" color="#000000" solid-color="#000000"/>
 <path d="m234 111c-8.2.7-16.4 1.6-24.7 2.2-7.3-5.6-16.5-1.6-20.3 3.5l-16.6 23.8c-5.8 12.4-3 20 7.3 25.9l8 24c-5.3 7.4-1 24.6.5 37-14.8 5-35.6 14.8-38 30-.8 6.6-2.2 14.2.5 19.7 18 20.2 47.9 25 74 23.7 24.7 28.5 12.4 76-11.7 90-8.4 4.3-16.4.7-24 2.5-29.7 5.4-29.5 42.6-.2 48 68 1.1 103-87 80-140-6.3-14-15-25.6-25.4-34.5-2.5-12-14.2-24-24-32.5 3.6-16.3-3-44-12.9-50l-8-24.5c4.9-9.4 13-18.4 18.5-27l17.9-1.7c9.6 8 18.7 16 28 21.8-1.8 13.2-2.4 30 3.4 40.7-4.9 91 70 122 120 107 13.9-4.7 23.4-8.7 31.5-19.4 17.7-24.8-12.4-50.6-31-35-6.9 4.4-10.4 12.9-19.2 15.8-43.8 7.7-66-21.5-65.9-56.6 23-15.9 44-52 38-72-15.9-23.7-32.6-22.5-59.7-7.2-7.7-5.9-15.6-11.7-23.4-17.5-7.3-5.7-15.7-4.6-21 3.1m34.6 20.6c2 .6-4.6 6.9-5 8.6-5-2-13-8.1-17-12.7 2.5-2.5 4.8-4.9 3.8-8 6.7 4.9 12.5 7.9 18.3 12m-71-5.7c1.1 2.2 2.9 4.2 5.2 5.5-1.5 5-7.7 14.2-12.2 18.6-3.1-2-5.7-3.2-8.3-.7 4.1-8.5 9-18.6 15.4-23.4m9 99c-2.7-2.2-5.2-1.4-8-.7-2.1-6.2-3.2-17.7-1.9-22.4 2.7 1.2 4.6-.2 6.2-2.3 3.5 7.3 5.8 17.5 3.8 25.3" id="rect3389" fill="#734a08"/>
 <path d="m187 438l2.9-41.5c-69-6.3-69.9-102-3.1-111l-6-33.5C63 269 86 434 187 438" id="path3325" opacity=".8" fill="#734a08"/>
 <path id="path3556" d="M416 278L387 250c52-57-27.8-115-69-83l-17-29c101-59 191 71 115 141" opacity=".8" fill="#734a08"/>
</svg>
