<?xml version="1.0" encoding="UTF-8" standalone="no"?>
<svg xmlns="http://www.w3.org/2000/svg" version="1.0" width="580" height="580">
 <metadata id="metadata10"/>
 <path white-space="normal" isolation="auto" mix-blend-mode="normal" id="path4164" d="M106 184C117 291 109 393 83 519c-.6 2.9 1.4 5.7 4.3 6 141 0 282 0 424 0 2.2-.1 4-1.9 4-4.2L515 400c-.1-2.2-1.9-4-4.2-4L296 396c-9-74-10-142-4-212 .3-3.6-3.1-6.2-6.5-5.1C231 197 159 198 113 179c-3.4-1.7-6.8 2.5-6.6 4.9z" solid-color="#000000" opacity=".8" color-interpolation-filters="linearRGB" filter-gaussianBlur-deviation="0" color="#000000" image-rendering="auto" color-rendering="auto" stroke-width="64" color-interpolation="sRGB" solid-opacity="1" fill="none" stroke-linejoin="round" filter-blend-mode="normal" stroke="#ffffff" shape-rendering="auto"/>
 <path d="M106 184C117 291 109 393 83 519c-.6 2.9 1.4 5.7 4.3 6 141 0 282 0 424 0 2.2-.1 4-1.9 4-4.2L515 400c-.1-2.2-1.9-4-4.2-4L296 396c-9-74-10-142-4-212 .3-3.6-3.1-6.2-6.5-5.1C231 197 159 198 113 179c-3.4-1.7-6.8 2.5-6.6 4.9" id="rect3947" mix-blend-mode="normal" isolation="auto" white-space="normal" fill="#734a08" color-rendering="auto" solid-opacity="1" color-interpolation-filters="linearRGB" shape-rendering="auto" image-rendering="auto" color-interpolation="sRGB" color="#000000" solid-color="#000000"/>
 <path d="M161.33008 286.20898A73.59925 73.59925 0 0 0 124.5293 349.79883L176 350A22.07978 22.07978 0 0 1 187.08984 330.67578L161 286M235 286L209 331A22.07978 22.07978 0 0 1 220.08008 349.79883L272 350A73.59925 73.59925 0 0 0 234.79883 286.20898M198 335.07812A14.719851 14.719851 0 0 0 183.2793 349.79883 14.719851 14.719851 0 0 0 198 364.51758 14.719851 14.719851 0 0 0 212.7207 349.79883 14.719851 14.719851 0 0 0 198 335.07812M187 369L161 414A73.59925 73.59925 0 0 0 234.66992 413.46289L209 369A22.07978 22.07978 0 0 1 186.96094 368.91992" id="path4152" opacity=".8" fill="#ffffff"/>
</svg>
