<?xml version="1.0" encoding="UTF-8" standalone="no"?>
<svg xmlns="http://www.w3.org/2000/svg" version="1.0" width="580" height="580">
 <metadata id="metadata2975"/>
 <path id="path4185" d="M290 32C148 32 32 148 32 290 32 432 148 548 290 548 432 548 548 432 548 290 548 148 432 32 290 32" shape-rendering="auto" mix-blend-mode="normal" color-interpolation-filters="linearRGB" isolation="auto" white-space="normal" opacity=".8" fill="none" solid-opacity="1" image-rendering="auto" solid-color="#000000" stroke="#ffffff" color="#000000" stroke-linejoin="round" stroke-width="64" color-rendering="auto" color-interpolation="sRGB"/>
 <path d="M290 32C148 32 32 148 32 290 32 432 148 548 290 548 432 548 548 432 548 290 548 148 432 32 290 32" id="path4183" shape-rendering="auto" mix-blend-mode="normal" color-interpolation-filters="linearRGB" isolation="auto" white-space="normal" fill="#ac39ac" solid-opacity="1" image-rendering="auto" solid-color="#000000" color="#000000" color-rendering="auto" color-interpolation="sRGB"/>
 <path d="M290 55C420 55 525 160 525 290 525 420 420 525 290 525 160 525 55 420 55 290 55 160 160 55 290 55" id="circle4177" shape-rendering="auto" mix-blend-mode="normal" color-interpolation-filters="linearRGB" isolation="auto" white-space="normal" opacity=".8" fill="#ffffff" solid-opacity="1" image-rendering="auto" solid-color="#000000" color="#000000" color-rendering="auto" color-interpolation="sRGB"/>
 <path d="m122 417l335 0 0-254-335 0 0 254" id="flowRoot3192-3" fill="#ac39ac"/>
 <path d="m233 290l-87 87 0-174z" id="path4156" opacity=".8" fill="#ffffff"/>
 <path d="m310 293c-5.3 5.3-12 8-20 8-8.4 0-15.4-2.8-20.9-8.4L163 187l254 .2z" id="path4154" opacity=".8" fill="#ffffff"/>
 <path d="m347 290l87-87 0 174z" id="path4152" opacity=".8" fill="#ffffff"/>
 <path d="m249 307l3.7 3.7c10 9.8 22.3 14.7 36.6 14.7 14.3 0 26-4.9 36-14.7l3.7-3.7 87 87-255 0z" id="path4150" opacity=".8" fill="#ffffff"/>
</svg>
