<?xml version="1.0" encoding="UTF-8" standalone="no"?>
<svg xmlns="http://www.w3.org/2000/svg" version="1.0" width="580" height="580">
 <metadata id="metadata2975"/>
 <path id="path4158" d="m99 435l385 0 0-292-385 0 0 292" opacity=".8" fill="none" stroke="#ffffff" stroke-linejoin="round" stroke-width="64"/>
 <path d="m99 435l385 0 0-292-385 0 0 292" id="flowRoot3192" fill="#734a08"/>
 <path d="M126 189L226 289 126 389 126 189" id="path4156" opacity=".9" fill="#ffffff"/>
 <path d="m437 170l-123 122c-6.1 6.1-13.8 9.2-23 9.2-9.6 0-17.7-3.2-24-9.6l-122-122 292 0" id="path4154" opacity=".9" fill="#ffffff"/>
 <path d="m456 389l-100-100 100-100 0 200" id="path4152" opacity=".9" fill="#ffffff"/>
 <path d="m144 408l100-100 4.3 4.3c11.6 11.3 25.6 16.9 42 16.9 16.4 0 30-5.6 41.5-16.9l4.3-4.3 100 100-293 0" id="path4150" opacity=".9" fill="#ffffff"/>
</svg>
