<?xml version="1.0" encoding="UTF-8" standalone="no"?>
<svg xmlns="http://www.w3.org/2000/svg" version="1.0" width="580" height="580">
 <metadata id="metadata10"/>
 <path id="path4153" d="m186 76c-2.9 24.4-9.6 49-24.6 68.9-9.2 12.4-19.2 25.6-20 41.7-2.5 23.3 12.4 44.9 31 57 7.7 5.9 17.5 7.5 26.7 9.5 12 2.2 24-4.1 31-13.6 17-19 30.6-44 28-70C254 142 237 119 217 101 208 92 197 84 186 76" mix-blend-mode="normal" solid-color="#000000" white-space="normal" color-interpolation-filters="linearRGB" opacity=".8" filter-gaussianBlur-deviation="0" color="#000000" image-rendering="auto" color-rendering="auto" stroke-width="64" isolation="auto" color-interpolation="sRGB" solid-opacity="1" fill="none" stroke-linejoin="round" filter-blend-mode="normal" stroke="#ffffff" shape-rendering="auto"/>
 <path white-space="normal" isolation="auto" mix-blend-mode="normal" id="path4155" d="m133 253c8.6 91 2.2 179-20.3 286-.6 2.7 1.5 5.2 4.2 5.2 116 .3 231-.6 347-.6 2 0 3.6-1.6 3.6-3.6l0-103c0-2-1.6-3.6-3.6-3.6l-188 0c-7.5-62.9-8.3-121-2.6-181 .3-3.2-3-5.6-5.9-4.3-43 16.7-96 14.4-130 .1-2.6 0-4.6 2.2-4.3 4.7z" solid-color="#000000" opacity=".8" color-interpolation-filters="linearRGB" filter-gaussianBlur-deviation="0" color="#000000" image-rendering="auto" color-rendering="auto" stroke-width="64" color-interpolation="sRGB" solid-opacity="1" fill="none" stroke-linejoin="round" filter-blend-mode="normal" stroke="#ffffff" shape-rendering="auto"/>
 <path d="m186 76c-2.9 24.4-9.6 49-24.6 68.9-9.2 12.4-19.2 25.6-20 41.7-2.5 23.3 12.4 44.9 31 57 7.7 5.9 17.5 7.5 26.7 9.5 12 2.2 24-4.1 31-13.6 17-19 30.6-44 28-70C254 142 237 119 217 101 208 92 197 84 186 76" id="path4151" fill="#734a08" isolation="auto" color-rendering="auto" white-space="normal" solid-opacity="1" mix-blend-mode="normal" color-interpolation-filters="linearRGB" shape-rendering="auto" fill-rule="evenodd" image-rendering="auto" color-interpolation="sRGB" color="#000000" solid-color="#000000"/>
 <path d="m251 168c4.2 17.5-1.7 35.6-11.2 50-3.3 5.1-9.9 15.4-11.9 16.6 5.7-17.6 11.8-36.9 5.6-55C229 161 214 148 200 136c-4.7 18.8-13.4 36.5-25.5 51.6-7.7 9.2-12.5 21.7-9.3 33.6.4 5.1 7 15.3 5.9 15.8-15.6-11.8-27.4-31-23.9-51 2.5-19.5 18.7-32.5 27-49 8.2-15 12.9-31.8 15.6-48.7 30.9 24 54.9 47.6 61 80" id="path4149" opacity=".9" fill="#ffffff" isolation="auto" color-rendering="auto" white-space="normal" solid-opacity="1" mix-blend-mode="normal" color-interpolation-filters="linearRGB" shape-rendering="auto" fill-rule="evenodd" image-rendering="auto" color-interpolation="sRGB" color="#000000" solid-color="#000000"/>
 <path d="m203 147c28 24 32.7 47.9 20.7 83-2.8 6.6-3.2 15.9-11.6 17.7C203 251 193 248 185 245c-8.4-11-17-25-13.4-39.4 3.8-11.4 13-19.6 18.7-30 5.4-9.1 9.7-18.9 13-28.9z" id="path4145" opacity=".8" fill="#ffffff" isolation="auto" color-rendering="auto" white-space="normal" solid-opacity="1" mix-blend-mode="normal" color-interpolation-filters="linearRGB" shape-rendering="auto" fill-rule="evenodd" image-rendering="auto" color-interpolation="sRGB" color="#000000" solid-color="#000000"/>
 <path d="m133 253c8.6 91 2.2 179-20.3 286-.6 2.7 1.5 5.2 4.2 5.2 116 .3 231-.6 347-.6 2 0 3.6-1.6 3.6-3.6l0-103c0-2-1.6-3.6-3.6-3.6l-188 0c-7.5-62.9-8.3-121-2.6-181 .3-3.2-3-5.6-5.9-4.3-43 16.7-96 14.4-130 .1-2.6 0-4.6 2.2-4.3 4.7" id="rect3172" mix-blend-mode="normal" isolation="auto" white-space="normal" fill="#734a08" color-rendering="auto" solid-opacity="1" color-interpolation-filters="linearRGB" shape-rendering="auto" image-rendering="auto" color-interpolation="sRGB" color="#000000" solid-color="#000000"/>
</svg>
