<?xml version="1.0" encoding="UTF-8" standalone="no"?>
<svg xmlns="http://www.w3.org/2000/svg" version="1.0" width="580" height="580">
 <metadata id="metadata2975"/>
 <path id="path4136" d="m468 98l-.3 0c.3-.3.4-.5.4-.8 0-5.9-81-10.8-181-10.8-100 0-181 4.8-181 10.8 0 .3.2.5.5.8l-.5 0 160 149 0 168-104 74 .3 0c-.5.3-.8.5-.8.8 0 4.1 56 7.4 125 7.4 69 0 125-3.3 125-7.4 0-.3-.3-.6-.8-.8l.1 0-104-74 0-168L468 98m-176 120c-2.9 2.7-7.6 2.7-10.5 0l-77-71.8c-2.9-2.7-2-4.9 1.9-4.9l162 0c3.9 0 4.8 2.2 1.9 4.9l-77 71.8" fill="none" opacity=".8" stroke="#ffffff" stroke-linejoin="round" stroke-width="64"/>
 <path d="m468 98l-.3 0c.3-.3.4-.5.4-.8 0-5.9-81-10.8-181-10.8-100 0-181 4.8-181 10.8 0 .3.2.5.5.8l-.5 0 160 149 0 168-104 74 .3 0c-.5.3-.8.5-.8.8 0 4.1 56 7.4 125 7.4 69 0 125-3.3 125-7.4 0-.3-.3-.6-.8-.8l.1 0-104-74 0-168L468 98m-176 120c-2.9 2.7-7.6 2.7-10.5 0l-77-71.8c-2.9-2.7-2-4.9 1.9-4.9l162 0c3.9 0 4.8 2.2 1.9 4.9l-77 71.8" id="path2209" fill="#734a08"/>
</svg>
