<?xml version="1.0" encoding="UTF-8" standalone="no"?>
<svg xmlns="http://www.w3.org/2000/svg" width="580" height="580" version="1.0">
 <metadata id="metadata20"/>
 <path d="M132 134C113 135 101 159 111 175 119 191 143 192 155 179 170 164 158 135 137 134L134 134C133 134 133 134 132 134zM228 171L205 211 320 279 205 345 228 386 368 305 508 386 532 345 414 278 531 211 508 171 367 251 228 171zM115 192C115 192 114 192 113 192 100 192 90 203 80 210 70.9 217 61 223 53 231 48.5 241 46.7 251 43 262 41 270 36.9 278 37 287 39 298 56 301 61.9 291 67 276 70.9 261 76 247 81 242 81 244 79 250 76.9 263 74 276 72 289 72.9 313 73 336 74 359 64 381 54 402 44 423 40 437 56 451 69 445 80 440 82 428 87 419 95 401 103 384 110 366 112 360 109 353 110 346L109 323C118 336 128 348 136 360 139 384 142 407 145 431 149 444 169 447 176 434 181 425 176 415 176 406 173 385 171 364 168 343 165 334 157 327 152 318L133 291 138 264C148 273 158 282 169 291 179 297 192 286 188 275 185 267 176 263 170 257 166 253 161 250 158 245 152 232 146 218 140 205 134 197 125 192 115 192z" id="path4147" mix-blend-mode="normal" solid-color="#000000" white-space="normal" color-interpolation-filters="linearRGB" opacity=".8" filter-gaussianBlur-deviation="0" color="#000000" image-rendering="auto" color-rendering="auto" stroke-width="64" isolation="auto" color-interpolation="sRGB" solid-opacity="1" fill="none" stroke-linejoin="round" filter-blend-mode="normal" stroke="#ffffff" shape-rendering="auto"/>
 <path d="m111 175c8.7 15.7 32.4 17.4 43.9 3.9 15-15 3.1-44-18-44.6l-2.5-.1c-20-1.1-33.7 24-23.3 40.9m-31 35c-8.7 6.9-18.4 12.9-26.5 20.5-4.6 9.7-6.5 20.5-9.9 30.6-1.9 8.3-6.3 16.4-5.8 25 1.7 11.6 19 14.5 24.6 4.3 5.3-14.4 8.9-29.4 13.6-44 5-5.1 5.1-2.3 3.5 3.3-2.1 13-5.3 26-6.6 39 .5 23.4.8 46.8 1.4 70-9.7 21.3-20.3 42-29.5 64-4.2 14 11.8 27.6 25 21.5 10.6-4.4 12.4-16.8 17.4-25.9 7.8-17.4 16-34.7 23.6-52 1.7-6.8-1.4-13.4-.6-20.3l-.4-22.9c8.9 12.3 18.4 24.5 26.9 36.9 3.1 23.6 5.4 47 8.9 70.8 3.6 13.5 24 15.8 30.7 3.4 4.7-9 .4-19 0-28.6-2.7-20.8-4.7-41.8-7.9-62-2.9-9.6-10.7-16.7-16-25l-19.5-26.8 5-27.5c10.4 8.9 20.6 18 31 26.6 9.8 6.3 23.6-4.5 19.4-15.5-3.5-7.9-11.9-11.9-17.8-17.9-4.1-4-9.5-7-12.7-11.7-6-13.5-11.4-27-17.9-40.5-5.8-8.7-16.2-13.9-26.4-13.3-13.8.2-23 11.5-33.7 18.6" id="path8" fill="#0092da" isolation="auto" color-rendering="auto" white-space="normal" solid-opacity="1" mix-blend-mode="normal" color-interpolation-filters="linearRGB" shape-rendering="auto" image-rendering="auto" stroke-linejoin="round" stroke-linecap="round" color-interpolation="sRGB" color="#000000" stroke-width="667" solid-color="#000000"/>
 <path id="path12" d="m205 211l115 67-115 66 23 40.7 140-81 140 81 23.8-40.6-118-67 117-66-23-40.7-141 81-139-81z" fill="#0092da"/>
 <path d="m278 316l66-38-65.8-38 11-18.3 78 43 78-43 11 18.3-65.8 38 66 38-12.3 18.5-79-42.6-75.9 42.5" id="path14" fill="#ffffff"/>
</svg>
