<?xml version="1.0" encoding="UTF-8" standalone="no"?>
<svg xmlns="http://www.w3.org/2000/svg" version="1.0" width="580" height="580">
 <metadata id="metadata13"/>
 <path d="M80.9 129L289 250 499 129 534 190 359 290 534 390 498 451 290 330 80.9 452 46 390 218 290 46 190" id="path4083-3" mix-blend-mode="normal" solid-color="#000000" opacity=".8" color-interpolation-filters="linearRGB" filter-gaussianBlur-deviation="0" color="#000000" image-rendering="auto" color-rendering="auto" stroke-width="64" isolation="auto" color-interpolation="sRGB" solid-opacity="1" fill="none" filter-blend-mode="normal" stroke="#ffffff" shape-rendering="auto"/>
 <path d="M80.9 129L289 250 499 129 534 190 359 290 534 390 498 451 290 330 80.9 452 46 390 218 290 46 190" id="path4083" fill="#0092da"/>
 <rect rx="0" id="rect4021" width="289" height="34.5" x="254" y="91" transform="matrix(0.86832848,0.49598957,-0.51605487,0.85655553,0,0)" fill="#ffffff"/>
 <rect rx="0" id="rect4021-9" width="289" height="34.5" x="-243" y="379" transform="matrix(-0.86832848,0.49598957,0.51605487,0.85655553,0,0)" fill="#ffffff"/>
</svg>
