<?xml version="1.0" encoding="UTF-8" standalone="no"?>
<svg xmlns="http://www.w3.org/2000/svg" width="580" height="580" version="1.0">
 <metadata id="metadata3003"/>
 <path d="m97 12.9l0 216c0 7.2 5.1 15.7 11.5 19l34.8 18c6.5 74 71 96 112 58l44 23c6.5 89 95 87 115 59l55 28.7c6.4 3.3 11.5.2 11.5-7l0-216c0-7.2-5.1-15.7-11.5-19L108 5.9C101 2.6 97 7.4 97 12.9" id="wheel"/>
 <path transform="matrix(0.88737001,0.46105798,0,1,0,0)" d="m163-29.4l79 0c3.6 0 6.5 2.9 6.5 6.5l0 108c0 3.6-2.9 6.5-6.5 6.5l-79 0c-3.6 0-6.5-2.9-6.5-6.5l0-108c0-3.6 2.9-6.5 6.5-6.5" id="window" opacity=".7" fill="#ffffff"/>
 <path transform="matrix(0.88737001,0.46105798,0,1,0,0)" d="m286-28.4l79 0c3.6 0 6.5 2.9 6.5 6.5l0 108c0 3.6-2.9 6.5-6.5 6.5l-79 0c-3.6 0-6.5-2.9-6.5-6.5l0-108c0-3.6 2.9-6.5 6.5-6.5" id="rect12" opacity=".7" fill="#ffffff"/>
 <path transform="matrix(0.88737001,0.46105798,0,1,0,0)" d="m410-27.4l79 0c3.6 0 6.5 2.9 6.5 6.5l0 108c0 3.6-2.9 6.5-6.5 6.5l-79 0c-3.6 0-6.5-2.9-6.5-6.5l0-108c0-3.6 2.9-6.5 6.5-6.5" id="rect14" opacity=".7" fill="#ffffff"/>
</svg>
