<?xml version="1.0" encoding="UTF-8" standalone="no"?>
<svg xmlns="http://www.w3.org/2000/svg" version="1.0" width="580" height="580">
 <metadata id="metadata2975"/>
 <path fill="none" id="path4147" d="m234 326l-49.8-87-100 0 40.7 23.6-25 43c-2.2 3.9-3.2 8-3.2 12.3 0 4.3 1.1 8.4 3.2 12.3l39.6 69c1.8-5 3.6-9.3 5.4-12.9l49-85 40 23.6zm-74 70c-2.9 4.6-4.3 9.6-4.3 15 0 8.2 2.9 15.2 8.8 20.9 5.9 5.7 12.9 8.6 21 8.6l99 0 0-80-104 0c-.7 1.4-3.4 6.1-8 13.9l-12.3 21.4zm133-198l100 0 50-87-40.7 23.6-25-43C372 83 365 79 356 79l-79 0c3.2 3.6 5.9 7.1 8 10.7l48.7 85-8 4.8-32 18.7zM244 83c-11.4 0-20 5-25.7 15l-49.8 86c18.9 11 41.9 24.3 69 39.6 16-27.5 33.4-57 51.9-90L270 98c-5.7-10-14.3-15-25.7-15zm128 276l0-9.6 0-36.9-49.8 87 49.8 86 0-46.6 49.8 0c9.6 0 16.9-4.1 21.9-12.3l39.6-69c-5.4 1.4-9.8 2.1-13.4 2.1l-98-.5zm73.9-147c-1.8 1.1-24.8 14.3-69 39.6 22 38 39.6 68 53 91l40 0c11.8 0 20.5-5 26-15 5.4-9.6 5.2-19.4-.5-29.4l-49-86z" mix-blend-mode="normal" solid-color="#000000" opacity=".8" color-interpolation-filters="linearRGB" filter-gaussianBlur-deviation="0" color="#000000" image-rendering="auto" color-rendering="auto" stroke-width="64" isolation="auto" color-interpolation="sRGB" solid-opacity="1" stroke-linejoin="round" filter-blend-mode="normal" stroke="#ffffff" shape-rendering="auto"/>
 <path d="m234 326l-49.8-87-100 0 40.7 23.6-25 43c-2.2 3.9-3.2 8-3.2 12.3 0 4.3 1.1 8.4 3.2 12.3l39.6 69c1.8-5 3.6-9.3 5.4-12.9l49-85 40 23.6m-74 70c-2.9 4.6-4.3 9.6-4.3 15 0 8.2 2.9 15.2 8.8 20.9 5.9 5.7 12.9 8.6 21 8.6l99 0 0-80-104 0c-.7 1.4-3.4 6.1-8 13.9l-12.3 21.4m133-198l100 0 50-87-40.7 23.6-25-43C372 83 365 79 356 79l-79 0c3.2 3.6 5.9 7.1 8 10.7l48.7 85-8 4.8-32 18.7M244 83c-11.4 0-20 5-25.7 15l-49.8 86c18.9 11 41.9 24.3 69 39.6 16-27.5 33.4-57 51.9-90L270 98c-5.7-10-14.3-15-25.7-15m128 276l0-9.6 0-36.9-49.8 87 49.8 86 0-46.6 49.8 0c9.6 0 16.9-4.1 21.9-12.3l39.6-69c-5.4 1.4-9.8 2.1-13.4 2.1l-98-.5m73.9-147c-1.8 1.1-24.8 14.3-69 39.6 22 38 39.6 68 53 91l40 0c11.8 0 20.5-5 26-15 5.4-9.6 5.2-19.4-.5-29.4l-49-86" id="flowRoot3192" fill="#734a08"/>
</svg>
