<?xml version="1.0" encoding="UTF-8" standalone="no"?>
<svg xmlns="http://www.w3.org/2000/svg" version="1.0" width="580" height="580">
 <metadata id="metadata2975"/>
 <path d="m204 339c37.6-17.5 64.9-68 64.9-128 0-74-61.8-155-94-155-32 0-94 81-94 155 0 60 27 110 64.9 128l-7.8 177 74 0-7.8-176z" id="path2110-8" mix-blend-mode="normal" solid-color="#000000" opacity=".8" color-interpolation-filters="linearRGB" filter-gaussianBlur-deviation="0" color="#000000" image-rendering="auto" color-rendering="auto" stroke-width="64" isolation="auto" color-interpolation="sRGB" solid-opacity="1" fill="none" filter-blend-mode="normal" stroke="#ffffff" shape-rendering="auto"/>
 <path d="m430 369c37.6-17.5 51-39.9 51-100L472 66c0-3.9-3.1-7-7-7l-4.6 0c-3.9 0-7 3.1-7 7l3.3 203-20.3 0-5.1-205c0-3.9-3.1-7-7-7l-6 0c-3.9 0-7 3.1-7 7l2.8 205-25 0 2.8-205c0-3.9-3.1-7-7-7l-6 0c-3.9 0-7 3.1-7 7l-5.1 205-19.8 0 3.3-203c0-3.9-3.1-7-7-7l-4.6 0c-3.9 0-7 3.1-7 7L321 269c0 60 13.7 82 51 100l-7.8 147 74 0-7.8-146z" id="path2112-6" mix-blend-mode="normal" solid-color="#000000" opacity=".8" color-interpolation-filters="linearRGB" filter-gaussianBlur-deviation="0" color="#000000" image-rendering="auto" color-rendering="auto" stroke-width="64" isolation="auto" color-interpolation="sRGB" solid-opacity="1" fill="none" filter-blend-mode="normal" stroke="#ffffff" shape-rendering="auto"/>
 <path d="m204 339c37.6-17.5 64.9-68 64.9-128 0-74-61.8-155-94-155-32 0-94 81-94 155 0 60 27 110 64.9 128l-7.8 177 74 0-7.8-176" id="path2110" fill="#734a08"/>
 <path d="m430 369c37.6-17.5 51-39.9 51-100L472 66c0-3.9-3.1-7-7-7l-4.6 0c-3.9 0-7 3.1-7 7l3.3 203-20.3 0-5.1-205c0-3.9-3.1-7-7-7l-6 0c-3.9 0-7 3.1-7 7l2.8 205-25 0 2.8-205c0-3.9-3.1-7-7-7l-6 0c-3.9 0-7 3.1-7 7l-5.1 205-19.8 0 3.3-203c0-3.9-3.1-7-7-7l-4.6 0c-3.9 0-7 3.1-7 7L321 269c0 60 13.7 82 51 100l-7.8 147 74 0-7.8-146" id="path2112" fill="#734a08"/>
</svg>
