<?xml version="1.0" encoding="UTF-8" standalone="no"?>
<svg xmlns="http://www.w3.org/2000/svg" version="1.0" width="580" height="580">
 <metadata id="metadata2975"/>
 <path id="path4142" d="M73 144L70 180 90 182 90 379 72 379 72 397 327 397 330 401 336 397 445 397 445 379 358 379 260 237 257 239 253 195 324 200 326 164 73 144zM126 185L163 188 163 379 127 379 126 185zM199 190L217 192 234 379 199 379 199 190zM263 305L314 379 270 379 263 305zM53.6 415L53.6 433 503 433 503 415 53.6 415zM35.9 451L35.8 469 541 469 541 451 35.9 451z" shape-rendering="auto" mix-blend-mode="normal" filter-blend-mode="normal" color-interpolation-filters="linearRGB" isolation="auto" white-space="normal" opacity=".8" fill="none" solid-opacity="1" image-rendering="auto" solid-color="#000000" stroke="#ffffff" color="#000000" stroke-linejoin="round" stroke-width="64" color-rendering="auto" filter-gaussianBlur-deviation="0" color-interpolation="sRGB"/>
 <path d="M73 144L70 180 90 182 90 379 72 379 72 397 327 397 330 401 336 397 445 397 445 379 358 379 260 237 257 239 253 195 324 200 326 164 73 144M126 185L163 188 163 379 127 379 126 185M199 190L217 192 234 379 199 379 199 190M263 305L314 379 270 379 263 305M53.6 415L53.6 433 503 433 503 415 53.6 415M35.9 451L35.8 469 541 469 541 451 35.9 451" id="path2161" shape-rendering="auto" mix-blend-mode="normal" color-interpolation-filters="linearRGB" isolation="auto" white-space="normal" fill="#734a08" solid-opacity="1" image-rendering="auto" solid-color="#000000" color="#000000" fill-rule="evenodd" color-rendering="auto" color-interpolation="sRGB"/>
</svg>
