<?xml version="1.0" encoding="UTF-8" standalone="no"?>
<svg xmlns="http://www.w3.org/2000/svg" width="580" height="580" version="1.0">
 <metadata id="metadata7"/>
 <g id="layer1" transform="matrix(1.0356395 0 0 1.0441204 -7.735168 -472.84869)">
  <path id="rect4155" d="m44.9 651l0 17.7 0 4 0 30.7 0 89 0 .6.7 0 17 15c2 1.7 4.8 2.8 7.7 2.8l71 0c4.1 0 8.1-2.2 9.7-5.4 1.6-3.2.8-7.1-2.1-9.6l-3.1-2.8 34.8 0 16.9 15c2 1.7 4.8 2.8 7.7 2.8l71 0c4.1 0 8.1-2.2 9.7-5.4 1.6-3.2.8-7.1-2.1-9.6l-3.1-2.8 36.6 0 16.9 15c2 1.7 4.8 2.8 7.7 2.8l71 0c4.1 0 8.1-2.2 9.7-5.4 1.6-3.2.8-7.1-2.1-9.6l-3.1-2.8 36.6 0 16.9 15c2 1.7 4.8 2.8 7.7 2.8l50 0 0-17.7 0-22.6 0-32 0-69 0-17.5c-.8-.2-1.6-.3-2.5-.3l-71 0c-4.1 0-8.1 2.2-9.7 5.4-1.6 3.2-.8 7.1 2 9.6l3.1 2.8-36.6 0-17-15c-2-1.7-4.8-2.8-7.7-2.8l-71 0c-4.1 0-8.1 2.2-9.7 5.4-1.6 3.2-.8 7.1 2 9.6l3.1 2.8-36.6 0-17-15c-2-1.7-4.8-2.8-7.7-2.8l-71 0c-4.1 0-8.1 2.2-9.7 5.4-1.6 3.2-.8 7.1 2 9.6l3.1 2.8-36.6 0-17-15c-2-1.7-4.8-2.8-7.7-2.8l-71 0z" mix-blend-mode="normal" solid-color="#000000" opacity=".8" color-interpolation-filters="linearRGB" color="#000000" image-rendering="auto" color-rendering="auto" stroke-width="62" isolation="auto" color-interpolation="sRGB" solid-opacity="1" fill="none" stroke-linejoin="round" stroke="#ffffff" shape-rendering="auto"/>
  <rect y="669" x="44.9" height="124" width="485" id="rect3802" fill="#ffffff"/>
  <path id="path3774-2-3-6" d="m44.9 651l0 21.7 153 135c2 1.7 4.8 2.8 7.7 2.8l71 0c4.1 0 8.1-2.2 9.7-5.4 1.6-3.2.8-7.1-2.1-9.6L124 654c-2-1.7-4.8-2.8-7.7-2.8l-71 0m137 0c-4.1 0-8.1 2.2-9.7 5.4-1.6 3.2-.8 7.1 2 9.6l161 142c2 1.7 4.8 2.8 7.7 2.8l71 0c4.1 0 8.1-2.2 9.7-5.4 1.6-3.2.8-7.1-2.1-9.6L261 654c-2-1.7-4.8-2.8-7.7-2.8l-71 0m137 0c-4.1 0-8.1 2.2-9.7 5.4-1.6 3.2-.8 7.1 2 9.6l161 142c2 1.7 4.8 2.8 7.7 2.8l50 0 0-40-132-116c-2-1.7-4.8-2.8-7.7-2.8l-71 0m137 0c-4.1 0-8.1 2.2-9.7 5.4-1.6 3.2-.8 7.1 2 9.6l82 71.9 0-87c-.8-.2-1.6-.3-2.5-.3l-71 0m-411 52l0 89 17.6 15.5c2 1.7 4.8 2.8 7.7 2.8l71 0c4.1 0 8.1-2.2 9.7-5.4 1.6-3.2.8-7.1-2.1-9.6L44.9 703" fill="#666666" color="#000000"/>
 </g>
</svg>
