<?xml version="1.0" encoding="UTF-8" standalone="no"?>
<svg xmlns="http://www.w3.org/2000/svg" version="1.0" width="580" height="580">
 <metadata id="metadata2975"/>
 <path d="M291 46C291 46 290 46 289 46 274 47 272 59 267 76 257 97 248 118 239 140L73 140C59 141 63 157 62.7 167L62.7 424C64 438 80 434 89 435L123 435C113 459 104 483 95 506 91 521 113 532 122 519 133 491 145 463 156 435L424 435C436 463 448 491 460 518 469 531 491 520 487 504 477 482 468 458 458 435L511 435C525 433 521 418 521 408L521 150C520 136 504 141 495 140L342 140C330 110 318 81 305 53 302 48 297 46 291 46zM291 98C297 112 303 126 309 140L273 140C279 126 285 112 291 98z" id="path4139" mix-blend-mode="normal" solid-color="#000000" opacity=".8" white-space="normal" color-interpolation-filters="linearRGB" filter-gaussianBlur-deviation="0" color="#000000" image-rendering="auto" color-rendering="auto" fill-rule="evenodd" stroke-width="64" isolation="auto" color-interpolation="sRGB" solid-opacity="1" fill="none" stroke-linejoin="round" filter-blend-mode="normal" stroke="#ffffff" shape-rendering="auto"/>
 <path id="path4137" d="M267 76C206 214 150 368 95 506 91 521 113 532 122 519 179 382 234 230 291 98 353 235 402 391 460 518c9.2 12.9 31.6 2 27-13.2C425 359 368 194 305 53 302 47.7 295 45.8 289 46 274 47 272 59 267 76" fill="#ffffff" isolation="auto" color-rendering="auto" white-space="normal" solid-opacity="1" mix-blend-mode="normal" color-interpolation-filters="linearRGB" shape-rendering="auto" fill-rule="evenodd" image-rendering="auto" color-interpolation="sRGB" color="#000000" solid-color="#000000"/>
 <path d="M267 76C206 214 150 368 95 506 91 521 113 532 122 519 179 382 234 230 291 98 353 235 402 391 460 518c9.2 12.9 31.6 2 27-13.2C425 359 368 194 305 53 302 47.7 295 45.8 289 46 274 47 272 59 267 76" id="path3526" opacity=".8" fill="#39ac39" isolation="auto" color-rendering="auto" white-space="normal" solid-opacity="1" mix-blend-mode="normal" color-interpolation-filters="linearRGB" shape-rendering="auto" fill-rule="evenodd" image-rendering="auto" color-interpolation="sRGB" color="#000000" solid-color="#000000"/>
 <path d="m73 140c-13.9 1.3-9.6 17-10.3 26.7 0 86 0 172 0 258 1.3 13.9 17 9.6 26.7 10.3 141 0 281 0 422 0 13.9-1.3 9.6-17 10.3-26.7 0-86 0-172 0-258C520 136 504 141 495 140 354 140 214 140 73 140" id="rect3544" fill="#39ac39" isolation="auto" color-rendering="auto" white-space="normal" solid-opacity="1" mix-blend-mode="normal" color-interpolation-filters="linearRGB" shape-rendering="auto" image-rendering="auto" color-interpolation="sRGB" color="#000000" solid-color="#000000"/>
 <path d="m424 177c-25-.5-46.6 8.3-56 29.5-9.6 22.5-6.3 54 15 68 19.5 14 45 13.6 67.9 8.6 16.6-4.1 27.9-18 33.5-33.6C464 246 451 244 447 244 443 258 423 265 412 256 398 245 401 221 411 209 424 196 445 204 449 217c25-3.5 45 7.9 27-17.6C465 182 448 176 424 177" id="path4172" fill="#ffffff"/>
 <path d="M140 177C122 177 102 180 93 196 87 205 88 208 99 209 108 211 118 211 127 212 131 198 151 197 161 204 169 214 156 218 149 219 132 223 114 225 98 233 79 244 83 276 103 283 123 291 148 286 164 272 167 278 164 286 178 285 188 285 197 285 207 284 198 263 204 240 202 217 202 201 194 187 177 180 168 176 157 177 147 177 145 177 142 177 140 177M162 234C167 246 158 264 144 264 122 270 118 242 139 238 146 236 155 236 162 234" id="path4170" fill="#ffffff"/>
 <path d="M241 256L241 402 279 402C279 397 278 389 280 387 288 399 303 406 319 403 355 399 378 324 334 300 318 291 294 294 281 306 281 297 281 260 281 256L241 256M298 324C299 324 299 324 300 324 318 324 319 349 316 363 309 380 284 378 282 360 279 347 281 324 298 324" id="path4166" fill="#ffffff"/>
</svg>
