<?xml version="1.0" encoding="UTF-8" standalone="no"?>
<svg xmlns="http://www.w3.org/2000/svg" version="1.0" width="580" height="580">
 <metadata id="metadata2975"/>
 <path d="M365 39C363 39 361 39.5 359 40.6 343 56 320 77 308 93 303 103 318 111 324 102 340 86 356 70 371 53 374 48 372 39 365 39zM235 51.6C233 51.6 232 52 230 52.8 201 79 172 109 148 134 142 143 156 153 163 145 190 118 217 92 243 64 246 59 242 51.8 235 51.6zM130 81C128 80.9 126 82 124 83 97 109 65.9 138 42 163 36.6 172 50 182 57 174 84 148 112 122 138 94 141 89 136 81 130 81zM539 87C537 87 536 87 534 88 513 106 489 129 471 147 465 156 479 166 486 159 506 139 526 121 545 101 548 96 545 87 539 87zM452 92C448 93 443 95 436 102 419 118 385 152 361 177 356 186 370 196 377 188 403 162 431 135 457 108 462 104 460 92 452 92zM269 111C268 112 266 112 265 113 239 136 205 170 182 194 176 203 190 213 197 205 224 178 251 152 277 125 280 119 275 111 269 111zM348 125C346 125 345 126 343 127 329 137 313 154 299 168 294 178 309 187 315 178 328 165 343 153 355 138 357 133 354 125 348 125zM541 162C540 162 538 162 537 163 515 182 489 207 471 227 465 236 479 246 486 238 506 218 528 198 547 177 550 172 548 162 541 162zM442 189C440 189 437 191 433 194L409 220C403 230 414 241 424 231L447 203C452 199 449 189 442 189zM110 190C108 190 107 190 105 191 84 211 57.9 235 39 256 33.4 265 47 275 54 267 75 246 97 225 117 203 120 198 116 190 110 190zM324 281C294 280 256 289 219 305 174 324 148 347 100 413 65 458 35.6 500 33 506 32 518 148 537 187 538 270 537 274 539 355 537 505 533 561 526 527 471 509 442 446 367 385 301 373 287 351 281 324 281z" id="path4181" mix-blend-mode="normal" solid-color="#000000" opacity=".8" color-interpolation-filters="linearRGB" filter-gaussianBlur-deviation="0" color="#000000" image-rendering="auto" color-rendering="auto" stroke-width="64" isolation="auto" color-interpolation="sRGB" solid-opacity="1" fill="none" stroke-linejoin="round" filter-blend-mode="normal" stroke="#ffffff" shape-rendering="auto"/>
 <path id="path4173" d="m365 39c-1.7 0-3.7.5-6 1.6-16.2 15.8-38 36-51 52-4.6 9.8 10.4 18.2 16.5 9.3 15.5-16.3 31.8-31.9 46.7-48.6 2.7-5 1.3-14.3-6-14.4M235 51.6c-1.5 0-3.2.4-4.9 1.2-28.8 26-58 55.8-82 81-5.7 9.1 8.2 19.3 15 11.2 26.5-26.9 53.8-53 80-81 2.9-4.9-1.3-12.5-7.9-12.7M130 81c-1.8-.1-3.8.5-5.9 1.9-26.5 25.9-58 55-82 80-5.6 9 8 19 15 11.2 26.7-26.8 54-52.9 80-80 3-5.2-1.4-13-8-13.3m409 5.9c-1.4 0-3 .5-4.6 1.5-21.3 17.2-45 40-62.9 58.7-5.7 8.9 7.8 19.3 14.9 11.4 19.7-19.3 40-38 59-57.7 3-5-.6-13.9-6.7-13.9m-86 5.6c-3.8.1-9 2.6-15.9 9.5-17.3 16.2-51 50-75 75-5.6 9 8.2 19.3 15.2 11.2 26.7-26.8 54-53 81-80 4.4-4 3.2-15.8-5.1-15.8M269 111c-1.2.1-2.5.4-3.8 1.1-25.6 23-59.9 57-83 81-5.7 9.1 8.2 19.3 15 11.2 26.5-26.9 53.9-53 80-80 3.2-5.3-1.8-13.6-8.4-13.3m78.9 13.6c-1.3 0-2.8.5-4.3 1.4-14 10.8-30.4 27-44.5 41.9-4.8 9.6 9.8 18.4 16 9.8 13.2-13.5 27.8-25.7 40-39.8 2.4-5-1.4-13.3-7.4-13.3m193 37c-1.4-.1-2.8.2-4.5.9-21.3 18.9-47 44-66 64-5.8 9 7.9 19.3 15 11.4 20.3-20.3 41-40 61-60.7 3-5.3.8-14.9-6.2-15m-99 27c-2.6 0-5.9 1.4-9.4 5l-24.3 25.6c-6.2 10.5 5.5 21 14.9 10.9l23.8-27.4c4.6-4.5 1.8-13.9-4.9-14m-333 .5c-1.5-.1-3 .3-4.6 1.2-21.4 20.3-47 44.5-66 65-5.7 9.1 8.2 19.3 15 11.2 20.9-21.3 42.7-41.9 63-64 3-5-1.3-13.2-7.6-13.5" fill="#734a08" fill-rule="evenodd"/>
 <path d="m33 506c2.3-5.5 32-47 66-93 48.6-65 74-88 119-108 70-30.3 141-32 167-4.1 60 66 124 142 142 171 34 55-22.5 61-173 65-80 2.3-84 .9-168 1.7-38.7-1.6-155-20.4-154-32" id="path3015-1" fill="#ffffff"/>
 <path d="m100 413c48.6-65 74-88 119-108 70-30.3 141-32 167-4.1 60 66 124 142 142 171 34 55-22.5 61-173 65-80 2.3-84 .9-168 1.7-38.7-1.6-155-20.4-154-32 2.3-5.5 32-47 66-93" id="path3015" opacity=".1" fill="#734a08"/>
 <path d="m219 304c-44.6 19.4-70 42-119 108-33.7 45.6-63 88-66 93-2.4 5.5 5 8 16 5.9 11.3-2.2 43.6-38 72-80 42-62 62-80 112-102 102-43.6 103-43 213 81 25.7 29 55 65 66 80 26.8 38.6 39.7 19.5 14.4-20.8-18.6-28.5-81-104-143-170-11.9-12.9-33.7-18.8-61-19.4-30.8.2-68 8.2-106 24" id="path4146" fill="#734a08" isolation="auto" color-rendering="auto" white-space="normal" solid-opacity="1" mix-blend-mode="normal" color-interpolation-filters="linearRGB" shape-rendering="auto" fill-rule="evenodd" image-rendering="auto" color-interpolation="sRGB" color="#000000" solid-color="#000000"/>
 <path d="m149 513c0 3.6 63 6.6 140 6.6 77 0 140-3.1 140-6.8 0-3.8-16.5-29.7-36.6-58C358 408 312 379 276 379 234 379 149 480 149 513" id="path15803" fill="#734a08" isolation="auto" color-rendering="auto" white-space="normal" solid-opacity="1" mix-blend-mode="normal" color-interpolation-filters="linearRGB" shape-rendering="auto" fill-rule="evenodd" image-rendering="auto" color-interpolation="sRGB" color="#000000" solid-color="#000000"/>
</svg>
