<?xml version="1.0" encoding="UTF-8" standalone="no"?>
<svg xmlns="http://www.w3.org/2000/svg" version="1.0" width="580" height="580">
 <metadata id="metadata2975"/>
 <path d="m450 34c-1.8 0-4 .6-6.9 1.9-18.5 9.2-38.9 12.6-59 16.2-35 4.6-71 3.8-107 4.6-34 1.5-68-4.1-102-9.1-16.9-1.6-31-14.2-48-13.5-6.9 10 13.3 22.8 12.6 35.7 3.3 16.8 28.5 14.4 27.9 32.8 12.6 9.1 30.6 3.4 44.5 9.9 7.2 13.6-17.6 16.2-27 13.6-21-7.3-20 15.6-15.7 29 13 2.7 26.6 1.9 39.8 2.5 7.9-2.1 7.9 3.4 7.2 9.7 4.3 12.7-7.1 16.6-13.5 22.4 8.8 15.2 6.1 33 6.8 50 .5 29.8-1.9 59.9 2.1 90l-.2 0c4.8 6.3 17.9 7 22.9.6 4.7-57 2.6-114 5.4-172 33-1.8 66-1.6 100-2.2 7.8-2.4 7.9 2.9 7.2 9.1 1.5 11.3-2.9 22.7-2.9 33 4.7 38 2.9 77 5.9 116-5.9 18.9 21.5 23.5 29.8 11.6 2.1-36-.1-72-.6-108 .4-6.4-2.4-13.8 3.7-18.2 12.8-9.4 1.9-17.8-9.4-20-4.1-7-2.3-15.9-3.4-23.7 5.8-.1 11.6-.2 17.4-.3 10.6-2.1 30.5 5.1 31.9-9.7 6.2-17.4-6-26.7-22.5-20.3-11.8 8-36.5-14.5-14-15.9 14.2-2.4 36.6 2.7 38.9-17.4 12.3-7.8 25.5-19 27.5-34.8 6.4-7 10.7-23 1-23zM212 360c-5.4 0-9.7 4.4-9.7 9.8l0 164c0 5.4 4.4 9.8 9.7 9.8l164 0c5.4 0 9.7-4.4 9.7-9.8l0-164c0-5.4-4.4-9.8-9.7-9.8z" id="path4160" shape-rendering="auto" mix-blend-mode="normal" color-interpolation-filters="linearRGB" isolation="auto" white-space="normal" opacity=".8" fill="#ffffff" solid-opacity="1" image-rendering="auto" solid-color="#000000" stroke="#ffffff" color="#000000" stroke-linecap="round" stroke-linejoin="round" stroke-width="64" color-rendering="auto" color-interpolation="sRGB"/>
 <path d="m212 360c-5.4 0-9.7 4.4-9.7 9.8l0 164c0 5.4 4.4 9.8 9.7 9.8l164 0c5.4 0 9.7-4.4 9.7-9.8l0-164c0-5.4-4.4-9.8-9.7-9.8z" id="rect4154" shape-rendering="auto" mix-blend-mode="normal" color-interpolation-filters="linearRGB" isolation="auto" white-space="normal" solid-opacity="1" image-rendering="auto" solid-color="#000000" color="#000000" color-rendering="auto" color-interpolation="sRGB"/>
 <path d="m221 379l144 0 0 145-144 0z" id="rect3587-7" shape-rendering="auto" mix-blend-mode="normal" color-interpolation-filters="linearRGB" isolation="auto" white-space="normal" opacity=".8" fill="#ffffff" solid-opacity="1" image-rendering="auto" solid-color="#000000" color="#000000" color-rendering="auto" color-interpolation="sRGB"/>
 <path d="m212 330c-3.9-29.6-1.5-59.7-2.1-89-.7-16.8 2-34.8-6.8-50 6.4-5.8 17.8-9.7 13.5-22.4.7-6.2.7-11.8-7.2-9.7-13.3-.6-26.8.2-39.8-2.5-4.5-13.4-5.3-36.4 15.7-29 9.7 2.5 34.4-.1 27-13.6-13.9-6.5-31.9-.8-44.5-9.9.7-18.4-24.6-16-27.9-32.8.7-12.9-19.5-25.7-12.6-35.7 17-.7 31 11.9 48 13.5 33.7 5 68 10.6 102 9.1 35.6-.8 71 .1 107-4.6 20-3.6 40.5-7 59-16.2 18-8.4 13.4 12.7 5.8 21-2 15.7-15.2 27-27.5 34.8-2.3 20-24.7 15-38.9 17.4-22.5 1.4 2.2 23.9 14 15.9 16.5-6.4 28.7 2.9 22.5 20.3-1.4 14.8-21.3 7.6-31.9 9.7-5.8.1-11.6.2-17.4.3 1.1 7.9-.7 16.7 3.4 23.7 11.3 2.4 22 10.8 9.4 20-6.1 4.3-3.3 11.8-3.7 18.2.5 36 2.7 72 .6 108-8.3 11.9-35.6 7.3-29.8-11.6-2.9-38.6-1.2-77-5.9-116-.1-10.3 4.3-21.7 2.9-33 .8-6.3.6-11.5-7.2-9.1-33 .7-66 .4-99 2.2-2.9 57-.8 115-5.4 172-5 6.3-18 5.6-22.9-.6m68-209c.8-6.3.6-11.6-7.2-9.3-9.3.4-19-1.2-27.8 2-7.4 12.9 15.2 18.4 25 16.6 6.3.6 12.2.9 9.8-7.1 0-.7 0-1.4 0-2.1zm61 3c13.8-13.7-8.9-13-18.2-12.3-4.4 1.1-14.2-3.2-12 4.5 1.2 3.9-3.1 13.4 3.6 11.8 8.9-.3 18.9 1.5 26.7-4" id="path1873"/>
</svg>
