<?xml version="1.0" encoding="UTF-8" standalone="no"?>
<svg xmlns="http://www.w3.org/2000/svg" version="1.0" width="580" height="580">
 <metadata id="metadata2975"/>
 <path fill="none" id="path4140" d="m215 127c12 0 22.3-4.3 30.8-12.8 8.5-8.5 12.8-19 12.8-31.4 0-12-4.3-22.3-12.8-30.8-8.5-8.5-18.8-12.8-30.8-12.8-12 0-22.4 4.3-31 12.8-8.7 8.5-13 18.8-13 30.8 0 12.4 4.4 22.9 13 31.4 8.7 8.5 19 12.8 31 12.8zm29 27.4c-1.7 9.1-7.5 13.7-17.4 13.7l-104 0c-12.4 0-18.7-5.4-18.7-16.2 0-4.6 1.5-8.3 4.4-11.2-7.9 2.9-11.8 8.1-11.8 15.6 0 10.8 6.4 16.2 19.3 16.2l109 0c13.7 0 20-6 19.3-18zm-121 13.7l104 0c9.9 0 15.8-4.6 17.4-13.7-.4-10.8-6.8-16.2-19.3-16.2l-109 0c-.4 0-2.9.8-7.5 2.5-2.9 2.9-4.4 6.6-4.4 11.2 0 10.8 6.2 16.2 18.7 16.2zm109 166l0-1.9c0 0 0 .2 0 .6zm-1.3 12.4l0-1.9c0 .4 0 .6 0 .6zm19.9-206c.4.4.8.8 1.2 1.3 1.7 3.3 2.9 7.1 3.7 11.2.4 4.1-.6 8.9-3.1 14.3 0 .8-.4 1.9-1.3 3.1-5.8 8.7-14.5 13-26 13l-59.7 0 0 160-34 171c-1.2 6.6 0 12.8 3.7 18.4 3.7 5.6 8.9 9 15.6 10.3 6.6 1.2 12.8 0 18.3-3.7 5.6-3.7 9.2-8.9 10.9-15.6l34.8-177 16.2 0 34.8 177c1.2 6.6 4.7 11.8 10.3 15.6 5.6 3.7 11.9 5 19 3.7 6.2-1.2 11.3-4.7 15.2-10.3 3.9-5.6 5.1-11.7 3.4-18.4l-34-172 0-144 22.4-29 23-1.5 18.5-24 156-8.7-.7-15.6-238 5.1c0 0-17.2 6.3-23.9 9.9zm-18.7 194l0-1.3c0 0 0-.2 0-.6z" mix-blend-mode="normal" solid-color="#000000" opacity=".8" color-interpolation-filters="linearRGB" filter-gaussianBlur-deviation="0" color="#000000" image-rendering="auto" color-rendering="auto" stroke-width="64" isolation="auto" color-interpolation="sRGB" solid-opacity="1" stroke-linejoin="round" filter-blend-mode="normal" stroke="#ffffff" shape-rendering="auto"/>
 <path d="m215 127c12 0 22.3-4.3 30.8-12.8 8.5-8.5 12.8-19 12.8-31.4 0-12-4.3-22.3-12.8-30.8-8.5-8.5-18.8-12.8-30.8-12.8-12 0-22.4 4.3-31 12.8-8.7 8.5-13 18.8-13 30.8 0 12.4 4.4 22.9 13 31.4 8.7 8.5 19 12.8 31 12.8m29 27.4c-1.7 9.1-7.5 13.7-17.4 13.7l-104 0c-12.4 0-18.7-5.4-18.7-16.2 0-4.6 1.5-8.3 4.4-11.2-7.9 2.9-11.8 8.1-11.8 15.6 0 10.8 6.4 16.2 19.3 16.2l109 0c13.7 0 20-6 19.3-18m-121 13.7l104 0c9.9 0 15.8-4.6 17.4-13.7-.4-10.8-6.8-16.2-19.3-16.2l-109 0c-.4 0-2.9.8-7.5 2.5-2.9 2.9-4.4 6.6-4.4 11.2 0 10.8 6.2 16.2 18.7 16.2m109 166l0-1.9c0 0 0 .2 0 .6zm-1.3 12.4l0-1.9c0 .4 0 .6 0 .6zm19.9-206c.4.4.8.8 1.2 1.3 1.7 3.3 2.9 7.1 3.7 11.2.4 4.1-.6 8.9-3.1 14.3 0 .8-.4 1.9-1.3 3.1-5.8 8.7-14.5 13-26 13l-59.7 0 0 161-34 171c-1.2 6.6 0 12.8 3.7 18.4 3.7 5.6 8.9 9 15.6 10.3 6.6 1.2 12.8 0 18.3-3.7 5.6-3.7 9.2-8.9 10.9-15.6l34.8-177 16.2 0 34.8 177c1.2 6.6 4.7 11.8 10.3 15.6 5.6 3.7 11.9 5 19 3.7 6.2-1.2 11.3-4.7 15.2-10.3 3.9-5.6 5.1-11.7 3.4-18.4l-34-172 0-144 22.4-29 23-1.5 18.5-24 156-8.7-.7-15.6-238 5.1c0 0-17.2 6.3-23.9 9.9zm-18.7 194l0-1.3c0 0 0-.2 0-.6z" id="flowRoot2391" fill="#39ac39"/>
</svg>
