<?xml version="1.0" encoding="UTF-8" standalone="no"?>
<svg xmlns="http://www.w3.org/2000/svg" version="1.0" width="580" height="580">
 <metadata id="metadata2975"/>
 <path id="path4180" d="M360 38.9C359 38.9 357 39 354 40 338 56 317 76 304 92 300 101 314 110 320 101 336 85 352 70 366 53 369 48 368 39 360 38.9zM233 51C231 51 230 51.6 228 52 200 78 170 107 147 132 141 141 155 151 162 143 188 117 215 91 240 63.8 243 59 239 51 233 51zM129 80C127 80 125 81 123 82 97 108 66 137 42.8 161 37 170 50.8 180 57.7 172 84 146 111 120 137 93 140 88 136 80 129 80zM531 86C530 86 529 86 527 87 506 104 482 127 465 145 459 154 473 164 480 157 499 138 519 119 538 100 541 95 537 86 531 86zM446 92C443 92 437 94 431 101 414 117 381 150 357 175 352 184 365 194 372 186 398 160 425 134 451 107 456 103 455 91 446 92zM266 110C265 110 263 111 262 111 237 134 203 168 180 191 175 200 188 210 195 202 221 176 248 150 274 123 277 118 272 110 266 110zM344 124C342 124 341 124 339 125 325 136 309 152 295 166 291 176 305 184 311 176 324 163 339 151 351 137 353 132 349 124 344 124zM534 160C533 160 531 160 530 161 509 180 483 205 465 224 459 232 473 243 480 235 500 215 521 195 540 175 543 170 541 160 534 160zM437 187C434 187 431 188 428 192L404 217C398 227 409 238 418 228L442 201C446 196 443 187 437 187zM109 187C108 187 106 188 105 189 84 208 58 232 39.8 252 34 261 47.8 271 54.7 263 75 242 97 222 117 201 120 196 116 188 109 187z" mix-blend-mode="normal" solid-color="#000000" white-space="normal" color-interpolation-filters="linearRGB" opacity=".8" filter-gaussianBlur-deviation="0" color="#000000" image-rendering="auto" color-rendering="auto" stroke-width="64" isolation="auto" color-interpolation="sRGB" solid-opacity="1" fill="none" stroke-linejoin="round" filter-blend-mode="normal" stroke="#ffffff" shape-rendering="auto"/>
 <path id="path4182" d="m74 318c-9.8 15.4 18.6 31.7 24.9 28.4L139 330c.1 67-.3 135 .2 202-1.2 16 46 14.4 45-.3.3-71 0-143 .1-214 33.5-3.8 67-8.2 101-11.6l98 11.6c.1 72-.3 143 .2 215-.2 16 45 14.4 45-.3.3-68 0-135 .1-203 15.8 5.8 31 13.6 47 18.2 12.7-3.8 31.5-23 13-33.7-67-35-199-105-202-106-.9-.3-1.8 0-2.6-.2-3.1 1.6-148 76.9-210 110z" mix-blend-mode="normal" solid-color="#000000" white-space="normal" color-interpolation-filters="linearRGB" opacity=".8" filter-gaussianBlur-deviation="0" color="#000000" image-rendering="auto" color-rendering="auto" stroke-width="64" isolation="auto" color-interpolation="sRGB" solid-opacity="1" fill="none" stroke-linejoin="round" filter-blend-mode="normal" stroke="#ffffff" shape-rendering="auto"/>
 <path d="M360 38.9C359 38.9 357 39 354 40 338 56 317 76 304 92 300 101 314 110 320 101 336 85 352 70 366 53 369 48 368 39 360 38.9M233 51C231 51 230 51.6 228 52 200 78 170 107 147 132 141 141 155 151 162 143 188 117 215 91 240 63.8 243 59 239 51 233 51M129 80C127 80 125 81 123 82 97 108 66 137 42.8 161 37 170 50.8 180 57.7 172 84 146 111 120 137 93 140 88 136 80 129 80M531 86C530 86 529 86 527 87 506 104 482 127 465 145 459 154 473 164 480 157 499 138 519 119 538 100 541 95 537 86 531 86M446 92C443 92 437 94 431 101 414 117 381 150 357 175 352 184 365 194 372 186 398 160 425 134 451 107 456 103 455 91 446 92M266 110C265 110 263 111 262 111 237 134 203 168 180 191 175 200 188 210 195 202 221 176 248 150 274 123 277 118 272 110 266 110M344 124C342 124 341 124 339 125 325 136 309 152 295 166 291 176 305 184 311 176 324 163 339 151 351 137 353 132 349 124 344 124M534 160C533 160 531 160 530 161 509 180 483 205 465 224 459 232 473 243 480 235 500 215 521 195 540 175 543 170 541 160 534 160M437 187C434 187 431 188 428 192L404 217C398 227 409 238 418 228L442 201C446 196 443 187 437 187M109 187C108 187 106 188 105 189 84 208 58 232 39.8 252 34 261 47.8 271 54.7 263 75 242 97 222 117 201 120 196 116 188 109 187" id="path4160" fill="#734a08" isolation="auto" color-rendering="auto" white-space="normal" solid-opacity="1" mix-blend-mode="normal" color-interpolation-filters="linearRGB" shape-rendering="auto" fill-rule="evenodd" image-rendering="auto" color-interpolation="sRGB" color="#000000" solid-color="#000000"/>
 <path d="m74 318c-9.8 15.4 18.6 31.7 24.9 28.4L139 330c.1 67-.3 135 .2 202-1.2 16 46 14.4 45-.3.3-71 0-143 .1-214 33.5-3.8 67-8.2 101-11.6l98 11.6c.1 72-.3 143 .2 215-.2 16 45 14.4 45-.3.3-68 0-135 .1-203 15.8 5.8 31 13.6 47 18.2 12.7-3.8 31.5-23 13-33.7-67-35-199-105-202-106-.9-.3-1.8 0-2.6-.2-3.1 1.6-148 76.9-210 110" id="path15803" fill="#734a08" isolation="auto" color-rendering="auto" white-space="normal" solid-opacity="1" mix-blend-mode="normal" color-interpolation-filters="linearRGB" shape-rendering="auto" fill-rule="evenodd" image-rendering="auto" color-interpolation="sRGB" color="#000000" solid-color="#000000"/>
</svg>
