<?xml version="1.0" encoding="UTF-8" standalone="no"?>
<svg xmlns="http://www.w3.org/2000/svg" version="1.0" width="580" height="580">
 <metadata id="metadata2975"/>
 <path d="M357 38C355 38 353 38.7 351 39.8 335 55 314 75 301 90 297 99 312 107 317 99 332 83 348 68 362 52 365 47 364 38 357 38zM232 50C230 50 229 50.7 227 52 199 77 171 105 148 129 142 138 156 148 163 140 188 114 214 89 239 63 242 57.9 238 51 232 50zM130 79C129 79 127 79 125 80 99 105 68.9 134 46 158 40.6 167 53.9 176 61 169 86 143 113 118 138 91 141 86 137 79 130 79zM524 84C522 84 521 85 519 86 499 102 476 124 459 142 453 151 466 161 473 153 492 135 512 117 530 98 533 93 530 84 524 84zM441 90C437 90 432 92 425 99 409 115 376 147 353 171 348 180 361 190 368 182 394 156 420 131 446 105 450 101 449 90 441 90zM264 108C263 108 262 108 261 109 236 131 203 164 181 187 175 196 188 206 195 198 221 172 247 147 272 121 275 116 270 108 264 108zM340 121C339 121 337 122 336 122 322 133 307 148 293 163 288 172 303 181 309 172 321 159 335 148 347 134 350 129 346 121 340 121zM526 157C525 157 524 157 522 158 501 176 476 200 459 219 453 228 467 238 473 230 493 210 513 191 532 171 535 166 533 157 526 157zM431 183C429 183 426 184 422 188L399 212C393 222 404 233 413 223L436 196C440 192 438 183 431 183zM111 183C110 183 108 184 107 185 86 204 61 227 43 247 37.6 256 50.9 265 57.7 258 78 237 99 217 118 196 121 192 117 184 111 183zM285 201C215 235 141 276 81 309 75 314 78 322 84 326 90 330 95 341 104 337 126 328 147 319 169 311 208 306 247 301 286 297 324 302 363 306 402 311 424 320 446 330 469 338 477 338 481 329 487 324 494 320 493 309 486 307 419 272 353 237 287 202 286 202 285 201 285 201zM191 339L191 365 238 365 210 435 140 435 140 461 199 461 167 542 199 542 231 461 338 461 370 542 403 542 370 461 429 461 429 435 359 435 331 365 378 365 378 339 191 339 191 339zM266 365L266 365 296 365 324 435 238 435 266 365z" id="path4180" mix-blend-mode="normal" solid-color="#000000" white-space="normal" color-interpolation-filters="linearRGB" opacity=".8" filter-gaussianBlur-deviation="0" color="#000000" image-rendering="auto" color-rendering="auto" stroke-width="64" isolation="auto" color-interpolation="sRGB" solid-opacity="1" fill="none" stroke-linejoin="round" filter-blend-mode="normal" stroke="#ffffff" shape-rendering="auto"/>
 <path d="m357 38c-1.6 0-3.5.4-5.8 1.5-15.6 15.2-36.8 34.8-49 50-4.4 9.4 10 17.5 15.9 8.9 14.9-15.7 30.6-30.7 45-46.9 2.6-4.7 1.2-13.7-5.8-13.8m-125 12c-1.5 0-3.1.3-4.7 1.1-27.7 25.3-56 53.7-79 78-5.5 8.8 7.9 18.6 14.6 10.8 25.5-25.9 51.7-51 77-77 2.8-4.7-1.2-12-7.6-12.2M130 79c-1.8 0-3.7.5-5.7 1.9-25.5 24.9-55.8 53-79 77-5.4 8.7 7.8 18.5 14.6 10.8 25.7-25.8 52-51 77-77 2.8-5-1.4-12.6-7.7-12.8m393 5.7c-1.4 0-2.8.4-4.4 1.5C499 102 476 124 459 142c-5.5 8.6 7.5 18.6 14.4 11 18.9-18.6 38.6-36.6 57-56 2.9-4.8-.6-13.3-6.5-13.4m-83 5.4c-3.6.1-8.7 2.5-15.3 9.1-16.6 15.6-49 48-71.9 72-5.5 8.8 7.9 18.6 14.6 10.8 25.8-25.8 52-51 78-77 4.3-3.8 3.1-15.3-4.9-15M264 108c-1.2.1-2.4.4-3.6 1.1-24.7 22-57.7 55-79.9 78-5.5 8.8 7.9 18.6 14.6 10.8 25.6-25.9 51.9-51 77-77 3.1-5-1.7-13-8-12.7m76 13c-1.3 0-2.7.4-4.2 1.4-13.5 10.4-29 26-42.8 40-4.6 9.3 9.4 17.7 15.6 9.5 12.7-12.9 26.8-24.7 38.6-38 2.3-4.8-1.4-12.8-7-12.8m186 35.7c-1.3 0-2.7.2-4.3.9-20.6 18-45.6 42.6-63 61-5.6 8.7 7.6 18.7 14.5 11 19.6-19.6 39.9-38.5 59-58 3-5 .8-14.3-6-14.5m-95 26c-2.5 0-5.6 1.3-9.1 4.8l-23.4 24.6c-6 10.1 5.2 20.4 14.2 10.5l22.9-26.4c4.4-4.3 1.7-13.4-4.7-13.5m-320 .5c-1.4-.1-2.9.3-4.5 1.2-20.6 19.5-45 42.8-64 62-5.5 8.8 7.9 18.6 14.6 10.8 20-20.5 41-40 60.7-61 2.8-4.8-1.3-12.7-7.4-12.9" id="path4160-1" fill="#734a08" isolation="auto" color-rendering="auto" white-space="normal" solid-opacity="1" mix-blend-mode="normal" color-interpolation-filters="linearRGB" shape-rendering="auto" fill-rule="evenodd" image-rendering="auto" color-interpolation="sRGB" color="#000000" solid-color="#000000"/>
 <path d="m285 201c-69 34-144 75-204 108-6.1 4.9-2.4 13.2 3.1 16.8 5.8 4.7 11 15.3 20 11.2 21.8-8.6 43.5-17.8 65-26 38.8-4.5 78-9.5 116-13.6 38.8 4.8 78 9 116 14.2 22.4 8.7 44 18.5 67 26.6 8.3-.1 12.1-9.3 18-13.8 6.5-4 6.3-14.7-1.4-17-66-34.9-132-70-199-105-.8-.3-2.4-.7-2.4-.7" id="path4144" fill="#734a08" isolation="auto" color-rendering="auto" white-space="normal" solid-opacity="1" mix-blend-mode="normal" color-interpolation-filters="linearRGB" shape-rendering="auto" fill-rule="evenodd" image-rendering="auto" color-interpolation="sRGB" color="#000000" solid-color="#000000"/>
 <path d="M191 339L191 365 238 365 210 435 140 435 140 461 199 461 167 542 199 542 231 461 338 461 370 542 403 542 370 461 429 461 429 435 359 435 331 365 378 365 378 339 191 339 191 339M266 365L266 365 296 365 324 435 238 435 266 365" id="path4142" fill="#734a08" isolation="auto" color-rendering="auto" white-space="normal" solid-opacity="1" mix-blend-mode="normal" color-interpolation-filters="linearRGB" shape-rendering="auto" fill-rule="evenodd" image-rendering="auto" color-interpolation="sRGB" color="#000000" solid-color="#000000"/>
</svg>
