<?xml version="1.0" encoding="UTF-8" standalone="no"?>
<svg xmlns="http://www.w3.org/2000/svg" version="1.0" width="580" height="580">
 <metadata id="metadata2975"/>
 <path id="path4319" d="M283 183C281 183 280 184 278 184L56.7 303C43 313 59.9 323 67 331 76 341 88 331 97 328L125 316 125 534C127 548 143 543 153 544 165 544 177 541 174 528L174 506 389 506C389 517 388 527 390 538 396 548 409 544 420 544 434 544 441 536 438 524L438 316C455 323 471 330 488 336 498 335 503 324 511 318 520 305 502 299 493 294 424 257 355 220 285 183 284 183 283 183 283 183zM284 291L389 303 389 481 175 481 175 303C211 299 248 294 284 291zM225 391C211 391 198 403 198 417 197 441 232 452 247 434 262 419 249 392 228 392 227 392 226 391 225 391zM361 434C359 434 358 435 356 435 325 435 302 435 271 436 238 441 241 475 280 474 308 473 337 474 365 473 389 469 382 434 361 434zM201 452C193 452 187 453 185 462 187 476 203 471 212 472 222 471 233 474 242 469 252 453 231 453 219 452 213 453 207 452 201 452z" mix-blend-mode="normal" solid-color="#000000" opacity=".8" color-interpolation-filters="linearRGB" filter-gaussianBlur-deviation="0" color="#000000" image-rendering="auto" color-rendering="auto" stroke-width="64" isolation="auto" color-interpolation="sRGB" solid-opacity="1" fill="none" stroke-linejoin="round" filter-blend-mode="normal" stroke="#ffffff" shape-rendering="auto"/>
 <path id="path4283" d="M352 34.5C351 34.5 349 34.9 347 36 332 50.6 311 69 299 84 295 93 309 101 315 93 329 78 344 63 358 47.8 360 43 359 34.6 352 34.5zM232 46C231 46 230 46 228 47 201 71 174 99 152 122 147 130 160 140 166 132 191 107 216 83 240 57.9 242 53 239 46 232 46zM135 73C134 73 132 74 130 75 105 99 76 126 54 149 49 158 61.9 167 68 160 93 135 119 111 143 86 145 81 141 73 135 73zM513 79C511 79 510 79 509 80 489 96 467 117 450 134 445 143 458 152 464 145 482 127 501 110 519 92 522 87 518 79 513 79zM433 84C429 83.9 425 86 418 93 402 108 371 139 349 162 344 170 357 180 363 172 388 148 413 123 438 98 442 95 441 84 433 84zM264 101C263 101 261 102 260 102 236 124 205 155 183 178 178 186 191 195 198 188 222 163 247 139 271 114 274 109 270 101 264 101zM337 114C335 114 334 114 333 115 320 125 304 140 291 154 287 163 300 171 306 163 318 151 332 139 343 126 346 122 342 114 337 114zM515 148C514 148 513 148 511 149 491 167 467 190 450 208 445 216 458 226 464 218 483 199 503 181 521 162 524 157 522 148 515 148zM424 173C422 173 419 174 415 178L393 201C387 211 398 221 407 212L429 186C433 182 430 173 424 173zM117 174C115 174 114 174 113 175 93 194 69 216 51.6 235 46 243 59 252 66 245 84.9 225 105 206 124 186 127 182 123 174 117 174z" mix-blend-mode="normal" solid-color="#000000" white-space="normal" color-interpolation-filters="linearRGB" opacity=".8" filter-gaussianBlur-deviation="0" color="#000000" image-rendering="auto" color-rendering="auto" stroke-width="64" isolation="auto" color-interpolation="sRGB" solid-opacity="1" fill="none" stroke-linejoin="round" filter-blend-mode="normal" stroke="#ffffff" shape-rendering="auto"/>
 <path d="M352 34.5C351 34.5 349 34.9 347 36 332 50.6 311 69 299 84 295 93 309 101 315 93 329 78 344 63 358 47.8 360 43 359 34.6 352 34.5M232 46C231 46 230 46 228 47 201 71 174 99 152 122 147 130 160 140 166 132 191 107 216 83 240 57.9 242 53 239 46 232 46M135 73C134 73 132 74 130 75 105 99 76 126 54 149 49 158 61.9 167 68 160 93 135 119 111 143 86 145 81 141 73 135 73M513 79C511 79 510 79 509 80 489 96 467 117 450 134 445 143 458 152 464 145 482 127 501 110 519 92 522 87 518 79 513 79M433 84C429 83.9 425 86 418 93 402 108 371 139 349 162 344 170 357 180 363 172 388 148 413 123 438 98 442 95 441 84 433 84M264 101C263 101 261 102 260 102 236 124 205 155 183 178 178 186 191 195 198 188 222 163 247 139 271 114 274 109 270 101 264 101M337 114C335 114 334 114 333 115 320 125 304 140 291 154 287 163 300 171 306 163 318 151 332 139 343 126 346 122 342 114 337 114M515 148C514 148 513 148 511 149 491 167 467 190 450 208 445 216 458 226 464 218 483 199 503 181 521 162 524 157 522 148 515 148M424 173C422 173 419 174 415 178L393 201C387 211 398 221 407 212L429 186C433 182 430 173 424 173M117 174C115 174 114 174 113 175 93 194 69 216 51.6 235 46 243 59 252 66 245 84.9 225 105 206 124 186 127 182 123 174 117 174" id="path4221" fill="#0092da" isolation="auto" color-rendering="auto" white-space="normal" solid-opacity="1" mix-blend-mode="normal" color-interpolation-filters="linearRGB" shape-rendering="auto" fill-rule="evenodd" image-rendering="auto" color-interpolation="sRGB" color="#000000" solid-color="#000000"/>
 <path d="M283 183C281 183 280 184 278 184L56.7 303C43 313 59.9 323 67 331 76 341 88 331 97 328L125 316 125 534C127 548 143 543 153 544 165 544 177 541 174 528L174 506 389 506C389 517 388 527 390 538 396 548 409 544 420 544 434 544 441 536 438 524L438 316C455 323 471 330 488 336 498 335 503 324 511 318 520 305 502 299 493 294 424 257 355 220 285 183 284 183 283 183 283 183M284 291L389 303 389 481 175 481 175 303C211 299 248 294 284 291M225 391C211 391 198 403 198 417 197 441 232 452 247 434 262 419 249 392 228 392 227 392 226 391 225 391M361 434C359 434 358 435 356 435 325 435 302 435 271 436 238 441 241 475 280 474 308 473 337 474 365 473 389 469 382 434 361 434M201 452C193 452 187 453 185 462 187 476 203 471 212 472 222 471 233 474 242 469 252 453 231 453 219 452 213 453 207 452 201 452" id="path4315" fill="#0092da" fill-rule="evenodd"/>
</svg>
