<?xml version="1.0" encoding="UTF-8" standalone="no"?>
<svg xmlns="http://www.w3.org/2000/svg" version="1.0" width="580" height="580">
 <metadata id="metadata2975"/>
 <path id="path4141" d="M278 121L222 160 122 132C121 134 101 212 219 246L525 330 547 248 242 164 297 126 278 121zM122 132C122 132 122 132 122 132L122 132 122 132zM43.8 229L43.8 247 261 307C264 302 269 297 274 292L43.8 229zM318 293C289 293 266 316 266 345 266 366 278 383 295 392L43.8 322 44.5 505C55 505 65.8 502 75 498 85 494 96 491 107 491 118 491 129 494 138 498 148 502 158 505 169 505 180 505 190 502 200 498 209 494 220 491 231 491 242 491 253 494 263 498 272 502 282 505 293 505 304 505 315 502 324 498 334 494 344 491 356 491 367 491 378 494 387 498 396 502 407 505 418 505 429 505 439 502 448 498 458 494 469 491 480 491 491 491 502 494 512 498 521 502 531 505 542 505L542 459 313 396C314 396 316 397 318 397 346 397 369 374 369 345 369 317 346 293 318 293zM382 322C384 328 386 335 386 342L516 377 520 360 382 322zM318 323C330 323 340 333 340 345 340 357 330 367 318 367 305 367 295 357 295 345 295 333 305 323 318 323z" mix-blend-mode="normal" solid-color="#000000" opacity=".8" color-interpolation-filters="linearRGB" filter-gaussianBlur-deviation="0" color="#000000" image-rendering="auto" color-rendering="auto" stroke-width="64" isolation="auto" color-interpolation="sRGB" solid-opacity="1" fill="none" stroke-linejoin="round" filter-blend-mode="normal" stroke="#ffffff" shape-rendering="auto"/>
 <path d="M278 121L222 160 122 132C121 134 101 212 219 246L525 330 547 248 242 164 297 126 278 121M122 132C122 132 122 132 122 132L122 132 122 132M43.8 229L43.8 247 261 307C264 302 269 297 274 292L43.8 229M318 293C289 293 266 316 266 345 266 366 278 383 295 392L43.8 322 44.5 505C55 505 65.8 502 75 498 85 494 96 491 107 491 118 491 129 494 138 498 148 502 158 505 169 505 180 505 190 502 200 498 209 494 220 491 231 491 242 491 253 494 263 498 272 502 282 505 293 505 304 505 315 502 324 498 334 494 344 491 356 491 367 491 378 494 387 498 396 502 407 505 418 505 429 505 439 502 448 498 458 494 469 491 480 491 491 491 502 494 512 498 521 502 531 505 542 505L542 459 313 396C314 396 316 397 318 397 346 397 369 374 369 345 369 317 346 293 318 293M382 322C384 328 386 335 386 342L516 377 520 360 382 322M318 323C330 323 340 333 340 345 340 357 330 367 318 367 305 367 295 357 295 345 295 333 305 323 318 323" id="path5679" fill="#0092da"/>
</svg>
