<?xml version="1.0" encoding="UTF-8" standalone="no"?>
<svg xmlns="http://www.w3.org/2000/svg" version="1.0" width="580" height="580">
 <metadata id="metadata2975"/>
 <path id="path4181" d="m37.9 290c0 135 114 244 252 244 140 0 252-110 252-244 0-135-113-244-252-244-139 0-252 110-252 244z" mix-blend-mode="normal" solid-color="#000000" opacity=".8" color-interpolation-filters="linearRGB" filter-gaussianBlur-deviation="0" color="#000000" image-rendering="auto" color-rendering="auto" stroke-width="64" isolation="auto" color-interpolation="sRGB" solid-opacity="1" fill="none" stroke-linejoin="round" filter-blend-mode="normal" stroke="#ffffff" shape-rendering="auto"/>
 <path d="m37.9 290c0 135 114 244 252 244 140 0 252-110 252-244 0-135-113-244-252-244-139 0-252 110-252 244" id="path10456" fill="#39ac39" fill-rule="evenodd"/>
 <path d="m271 65l-76 18.9-.5-.4-28 43.6 11 45.8 74 20 58-27.7 14-56z" id="path4206" opacity=".7" fill="#ffffff" fill-rule="evenodd"/>
 <path d="m402 90l-61.9 24-.3-.2-9.3 53 58 59 61.9-9.5 19-71z" id="path4204" opacity=".7" fill="#ffffff" fill-rule="evenodd"/>
 <path d="m158 100c-7.4 3.2-12.8 6.5-18 10.7-5.3 3.6-9.1 8.2-12.8 13-4.1 4.4-7.6 9-10.3 14l33.8-8.9c2.3-9.5 4.6-19 7-28.6z" id="path4202" opacity=".7" fill="#ffffff" fill-rule="evenodd"/>
 <path d="m169 193l-62.9 64.9-.3.2 15.7 84 61.9 1.7 71-56-17.4-75z" id="path4200" opacity=".7" fill="#ffffff" fill-rule="evenodd"/>
 <path d="m459 235l-58 10.7-.5.1-36.6 72 22 51 60 5.8 47.9-81z" id="path4198" opacity=".7" fill="#ffffff" fill-rule="evenodd"/>
 <path d="m50.8 256c-3.7 19-3.8 39-1.2 59 2.3 20 10.8 46.8 17.4 60 4.7 12.3 10 18 15.8 15.3l22.8-41.8-19-81z" id="path4196" opacity=".7" fill="#ffffff" fill-rule="evenodd"/>
 <path d="m83 391l-.4.8.6-.9c0 0-.1 0-.1 0" id="path4194" opacity=".7" fill="#ffffff" fill-rule="evenodd"/>
 <path d="m527 288l-16.9 9.5-48.7 84 27.9 32.9 0-.4c6.2-5.4 11.5-13.8 17.4-25.8 5.8-13.4 11.7-28.6 15.7-45.8 3.3-17.2 4.9-34 4.7-54" id="path4192" opacity=".7" fill="#ffffff" fill-rule="evenodd"/>
 <path d="m269 302l-69 51.6.8.1 31.8 64.8 97 20.6 42.9-57-24.8-59z" id="path4190" opacity=".7" fill="#ffffff" fill-rule="evenodd"/>
 <path d="m224 434l-45.8 35 1.2 23.7c9 6.5 19.2 11.6 32.4 16.4 13.2 4.4 28.4 8.7 44.8 11.2 15.2 1.7 32 2.1 47.9 1.7 15.3-.3 29.7-1.9 44-4l-.1 0 7.4-20-29.5-45.8z" id="path10544-7-3" opacity=".7" fill="#ffffff" fill-rule="evenodd"/>
</svg>
