<?xml version="1.0" encoding="UTF-8" standalone="no"?>
<svg xmlns="http://www.w3.org/2000/svg" width="580" height="580" version="1.0">
 <metadata id="metadata7"/>
 <path d="M99 47.8C99 47.8 98 47.8 97 47.8 79 48 64 53.7 52.9 65 22.5 94 32.6 139 66 171 91 197 122 210 150 199 161 203 181 211 200 225 199 228 200 231 202 234L258 289C261 293 267 293 271 289L278 283C281 279 281 273 278 270L222 214C219 212 216 211 213 211 199 193 191 173 187 162 198 134 185 103 160 77 141 58 118 48 99 47.8zM430 49C385 49 340 76 323 119 307 156 316 201 343 230 375 266 430 278 474 260 513 245 543 207 545 164 548 123 524 83 488 63.7 470 54 450 49 430 49zM180 174L180 174C184 184 189 195 196 208 184 201 172 196 162 191 168 186 174 180 180 174zM90 227C73 227 59 241 59 258 59 276 73 289 90 289 107 289 121 276 121 258 121 241 107 227 90 227zM467 296C416 296 384 340 389 369 398 374 402 375 414 369 414 344 428 332 444 327 464 320 502 317 505 345 511 400 469 485 462 497 438 516 416 498 416 480 397 474 393 469 391 468 391 535 452 547 481 516 495 498 531 413 529 339 525 309 513 299 475 296 472 296 470 296 467 296zM119 353C115 353 112 357 113 361 112 361 110 361 109 361 92 361 75 360 58 358L58 358C60 393 55.9 428 47 462 44.5 472 52 485 40.7 486 36 495 38.8 505 37 514 34.5 524 45 529 52.7 530 87 535 121 531 155 530 208 528 262 533 314 519 327 516 340 514 351 507 358 496 353 482 348 472 345 466 340 464 335 460 322 455 307 457 293 459 286 462 285 465 240 449 189 430 178 403 178 403 167 388 158 373 145 360 139 359 133 360 126 360 125 358 124 356 123 355 122 354 120 353 119 353L119 353zM436 373C390 474 442 361 396 462 401 468 407 474 419 474 442 421 436 432 459 385 453 373 448 373 436 373z" id="path4170" fill="none" stroke="#ffffff" stroke-linejoin="round" fill-opacity=".3" stroke-width="64"/>
 <path d="m430 49c-45-.6-90 27-107 69-15.9 37-7.4 83 20 112 31.8 35.7 86 47 130 29.8 39.5-14.8 70-53 71-96C548 123 524 83 488 63.7 470 54 450 49 430 49" id="path10456" fill="#ac39ac" fill-rule="evenodd"/>
 <path d="m294 466c14.5 39.9-207 26-249 24.7 1.3 10-7.7 27 4 31.9 43-7.6 328 27.9 297-42.6-4.2-9.6-12.7-16.9-24.4-16.9z" id="path3944" fill="#ac39ac" fill-opacity=".3"/>
 <path d="m58 358c2.2 35-2.4 71-10.9 105-2.9 9.1 4.6 22.4-6.7 24-4.7 8.1-1.9 18.9-3.5 27.9-2.8 9.8 7.7 14.3 15.5 15.4 33.7 4.7 67.9 1 102 .5 53-2.3 107 2.5 159-10.9 12.6-3.4 26-5.4 37-12.9 6.9-10.3 1.9-24.9-3.2-34.9-2.6-5.9-8.3-7.7-13-11.5-13.4-5.2-28.5-3.1-42-1.4-9.3 6.4-23-2.2-34-3.8-27.6-8.5-58-18.9-74-44-13.4-16.6-23.8-35.9-39-50.6-11.3-1.4-23.9 1.5-35.7.7-16.9.1-33.7-1.1-50-3.3M316 469c6.8-.3 12 .6 2.6 2.2-7.5 4.5-17.2-4.4-2.6-2.2zm23.8 11.8c4.8 10.4 3.9 21.9-9.8 22-17.5 5.1-35.5 8.8-53.6 11.3.8-9.1-11.6-26.5 5.1-24 11-.3 23-7.1 32.9-1.5 8.3-3.2 17.3-4.3 25.4-8m-80 12.3c1.2 9.9 10.7 27-6.5 23.3-40.7 2-81 .7-122 2.9-26.5.3-53 3.3-80-1.9-3.7-5-5.3-25.3 7.3-20 67 1.9 134 4.2 201-4.1" id="path3944-8" fill="#ac39ac" isolation="auto" color-rendering="auto" white-space="normal" solid-opacity="1" mix-blend-mode="normal" color-interpolation-filters="linearRGB" shape-rendering="auto" image-rendering="auto" color-interpolation="sRGB" color="#000000" solid-color="#000000"/>
 <path d="m119 359c13.4 21.3 15 44.5 34 65.8 19 21.3 34.7 34.4 61 41 26.4 6.7 69 14.6 69 14.6" id="path3942" fill="none" stroke="#ffffff" stroke-linecap="round" stroke-width="12"/>
 <ellipse ry="25.6" rx="26.8" cy="422" cx="103" id="path3017" fill="#ffffff" stroke="#d8d8d8"/>
 <path d="m52.9 65c-30.4 29.5-20.3 74 12.6 107 25.8 25.8 57 39 84 27.8 11.5 3.9 30.9 11.9 49.6 25.8-.6 3 .2 6.2 2.5 8.4l55.8 55.8c3.6 3.6 9.5 3.6 13 0l6.5-6.5c3.6-3.6 3.6-9.5 0-13l-55.8-55.8c-2.3-2.3-5.5-3.1-8.4-2.5-14-18.8-22-38-25.9-49.8 10.9-27.7-2-59-27.7-84-19.6-19.6-43.7-29.9-62-29.5-18.7.5-33 5.9-44 16.9M180 174c4.2 10.3 9.6 21.9 16.3 34-12.2-6.7-23.8-12-34-16.3 6.7-5.6 12.6-11.6 17.8-17.8M59 258c0 17.2 13.9 31 31 31 17.2 0 31-13.9 31-31 0-17.2-13.9-31-31-31-17.2 0-31 13.9-31 31z" id="circle2441" fill="#ac39ac"/>
 <path d="m422 58l-34.8 8.5-12.9 19.5 5 20.6 33.7 8.9 26.6-12.4 6.4-25.3-24-19.8m59.7 10.6l-28 10.8-4.2 24 26.4 26.4 28-4.2 8.7-31.7-30.9-25.3m-111 4.7c-3.4 1.4-5.8 2.9-8.2 4.8-2.4 1.7-4.2 3.7-5.8 5.8-1.9 2-3.4 4.1-4.7 6.3l15.5-4c1-4.3 2.1-8.6 3.2-12.9m4.9 41.5l-28.8 29 7.1 37.5 28 .8 32.4-25-7.9-33.7-31-8.7m132 19l-26.6 4.8-16.9 32.5 10 23 27.4 2.6 21.9-36-15.8-26.7m-186 9.1c-1.6 8.9-1.7 17.6-.6 26.7 1.3 8.9 4.9 20.9 7.7 26.9 2.5 5.5 4.9 8.2 7.4 7.1l10.6-19-8.7-36.4-16.4-5.3m217 14.7l-7.7 4.2-22 37.5 12.7 14.7c2.8-2.5 5.3-6.3 7.9-11.6 2.7-5.6 5.3-12.6 7.1-20.3 1.5-7.8 2.2-15.4 2.1-24.5m-118 6l-31.4 23 14.5 29 44 9.3 19.5-25.6-11.3-26.6-35.4-9.3m-20.5 58.8l-20.9 15.8.6 10.6c4.1 2.9 8.7 5.3 14.7 7.4 6 2 12.9 3.9 20.4 5 7 .8 14.7.9 21.9.8 7-.2 13.6-.9 20-1.8l3.4-9-13.4-20.5-46.7-8.2" id="path10544" opacity=".8" fill="#ffffff" fill-rule="evenodd"/>
 <path d="m389 369c8.2 5.1 12.2 6.1 24.4 0 0-25 13.9-37 30.5-42.7 20-6.9 57.8-10 61 18.3 6.1 54.9-36.6 140-42.7 152-24.4 18.3-46.8 1-46.8-17.3-18.3-6.1-22.4-11.2-24.4-12.2 0 67 60.9 79 89 47.8 14.2-17.3 50.8-103 48.8-177-4.1-29.5-16-39.8-54.9-42.7-2.6-.2-5.1-.3-7.6-.3-50.7.5-83 44-78 73m6.4 93c5.8 5.9 11.5 11.8 23 11.8 23-53 17.3-41 40-89-5.8-11.8-11.5-11.8-23-11.8-46 100 5.8-11.8-40 89" id="path3805" fill="#ac39ac"/>
 <path id="path4197" d="m144.02516 371.79957a4.901604 3.820742 32.652578 0 0 -3.0646 1.66429 4.901604 3.820742 32.652578 0 0 2.34136 5.8298 4.901604 3.820742 32.652578 0 0 6.09061 -.83503 4.901604 3.820742 32.652578 0 0 -2.34135 -5.82981 4.901604 3.820742 32.652578 0 0 -3.02602 -.82925m12.06164 21.60481a4.901604 3.820742 32.652578 0 0 -3.06266 1.66427 4.901604 3.820742 32.652578 0 0 2.34135 5.83175 4.901604 3.820742 32.652578 0 0 6.08869 -.83504 4.901604 3.820742 32.652578 0 0 -2.34136 -5.8298 4.901604 3.820742 32.652578 0 0 -3.02602 -.83118m13.41748 19.62039a4.901604 3.820742 32.652578 0 0 -3.06266 1.66428 4.901604 3.820742 32.652578 0 0 2.33942 5.82981 4.901604 3.820742 32.652578 0 0 6.09062 -.8331 4.901604 3.820742 32.652578 0 0 -2.34137 -5.82981 4.901604 3.820742 32.652578 0 0 -3.02601 -.83118m17.7106 17.24257a4.93144 3.88851 36.13925 0 0 -3.05109 1.7125 4.93144 3.88851 36.13925 0 0 2.32979 5.9918 4.93144 3.88851 36.13925 0 0 6.06746 -.85817 4.93144 3.88851 36.13925 0 0 -2.33171 -5.9918 4.93144 3.88851 36.13925 0 0 -3.01445 -.85433m20.6672 12.6065a4.940308 3.881341 26.368954 0 0 -3.60847 2.30454 4.940308 3.881341 26.368954 0 0 3.3481 5.50004 4.940308 3.881341 26.368954 0 0 5.82446 -1.88606 4.940308 3.881341 26.368954 0 0 -3.3481 -5.50004 4.940308 3.881341 26.368954 0 0 -2.21599 -.41848m22.44153 9.59614a4.724196 3.222365 14.81906 0 0 -3.52747 1.87256 4.724196 3.222365 14.81906 0 0 3.27289 4.47022 4.724196 3.222365 14.81906 0 0 5.68945 -1.53315 4.724196 3.222365 14.81906 0 0 -3.27096 -4.47022 4.724196 3.222365 14.81906 0 0 -2.16391 -.33941m22.53603 5.91465a4.724196 3.222365 14.81906 0 0 -3.52553 1.87257 4.724196 3.222365 14.81906 0 0 3.27095 4.46829 4.724196 3.222365 14.81906 0 0 5.69138 -1.53121 4.724196 3.222365 14.81906 0 1 0 -.002 4.724196 3.222365 14.81906 0 0 .0733 -.21406 4.724196 3.222365 14.81906 0 0 -3.34617 -4.25423 4.724196 3.222365 14.81906 0 0 -2.16392 -.33943zm24.10015 5.45183a4.724793 2.9334 4.063155 0 0 -2.63836 .4474 4.724793 2.9334 4.063155 0 0 -.36644 .16779 4.724793 2.9334 4.063155 0 0 -1.52555 1.71056 4.724793 2.9334 4.063155 0 0 4.0077 3.49634 4.724793 2.9334 4.063155 0 0 5.33458 -2.26404 4.724793 2.9334 4.063155 0 0 -4.00768 -3.49634 4.724793 2.9334 4.063155 0 0 -.80425 -.0617" fill="#ffffff"/>
 <path d="m119 353c-5.1-.4-8 6.4-4.5 10 11.3 19.4 15.3 42.6 29.7 60 17 20.8 38 40 64.8 47 24.4 6.3 49 11.3 73.9 15.8 6.1.3 8.1-9 2.5-11.3-26-5.6-52.9-9.8-79-17.6-22.6-7.5-40-25-54-43-13.2-18-16.4-41.5-29.4-59.7-1-.9-2.4-1.4-3.8-1.5m25 18.8c-4.5-.1-4.3 6.1-.7 7.5 2.8 2.3 8-.2 6.2-4-.9-2.1-3.2-3.6-5.4-3.5zm12 21.6c-4.5-.1-4.3 6.1-.7 7.5 2.8 2.3 8-.2 6.2-4-.9-2.1-3.2-3.6-5.4-3.5m-53 2.9c-16.7-.8-31.4 17-25.6 33 5.2 17.4 29 23.7 42.8 12 13.7-10 12-33-2.8-41-4.3-2.7-9.4-4.1-14.5-4.1m66.9 16.8c-4.5-.1-4.3 6.1-.7 7.5 2.8 2.3 8-.2 6.2-4-.9-2.1-3.2-3.6-5.4-3.5zm17.7 17.2c-4.5-.1-4.2 6.3-.7 7.7 2.8 2.4 8-.3 6.1-4.1-.9-2.1-3.1-3.6-5.4-3.6m20.7 12.6c-4.3-.3-4.9 5.6-1.4 7.2 2.7 2.4 8.6.4 6.9-3.7-.9-2.1-3.2-3.5-5.5-3.5m22.4 9.6c-3.2-.6-5.2 3.6-2.2 5.4 2.2 2.1 8.4 1.9 7.6-2.2-.8-2.1-3.3-3.2-5.5-3.2m22.5 5.9c-3.2-.5-5.1 3.7-2.2 5.4 2.2 2.3 8.8 1.8 7.5-2.4-.9-2-3.3-2.9-5.4-3m24 5.4c-2.5-.6-6.4 2.3-3.6 4.6 2.3 2 8.4 2 8.4-1.9-.6-1.9-3-2.6-4.8-2.7" id="path3017-4" fill="#ac39ac" fill-opacity=".3"/>
</svg>
