<?xml version="1.0" encoding="UTF-8" standalone="no"?>
<svg xmlns="http://www.w3.org/2000/svg" version="1.0" width="580" height="580">
 <metadata id="metadata10"/>
 <path d="M133 134C128 134 124 136 121 139 118 142 117 146 117 150L117 166 117 173 109 173C104 173 99 175 95 179 91 182 89 187 89 192 89 198 91 203 95 206 99 210 104 212 109 212L117 212 117 271 109 271C104 271 99 273 95 277 91 281 89 286 89 291 89 296 91 301 95 305 99 309 104 311 109 311L117 311 117 347 117 363 117 378 149 378 149 363 149 347 149 311 224 311 224 289 224 288 224 287 365 287 365 311 434 311 434 347 434 363 434 378 466 378 466 363 466 347 466 311 471 311C476 311 481 309 485 305 489 301 491 296 491 291 491 286 489 281 485 277 481 273 476 271 471 271L466 271 466 212 471 212C476 212 481 210 485 206 489 203 491 198 491 192 491 187 489 182 485 179 481 175 476 173 471 173L466 173 466 166 466 150C466 146 464 142 461 139 458 136 454 134 449 134 445 134 441 136 438 139 435 142 434 146 434 150L434 166 434 173 149 173 149 166 149 150C149 146 147 142 144 139 141 136 137 134 133 134zM149 212L434 212 434 271 149 271 149 212zM247 304L247 354 342 354 342 304 247 304zM215 368L215 418 240 418 352 418 377 418 377 368 352 368 240 368 215 368z" id="path4230" mix-blend-mode="normal" solid-color="#000000" opacity=".8" color-interpolation-filters="linearRGB" filter-gaussianBlur-deviation="0" color="#000000" image-rendering="auto" color-rendering="auto" stroke-width="64" isolation="auto" color-interpolation="sRGB" solid-opacity="1" fill="none" stroke-linejoin="round" filter-blend-mode="normal" stroke="#ffffff" shape-rendering="auto"/>
 <path d="m133 134c-4.2.1-8.3 1.8-11.2 4.8-2.9 2.9-4.6 7.1-4.5 11.2l0 15.7 0 6.9-7.5 0c-5.3-.1-10.6 2-14.3 5.6-3.8 3.6-6 8.8-6 14 0 5.2 2.2 10.3 6 14 3.8 3.6 9 5.7 14.3 5.6l7.5 0 0 59-7.5 0c-5.3-.1-10.6 2-14.3 5.6-3.8 3.6-6 8.8-6 14 0 5.2 2.2 10.3 6 14 3.8 3.6 9 5.7 14.3 5.6l7.5 0 0 36 0 15.7 0 15.7 32 0 0-15.7 0-15.7 0-36 75 0 0-22 0-.8 0-.8 140 0 0 23.6 69 0 0 36 0 15.7 0 15.7 32 0 0-15.7 0-15.7 0-36 5.1 0c5.3.1 10.6-2 14.3-5.6 3.8-3.6 5.9-8.8 5.9-14 0-5.2-2.2-10.3-5.9-14-3.8-3.6-9-5.7-14.3-5.6l-5.1 0 0-59 5.1 0c5.3.1 10.6-2 14.3-5.6 3.8-3.6 5.9-8.8 5.9-14 0-5.2-2.2-10.3-5.9-14-3.8-3.6-9-5.7-14.3-5.6l-5.1 0 0-6.9 0-15.7c.1-4.2-1.7-8.4-4.7-11.3-3-3-7.3-4.7-11.6-4.6-4.2.1-8.3 1.8-11.2 4.8-2.9 2.9-4.6 7.1-4.5 11.2l0 15.7 0 6.9-285 0 0-6.9 0-15.7c.1-4.2-1.7-8.4-4.7-11.3-3-3-7.3-4.7-11.6-4.6m16.3 78l285 0 0 59-285 0 0-59" id="path2900" opacity=".8" fill="#666666" color="#000000"/>
 <path d="M247 304L247 354 342 354 342 304 247 304M215 368L215 418 240 418 352 418 377 418 377 368 352 368 240 368 215 368" id="path4403" shape-rendering="auto" mix-blend-mode="normal" color-interpolation-filters="linearRGB" isolation="auto" white-space="normal" fill="#666666" solid-opacity="1" image-rendering="auto" solid-color="#000000" color="#000000" color-rendering="auto" color-interpolation="sRGB"/>
</svg>
