<?xml version="1.0" encoding="UTF-8" standalone="no"?>
<svg xmlns="http://www.w3.org/2000/svg" version="1.0" width="580" height="580">
 <metadata id="metadata2975"/>
 <path id="path4162" d="m65.8 171c-15.2 10.1-29.4 25.4-29.4 46 0 16.3 8.6 29 19.7 38.8l14.3 93c-1.2 2.8-2.3 8.2-2.3 14 6 50 90 66 149 78 .9 6.8 10 12 21 12l113 0c11.8 0 21.3-5.9 21.3-13.2 59.8-14 136-26 140-77 0-5.8-1.2-11.2-2.5-14.2l15.3-93c10.6-9.6 18.8-22 18.8-37.8 0-20.8-14.2-35.9-29.4-46-65-37-160-43-225-43.7-73 4.3-165 4.8-225 43z" mix-blend-mode="normal" solid-color="#000000" opacity=".8" white-space="normal" color-interpolation-filters="linearRGB" filter-gaussianBlur-deviation="0" color="#000000" image-rendering="auto" color-rendering="auto" stroke-width="64" isolation="auto" color-interpolation="sRGB" solid-opacity="1" fill="none" stroke-linejoin="round" filter-blend-mode="normal" stroke="#ffffff" shape-rendering="auto"/>
 <path d="m65.8 171c-15.2 10.1-29.4 25.4-29.4 46 0 16.3 8.6 29 19.7 38.8l14.3 93c-1.2 2.8-2.3 8.2-2.3 14 6 50 90 66 149 78 .9 6.8 10 12 21 12l113 0c11.8 0 21.3-5.9 21.3-13.2 59.8-14 136-26 140-77 0-5.8-1.2-11.2-2.5-14.2l15.3-93c10.6-9.6 18.8-22 18.8-37.8 0-20.8-14.2-35.9-29.4-46-65-37-160-43-225-43.7-73 4.3-165 4.8-225 43" id="path4155" fill="#39ac39" isolation="auto" color-rendering="auto" white-space="normal" solid-opacity="1" mix-blend-mode="normal" color-interpolation-filters="linearRGB" shape-rendering="auto" image-rendering="auto" color-interpolation="sRGB" color="#000000" solid-color="#000000"/>
 <path d="m446 196c15.9 5.7 33.4 10 46 20.7-13.8 10.4-32.8 16.8-46 20.7-37.9 10.7-93 17.9-154 17.9-60.7 0-116-7.2-154-17.9-15.5-6-33.8-9.5-46-20.7 13.7-10.5 32.7-16.8 46-20.7 37.9-10.7 93-17.8 153-17.8 60 0 116 7.2 154 17.8" id="path4153" fill="#ffffff" isolation="auto" color-rendering="auto" white-space="normal" solid-opacity="1" mix-blend-mode="normal" color-interpolation-filters="linearRGB" shape-rendering="auto" image-rendering="auto" color-interpolation="sRGB" color="#000000" solid-color="#000000"/>
 <path d="m255 180c-6 .3-12 .6-17.9 1.1l9.2 44.5c-18.3 1.2-36.6 3-54.8 5.9l-19.3-42c-7.2 1.3-14 2.8-20.6 4.3l27.7 40c-11.2 2-22 4.2-33 6.9 37.5 9.5 89 15.8 146 15.8 61 0 115-7.1 153-17.8-11.9-2.7-23.9-4.9-36-6.7l26-37.5c-6.4-1.6-13.3-3-20.5-4.4l-18.3 39.6c-18.4-2.5-36.9-4-55-4.9l8.8-43c-6-.5-12-.9-18.3-1.2l-3.1 44.8c-12.3-.9-23.7-.9-36-.9 0 0 0 0 0 0-11.6.2-23 .6-34.8 1.1z" id="path4157" opacity=".5" fill="#39ac39" isolation="auto" color-rendering="auto" white-space="normal" solid-opacity="1" mix-blend-mode="normal" color-interpolation-filters="linearRGB" shape-rendering="auto" image-rendering="auto" color-interpolation="sRGB" color="#000000" solid-color="#000000"/>
 <path d="m481 359c-33.8 22-70 31-107 36.5l0-21.6c.6-61-141-71.9-156 0l0 22.7C179 391 134 382 102 359L88 274c63 25.9 146 32.5 204 32.7 70.9-4.2 145-5.3 205-33z" id="path4149" fill="#ffffff" isolation="auto" color-rendering="auto" white-space="normal" solid-opacity="1" mix-blend-mode="normal" color-interpolation-filters="linearRGB" shape-rendering="auto" image-rendering="auto" color-interpolation="sRGB" color="#000000" solid-color="#000000"/>
</svg>
