<?xml version="1.0" encoding="UTF-8" standalone="no"?>
<svg xmlns="http://www.w3.org/2000/svg" version="1.0" width="580" height="580">
 <metadata id="metadata2975"/>
 <path id="path4174" d="M532 66L492 85C482 91 467 95 467 110 464 119 462 129 460 139 322 139 184 138 45.9 139 32.6 141 33.4 157 37.7 167 53.7 229 69 291 86 353 93 365 110 361 122 364L404 403C406 414 406 423 392 419 304 420 215 419 127 420 112 428 97 440 93 458 85 490 120 524 150 509 173 499 183 470 172 448L342 448C324 477 352 522 387 514 415 508 430 473 416 449 429 450 434 436 432 425 432 406 431 387 437 368 456 284 475 201 494 117 510 108 528 100 542 89 549 80 543 66 532 66zM66.8 167L111 167 111 222 81 222C76 204 71 185 66.8 167zM130 167L198 167 198 222 130 222 130 167zM217 167L289 167 289 222 217 222 217 167zM308 167L378 167 378 222 308 222 308 167zM397 167L453 167C449 185 444 204 440 222 426 221 411 222 397 222L397 167zM103 241C107 240 110 241 111 244L111 301C99 305 100 292 97 283 93 269 89 255 86 241 90 242 97 241 103 241zM130 241L198 241 198 301 130 301 130 241zM217 241L289 241 289 301 217 301 217 241zM308 241L378 241 378 301 308 301 308 241zM436 241C431 261 426 281 422 302 414 301 402 304 397 300L397 241 436 241zM108 320C114 320 112 339 109 333 108 329 107 325 106 321 107 320 107 320 108 320zM411 320C416 320 419 322 415 328 412 344 408 360 404 376 392 378 399 362 397 355L397 321C400 321 407 320 411 320zM130 321L198 321C197 329 200 342 196 347 174 344 151 341 128 337 131 332 129 326 130 321zM217 321L289 321 289 360C265 356 241 353 217 350L217 321zM308 321L378 321 378 372C354 369 331 366 308 363 308 349 308 334 308 321L308 321zM131 448C143 448 156 454 155 469 156 504 100 490 115 459 118 454 121 450 126 448 128 448 130 448 131 448zM379 449C409 448 404 499 375 492 351 487 354 449 379 449z" mix-blend-mode="normal" solid-color="#000000" opacity=".8" white-space="normal" color-interpolation-filters="linearRGB" color="#000000" image-rendering="auto" color-rendering="auto" fill-rule="evenodd" stroke-width="65" isolation="auto" color-interpolation="sRGB" solid-opacity="1" fill="none" stroke-linejoin="round" stroke="#ffffff" shape-rendering="auto"/>
 <path d="M532 66L492 85C482 91 467 95 467 110 464 119 462 129 460 139 322 139 184 138 45.9 139 32.6 141 33.4 157 37.7 167 53.7 229 69 291 86 353 93 365 110 361 122 364L404 403C406 414 406 423 392 419 304 420 215 419 127 420 112 428 97 440 93 458 85 490 120 524 150 509 173 499 183 470 172 448L342 448C324 477 352 522 387 514 415 508 430 473 416 449 429 450 434 436 432 425 432 406 431 387 437 368 456 284 475 201 494 117 510 108 528 100 542 89 549 80 543 66 532 66M66.8 167L111 167 111 222 81 222C76 204 71 185 66.8 167M130 167L198 167 198 222 130 222 130 167M217 167L289 167 289 222 217 222 217 167M308 167L378 167 378 222 308 222 308 167M397 167L453 167C449 185 444 204 440 222 426 221 411 222 397 222L397 167M103 241C107 240 110 241 111 244L111 301C99 305 100 292 97 283 93 269 89 255 86 241 90 242 97 241 103 241M130 241L198 241 198 301 130 301 130 241M217 241L289 241 289 301 217 301 217 241M308 241L378 241 378 301 308 301 308 241M436 241C431 261 426 281 422 302 414 301 402 304 397 300L397 241 436 241M108 320C114 320 112 339 109 333 108 329 107 325 106 321 107 320 107 320 108 320M411 320C416 320 419 322 415 328 412 344 408 360 404 376 392 378 399 362 397 355L397 321C400 321 407 320 411 320M130 321L198 321C197 329 200 342 196 347 174 344 151 341 128 337 131 332 129 326 130 321M217 321L289 321 289 360C265 356 241 353 217 350L217 321M308 321L378 321 378 372C354 369 331 366 308 363 308 349 308 334 308 321L308 321M131 448C143 448 156 454 155 469 156 504 100 490 115 459 118 454 121 450 126 448 128 448 130 448 131 448M379 449C409 448 404 499 375 492 351 487 354 449 379 449" id="path4171" fill="#ac39ac" isolation="auto" color-rendering="auto" white-space="normal" solid-opacity="1" mix-blend-mode="normal" color-interpolation-filters="linearRGB" shape-rendering="auto" fill-rule="evenodd" image-rendering="auto" color-interpolation="sRGB" color="#000000" solid-color="#000000"/>
</svg>
