<?xml version="1.0" encoding="UTF-8" standalone="no"?>
<svg xmlns="http://www.w3.org/2000/svg" version="1.0" width="580" height="580">
 <metadata id="metadata1976"/>
 <g id="g4171" transform="matrix(0.97648737,0,0,0.97648737,6.8186627,6.8186627)">
  <circle r="260" cy="290" cx="290" id="circle4164" opacity=".8" color-interpolation-filters="linearRGB" color="#000000" image-rendering="auto" color-rendering="auto" stroke-width="66" color-interpolation="sRGB" fill="none" stroke-linejoin="round" stroke="#ffffff" shape-rendering="auto"/>
  <circle id="path3267-7" cx="290" cy="290" r="260" fill="#39ac39"/>
  <path id="path113" d="m447 122c-.4 0-.9 0-1.4 0-15.7 1-63.7 20.5-80 27.3-16 6.6-13 7.3-15.3 12.3-2.1 4.8-.5 7.1 3.1 17.2 3.6 10.2 9.6 24.4 18.3 43l-110 59c10-4.8 20.7-6.7 32-5.6 11.2 1.1 21.9 11.9 35 12 13.4-.3 30-12.8 44.7-12.8 14.7.1 30.4 11.3 42 12.4 11.6.9 20-1.3 26.7-6.9L393 169c13.9-5.2 26-9.9 37-14 10.8-4.4 25-5.8 27.9-11.4 2.5-5.5 3.1-21.6-10.8-21.9m12.4 63c-16.9 0-30.6 14.3-30.6 32 0 17.7 13.7 32 30.6 32 16.9 0 30.6-14.3 30.6-32 0-17.7-13.7-32-30.6-32m-345 45c-.4 0-.8 0-1.1 0-11.8.7-16 15-10.2 22 5.8 7 30.5 14 45 19.4 14.4 5 27.6 8.7 40.6 11 10.2-4.8 19.5-7.2 28.4-7 8.9.2 17.6 6.6 24.5 7.7 6.8 1 12 .3 16.2-1.9-32.8-13.5-60-24-85-32.8-23.6-8.4-46-18.6-59-18.6zm101 57c-.4 0-.8 0-1.2 0-12.9.5-27 10.5-39.8 11-12.8.2-24.3-9.3-35.6-9.4-11.4-.2-24 7-31.8 8.6-7.7 1.4-12.5 1.6-14.3.4l0 26.5c1.8 1.1 6.7 1 14.3-.4 7.7-1.6 20.4-8.8 31.8-8.6 11.3.1 22.8 9.6 35.6 9.4 12.7-.5 26.8-10.8 39.8-11 12.6-.5 23.9 8.8 36.6 9 12.9.1 26-8.4 39.8-8.2 13.6.2 27.5 9.5 41 9.4 13.7-.3 26.6-10.2 40.9-10.3 14.3-.1 30 9.6 44 9.9 13.8 0 28-9.1 38-9.4 9.9-.4 15.3 6 21 7.3 5.9 1.3 10.3 1.4 13.8.4l0-26.5c-3.4 1.1-7.9.9-13.8-.4-5.9-1.4-11.4-7.7-21-7.3-10 .4-24.4 9.4-38 9.4-14-.3-29.7-9.8-44-9.8-14.2.1-27 10-40.9 10.3-13.9.1-27.8-9.2-41-9.4-13.8-.4-26.9 8.2-39.8 8.1-12.3-.2-23.3-8.8-35.4-9m0 44c-.4 0-.8 0-1.2 0-12.9.5-27 10.5-39.8 11-12.8.2-24.3-9.3-35.6-9.4-11.4-.2-24 7-31.8 8.6-7.7 1.6-12.5 1.5-14.3.4l0 26.5c1.8 1.1 6.7 1.1 14.3-.4 7.7-1.6 20.4-8.8 31.8-8.6 11.3.1 22.8 9.6 35.6 9.4 12.7-.6 26.8-10.6 39.8-11 12.6-.4 23.9 8.7 36.6 9 12.9.1 26-8.5 39.8-8.1 13.6.2 27.5 9.5 41 9.4 13.7-.3 26.6-10.2 40.9-10.3 14.3 0 30 9.5 44 9.8 13.8 0 28-9.1 38-9.4 9.9-.4 15.3 6 21 7.3 5.9 1.3 10.3 1.4 13.8.4l0-26.5c-3.4.9-7.9.8-13.8-.4-5.9-1.3-11.4-7.7-21-7.3-10 .4-24.4 9.4-38 9.4-14-.3-29.7-9.8-44-9.8-14.2.1-27 10-40.9 10.3-13.9.1-27.8-9.2-41-9.4-13.8-.4-26.9 8.2-39.8 8.1-12.3-.2-23.3-8.8-35.4-9m-1.4 43.6c-.4 0-.8 0-1.2 0-12.9.5-27 10.5-39.8 11-12.8.2-24.3-9.3-35.6-9.4-11.4-.2-24 7-31.8 8.6-7.7 1.6-12.5 1.5-14.3.4l0 26.5c1.8 1.1 6.7 1.1 14.3-.4 7.7-1.6 20.4-8.8 31.8-8.6 11.3.1 22.8 9.6 35.6 9.4 12.7-.6 26.8-10.6 39.8-11 12.6-.4 23.9 8.7 36.6 9 12.9.1 26-8.5 39.8-8.1 13.6.2 27.5 9.5 41 9.4 13.7-.3 26.6-10.2 40.9-10.3 14.3 0 30 9.5 44 9.8 13.8 0 28-9.1 38-9.4 9.9-.4 15.3 6 21 7.3 5.9 1.3 10.3 1.4 13.8.4l0-26.5c-3.4.9-7.9.8-13.8-.4-5.9-1.3-11.4-7.7-21-7.3-10 .4-24.4 9.4-38 9.4-14-.3-29.7-9.8-44-9.8-14.2.1-27 10-40.9 10.3-13.9.1-27.8-9.2-41-9.4-13.8-.4-26.9 8.2-39.8 8.1-12.3-.2-23.3-8.8-35.4-9" fill="#ffffff"/>
 </g>
</svg>
