<?xml version="1.0" encoding="UTF-8" standalone="no"?>
<svg xmlns="http://www.w3.org/2000/svg" version="1.0" width="580" height="580">
 <metadata id="metadata2975"/>
 <path d="M289 35.4C272 61 258 88 242 114 211 114 185 113 152 116 164 141 184 168 193 195 184 221 165 247 153 276 183 279 213 278 242 278 256 302 274 334 288 354 305 330 322 303 337 278 366 278 398 280 428 275 415 248 399 222 384 196 397 174 416 141 426 115 396 113 367 114 337 114 323 89 306 60.8 289 35.4zM289 88C296 88 301 106 305 112 299 114 293 114 287 114 264 118 283 97 288 88 288 88 289 87 289 88zM194 140L227 140 210 169C204 160 199 150 194 140zM352 140L386 140 369 169C362 160 358 150 352 140zM257 141L323 141 353 196C346 209 339 222 331 236L331 236 321 252C298 252 279 251 256 251 246 234 235 214 227 196 236 177 247 159 257 141zM210 225C213 225 217 232 219 238L219 238 227 252 194 252C197 245 201 239 204 232 206 227 208 225 210 225zM368 225C372 225 376 232 378 238L386 252 352 252C356 245 359 239 363 232 365 227 367 225 368 225zM288 278C290 278 293 278 296 278 310 276 302 287 295 299 289 315 283 295 279 289 270 279 279 278 288 278zM208 360C203 360 198 364 198 370L198 534C198 539 203 544 208 544L372 544C377 544 382 539 382 534L382 370C382 364 377 360 372 360L208 360z" id="path4159" shape-rendering="auto" mix-blend-mode="normal" color-interpolation-filters="linearRGB" isolation="auto" white-space="normal" opacity=".8" fill="none" solid-opacity="1" image-rendering="auto" solid-color="#000000" stroke="#ffffff" color="#000000" stroke-linecap="round" stroke-linejoin="round" stroke-width="64" color-rendering="auto" color-interpolation="sRGB"/>
 <path d="m208 360c-5.4 0-9.7 4.4-9.7 9.8l0 164c0 5.4 4.4 9.8 9.7 9.8l164 0c5.4 0 9.7-4.4 9.7-9.8l0-164c0-5.4-4.4-9.8-9.7-9.8z" id="rect4154" shape-rendering="auto" mix-blend-mode="normal" color-interpolation-filters="linearRGB" isolation="auto" white-space="normal" solid-opacity="1" image-rendering="auto" solid-color="#000000" color="#000000" color-rendering="auto" color-interpolation="sRGB"/>
 <path d="m218 380l144 0 0 145-144 0z" id="rect3587-6" shape-rendering="auto" mix-blend-mode="normal" color-interpolation-filters="linearRGB" isolation="auto" white-space="normal" opacity=".8" fill="#ffffff" solid-opacity="1" image-rendering="auto" solid-color="#000000" color="#000000" color-rendering="auto" color-interpolation="sRGB"/>
 <path d="m242 278c-29.6-.5-59 1.3-89-1.9 11.9-28.8 30.7-55 39-81-9.1-26.7-29-54-41-79 33-3.2 59-2.1 91-2.1 15.4-26 29.4-53 47-79 17.5 25.4 33.7 53 48 79 29.7.5 60-1.3 89 1.5-10.3 25.3-29.4 58.8-41.9 80 14.9 26.4 31 52 44 80-30.7 4.5-62 2.6-91 2.6-15 25.5-32 52-48.9 76-14.3-20-31.9-52-45.7-76m53 0c-9-.3-28.9-2.5-16.8 10.8 4.4 6.4 10.5 26.4 16 9.8 7.1-11.5 15.2-23 .8-20.6m-76-40.6c-3.7-8.4-10.3-20.6-14.8-5.5-3.7 6.5-7.3 13.2-10.9 19.8l33.5 0-7.8-14.2m111-1.8c7.7-13.3 15.2-26.8 22.7-40l-30.7-54-65.9 0c-10 18-21.4 35.4-29.9 54 8.4 18.4 18.7 38.7 29.4 55.9 23-.3 41.8.5 65 .5l9.3-16m47 1.8c-3.7-8.4-10.3-20.6-14.8-5.5-3.7 6.5-7.3 13.2-10.9 19.8l33.5 0m-159-112l-33 0c5.5 9.5 10 19.8 16.8 28.5m175-28.5l-33 0c5.5 9.5 10 19.8 16.8 28.5zm-80-27.6c-4.7-7.1-10-27-17.2-24.7-4.6 9.3-23.8 30-1.3 26 6.1-.2 12.6.5 18.5-1.5" id="path3648"/>
</svg>
