<?xml version="1.0" encoding="UTF-8" standalone="no"?>
<svg xmlns="http://www.w3.org/2000/svg" version="1.0" width="580" height="580">
 <metadata id="metadata2975"/>
 <path id="path4203" d="M406 48C360 47.7 281 75 188 205 51 396 105 494 127 509L216 381C198 369 208 347 232 304 248 276 270 243 296 213 314 192 334 172 352 185L443 54.9C437 51 424 47 406 48zM453 61.8L362 192C362 192 398 217 398 217L398 217C406 223 417 221 422 213L422 213C422 213 493 111 493 111 499 103 497 92 489 87L453 61.8zM226 388L137 516C137 516 173 541 173 541L173 541C181 547 192 544 197 536L197 536C197 536 266 437 266 437 272 429 269 419 262 413L226 388z" mix-blend-mode="normal" solid-color="#000000" opacity=".8" color-interpolation-filters="linearRGB" filter-gaussianBlur-deviation="0" color="#000000" image-rendering="auto" color-rendering="auto" stroke-width="64" isolation="auto" color-interpolation="sRGB" solid-opacity="1" fill="none" stroke-linejoin="round" filter-blend-mode="normal" stroke="#ffffff" shape-rendering="auto"/>
 <path d="M406 48C360 47.7 281 75 188 205 51 396 105 494 127 509L216 381C198 369 208 347 232 304 248 276 270 243 296 213 314 192 334 172 352 185L443 54.9C437 51 424 47 406 48M453 61.8L362 192C362 192 398 217 398 217L398 217C406 223 417 221 422 213L422 213C422 213 493 111 493 111 499 103 497 92 489 87L453 61.8M226 388L137 516C137 516 173 541 173 541L173 541C181 547 192 544 197 536L197 536C197 536 266 437 266 437 272 429 269 419 262 413L226 388" id="path1333" fill="#734a08"/>
</svg>
