<?xml version="1.0" encoding="UTF-8" standalone="no"?>
<svg xmlns="http://www.w3.org/2000/svg" version="1.0" width="580" height="580">
 <metadata id="metadata2975"/>
 <g id="g4171" transform="matrix(0.95416456,0,0,0.95277152,13.105532,13.789646)">
  <path d="m315 81.9c-2.1 0-4.3.2-6.5.8-5.9 1.5-11.5 5.5-15.3 11.2l-.9 1.3-.4 1.5c-3 10.4-6.2 20.8-9.3 31.4-5.1-4.7-11.7-7.2-17.7-7.2-14.6 0-25.8 9.2-33.5 16.4-29 22.4-48 37-96 49.9l-.2 0-.1 0c-6.4 1.9-20 2.1-36 .8-16-1.3-34.8-3.7-53.6-5 .2 0 .4 0 .6.1l-.8-.1c.1 0 .2 0 .3 0-4.1-.6-8.4-.3-12.3 1.6-4.1 2-7.1 5.9-8.5 9.6-2.7 7.3-1.5 14-.1 20.8 2.8 13.7 8.8 29 9.9 35.6l.1.6c27.3 70 52 142 90 192l.2.3.3.3c25.6 28.5 62 54 104 53.8l.4 0 .4 0c34.9-2.9 63-29.4 73-61.8 13 12.6 30 21 48.9 22.8l.4 0 .4 0c42 .5 78-25.4 104-53.8l.3-.3.2-.3c44-57 69-125 90-191l.2-.6.1-.6c1.2-6.3 7.1-21.9 9.9-35.6 1.4-6.9 2.6-13.5-.1-20.8-1.4-3.7-4.4-7.6-8.5-9.6-4-1.9-8.2-2.2-12.3-1.6.1 0 .2 0 .3 0l-.8.1c.2 0 .4-.1.6-.1-18.9 1.3-37.6 3.7-53.6 5-16 1.3-29.7 1.2-36-.8l-.1 0-.1 0C397 136 378 121 349 98 343 93 335 87 325 84c-2.5-.8-5.2-1.4-8-1.6-.7 0-1.4-.1-2.1-.1z" id="path4164" shape-rendering="auto" mix-blend-mode="normal" color-interpolation-filters="linearRGB" isolation="auto" white-space="normal" opacity=".8" fill="none" solid-opacity="1" image-rendering="auto" solid-color="#000000" stroke="#ffffff" color="#000000" stroke-linejoin="round" stroke-width="67" color-rendering="auto" color-interpolation="sRGB"/>
  <path d="m265 131c-9.7 0-20.4 7.8-27.3 14.2-29 22.5-50.8 38.6-100 51.8-18.6 5.6-56-1.2-94-3.8-23.7-3.7-3.4 38.7-.2 55.9 21 66 45 133 88 188 24.4 27 58 50.9 96 51 31-2.6 57-27.8 65-57.8.6-2 1.2-4.1 1.8-6.1.8-3.1 1.6-6.3 2.4-9.4-4.6-7.2-8.1-15.2-10.2-23.5-.6-2-1.2-4.1-1.7-6.1-17-63.7-16-131-8.6-196 2.2-10.4 4.8-20.8 7.6-31-2-6.5-3.9-13-5.8-19.6-3.8-5.5-8.5-7.6-13.6-7.6z" id="path4162" fill="#ffffff" stroke="#734a08" stroke-width="21"/>
  <path id="path3327-8" d="m265 131c-9.7 0-20.4 7.8-27.3 14.2-29 22.5-50.8 38.6-100 51.8-18.6 5.6-56-1.2-94-3.8-23.7-3.7-3.4 38.7-.2 55.9 21 66 45 133 88 188 24.4 27 58 50.9 96 51 31-2.6 57-27.8 65-57.8.6-2 1.2-4.1 1.8-6.1.8-3.1 1.6-6.3 2.4-9.4-4.6-7.2-8.1-15.2-10.2-23.5-.6-2-1.2-4.1-1.7-6.1-17-63.7-16-131-8.6-196 2.2-10.4 4.8-20.8 7.6-31-2-6.5-3.9-13-5.8-19.6-3.8-5.5-8.5-7.6-13.6-7.6z" opacity=".1" fill="#734a08" stroke="#734a08" stroke-width="21"/>
  <path id="path3354" d="m315 81.9c-2.1 0-4.3.2-6.5.8-5.9 1.5-11.5 5.5-15.3 11.2l-.9 1.3-.4 1.5c-3 10.4-6.2 20.8-9.3 31.4-5.1-4.7-11.7-7.2-17.7-7.2-14.6 0-25.8 9.2-33.5 16.4-29 22.4-48 37-96 49.9l-.2 0-.1 0c-6.4 1.9-20 2.1-36 .8-16-1.3-34.8-3.7-53.6-5 .2 0 .4 0 .6.1l-.8-.1c.1 0 .2 0 .3 0-4.1-.6-8.4-.3-12.3 1.6-4.1 2-7.1 5.9-8.5 9.6-2.7 7.3-1.5 14-.1 20.8 2.8 13.7 8.8 29 9.9 35.6l.1.6.2.6c21 66 45.7 134 90 191l.2.3.3.3c25.6 28.5 62 54 104 53.8l.4 0 .4 0c34.9-2.9 63-29.4 73-61.8 13 12.6 30 21 48.9 22.8l.4 0 .4 0c42 .5 78-25.4 104-53.8l.3-.3.2-.3c44-57 69-125 90-191l.2-.6.1-.6c1.2-6.3 7.1-21.9 9.9-35.6 1.4-6.9 2.6-13.5-.1-20.8-1.4-3.7-4.4-7.6-8.5-9.6-4-1.9-8.2-2.2-12.3-1.6.1 0 .2 0 .3 0l-.8.1c.2 0 .4-.1.6-.1-18.9 1.3-37.6 3.7-53.6 5-16 1.3-29.7 1.2-36-.8l-.1 0-.1 0C397 136 378 121 349 98 343 93 335 87 325 84c-2.5-.8-5.2-1.4-8-1.6-.7 0-1.4-.1-2.1-.1m-50 59c2 0 3 .4 4.6 2.4 1.4 5 2.9 9.9 4.4 14.8-1.8 6.7-3.5 13.5-5.1 20.4-.2.7-.3 1.4-.5 2.1-.2 1-.4 2-.7 3-.3 1.2-.5 2.3-.8 3.4l-.1.4-.1.4c-3.5 30.8-5.6 62-5.1 94 0 .9 0 1.7.1 2.6 0 1.2.1 2.5.1 3.7.9 33.5 5 66.9 13.8 100l0 0c.3 1.1.6 2.1.9 3.2 0 0 0 0 0 0 .3 1 .6 2.1.9 3.1 0-.1-.1-.2-.1-.3l.2.6c0-.1-.1-.2-.1-.3.5 2 1.1 4 1.7 6 1.9 5.7 4.3 11.2 7.3 16.4-.4 1.7-.9 3.5-1.3 5.2l0 0 0 0c-.5 1.9-1 3.8-1.6 5.6l-.1.3-.1.3c-6.3 25.9-29 47.8-55 50C195 478 163 457 140 431 99 377 75 312 53.8 246c-2.2-10.8-7.6-24.4-9.8-34.9-.8-3.8-.8-6.5-.8-8.2l0 0 .4 0c18.2 1.3 36.9 3.6 53.7 5 16.8 1.4 31.4 2.1 43.5-1.6 50-13.5 74-31 103-53l.4-.3.4-.3c5.9-5.6 16-11.5 20.4-11.5m111 60c2.9.2 4.8 2.1 6 5.8 1.4 4 .7 8.3-1.4 10.4l-.2.2-.2.2c-12.8 13.8-32.8 22.6-50 18.4-3.2-1.3-6.6-4.9-8-9.1-1.4-4-1-7.4 1.1-10 6.1-5 13.7-7.5 23-9.4 9-1.8 19.3-3 29.6-6.4m66 14.4c4.9.1 9.1 2.4 12.9 6.4 4 4.3 6.9 10.6 7.7 16.3l.2 1.3.5 1.2c2.5 6.1 5.4 11.6 6.9 16 1.4 4.6 1.6 7.5.1 10.6l0 0 0 0c-.7 1.4-1.6 2.2-3.8 2.7-2.2.6-5.4.3-7.6-.6l-.7-.3-.7-.2c-15-3.5-25.9-19.3-26-35l0-.7-.1-.7c-.6-3.6.1-8.5 1.8-11.7 1.6-3.3 3.4-4.8 6.3-5.2l.2 0 .2 0c.4-.1.8-.1 1.3-.1l.1 0 .1 0c.3 0 .7 0 1 0zm-213 14.2c-6.5 0-13.3 2.8-18.6 6.3-12.9 7.5-12.9 26.6-4.5 37.5 1.8 3.3 5.3 5.9 9.3 5.8 9.8-.9 15.4-10.4 17.7-19 3.8-8.5 12-17.4 7.4-27-3.4-2.5-7.2-3.5-11-3.5M116 257c-10-.3-20.8 7.5-19.3 18.3 8.5 11.7 22.8 16 34.7 23 3.1 1.2 6 2.7 9.2 3.6 11.9 5.2 21.5-10.7 16-20.7-8.3-11-20.7-18.6-33.8-22.8-2.1-1-4.4-1.5-6.7-1.5m259 64c16.9.3 33.5 11 44 25 2.3 4.1 3.1 10.3 1.8 15.4-1.3 5-3.8 8.3-7.8 10-1.8.3-3-.1-6.1-2.2-3.2-2.2-7.2-6-13-9.1-17.2-10.9-38-10.8-55-4.6l.3-.1c-1.9.6-4.6.6-6.1.1-1.6-.5-1.7-.6-2-1.5l-.1-.3-.1-.3c-2.5-5.8 1.8-14.7 8.1-18.5l.5-.3.4-.3c10.5-8.1 22.9-13.3 35-13.4m-124 19.5c-10.4-.2-11.6 16.6-18.3 23-11 18.9-32 33.7-54.7 30.9-9.7-.9-21.5-10.2-29.8-1 7.5 14 22.4 23.3 38 25.4 12.8 2.6 25-3.2 37.5-5.5 9.7-2.5 15.2-11 20.8-18.5 7.1-8.4 12.5-18.4 13.9-29.4 2.2-8.3 3.9-19.7-5.1-24.6-.8-.2-1.5-.3-2.2-.3" shape-rendering="auto" mix-blend-mode="normal" color-interpolation-filters="linearRGB" isolation="auto" white-space="normal" fill="#734a08" solid-opacity="1" image-rendering="auto" solid-color="#000000" color="#000000" fill-rule="evenodd" color-rendering="auto" color-interpolation="sRGB"/>
 </g>
</svg>
