<?xml version="1.0" encoding="UTF-8" standalone="no"?>
<svg xmlns="http://www.w3.org/2000/svg" version="1.0" width="580" height="580">
 <metadata id="metadata10"/>
 <path id="path4141" d="m425 38.7c35.7 28.5 54.8 70 51.7 113-3.1 42.8-27.9 82-67 106-2.9 1.8.1 5.6 3 3.9C453 237 479 196 482 152 485 108 466 65 429 35c-2.8-1.8-5.8 2-3.8 3.7zM177 35c-36.9 29.5-57 73-53 117 3.2 44 28.8 85 70 110 2.9 1.9 5.9-2.1 3-3.9C157 234 132 195 129 152c-3-43 16-85 52-113 1-3.5-1.2-4.9-3.8-3.5zm205 38.7c25.3 17.9 39 45.8 37 75-2 28.8-19.7 54.9-47 69.8-3 1.6-.3 5.6 2.7 4 29-15.7 47.6-43 49.8-74 2.1-30.4-12.5-59.7-39-79-2.8-1.3-5.8 2.5-3.5 4.2zm-163-3.5c-26.6 18.9-41 48-39 79 2.1 30.4 20.7 57.8 49.8 74 3 1.7 5.8-2.4 2.7-4-27.6-14.9-45-41-47-69.8-2-28.8 11.8-56.7 37-75 1.7-3.1-.7-5.3-3.5-4.2zm132 39c12.4 8.1 19 20.8 18.2 33.9-1 13-9.7 24.9-23 31.7-3.1 1.5-.3 5.4 2.7 3.7 15-7.5 24.6-20.7 25.7-35 1.1-14.5-6.4-28.6-20-37.6-2.6-1.7-6 1.6-3.6 3.3zM252 107c-13.7 9-21.3 23-20 37.6 1.1 14.5 10.7 27.7 25.7 35 3 1.6 5.8-2.2 2.7-3.7-13.5-6.8-22-18.6-23-31.7-1-13 5.8-25.8 18.2-33.9 1.7-3.3-.9-4.4-3.6-3.3zm50.7 13.6c-14.2-.1-25.8 9.4-25.9 21-.1 8.7 6.1 16.2 15 19.6-7.8 129-49.8 275-118 369-7.2 13.2 9.3 20.4 15.9 11.9 14.3-19 27-39.6 38-61l74-68 74 68c11 20.9 23.7 41 37.9 60 10.6 10.6 22-3.2 15.9-11.9C359 417 313 285 310 161c9.5-3.1 16.3-10.7 16.5-19.7 0 0 0-.1 0-.1 0 0 0-.1 0-.1.5-11.9-12.2-20.9-24.3-20.5zm12.3 194l-13 12-13.2-12.2c5-21 9.7-44 13-63 4.2 24 8.1 42.5 13.2 63.7zm-22 21l-12.4 11.5c1.7-6.2 3.4-12.3 4.9-18.4zm30.4 11L310 334l7.6-6.3c1.9 6.3 3.5 12.2 5.2 18zM327 367L300 391 274 367 301 343m55.9 100l-44.9-41.5 21.3-19.6c6.8 20.4 14.6 41 23.6 61zm-68-41.6l-44.7 41c9-20.3 16.7-40.7 23.6-60.8z" mix-blend-mode="normal" isolation="auto" white-space="normal" solid-color="#000000" opacity=".8" color-interpolation-filters="linearRGB" filter-gaussianBlur-deviation="0" color="#000000" image-rendering="auto" color-rendering="auto" stroke-width="64" color-interpolation="sRGB" solid-opacity="1" fill="none" stroke-linejoin="round" filter-blend-mode="normal" stroke="#ffffff" shape-rendering="auto"/>
 <path white-space="normal" isolation="auto" mix-blend-mode="normal" d="m425 38.7c35.7 28.5 54.8 70 51.7 113-3.1 42.8-27.9 82-67 106-2.9 1.8.1 5.6 3 3.9C453 237 479 196 482 152 485 108 466 65 429 35c-2.8-1.8-5.8 2-3.8 3.7M177 35c-36.9 29.5-57 73-53 117 3.2 44 28.8 85 70 110 2.9 1.9 5.9-2.1 3-3.9C157 234 132 195 129 152c-3-43 16-85 52-113 1-3.5-1.2-4.9-3.8-3.5m205 38.7c25.3 17.9 39 45.8 37 75-2 28.8-19.7 54.9-47 69.8-3 1.6-.3 5.6 2.7 4 29-15.7 47.6-43 49.8-74 2.1-30.4-12.5-59.7-39-79-2.8-1.3-5.8 2.5-3.5 4.2m-163-3.5c-26.6 18.9-41 48-39 79 2.1 30.4 20.7 57.8 49.8 74 3 1.7 5.8-2.4 2.7-4-27.6-14.9-45-41-47-69.8-2-28.8 11.8-56.7 37-75 1.7-3.1-.7-5.3-3.5-4.2m132 39c12.4 8.1 19 20.8 18.2 33.9-1 13-9.7 24.9-23 31.7-3.1 1.5-.3 5.4 2.7 3.7 15-7.5 24.6-20.7 25.7-35 1.1-14.5-6.4-28.6-20-37.6-2.6-1.7-6 1.6-3.6 3.3M252 107c-13.7 9-21.3 23-20 37.6 1.1 14.5 10.7 27.7 25.7 35 3 1.6 5.8-2.2 2.7-3.7-13.5-6.8-22-18.6-23-31.7-1-13 5.8-25.8 18.2-33.9 1.7-3.3-.9-4.4-3.6-3.3m50.7 13.6c-14.2-.1-25.8 9.4-25.9 21-.1 8.7 6.1 16.2 15 19.6-7.8 129-49.8 275-118 369-7.2 13.2 9.3 20.4 15.9 11.9 14.3-19 27-39.6 38-61l74-68 74 68c11 20.9 23.7 41 37.9 60 10.6 10.6 22-3.2 15.9-11.9C359 417 313 285 310 161c9.5-3.1 16.3-10.7 16.5-19.7 0 0 0-.1 0-.1 0 0 0-.1 0-.1.5-11.9-12.2-20.9-24.3-20.5m12.3 194l-13 12-13.2-12.2c5-21 9.7-44 13-63 4.2 24 8.1 42.5 13.2 63.7m-22 21l-12.4 11.5c1.7-6.2 3.4-12.3 4.9-18.4zm30.4 11L310 334l7.6-6.3c1.9 6.3 3.5 12.2 5.2 18M327 367L300 391 274 367 301 343m55.9 100l-44.9-41.5 21.3-19.6c6.8 20.4 14.6 41 23.6 61zm-68-41.6l-44.7 41c9-20.3 16.7-40.7 23.6-60.8z" id="path1061" color-rendering="auto" solid-opacity="1" color-interpolation-filters="linearRGB" shape-rendering="auto" image-rendering="auto" color-interpolation="sRGB" color="#000000" solid-color="#000000"/>
</svg>
