<?xml version="1.0" encoding="UTF-8" standalone="no"?>
<svg xmlns="http://www.w3.org/2000/svg" version="1.0" width="580" height="580">
 <metadata id="metadata2975"/>
 <circle r="253" cy="290" cx="290" id="path3267-0" opacity=".8" color-interpolation-filters="linearRGB" color="#000000" image-rendering="auto" color-rendering="auto" stroke-width="64" color-interpolation="sRGB" fill="none" stroke="#ffffff" shape-rendering="auto"/>
 <circle r="253" cy="290" cx="290" id="path3267" fill="#734a08"/>
 <path d="m277 471l28.6 0 0-361-28.6 0 0 361m-86-295l-57.8 0c-9 0-17 3.2-24.3 9.7-5.4 5-9 10.6-10.8 16.8l-24.9 83c-.7 1.8-1.1 3.4-1.1 4.9 0 8.3 4.1 12.4 12.4 12.4 5.8 0 9.6-3.2 11.4-9.7l22.7-76 12.4 0-37 135 36 0 0 105c0 9.4 4.5 14 13.5 14 9 0 13.5-4.7 13.5-14l0-105 13.5 0 0 106c0 9 4.5 13.5 13.5 13.5 9 0 13.5-4.5 13.5-13.5l0-105 36 0-37.8-135 13 0 22.7 76c1.8 6.5 5.6 9.7 11.3 9.7 8.3 0 12.4-4.1 12.4-12.4 0-1.8-.4-3.4-1.1-4.9l-24.9-83c-1.8-5.8-5.9-11.4-12.4-16.8-7.9-6.5-16.6-9.7-25.9-9.7m-27.6-5.9c8.3 0 15.3-2.9 21-8.6 5.8-5.8 8.7-12.6 8.7-20.5 0-8.3-2.9-15.3-8.7-21-5.8-5.8-12.8-8.6-21-8.6-7.9 0-14.8 2.9-20.5 8.6-5.8 5.8-8.7 12.8-8.7 21 0 7.9 2.9 14.8 8.7 20.5 5.8 5.8 12.6 8.6 20.5 8.6m253-.5c7.9 0 14.8-2.9 20.5-8.7 5.8-5.8 8.6-12.6 8.6-20.5 0-8.3-2.9-15.2-8.6-20.8-5.8-5.6-12.6-8.4-20.5-8.4-7.9 0-14.8 2.8-20.5 8.4-5.8 5.6-8.6 12.5-8.6 20.8 0 7.9 2.9 14.8 8.6 20.5 5.8 5.8 12.6 8.7 20.5 8.7m38 5.9l-77 0c-10.4 0-19.4 3.7-26.8 11-7.4 7.4-11 16.5-11 27.3l0 90c0 8.6 4 13 11.9 13 7.6 0 11.4-4.3 11.4-13l0-87 14 0 0 238c0 10.8 5.4 16.2 16.2 16.2 10.8 0 16.2-5.4 16.2-16.2l0-138 14 0 0 138c0 10.8 5.4 16.2 16.2 16.2 11.2 0 16.8-5.4 16.8-16.2l0-238 13.5 0 0 88c0 9 3.8 13.5 11.4 13.5 7.6 0 11.4-4.5 11.4-13.5l0-89c0-10.4-3.5-19.5-10.5-27.3-7-7.8-16-11.6-27.3-11.6" id="flowRoot3192" fill="#ffffff"/>
</svg>
