<?xml version="1.0" encoding="UTF-8" standalone="no"?>
<svg xmlns="http://www.w3.org/2000/svg" version="1.0" width="580" height="580">
 <metadata id="metadata2975"/>
 <path d="m291 98c-.8 0-1.6 0-2.4 0-34.9-.1-66.9 29.8-69 64.8-1.1 18 .1 36-.3 54 .2 67-.4 135 .3 202 2.9 32 30.5 60 62.7 62.9 30.5 3.4 62-14.9 72.9-43.7 5.8-14 5.7-29.4 5.2-44-.2-77 .4-155-.4-232-2.9-31.9-30-59.7-62-62.8-2.4-.3-4.8-.4-7.3-.5z" id="path4152" mix-blend-mode="normal" solid-color="#000000" opacity=".8" color-interpolation-filters="linearRGB" filter-gaussianBlur-deviation="0" color="#000000" image-rendering="auto" color-rendering="auto" stroke-width="64" isolation="auto" color-interpolation="sRGB" solid-opacity="1" fill="none" stroke-linejoin="round" filter-blend-mode="normal" stroke="#ffffff" shape-rendering="auto"/>
 <circle r="61" cy="170" cx="290" id="path4809-1" fill="#ffffff"/>
 <circle r="61" cy="290" cx="290" id="path4813-7" fill="#ffffff"/>
 <circle r="61" cy="410" cx="290" id="path4815-4" fill="#ffffff"/>
 <circle r="61" cy="170" cx="290" id="path4809" opacity=".6" fill="#0092da"/>
 <circle r="61" cy="290" cx="290" id="path4813" opacity=".2" fill="#0092da"/>
 <circle r="61" cy="410" cx="290" id="path4815" opacity=".3" fill="#0092da"/>
 <path d="m291 98c-.8 0-1.6 0-2.4 0-34.9-.1-66.9 29.8-69 64.8-1.1 18 .1 36-.3 54 .2 67-.4 135 .3 202 2.9 32 30.5 60 62.7 62.9 30.5 3.4 62-14.9 72.9-43.7 5.8-14 5.7-29.4 5.2-44-.2-77 .4-155-.4-232-2.9-31.9-30-59.7-62-62.8-2.4-.3-4.8-.4-7.3-.5m0 17.5c29.9 0 54 24.3 54 54 0 29.9-24.3 54-54 54-29.9 0-54-24-54-54 0-29.9 24-54 54-54m0 120c29.9 0 54 24.3 54 54 0 29.9-24.3 54-54 54-29.9 0-54-24-54-54 0-29.9 24-54 54-54m0 120c29.9 0 54 24.3 54 54 0 29.9-24.3 54-54 54-29.9 0-54-24-54-54 0-29.9 24-54 54-54" id="path4782" fill="#0092da" color="#000000" stroke-width="200"/>
 <path id="path8151" d="m291 98c-.8 0-1.6 0-2.4 0-34.9-.1-66.9 29.8-69 64.8-1.1 18 .1 36-.3 54 .2 67-.4 135 .3 202 2.9 32 30.5 60 62.7 62.9 30.5 3.4 62-14.9 72.9-43.7 5.8-14 5.7-29.4 5.2-44-.2-77 .4-155-.4-232-2.9-31.9-30-59.7-62-62.8-2.4-.3-4.8-.4-7.3-.5m0 17.5c29.9 0 54 24.3 54 54 0 29.9-24.3 54-54 54-29.9 0-54-24-54-54 0-29.9 24-54 54-54m0 120c29.9 0 54 24.3 54 54 0 29.9-24.3 54-54 54-29.9 0-54-24-54-54 0-29.9 24-54 54-54m0 120c29.9 0 54 24.3 54 54 0 29.9-24.3 54-54 54-29.9 0-54-24-54-54 0-29.9 24-54 54-54" fill="#0092da" color="#000000"/>
</svg>
