<?xml version="1.0" encoding="UTF-8" standalone="no"?>
<svg xmlns="http://www.w3.org/2000/svg" version="1.1" width="580" height="580" viewBox="0 0 580 580" enable-background="new 0 0 580 580">
 <metadata id="metadata15"/>
 <path id="path4143" d="m283 108c-17.7 0-32 14.3-32 32l0 45-97-48c-8.2-3.9-18 .6-21.5 7.2l-8.9 17.8c-3.9 7.9-.7 17.5 7.2 21.5l100 49.7-126 62.7c-7.9 3.9-11.1 13.5-7.2 21.5l8.9 17.8c3.9 7.9 13.5 11.1 21.5 7.2l123-61 0 158c0 17.7 14.3 32 32 32l13.6 0c17.7 0 32-14.3 32-32l0-158 122 60.7c7.9 3.9 17.5.7 21.5-7.2l8.9-17.8c3.9-7.9.7-17.5-7.2-21.5L348 233 448 184c7.9-3.9 11.1-13.5 7.2-21.5l-8.9-17.8c-3.9-7.9-13.5-11.1-21.5-7.2l-96 47.8 0-44.8c0-17.7-14.3-32-32-32z" shape-rendering="auto" mix-blend-mode="normal" filter-blend-mode="normal" color-interpolation-filters="linearRGB" isolation="auto" white-space="normal" fill="none" solid-opacity="1" image-rendering="auto" solid-color="#000000" stroke="#ffffff" color="#000000" stroke-linejoin="round" stroke-width="64" color-rendering="auto" filter-gaussianBlur-deviation="0" color-interpolation="sRGB"/>
 <path d="m283 108c-17.7 0-32 14.3-32 32l0 45-97-48c-8.2-3.9-18 .6-21.5 7.2l-8.9 17.8c-3.9 7.9-.7 17.5 7.2 21.5l100 49.7-126 62.7c-7.9 3.9-11.1 13.5-7.2 21.5l8.9 17.8c3.9 7.9 13.5 11.1 21.5 7.2l123-61 0 158c0 17.7 14.3 32 32 32l13.6 0c17.7 0 32-14.3 32-32l0-158 122 60.7c7.9 3.9 17.5.7 21.5-7.2l8.9-17.8c3.9-7.9.7-17.5-7.2-21.5L348 233 448 184c7.9-3.9 11.1-13.5 7.2-21.5l-8.9-17.8c-3.9-7.9-13.5-11.1-21.5-7.2l-96 47.8 0-44.8c0-17.7-14.3-32-32-32z" id="rect4143" shape-rendering="auto" mix-blend-mode="normal" color-interpolation-filters="linearRGB" isolation="auto" white-space="normal" fill="#666666" solid-opacity="1" image-rendering="auto" solid-color="#000000" color="#000000" color-rendering="auto" color-interpolation="sRGB"/>
</svg>
