<?xml version="1.0" encoding="UTF-8" standalone="no"?>
<svg xmlns="http://www.w3.org/2000/svg" version="1.0" width="580" height="580">
 <metadata id="metadata2975"/>
 <path id="path4141" d="m40.6 235c-4.3 2.2-2.8 8.7 2 8.7l288 3.5c.8 0 209-109 209-109 4.2-2.2 2.8-8.5-2-8.7l-266-9.8c-.7-.3-231 115-231 115zm294 27.6l-172-4.6c-2-.1-3.9 1.2-4.5 3.1l-24.8 73c-1.2 3.4 1.8 6.7 5.4 6 11.6-4.9 24-10.6 34.4-14.2 53-17 90-13.9 141 .1 21.9 6.2 42 11.7 42 11.7 32.4-41.9 64-60 109-69 17.5-3.5 31.8-5.1 31.8-5.1 3.7-.4 5.4-4.8 3-7.6L451 202c-.9-1.1-117 60.7-117 60.7zM111 248c-21 37.9-25 87-28.8 124-8.3 4.7-14 13.3-14.6 18.6 0 0-4.4 54-4.4 54 0 2.3 1.2 3.7 3.1 4.6 2.7.7 4.8-1.1 6-3.1l-.2 2.2c.4 2.3 1.2 3.8 3.1 4.7 1.7.4 3 .1 4.3-.6.4 1.9 1.7 3.6 4.1 3.6 1.2 0 2.1-.3 3.1-.8.8-.6 1.2-1.4 1.7-2.2.5-1.8 1-3.8 1.4-5.7l-1 4.9c-.5 4.2 3.4 6.2 6.8 5 .8-.4 1.4-1.2 1.8-1.9.4 1.7.7 3.5 3.4 3.9 2.5.5 4.7-1.1 5.6-3.1l11.7-32.7c3.9-7.3 7.6-18 7.6-26.5 0-6.8-2.4-13-6.4-18 1.8-29.8 3.2-55 13.9-90 3.1-8.4 5-18.7 14.4-24l-3.6-17.7z" mix-blend-mode="normal" isolation="auto" white-space="normal" solid-color="#000000" color-interpolation-filters="linearRGB" opacity=".8" filter-gaussianBlur-deviation="0" color="#000000" image-rendering="auto" color-rendering="auto" fill-rule="evenodd" stroke-width="64" color-interpolation="sRGB" solid-opacity="1" fill="none" stroke-linejoin="round" filter-blend-mode="normal" stroke="#ffffff" shape-rendering="auto"/>
 <path white-space="normal" isolation="auto" mix-blend-mode="normal" d="m40.6 235c-4.3 2.2-2.8 8.7 2 8.7l288 3.5c.8 0 209-109 209-109 4.2-2.2 2.8-8.5-2-8.7l-266-9.8c-.7-.3-231 115-231 115m294 27.6l-172-4.6c-2-.1-3.9 1.2-4.5 3.1l-24.8 73c-1.2 3.4 1.8 6.7 5.4 6 11.6-4.9 24-10.6 34.4-14.2 53-17 90-13.9 141 .1 21.9 6.2 42 11.7 42 11.7 32.4-41.9 64-60 109-69 17.5-3.5 31.8-5.1 31.8-5.1 3.7-.4 5.4-4.8 3-7.6L451 202c-.9-1.1-117 60.7-117 60.7M111 248c-21 37.9-25 87-28.8 124-8.3 4.7-14 13.3-14.6 18.6 0 0-4.4 54-4.4 54 0 2.3 1.2 3.7 3.1 4.6 2.7.7 4.8-1.1 6-3.1l-.2 2.2c.4 2.3 1.2 3.8 3.1 4.7 1.7.4 3 .1 4.3-.6.4 1.9 1.7 3.6 4.1 3.6 1.2 0 2.1-.3 3.1-.8.8-.6 1.2-1.4 1.7-2.2.5-1.8 1-3.8 1.4-5.7l-1 4.9c-.5 4.2 3.4 6.2 6.8 5 .8-.4 1.4-1.2 1.8-1.9.4 1.7.7 3.5 3.4 3.9 2.5.5 4.7-1.1 5.6-3.1l11.7-32.7c3.9-7.3 7.6-18 7.6-26.5 0-6.8-2.4-13-6.4-18 1.8-29.8 3.2-55 13.9-90 3.1-8.4 5-18.7 14.4-24l-3.6-17.7z" id="path2662" fill="#39ac39" color-rendering="auto" solid-opacity="1" color-interpolation-filters="linearRGB" shape-rendering="auto" fill-rule="evenodd" image-rendering="auto" color-interpolation="sRGB" color="#000000" solid-color="#000000"/>
</svg>
