<?xml version="1.0" encoding="UTF-8" standalone="no"?>
<svg xmlns="http://www.w3.org/2000/svg" version="1.0" width="580" height="580">
 <metadata id="metadata2975"/>
 <path id="path4173" d="M373 100C359 100 347 112 341 125 338 130 336 135 334 140 325 173 317 207 309 241 307 249 309 259 317 255 336 240 353 224 370 207 383 194 398 181 409 165 417 154 422 139 416 125 408 111 392 101 376 100 375 100 374 100 373 100zM210 102C209 102 208 102 207 102 191 104 175 113 168 127 162 141 167 156 175 167 186 183 200 196 213 210 230 226 247 243 266 257 275 261 276 251 274 243 266 209 258 175 249 142 247 137 245 132 243 127 237 114 225 102 210 102zM122 251C108 251 92 256 86 270 78.9 284 79 302 88 316 97 328 112 331 126 330 145 329 164 322 182 317 205 311 228 304 250 296 257 290 249 284 242 282 208 271 175 261 141 253 136 252 131 251 125 251 124 251 123 251 122 251zM458 251C457 251 456 251 455 251 450 251 444 252 439 253 405 261 372 271 339 282 331 284 323 290 331 296 353 304 375 311 398 317 417 322 435 329 454 330 468 331 483 328 492 316 501 302 501 284 494 270 488 256 472 251 458 251zM269 323C268 323 267 323 265 323 247 338 230 354 213 371 200 385 185 397 174 413 166 424 161 440 167 453 175 467 190 477 206 478 222 480 235 467 242 453 244 449 246 444 248 439 258 405 266 371 273 337 275 331 274 323 269 323zM313 325C308 325 307 333 308 339 316 373 324 407 334 441 335 446 337 451 340 456 347 469 360 482 376 480 392 479 407 470 415 455 421 442 416 427 408 415 397 399 382 387 369 373 352 357 335 340 317 326 315 325 314 325 313 325z" mix-blend-mode="normal" solid-color="#000000" opacity=".8" white-space="normal" color-interpolation-filters="linearRGB" filter-gaussianBlur-deviation="0" color="#000000" image-rendering="auto" color-rendering="auto" fill-rule="evenodd" stroke-width="64" isolation="auto" color-interpolation="sRGB" solid-opacity="1" fill="none" stroke-linejoin="round" filter-blend-mode="normal" stroke="#ffffff" shape-rendering="auto"/>
 <path d="M373 100C359 100 347 112 341 125 338 130 336 135 334 140 325 173 317 207 309 241 307 249 309 259 317 255 336 240 353 224 370 207 383 194 398 181 409 165 417 154 422 139 416 125 408 111 392 101 376 100 375 100 374 100 373 100M210 102C209 102 208 102 207 102 191 104 175 113 168 127 162 141 167 156 175 167 186 183 200 196 213 210 230 226 247 243 266 257 275 261 276 251 274 243 266 209 258 175 249 142 247 137 245 132 243 127 237 114 225 102 210 102M122 251C108 251 92 256 86 270 78.9 284 79 302 88 316 97 328 112 331 126 330 145 329 164 322 182 317 205 311 228 304 250 296 257 290 249 284 242 282 208 271 175 261 141 253 136 252 131 251 125 251 124 251 123 251 122 251M458 251C457 251 456 251 455 251 450 251 444 252 439 253 405 261 372 271 339 282 331 284 323 290 331 296 353 304 375 311 398 317 417 322 435 329 454 330 468 331 483 328 492 316 501 302 501 284 494 270 488 256 472 251 458 251M269 323C268 323 267 323 265 323 247 338 230 354 213 371 200 385 185 397 174 413 166 424 161 440 167 453 175 467 190 477 206 478 222 480 235 467 242 453 244 449 246 444 248 439 258 405 266 371 273 337 275 331 274 323 269 323M313 325C308 325 307 333 308 339 316 373 324 407 334 441 335 446 337 451 340 456 347 469 360 482 376 480 392 479 407 470 415 455 421 442 416 427 408 415 397 399 382 387 369 373 352 357 335 340 317 326 315 325 314 325 313 325" id="path4166" fill="#734a08" isolation="auto" color-rendering="auto" white-space="normal" solid-opacity="1" mix-blend-mode="normal" color-interpolation-filters="linearRGB" shape-rendering="auto" image-rendering="auto" color-interpolation="sRGB" color="#000000" solid-color="#000000"/>
</svg>
