<?xml version="1.0" encoding="UTF-8" standalone="no"?>
<svg xmlns="http://www.w3.org/2000/svg" version="1.0" width="580" height="580">
 <metadata id="metadata15"/>
 <g id="g4147" transform="matrix(0.92880998,0,0,0.92880998,20.645106,20.645104)">
  <circle transform="translate(-4.6984862e-8,2.1530151e-6)" r="273" cy="290" cx="290" id="circle4140" opacity=".8" color-interpolation-filters="linearRGB" color="#000000" image-rendering="auto" color-rendering="auto" stroke-width="68.9" color-interpolation="sRGB" fill="none" stroke-linejoin="round" stroke="#ffffff" shape-rendering="auto"/>
  <circle id="path3267-1" transform="matrix(0.9469422,0,0,0.9469422,84.37827,0.50623135)" cx="217" cy="306" r="289" fill="#ffffff"/>
  <circle id="path3267" cx="290" cy="290" r="273" transform="translate(-4.6984862e-8,2.1530151e-6)" fill="#734a08"/>
  <path d="m516 220l-72.8 0 0-89-20 0-3.3 0-38.6 0 0-37-31.7 0 0 37-44 0 0-16.6-70.8 0 0 16.6-52 0 0-38.9-31.7 0 0 38.9-39 0 0 23.3 39 0 0 144-34.5 0 0 46.6 23.3 0 0 135 247 0 0-135 27.9 0 0-46.6-32.6 0 0-144 38.6 0 0 95 23.3 0 0-6.4 72.8 0 0-23.3m-334-66l52 0 0 9.5 7.7 0 0 135-60 0 0-144m167 144l-96 0 0-135 51 0 0-9.5 44 0 0 144z" id="path9-4" fill="#ffffff"/>
 </g>
</svg>
