<?xml version="1.0" encoding="UTF-8" standalone="no"?>
<svg xmlns="http://www.w3.org/2000/svg" version="1.0" width="580" height="580">
 <metadata id="metadata15"/>
 <path fill="none" d="M500 230L428 230l0-89-20 0-3.3 0-38.6 0 0-37-31.7 0 0 37L290 141l0-16.6-70.8 0 0 16.6-52 0 0-38.9-31.7 0 0 38.9L96 141l0 23.3 39 0 0 144-34.5 0 0 46.6 23.3 0 0 135 247 0 0-135 27.9 0 0-46.6L366 309l0-144 38.6 0 0 95 23.3 0 0-6.4 72.8 0 0-23.3zm-334-66l52 0 0 9.5 7.7 0 0 135-60 0 0-144zm167 144l-96 0 0-135 51 0 0-9.5 44 0 0 144z" id="path4136" mix-blend-mode="normal" solid-color="#000000" opacity=".8" color-interpolation-filters="linearRGB" filter-gaussianBlur-deviation="0" color="#000000" image-rendering="auto" color-rendering="auto" stroke-width="64" isolation="auto" color-interpolation="sRGB" solid-opacity="1" stroke-linejoin="round" filter-blend-mode="normal" stroke="#ffffff" shape-rendering="auto"/>
 <path id="path9" d="M500 230L428 230l0-89-20 0-3.3 0-38.6 0 0-37-31.7 0 0 37L290 141l0-16.6-70.8 0 0 16.6-52 0 0-38.9-31.7 0 0 38.9L96 141l0 23.3 39 0 0 144-34.5 0 0 46.6 23.3 0 0 135 247 0 0-135 27.9 0 0-46.6L366 309l0-144 38.6 0 0 95 23.3 0 0-6.4 72.8 0 0-23.3m-334-66l52 0 0 9.5 7.7 0 0 135-60 0 0-144m167 144l-96 0 0-135 51 0 0-9.5 44 0 0 144z" fill="#666666"/>
</svg>
