<?xml version="1.0" encoding="UTF-8" standalone="no"?>
<svg xmlns="http://www.w3.org/2000/svg" width="580" height="580" version="1.0">
 <metadata id="metadata7"/>
 <path id="path3854-8" d="m123 51.8c0 0 42 7 90 31-7.7 22.5-29 208-48 264-210 29-114 185 125 187 241 1.8 337-158 115-187-14.6-56-43-236-48-264 48-24 90-31 90-31m-324 0c-27.4-22 345-22 324 0" fill="#ffffff" stroke-linejoin="round" stroke-linecap="round"/>
 <path white-space="normal" isolation="auto" mix-blend-mode="normal" d="m445 39.6c0 0-36.5 6.2-81 26l-1.9-6c-2-6.2-8.6-9.7-14.8-7.8-6.2 1.8-9.9 8.3-8.2 14.6 35.5 130 54 353 54 353 .6 5.5 6.1 10.2 11 11 7.1.5 12.7-6.3 13-12l0-58c45.9 7.7 75 21.6 89 36 15.3 15.8 16 30.5 4.9 48.7-22 36.4-103 77-221 76-117-.7-198-40.7-221-78-12-18-12-32 2-48 12-13 39-27 81-35l0 57.9c.4 6.5 5.6 11.4 11.3 12 6.9.5 12-5.1 12.6-8.3.3-4.2 18.4-226 53.7-356 1.7-6.3-2-12.8-8.2-14.6-6.2-1.8-12.8 1.6-14.8 7.8l-1.9 6c-44-20-81-26-81-26-6.6-1.2-12.9 3.2-14 9.8-1.1 6.6 3.4 12.8 10 13.8 0 0 36 6.2 79 26.4-18.5 79-31 177-38.9 245-52.8 7.6-88 22.8-108 44.7-19.9 22-20 52-4.3 76.9 31.8 49 119 88 241 89 123 .9 211-37 241-88 15.3-25 13.4-56-8.2-77.9-21.3-21.9-58.7-37-114-44.9-7.6-68-20.4-166-38.9-245 43-20 79-26.4 79-26.4 12-3.5 11.4-20.8-.9-23.3-.7 0-1.4.1-2 .2M309 70c-7.6 0-13.3 6.9-11.8 14.3 23.9 131 23.8 191 35.8 347 .4 6.7 6.2 11.7 12.9 11.2 6.7-.5 11.6-6.4 11-13-12.4-156-12.4-217-36-350-1-5.6-5.8-9.8-11.5-10m-48 0c-5.7.2-10.5 4.4-11.4 10-24 133-24 194-36 349-.6 6.7 4.4 12.5 11 13 6.7.5 12.5-4.5 12.9-11.2 12-156 12-215 35.8-347 1.2-7.5-4.8-14-12.3-13.9m24 220c-6.6.1-11.9 5.5-11.8 12.2l0 140c-.1 6.7 5.3 12.2 12 12.2 6.7 0 12-5.5 12-12.2l0-140c.1-6.8-5.4-12.3-12.2-12.2zm-164 96c-16.7 16.7-23.8 35.4-18 51.9 5.8 16.5 21 27 40 35 37.8 16.3 95 23.5 151 23.5 57 0 112-7 147-23.6 17.6-8.3 32-19.9 34.6-37 2.7-17.3-7.7-34-27-50-5.1-4.3-12.7-3.7-17 1.4-4.3 5.1-3.5 12.8 1.6 17 16.5 13.7 19.6 23 18.8 28-.8 5.2-6.9 12.4-21 19-28.5 13.4-83 21.4-137 21.4-54 0-110-7.8-142-21.5-15.9-6.9-24.8-15-27-21-2.1-6-1-13.6 12.3-26.9 7-13.4-1.2-26-16.3-17.2" id="path3854" fill="#666666" color-rendering="auto" solid-opacity="1" color-interpolation-filters="linearRGB" shape-rendering="auto" image-rendering="auto" color-interpolation="sRGB" color="#000000" solid-color="#000000"/>
</svg>
