<?xml version="1.0" encoding="UTF-8" standalone="no"?>
<svg xmlns="http://www.w3.org/2000/svg" width="580" height="580" version="1.0">
 <metadata id="metadata48"/>
 <path id="path4150" d="m129 383l322 0 0 131-322 0z" mix-blend-mode="normal" solid-color="#000000" opacity=".8" color-interpolation-filters="linearRGB" filter-gaussianBlur-deviation="0" color="#000000" image-rendering="auto" color-rendering="auto" stroke-width="64" isolation="auto" color-interpolation="sRGB" solid-opacity="1" fill="none" stroke-linejoin="round" filter-blend-mode="normal" stroke="#ffffff" shape-rendering="auto"/>
 <path solid-color="#000000" color="#000000" color-interpolation="sRGB" image-rendering="auto" shape-rendering="auto" color-interpolation-filters="linearRGB" mix-blend-mode="normal" solid-opacity="1" white-space="normal" color-rendering="auto" isolation="auto" fill="none" id="path4152" d="m295 64.9c-21.9-.9-38.5 24.4-29 44 7.6 20.5 37 26 51.9 9.8 15.8-15 9.4-44.6-11.2-51.7-3.6-1.4-7.6-2.2-11.5-2.2M195 126c13.8 18 27 36 41 54 8.5 9.1 21.3 4.4 32 4.5l16.3-1.1c6.2 25.8 11.8 51.8 18.3 78-16.3 16.3-33 32-49 48.7-7.7 11-4.6 26.7 2 37 8.7 11.2 23.4 7.6 35.6 8 26.5-.4 53-.5 80-1 16.8-.9 26.5-22.8 16-35.9-7.2-11-20.9-9.3-32-9.2l-23.6.3c14.4-12 29.5-23.6 43.5-36 8.2-11 7.5-26.5 4.5-39-6-25.6-11.7-51-18-77-7.3-25.8-42-36.9-62.9-19.9-4.9 7.2-10.8 10.5-19.3 9.7l-21.4 1.5c-12.4-15.8-24-32-36.8-47.6-3.1-2.8-7.3-4.5-11.3-4.3-14.6-.9-24.3 18.6-14.5 29.7" opacity=".8" filter-gaussianBlur-deviation="0" stroke-width="64" stroke-linejoin="round" filter-blend-mode="normal" stroke="#ffffff"/>
 <path d="m129 383l322 0 0 131-322 0z" id="rect4204" fill="#734a08" isolation="auto" color-rendering="auto" solid-opacity="1" mix-blend-mode="normal" color-interpolation-filters="linearRGB" shape-rendering="auto" fill-rule="evenodd" image-rendering="auto" color-interpolation="sRGB" color="#000000" solid-color="#000000"/>
 <path d="m295 64.9c-21.9-.9-38.5 24.4-29 44 7.6 20.5 37 26 51.9 9.8 15.8-15 9.4-44.6-11.2-51.7-3.6-1.4-7.6-2.2-11.5-2.2M195 126c13.8 18 27 36 41 54 8.5 9.1 21.3 4.4 32 4.5l16.3-1.1c6.2 25.8 11.8 51.8 18.3 78-16.3 16.3-33 32-49 48.7-7.7 11-4.6 26.7 2 37 8.7 11.2 23.4 7.6 35.6 8 26.5-.4 53-.5 80-1 16.8-.9 26.5-22.8 16-35.9-7.2-11-20.9-9.3-32-9.2l-23.6.3c14.4-12 29.5-23.6 43.5-36 8.2-11 7.5-26.5 4.5-39-6-25.6-11.7-51-18-77-7.3-25.8-42-36.9-62.9-19.9-4.9 7.2-10.8 10.5-19.3 9.7l-21.4 1.5c-12.4-15.8-24-32-36.8-47.6-3.1-2.8-7.3-4.5-11.3-4.3-14.6-.9-24.3 18.6-14.5 29.7" id="path4059" fill="#734a08" isolation="auto" color-rendering="auto" white-space="normal" solid-opacity="1" mix-blend-mode="normal" color-interpolation-filters="linearRGB" shape-rendering="auto" image-rendering="auto" color-interpolation="sRGB" color="#000000" solid-color="#000000"/>
 <path d="M129 403L129 496 451 496 451 403 129 403M216 438L254 438 254 458 216 458 216 438M137 438L176 438 176 457 137 457 137 438M293 439L332 439 332 458 293 458 293 439M371 439L408 439 408 458 371 458 371 439" id="path4147" opacity=".8" fill="#ffffff" isolation="auto" color-rendering="auto" solid-opacity="1" mix-blend-mode="normal" color-interpolation-filters="linearRGB" shape-rendering="auto" fill-rule="evenodd" image-rendering="auto" color-interpolation="sRGB" color="#000000" solid-color="#000000"/>
</svg>
