<?xml version="1.0" encoding="UTF-8" standalone="no"?>
<svg xmlns="http://www.w3.org/2000/svg" version="1.0" width="580" height="580">
 <metadata id="metadata2975"/>
 <path id="path4143" d="m199 220c-20.6-.1-40.9 4.8-61 8-33.7.5-67 .4-101 2.5-5.7 4-2.5 11.9-3.3 17.9C33.5 325 33.5 401 33.5 477c1.6 7.7 10.8 4.4 16.4 5.1C126 482 201 482 277 482c11-8.7.6-28.3 2.8-41C276 388 275 336 266 284 262 262 254 236 232 226 222 221 210 220 199 220" mix-blend-mode="normal" solid-color="#000000" opacity=".8" white-space="normal" color-interpolation-filters="linearRGB" filter-gaussianBlur-deviation="0" color="#000000" image-rendering="auto" color-rendering="auto" stroke-width="64" isolation="auto" color-interpolation="sRGB" solid-opacity="1" fill="none" stroke-linejoin="round" filter-blend-mode="normal" stroke="#ffffff" shape-rendering="auto"/>
 <path id="path4141" d="m105 139c-21.9 2.1-48 12.4-66 17.4L39 197c28.7-.8 56-22.9 85-11.9 25.7 7.5 52 21.6 79 11.2 20.6-7 46.8-18.3 64 1.4 16.3 19.2 3.8 49 15 71.8C292 291 301 312 307 334L307 375c29.5.3 58-19.5 88-6.8 25.5 10.4 54 18.7 80 5.3 21-12.5 51-4.5 67.9-1.9L543 330c-25.8-12.9-54-6.7-79 4C427 348 394 312 358 322 346 317 345 289 334 277 320 256 318 231 322 206c1.5-25-17.7-44.8-38.9-54.7-22.8-12.4-50-10.2-74-.3-24 10.7-49.6 3.5-72-6.1C126 142 116 139 105 139m274 269c-22 1.1-45.8 11.9-66 13.2L313 464c29.4-.8 58-20.7 88-7.6 25 11 54 18.4 80 5.5 18.9-12 46.9-5 62-4.3L543 416c-24.3-10-51-2.9-73.9 6.3C438 435 409 411 379 408" mix-blend-mode="normal" solid-color="#000000" opacity=".8" color-interpolation-filters="linearRGB" filter-gaussianBlur-deviation="0" color="#000000" image-rendering="auto" color-rendering="auto" stroke-width="64" isolation="auto" color-interpolation="sRGB" solid-opacity="1" fill="none" stroke-linejoin="round" filter-blend-mode="normal" stroke="#ffffff" shape-rendering="auto"/>
 <path d="m141 234c-20.7 0-74.9.7-101 1.4l0 241 237 0C261 231 269 207 141 234z" id="rect3039-1" stroke-linejoin="round" stroke-linecap="round" stroke-width="11" stroke="#ffffff" fill="#ffffff"/>
 <path d="M105 139C83 139 61 154 39.7 154 39.5 154 39 154 39 154L39 197C61 197 83 182 106 182 129 183 155 199 178 200 200 201 224 187 241 186 250 186 257 190 262 193 266 196 269 199 273 203 278 221 275 246 281 266 289 285 293 293 300 313 300 314 305 326 307 332 307 332 307 332 307 332L307 375C308 375 308 375 308 375 329 376 351 363 374 364 396 365 419 380 442 381 464 381 486 366 509 366 520 366 531 370 543 374L543 330C532 326 521 323 510 322 487 322 465 338 443 337 420 337 398 321 375 320 374 320 374 320 373 320 372 320 372 320 371 320 365 320 359 321 353 323 352 319 351 315 349 309 342 289 330 272 323 253 316 233 325 210 320 192 317 181 312 174 307 169 305 166 301 162 288 155 274 145 258 143 242 143 226 143 202 157 179 157 156 156 131 139 107 139 107 139 106 139 105 139M379 408C357 408 336 421 315 420 314 420 314 420 313 420L313 464C313 464 314 464 314 464 335 464 357 451 380 452 402 453 424 469 447 469 470 470 491 454 515 454 524 455 533 457 543 460L543 416C534 413 525 411 516 411 492 410 471 426 448 426 425 425 403 410 381 409 380 409 379 408 379 408" id="path121" fill="#0092da"/>
 <path d="M203 220C202 220 201 220 199 220 183 220 164 223 140 228 119 228 66 229 38.9 230A5.520552 5.520552 0 0 0 33.542969 235.3125L33.5 477A5.520552 5.520552 0 0 0 39.0625 482.14453L277 482A5.520552 5.520552 0 0 0 282.00195 476.27344C274 354 273 287 256 251 247 233 233 223 214 221 211 220 207 220 203 220" id="rect3039" shape-rendering="auto" mix-blend-mode="normal" color-interpolation-filters="linearRGB" isolation="auto" white-space="normal" opacity=".8" fill="#0092da" solid-opacity="1" image-rendering="auto" solid-color="#000000" color="#000000" color-rendering="auto" color-interpolation="sRGB"/>
 <path id="path4163" d="m141 234c-20.7 0-74.9.7-101 1.4l0 241 237 0C261 231 269 207 141 234z" stroke-linejoin="round" stroke-linecap="round" stroke-width="11" stroke="#ffffff" fill="#ffffff"/>
 <path d="m105 139c-21.9 2.1-48 12.4-66 17.4L39 197c28.7-.8 56-22.9 85-11.9 25.7 7.5 52 21.6 79 11.2 20.6-7 46.8-18.3 64 1.4 16.3 19.2 3.8 49 15 71.8C292 291 301 312 307 334L307 375c29.5.3 58-19.5 88-6.8 25.5 10.4 54 18.7 80 5.3 21-12.5 51-4.5 67.9-1.9L543 330c-25.8-12.9-54-6.7-79 4C427 348 394 312 358 322 346 317 345 289 334 277 320 256 318 231 322 206c1.5-25-17.7-44.8-38.9-54.7-22.8-12.4-50-10.2-74-.3-24 10.7-49.6 3.5-72-6.1C126 142 116 139 105 139m274 269c-22 1.1-45.8 11.9-66 13.2L313 464c29.4-.8 58-20.7 88-7.6 25 11 54 18.4 80 5.5 18.9-12 46.9-5 62-4.3L543 416c-24.3-10-51-2.9-73.9 6.3C438 435 409 411 379 408" id="path4165" fill="#0092da"/>
 <path d="m199 220c-20.6-.1-40.9 4.8-61 8-33.7.5-67 .4-101 2.5-5.7 4-2.5 11.9-3.3 17.9C33.5 325 33.5 401 33.5 477c1.6 7.7 10.8 4.4 16.4 5.1C126 482 201 482 277 482c11-8.7.6-28.3 2.8-41C276 388 275 336 266 284 262 262 254 236 232 226 222 221 210 220 199 220" id="path4167" opacity=".8" fill="#0092da" isolation="auto" color-rendering="auto" white-space="normal" solid-opacity="1" mix-blend-mode="normal" color-interpolation-filters="linearRGB" shape-rendering="auto" image-rendering="auto" color-interpolation="sRGB" color="#000000" solid-color="#000000"/>
</svg>
