<?xml version="1.0" encoding="UTF-8" standalone="no"?>
<svg xmlns="http://www.w3.org/2000/svg" version="1.0" width="580" height="580">
 <metadata id="metadata10"/>
 <path d="M140 37C137 37 134 38 132 40L72 96C67 101 67 109 73 114L234 252 230 279 72 414C66.8 419 67 427 71.8 432L131 488C137 493 145 492 149 486L208 406 185 541 185 541C185 541 185 541 185 541L185 544 381 544C384 545 375 473 365 396L431 486C435 492 443 493 449 488L508 432C513 427 513 419 508 414L349 278C347 268 346 260 345 252L507 114C513 109 513 101 508 96L448 40C443 35 434 36.5 430 41.7L312 203 291 190 268 204 150 41.7C147 38.5 143 36.9 140 37z" id="path4150" mix-blend-mode="normal" solid-color="#000000" opacity=".8" color-interpolation-filters="linearRGB" filter-gaussianBlur-deviation="0" color="#000000" image-rendering="auto" color-rendering="auto" stroke-width="64" isolation="auto" color-interpolation="sRGB" solid-opacity="1" fill="none" stroke-linejoin="round" filter-blend-mode="normal" stroke="#ffffff" shape-rendering="auto"/>
 <path id="path4148" d="m185 541l54.9-320 50.9-30.4 50 31.4c0 0 45.9 324 40 322-5.3-2.6-195 1.3-196-2.6" fill="#ffffff" fill-rule="evenodd"/>
 <path id="path4162" d="m240 220l50.9-30.4 50 31.4c0 0 45.9 324 40 322l-196-.2z" opacity=".5" fill="#734a08" fill-rule="evenodd"/>
 <path d="m185 541l54.9-320 50.9-30.4 50 31.4c0 0 45.9 324 40 322-5.3-2.6-195 1.3-196-2.6" id="path3457-1" fill="#ffffff" fill-rule="evenodd"/>
 <path d="m185 541l54.9-320 50.9-30.4 50 31.4c0 0 45.9 324 40 322-5.3-2.6-195 1.3-196-2.6" id="path3457" opacity=".5" fill="#734a08" fill-rule="evenodd"/>
 <path white-space="normal" isolation="auto" mix-blend-mode="normal" id="path4164" d="M132 40L72 96c-5.2 4.9-5.1 13.3.4 18L248 263 72 414c-5.5 4.7-5.6 13-.4 18l59 55.7c5.3 4.9 13.7 4.2 18-1.7l140-192 141 191c4.3 5.8 12.7 6.6 18 1.7l59-55.7c5.2-4.9 5.1-13.3-.4-18L332 263 507 114c5.5-4.7 5.6-13 .4-18l-59-56c-5.6-4.8-13.9-3.6-18 1.7L290 233 150 41.7c-4.8-5.7-12.9-6.2-18-1.6m166 224l-7.6 7.4-7.6-7.4 7.6-7.4z" fill="#734a08" color-rendering="auto" solid-opacity="1" color-interpolation-filters="linearRGB" shape-rendering="auto" fill-rule="evenodd" image-rendering="auto" color-interpolation="sRGB" color="#000000" solid-color="#000000"/>
</svg>
