<?xml version="1.0" encoding="UTF-8" standalone="no"?>
<svg xmlns="http://www.w3.org/2000/svg" version="1.0" width="580" height="580">
 <metadata id="metadata2975"/>
 <path d="M289 68C287 68 286 68 284 68.9L40.7 198C33.9 202 32.7 211 38 216 56 242 60 238 85 228L85 501C85 507 90 512 97 512L127 512C133 512 138 507 138 501 138 397 138 325 138 207L146 204 290 187 433 204 439 206C439 304 439 403 439 501 439 507 444 512 450 512L481 512C487 512 492 507 492 501L492 227C524 241 519 241 542 217 547 212 546 203 539 199L295 68.8C293 68 291 68 289 68zM303 256C302 256 301 256 299 257L288 257C278 263 268 276 274 289 279 300 291 313 282 325 278 331 267 338 280 336 285 335 291 338 295 333 305 326 311 313 304 302 299 291 289 279 297 268 300 262 310 256 303 256zM238 286C237 286 237 286 236 286L224 286C234 294 242 308 234 319 228 329 220 341 227 353 232 359 238 368 247 366 250 365 261 367 257 364 247 357 241 342 250 331 256 321 263 310 256 299 252 293 246 286 238 286zM334 286C333 286 332 286 332 286L320 286C330 294 338 308 329 319 324 329 315 341 323 353 327 359 334 368 343 366 345 365 357 367 353 364 343 357 337 342 346 331 351 321 358 310 351 299 347 293 342 286 334 286zM375 384C374 384 374 384 374 384L200 384C196 389 202 402 195 403 184 402 169 405 166 418 166 431 181 437 193 436 199 434 198 439 198 444 197 460 199 476 209 489 221 506 242 514 262 512 285 512 309 513 332 512 361 509 384 481 382 452L382 436C393 436 407 436 413 424 418 411 402 402 391 403 388 402 380 405 382 399 381 393 385 384 375 384z" id="path4158" mix-blend-mode="normal" solid-color="#000000" white-space="normal" color-interpolation-filters="linearRGB" opacity=".8" filter-gaussianBlur-deviation="0" color="#000000" image-rendering="auto" color-rendering="auto" stroke-width="64" isolation="auto" color-interpolation="sRGB" solid-opacity="1" fill="none" stroke-linejoin="round" filter-blend-mode="normal" stroke="#ffffff" shape-rendering="auto"/>
 <path d="m288 257c-10.4 6.5-20 19.7-13.6 32 4.8 11 16.5 23.7 7.7 36-3.9 6.3-15.4 13-2.3 11 5.2-.7 11.6 2 15.3-3 9.7-6.9 15.7-20.4 8.8-31-5.2-10.2-15.3-22.4-6.9-33.8 3.9-6.3 15.4-13 2.3-11l-11.5 0m-64 29.7c10 7.3 18.2 21 9.9 32.9-5.6 9.9-14 22-6.8 33 4.6 6.6 10.8 15 19.9 13 2.8-.8 14 1.7 10.5-1.5-10.6-7.6-15.9-22.4-7.1-33.5 5.5-9.2 12.3-21 5.5-31-4.5-6.7-10.9-14.7-19.9-12.9l-12.2 0m96 0c10 7.3 18.2 21 9.9 32.9-5.6 9.9-14 22-6.8 33 4.6 6.6 10.8 15 19.9 13 2.8-.8 14 1.7 10.5-1.5-10.6-7.6-15.9-22.4-7.1-33.5 5.5-9.2 12.3-21 5.5-31-4.5-6.7-10.9-14.7-19.9-12.9l-12.2 0M200 384c-3.9 5.1 2.1 18.2-4.6 18.9-11-.6-26.4 2.2-29 14.9-.6 13.6 15.2 19.8 26.7 18.5 6.4-2 5.2 3.4 5.1 7.8-.7 15.9.9 32.7 11.3 45.5 11.9 16.7 32.9 24.4 52.9 22.9 23-.3 46 .6 70-.5 29-3 52-31 49.8-60l0-15.5c11.3.4 25.6.1 31-11.7 5.1-12.9-10.5-22.6-21.8-21.7-3.5-.9-11.2 2.5-9.4-3.6-.5-6.4 3.1-16-8.1-15.3l-174 0" id="path7057-2" fill="#0092da" isolation="auto" color-rendering="auto" white-space="normal" solid-opacity="1" mix-blend-mode="normal" color-interpolation-filters="linearRGB" shape-rendering="auto" fill-rule="evenodd" image-rendering="auto" color-interpolation="sRGB" color="#000000" solid-color="#000000"/>
 <path id="path4153" d="M284 68.9L40.7 198c-6.8 3.6-8 12.7-2.7 18 18.3 25.5 22 21.5 47 11.3l0 273c0 6.3 5 11.4 11.4 11.4l30.4 0c6.3 0 11.4-5.1 11.4-11.4 0-104-.1-176-.1-294l8-3.2 144-17 144 17.2 5.8 2.3c-.6 98-.3 197-.3 295 0 6.3 5 11.4 11.4 11.4l30.4 0c6.3 0 11.3-5.1 11.4-11.4l0-273c32 13.5 26.6 13.3 49.9-10.5 5.3-5.4 4-14.4-2.7-18L295 68.8c-3.4-1.6-7.4-1.8-10.4.1" fill="#0092da" fill-rule="evenodd"/>
</svg>
