<?xml version="1.0" encoding="UTF-8" standalone="no"?>
<svg xmlns="http://www.w3.org/2000/svg" version="1.0" width="580" height="580">
 <metadata id="metadata2975"/>
 <path d="M224 34.5C224 34.5 223 34.5 222 34.5 183 33.9 151 76 161 114 167 144 198 168 229 164 249 162 268 150 279 133 288 129 300 136 308 129 315 124 320 111 328 113 333 117 337 125 343 124 350 121 356 106 363 117 366 122 373 128 378 122 383 112 391 110 397 120 402 126 408 125 413 119 420 112 428 105 432 96 432 87 425 82 418 76 406 63.9 396 67 384 67 349 66 311 67.9 279 66 265 46 248 34.8 224 34.5zM198 84C198 84 199 84 200 84L200 84C213 85 220 107 206 114 195 121 178 112 181 98 183 89 190 84 198 84zM287 165C286 165 284 165 283 166L75 276C69 280 67.9 287 73 292 88 314 91 310 113 301L113 535C113 540 117 545 122 545L148 545C154 545 158 540 158 535 158 446 158 385 158 284L165 281 288 266 410 281 415 283C415 367 415 451 415 535 415 540 419 545 425 545L451 545C456 545 460 540 461 535L461 301C488 313 483 313 503 292 508 288 507 280 501 277L292 166C290 165 289 165 287 165zM299 326C298 326 297 326 296 326L286 326C277 332 269 343 275 354 279 363 289 374 281 385 278 390 268 396 279 394 284 393 289 396 292 392 300 386 306 374 300 365 295 356 287 346 294 336 297 331 305 326 299 326zM244 352C243 352 242 352 242 352L231 352C240 358 247 370 240 380 235 388 228 399 234 408 238 414 243 421 251 419 253 419 263 421 260 418 251 412 246 399 254 390 259 382 264 372 259 363 255 358 251 352 244 352zM326 352C325 352 324 352 323 352L313 352C322 358 329 370 322 380 317 388 310 399 316 408 320 414 325 421 333 419 335 419 345 421 342 418 333 412 328 399 336 390 340 382 346 372 340 363 337 358 332 352 326 352zM361 435C360 435 360 435 359 435L211 435C207 439 212 450 207 451 197 451 184 453 182 464 181 475 195 481 205 480 210 478 209 482 209 486 209 500 210 514 219 525 229 539 247 546 264 545 284 544 304 545 324 544 349 542 368 518 366 493L366 480C376 480 388 480 393 470 397 459 384 450 374 451 371 450 365 453 366 448 366 443 368 435 361 435z" id="path4152" mix-blend-mode="normal" solid-color="#000000" white-space="normal" color-interpolation-filters="linearRGB" opacity=".8" filter-gaussianBlur-deviation="0" color="#000000" image-rendering="auto" color-rendering="auto" stroke-width="64" isolation="auto" color-interpolation="sRGB" solid-opacity="1" fill="none" stroke-linejoin="round" filter-blend-mode="normal" stroke="#ffffff" shape-rendering="auto"/>
 <path d="m286 326c-8.9 5.5-17.3 16.8-11.6 27.5 4.1 9.5 14 20.3 6.6 30.7-3.3 5.4-13.2 11.2-2 9.5 4.4-.6 9.9 1.7 13-2.5 8.3-5.9 13.4-17.4 7.5-26.8-4.5-8.8-13-19-5.9-28.9 3.3-5.4 13.2-11.2 2-9.5l-9.8 0m-54.7 25.4c8.6 6.3 15.6 18 8.4 28-4.8 8.5-12 18.8-5.8 28.4 4 5.7 9.2 12.8 17 11.2 2.4-.7 12 1.4 9-1.3-9-6.5-13.6-19-6.1-28.7 4.7-7.9 10.5-17.9 4.7-26.8-3.9-5.8-9.3-12.6-17-11l-10.4 0m82 0c8.6 6.3 15.6 18 8.4 28-4.8 8.5-12 18.8-5.8 28.4 4 5.7 9.2 12.8 17 11.2 2.4-.7 12 1.4 9-1.3-9-6.5-13.6-19-6.1-28.7 4.7-7.9 10.5-17.9 4.7-26.8-3.9-5.8-9.3-12.6-17-11l-10.4 0m-102 83c-3.3 4.4 1.8 15.6-3.9 16-9.5-.5-22.6 1.9-24.8 12.7-.5 11.6 13 16.9 22.9 15.8 5.4-1.7 4.5 2.9 4.4 6.7-.6 13.6.8 27.9 9.7 38.9 10.2 14.3 28 20.9 45 19.6 19.8-.2 39.6.5 59-.4 25-2.5 44-26.7 42.6-52l0-13.3c9.7.4 21.9.1 26.7-10 4.3-11-8.9-19.3-18.6-18.5-3-.7-9.5 2.2-8-3-.4-5.4 2.7-13.7-6.9-13l-149 0" id="path7057-2" fill="#0092da" isolation="auto" color-rendering="auto" white-space="normal" solid-opacity="1" mix-blend-mode="normal" color-interpolation-filters="linearRGB" shape-rendering="auto" fill-rule="evenodd" image-rendering="auto" color-interpolation="sRGB" color="#000000" solid-color="#000000"/>
 <path d="m222 34.5c-38.7-.6-71 41-61 79 6.5 30 37 54.9 69 50 19.9-1.9 38.6-13.7 49-30.7 9.4-4.4 21 2.7 29.8-4.4 6.8-4.3 11.5-17.8 20-15.3 4.8 3.2 8 11.9 14.8 10.5 6.9-3.2 12.7-18.2 19.4-6.4 3.4 4.2 10.2 10.5 15 4.2 5.7-9.3 13.7-12 19.8-1.5 4.4 5.6 10.3 4.4 15.7-1 6.9-7.2 15-14.2 19-23.3-.5-9.4-6.9-13.4-14.2-19.9C406 63.9 396 67 384 67 349 66 311 67.9 279 66 264 45 247 34 222 34.5M200 84c14 1.3 20 23.4 6.9 30.7-11 7-28-2.3-25.5-16 2.3-10.5 10.2-15.3 18.6-14.5z" id="path2307-7" fill="#0092da"/>
 <path id="path4153" d="M283 166L75 276c-5.8 3.1-6.9 10.9-2.3 15.3 15.6 21.8 18.9 18.3 40 9.6l0 233c0 5.4 4.3 9.8 9.8 9.8l26 0c5.4 0 9.8-4.4 9.8-9.8 0-89-.1-150-.1-251l6.9-2.7 123-14.6 123 14.7 4.9 2c-.5 84-.2 168-.2 252 0 5.4 4.3 9.8 9.8 9.8l26 0c5.4 0 9.6-4.4 9.8-9.8l0-233c27.5 11.6 22.7 11.4 42.6-9 4.5-4.6 3.4-12.3-2.3-15.3L292 166c-2.9-1.4-6.3-1.5-8.9.1" fill="#0092da" fill-rule="evenodd"/>
</svg>
