<?xml version="1.0" encoding="UTF-8" standalone="no"?>
<svg xmlns="http://www.w3.org/2000/svg" version="1.0" width="580" height="580">
 <metadata id="metadata2975"/>
 <g id="g4143">
  <path id="path4136" d="M97 371C103 373 116 371 112 362 109 357 97 350 91 348 83 346 69 356 80 363L77 370C68 365 65.8 352 67 343 67 337 73 330 75 324 82 307 87 290 92 273 94 266 95 253 101 248 106 244 115 243 121 240 126 238 129 233 134 232 145 228 155 229 160 218 171 234 180 249 182 269 183 284 174 298 170 312 168 322 169 331 166 341 163 353 157 364 154 375 152 383 154 391 152 397 148 409 125 417 128 432 129 439 137 440 143 442 157 444 171 443 185 441 189 440 194 441 198 437 206 429 196 413 199 403 201 396 208 390 211 384 219 370 225 355 229 340L231 340C231 353 234 370 239 382 243 390 251 401 251 410 250 425 228 434 239 452 249 469 275 451 288 448 296 447 306 449 309 440 314 428 304 416 302 404 300 391 303 377 300 364 299 354 291 343 291 333 291 326 296 318 297 311L341 331 360 342C360 352 360 364 361 373 362 378 366 382 365 387 363 396 340 406 345 416 348 421 356 423 361 424 375 428 410 433 420 420 425 415 424 405 424 399 424 381 426 363 422 347 437 356 440 374 448 389 450 395 456 403 454 409 451 418 423 433 436 445 440 449 446 449 451 450 464 454 504 461 511 443 516 427 515 398 511 381 508 371 503 363 502 352 501 343 508 333 508 324 509 310 505 298 505 286 505 277 507 269 507 260 520 294 507 330 516 364 517 369 518 397 528 394 531 393 533 387 532 384 529 370 523 358 523 343 523 336 526 329 527 321 531 279 538 219 502 188 485 174 468 164 450 152 436 143 421 133 405 129 392 127 379 130 367 130 340 129 313 123 286 121 274 120 261 122 249 120 222 115 203 95 176 88 168 86 154 87 145 89 137 90 133 96 127 100 109 113 85 134 75 154 68.8 167 68 183 64 197 59 216 47.6 233 44 253 40.9 275 46 297 46 319 46 335 37 355 42.8 371 50.9 393 94 400 97 371z" fill="none" mix-blend-mode="normal" solid-color="#000000" opacity=".8" color-interpolation-filters="linearRGB" filter-gaussianBlur-deviation="0" color="#000000" image-rendering="auto" color-rendering="auto" stroke-width="64" isolation="auto" color-interpolation="sRGB" solid-opacity="1" stroke-linejoin="round" filter-blend-mode="normal" stroke="#ffffff" shape-rendering="auto"/>
  <path fill="#734a08" d="M97 371C103 373 116 371 112 362 109 357 97 350 91 348 83 346 69 356 80 363L77 370C68 365 65.8 352 67 343 67 337 73 330 75 324 82 307 87 290 92 273 94 266 95 253 101 248 106 244 115 243 121 240 126 238 129 233 134 232 145 228 155 229 160 218 171 234 180 249 182 269 183 284 174 298 170 312 168 322 169 331 166 341 163 353 157 364 154 375 152 383 154 391 152 397 148 409 125 417 128 432 129 439 137 440 143 442 157 444 171 443 185 441 189 440 194 441 198 437 206 429 196 413 199 403 201 396 208 390 211 384 219 370 225 355 229 340L231 340C231 353 234 370 239 382 243 390 251 401 251 410 250 425 228 434 239 452 249 469 275 451 288 448 296 447 306 449 309 440 314 428 304 416 302 404 300 391 303 377 300 364 299 354 291 343 291 333 291 326 296 318 297 311L341 331 360 342C360 352 360 364 361 373 362 378 366 382 365 387 363 396 340 406 345 416 348 421 356 423 361 424 375 428 410 433 420 420 425 415 424 405 424 399 424 381 426 363 422 347 437 356 440 374 448 389 450 395 456 403 454 409 451 418 423 433 436 445 440 449 446 449 451 450 464 454 504 461 511 443 516 427 515 398 511 381 508 371 503 363 502 352 501 343 508 333 508 324 509 310 505 298 505 286 505 277 507 269 507 260 520 294 507 330 516 364 517 369 518 397 528 394 531 393 533 387 532 384 529 370 523 358 523 343 523 336 526 329 527 321 531 279 538 219 502 188 485 174 468 164 450 152 436 143 421 133 405 129 392 127 379 130 367 130 340 129 313 123 286 121 274 120 261 122 249 120 222 115 203 95 176 88 168 86 154 87 145 89 137 90 133 96 127 100 109 113 85 134 75 154 68.8 167 68 183 64 197 59 216 47.6 233 44 253 40.9 275 46 297 46 319 46 335 37 355 42.8 371 50.9 393 94 400 97 371" id="path6"/>
 </g>
</svg>
